<?xml version="1.0" encoding="utf-8"?>
<!-- Generator: Adobe Illustrator 21.1.0, SVG Export Plug-In . SVG Version: 6.00 Build 0)  -->
<svg version="1.1" id="Layer_1" xmlns="http://www.w3.org/2000/svg" xmlns:xlink="http://www.w3.org/1999/xlink" x="0px" y="0px"
	 viewBox="0 0 231.2 15.2" style="enable-background:new 0 0 231.2 15.2;" xml:space="preserve">
<style type="text/css">
	.st0{fill:#13808A;}
	.st1{fill:#003A54;}
	.st2{fill:#09B2B6;}
	.st3{fill:#166B92;}
	.st4{fill:#FFFFFF;}
	.st5{fill:none;stroke:#FFFFFF;stroke-miterlimit:10;}
</style>
<g>
	<polygon class="st0" points="13.2,6.5 8,6.5 10.4,1 13.2,1 	"/>
	<polygon class="st1" points="16.3,14.9 4.5,14.9 7.7,7.3 16.3,7.3 	"/>
	<polygon class="st2" points="8,6.5 0,6.5 0,1 10.4,1 	"/>
	<polygon class="st3" points="4.5,14.9 0,14.9 0,7.3 7.7,7.3 	"/>
</g>
<g>
	<path class="st4" d="M22.9,2.2h4.5c1.2,0,2.2,0.3,2.8,0.9c0.7,0.6,1,1.3,1,2.2c0,1.3-0.8,2.2-2.3,2.6c0.8,0.1,1.4,0.5,1.9,1
		c0.5,0.6,0.7,1.2,0.7,1.9c0,0.9-0.4,1.7-1.1,2.2c-0.7,0.6-1.6,0.9-2.8,0.9h-4.7C22.9,13.9,22.9,2.2,22.9,2.2z M24.8,3.7v3.5h2.4
		c0.6,0,1.1-0.2,1.5-0.5s0.5-0.7,0.5-1.3s-0.2-1-0.5-1.3c-0.4-0.3-0.9-0.5-1.5-0.5h-2.4V3.7z M24.8,12.5h2.6c0.7,0,1.2-0.2,1.5-0.5
		c0.4-0.3,0.6-0.8,0.6-1.4c0-0.6-0.2-1-0.6-1.4S28,8.7,27.4,8.7h-2.5v3.8H24.8z"/>
	<path class="st4" d="M34.8,9.7V2.2h1.9v7.5c0,0.9,0.2,1.6,0.7,2s1.1,0.7,2,0.7c0.8,0,1.5-0.2,2-0.7s0.7-1.1,0.7-2V2.2H44v7.5
		c0,1.4-0.4,2.5-1.3,3.3c-0.9,0.8-2,1.1-3.3,1.1S37,13.7,36.1,13C35.3,12.2,34.8,11.1,34.8,9.7z"/>
	<path class="st4" d="M47.9,14V2.2h1.9V14H47.9z"/>
	<path class="st4" d="M53.6,2.2h1.9v10.3h4V14h-5.9V2.2z"/>
	<path class="st4" d="M66.3,2.2c1.9,0,3.4,0.5,4.6,1.6c1.1,1.1,1.7,2.5,1.7,4.3s-0.6,3.3-1.7,4.3S68.2,14,66.3,14h-3.9V2.2H66.3z
		 M64.4,12.5h1.9c1.4,0,2.4-0.4,3.2-1.2s1.1-1.9,1.1-3.2c0-1.4-0.4-2.4-1.1-3.2s-1.8-1.2-3.2-1.2h-1.9V12.5z"/>
	<path class="st4" d="M81.2,14.1c-1.7,0-3.1-0.6-4.3-1.7s-1.8-2.6-1.8-4.3s0.6-3.2,1.8-4.3S79.5,2,81.2,2s3.1,0.6,4.3,1.7
		c1.2,1.1,1.7,2.6,1.7,4.3s-0.6,3.2-1.7,4.3C84.3,13.5,82.9,14.1,81.2,14.1z M81.2,12.3c1.2,0,2.2-0.4,2.9-1.2
		c0.8-0.8,1.1-1.8,1.1-3.1s-0.4-2.3-1.1-3s-1.7-1.2-2.9-1.2C80,3.8,79,4.2,78.3,5c-0.8,0.8-1.1,1.8-1.1,3.1s0.4,2.3,1.1,3.1
		S80,12.3,81.2,12.3z"/>
	<path class="st4" d="M94.1,3.6c-0.6,0-1,0.1-1.4,0.4s-0.5,0.7-0.5,1.3s0.2,1,0.6,1.3s1,0.5,1.6,0.6s1.2,0.3,1.8,0.5s1.1,0.5,1.6,1
		c0.4,0.5,0.6,1.2,0.6,2c0,0.9-0.4,1.7-1.1,2.3c-0.7,0.7-1.7,1-3,1s-2.2-0.3-3-0.9s-1.2-1.4-1.2-2.4h2.1c0,0.5,0.2,0.9,0.6,1.2
		s0.8,0.5,1.5,0.5s1.2-0.2,1.6-0.5s0.6-0.7,0.6-1.2s-0.2-0.7-0.4-1s-0.5-0.5-0.9-0.6C94.8,9,94.4,8.9,94,8.8
		c-0.4-0.1-0.9-0.2-1.3-0.4c-0.4-0.1-0.9-0.3-1.2-0.5c-0.5-0.2-0.8-0.5-1-0.9s-0.4-1-0.4-1.6c0-1,0.4-1.9,1.1-2.5
		C92,2.3,92.9,2,94.1,2s2.1,0.3,2.8,0.8s1.1,1.3,1.2,2.4H96c0-0.5-0.2-0.8-0.6-1.1C95.1,3.7,94.6,3.6,94.1,3.6z"/>
</g>
<line class="st5" x1="106.5" y1="0" x2="106.5" y2="15.2"/>
<g>
	<path class="st4" d="M122.8,14.1l-0.8-2.4H117l-0.9,2.4h-2l4.2-11.8h2.2l4.2,11.8H122.8z M117.5,10.2h3.9l-1.9-5.6L117.5,10.2z"/>
	<path class="st4" d="M127.3,12.9c-0.9-0.9-1.3-2.1-1.3-3.5c0-1.4,0.4-2.6,1.3-3.5c0.8-0.9,1.9-1.3,3.2-1.3c0.7,0,1.4,0.2,1.9,0.5
		c0.6,0.3,1,0.8,1.3,1.3V1.5h2v12.6h-2v-1.8c-0.3,0.6-0.8,1-1.3,1.4c-0.6,0.3-1.2,0.5-1.9,0.5C129.2,14.2,128.1,13.8,127.3,12.9z
		 M132.8,11.7c0.6-0.6,0.8-1.3,0.8-2.3c0-1-0.3-1.7-0.8-2.3c-0.6-0.6-1.2-0.8-2-0.8s-1.4,0.3-2,0.8c-0.6,0.6-0.8,1.3-0.8,2.3
		c0,1,0.3,1.7,0.8,2.3c0.6,0.6,1.2,0.9,2,0.9S132.3,12.3,132.8,11.7z"/>
	<path class="st4" d="M140.1,4.7v1.5c0.6-1.1,1.6-1.6,3-1.6c0.7,0,1.4,0.2,1.9,0.5c0.6,0.3,1,0.8,1.3,1.5c0.3-0.6,0.8-1.1,1.4-1.5
		c0.6-0.4,1.2-0.5,2-0.5c1.1,0,2,0.3,2.7,1s1,1.7,1,2.9v5.5h-1.9V8.8c0-0.8-0.2-1.5-0.6-1.9c-0.4-0.4-1-0.7-1.7-0.7
		c-0.7,0-1.3,0.2-1.7,0.7c-0.4,0.4-0.6,1.1-0.6,1.9v5.2h-1.9V8.8c0-0.8-0.2-1.5-0.6-1.9c-0.4-0.4-1-0.7-1.7-0.7
		c-0.7,0-1.3,0.2-1.7,0.7c-0.4,0.4-0.6,1.1-0.6,1.9v5.2h-1.9V4.7H140.1z"/>
	<path class="st4" d="M158,2.2c0,0.4-0.1,0.6-0.4,0.9s-0.5,0.4-0.9,0.4c-0.3,0-0.6-0.1-0.9-0.4s-0.4-0.5-0.4-0.9
		c0-0.4,0.1-0.6,0.4-0.9c0.2-0.2,0.5-0.4,0.9-0.4c0.3,0,0.6,0.1,0.9,0.4C157.9,1.6,158,1.9,158,2.2z M155.8,14.1V4.7h1.9v9.4H155.8z
		"/>
	<path class="st4" d="M162.3,4.7v1.5c0.6-1.1,1.6-1.6,3-1.6c1.1,0,1.9,0.4,2.6,1.1s1,1.7,1,2.9v5.5H167V8.8c0-0.8-0.2-1.5-0.6-1.9
		c-0.4-0.4-1-0.7-1.7-0.7c-0.7,0-1.3,0.2-1.7,0.7c-0.4,0.4-0.6,1.1-0.6,1.9v5.2h-1.9V4.7H162.3z"/>
	<path class="st4" d="M173.6,2.2c0,0.4-0.1,0.6-0.4,0.9s-0.5,0.4-0.9,0.4c-0.3,0-0.6-0.1-0.9-0.4s-0.4-0.5-0.4-0.9
		c0-0.4,0.1-0.6,0.4-0.9c0.2-0.2,0.5-0.4,0.9-0.4c0.3,0,0.6,0.1,0.9,0.4C173.4,1.6,173.6,1.9,173.6,2.2z M171.4,14.1V4.7h1.9v9.4
		H171.4z"/>
	<path class="st4" d="M175.4,7.4c0-0.8,0.3-1.5,1-2c0.7-0.5,1.5-0.8,2.6-0.8s2,0.3,2.6,0.8c0.6,0.5,1,1.3,1,2.2h-2
		c0-0.5-0.2-0.8-0.5-1.1s-0.7-0.4-1.2-0.4s-0.9,0.1-1.2,0.3c-0.3,0.2-0.4,0.5-0.4,0.9s0.2,0.7,0.6,0.9c0.4,0.2,0.8,0.4,1.4,0.5
		c0.5,0.1,1.1,0.2,1.6,0.4c0.5,0.1,1,0.4,1.4,0.8c0.4,0.4,0.6,0.9,0.6,1.6c0,0.8-0.3,1.5-1,2c-0.7,0.5-1.6,0.8-2.6,0.8
		c-1.1,0-1.9-0.3-2.6-0.8c-0.7-0.5-1-1.3-1.1-2.2h2c0,0.5,0.2,0.8,0.5,1.1c0.3,0.3,0.7,0.4,1.2,0.4s0.9-0.1,1.3-0.3s0.5-0.5,0.5-0.9
		c0-0.4-0.2-0.7-0.6-0.9c-0.4-0.2-0.8-0.4-1.4-0.5c-0.5-0.1-1.1-0.2-1.6-0.4s-1-0.4-1.4-0.8S175.4,8,175.4,7.4z"/>
	<path class="st4" d="M189.5,6.3h-2.3v5.2c0,0.4,0.1,0.6,0.2,0.8c0.2,0.2,0.4,0.2,0.8,0.2h1.2v1.6h-1.5c-1.8,0-2.7-0.9-2.7-2.6V6.3
		h-1.1V4.7h1.1V2.4h2v2.3h2.3V6.3z"/>
	<path class="st4" d="M193.2,4.7v1.6c0.6-1.2,1.5-1.8,2.8-1.8v2h-0.5c-0.8,0-1.3,0.2-1.7,0.6c-0.4,0.4-0.6,1.1-0.6,2v4.9h-1.9V4.7
		H193.2z"/>
	<path class="st4" d="M198.4,12.9c-0.9-0.9-1.3-2.1-1.3-3.5c0-1.4,0.4-2.6,1.3-3.5c0.8-0.9,1.9-1.3,3.2-1.3c0.7,0,1.4,0.2,1.9,0.5
		c0.6,0.3,1,0.8,1.3,1.3V4.7h2v9.4h-2v-1.8c-0.3,0.6-0.8,1-1.3,1.4c-0.6,0.3-1.2,0.5-1.9,0.5C200.3,14.2,199.3,13.8,198.4,12.9z
		 M204,11.7c0.6-0.6,0.8-1.3,0.8-2.3c0-1-0.3-1.7-0.8-2.3c-0.6-0.6-1.2-0.8-2-0.8s-1.4,0.3-2,0.8c-0.6,0.6-0.8,1.3-0.8,2.3
		c0,1,0.3,1.7,0.8,2.3c0.6,0.6,1.2,0.9,2,0.9S203.4,12.3,204,11.7z"/>
	<path class="st4" d="M213.8,6.3h-2.3v5.2c0,0.4,0.1,0.6,0.2,0.8c0.2,0.2,0.4,0.2,0.8,0.2h1.2v1.6h-1.5c-1.8,0-2.7-0.9-2.7-2.6V6.3
		h-1.1V4.7h1.1V2.4h2v2.3h2.3V6.3z"/>
	<path class="st4" d="M219.7,14.2c-1.4,0-2.5-0.4-3.4-1.3c-0.9-0.9-1.3-2.1-1.3-3.5s0.5-2.6,1.4-3.5s2-1.3,3.4-1.3
		c1.4,0,2.5,0.4,3.4,1.3c0.9,0.9,1.4,2.1,1.4,3.5c0,1.4-0.5,2.6-1.4,3.5C222.2,13.8,221.1,14.2,219.7,14.2z M221.7,11.8
		c0.6-0.6,0.8-1.4,0.8-2.4c0-1-0.3-1.8-0.8-2.4c-0.5-0.6-1.2-0.8-2-0.8c-0.8,0-1.4,0.3-2,0.8c-0.5,0.6-0.8,1.3-0.8,2.4
		c0,1,0.3,1.8,0.8,2.4c0.5,0.6,1.2,0.8,1.9,0.8S221.1,12.3,221.7,11.8z"/>
	<path class="st4" d="M228.4,4.7v1.6c0.6-1.2,1.5-1.8,2.8-1.8v2h-0.5c-0.8,0-1.3,0.2-1.7,0.6c-0.4,0.4-0.6,1.1-0.6,2v4.9h-1.9V4.7
		H228.4z"/>
</g>
</svg>
