<?xml version="1.0" encoding="utf-8"?>
<!-- Generator: Adobe Illustrator 24.1.3, SVG Export Plug-In . SVG Version: 6.00 Build 0)  -->
<svg version="1.1" id="Layer_1" xmlns="http://www.w3.org/2000/svg" xmlns:xlink="http://www.w3.org/1999/xlink" x="0px" y="0px"
	 viewBox="0 0 169.3 15" style="enable-background:new 0 0 169.3 15;" xml:space="preserve">
<style type="text/css">
	.st0{fill:#9E7280;}
	.st1{fill:#7F5B65;}
	.st2{fill:#E89EB7;}
	.st3{fill:#B27685;}
	.st4{fill:#FFFFFF;}
</style>
<polygon class="st0" points="17.7,6 8.4,6 11,0 17.7,0 "/>
<polygon class="st1" points="17.7,15 4.9,15 8.3,6.9 17.7,6.9 "/>
<polygon class="st2" points="8.6,6 0,6 0,0 11.2,0 "/>
<polygon class="st3" points="4.9,15 0,15 0,6.9 8.3,6.9 "/>
<g>
	<path class="st4" d="M21.7,7.7L21.7,7.7c0-4.1,3.1-7.2,7.2-7.2c2.8,0,4.6,1.2,5.8,2.9l-2.9,2.2c-0.8-1-1.7-1.6-3-1.6
		c-1.9,0-3.3,1.7-3.3,3.7v0c0,2.1,1.4,3.7,3.3,3.7c1.4,0,2.3-0.7,3.1-1.7l2.9,2c-1.3,1.8-3.1,3.1-6.1,3.1
		C24.9,14.8,21.7,11.8,21.7,7.7z"/>
	<path class="st4" d="M36.5,0.8h6.5c2.1,0,3.6,0.6,4.5,1.5c0.8,0.8,1.2,1.9,1.2,3.2v0c0,2.1-1.1,3.5-2.8,4.3l3.3,4.8h-4.4l-2.8-4.2
		h-1.7v4.2h-3.8V0.8z M42.9,7.4c1.3,0,2-0.6,2-1.6v0c0-1.1-0.8-1.7-2.1-1.7h-2.5v3.3H42.9z"/>
	<path class="st4" d="M50.2,7.7L50.2,7.7c0-4,3.2-7.2,7.4-7.2c4.3,0,7.4,3.2,7.4,7.1v0c0,4-3.2,7.2-7.4,7.2
		C53.4,14.8,50.2,11.7,50.2,7.7z M61.2,7.7L61.2,7.7c0-2-1.4-3.8-3.5-3.8c-2.1,0-3.5,1.7-3.5,3.7v0c0,2,1.4,3.7,3.5,3.7
		C59.8,11.4,61.2,9.7,61.2,7.7z"/>
	<path class="st4" d="M65.3,0.8h4l2.4,8l2.7-8h3.3l2.7,8l2.4-8h4l-4.6,13.9h-3.3L76,6.7l-2.8,7.9h-3.3L65.3,0.8z"/>
	<path class="st4" d="M88.2,0.8h5.3c4.9,0,7.8,2.8,7.8,6.8v0c0,4-2.9,6.9-7.8,6.9h-5.3V0.8z M92.1,4.2v7h1.6c2.3,0,3.8-1.3,3.8-3.5
		v0c0-2.2-1.5-3.5-3.8-3.5H92.1z"/>
	<path class="st4" d="M102.1,12.5l2.1-2.5c1.4,1.1,2.9,1.7,4.5,1.7c1,0,1.6-0.4,1.6-0.9v0c0-0.6-0.5-0.9-2.3-1.3
		c-2.9-0.7-5.2-1.5-5.2-4.3v0c0-2.6,2-4.4,5.3-4.4c2.3,0,4.2,0.6,5.7,1.8l-1.9,2.7c-1.3-0.9-2.6-1.4-3.9-1.4c-0.9,0-1.4,0.4-1.4,0.9
		v0c0,0.6,0.5,0.9,2.4,1.3c3.1,0.7,5.1,1.7,5.1,4.3v0c0,2.8-2.2,4.5-5.6,4.5C106.1,14.8,103.8,14,102.1,12.5z"/>
	<path class="st4" d="M116,0.8H127V4h-7.3v2.1h6.6v3h-6.6v2.2h7.4v3.2H116V0.8z"/>
	<path class="st4" d="M129.1,0.8h3.6l5.7,7.3V0.8h3.8v13.8h-3.3L132.9,7v7.6h-3.8V0.8z"/>
	<path class="st4" d="M143.5,12.5l2.1-2.5c1.4,1.1,2.9,1.7,4.5,1.7c1,0,1.6-0.4,1.6-0.9v0c0-0.6-0.5-0.9-2.3-1.3
		c-2.9-0.7-5.2-1.5-5.2-4.3v0c0-2.6,2-4.4,5.3-4.4c2.3,0,4.2,0.6,5.7,1.8l-1.9,2.7c-1.3-0.9-2.6-1.4-3.9-1.4c-0.9,0-1.4,0.4-1.4,0.9
		v0c0,0.6,0.5,0.9,2.4,1.3c3.1,0.7,5.1,1.7,5.1,4.3v0c0,2.8-2.2,4.5-5.6,4.5C147.5,14.8,145.2,14,143.5,12.5z"/>
	<path class="st4" d="M157.4,0.8h11.1V4h-7.3v2.1h6.6v3h-6.6v2.2h7.4v3.2h-11.2V0.8z"/>
</g>
</svg>
