<?xml version="1.0" encoding="utf-8"?>
<!-- Generator: Adobe Illustrator 21.1.0, SVG Export Plug-In . SVG Version: 6.00 Build 0)  -->
<svg version="1.1" id="Layer_1" xmlns="http://www.w3.org/2000/svg" xmlns:xlink="http://www.w3.org/1999/xlink" x="0px" y="0px"
	 viewBox="0 0 98.4 13.9" style="enable-background:new 0 0 98.4 13.9;" xml:space="preserve">
<style type="text/css">
	.st0{fill:#13808A;}
	.st1{fill:#003A54;}
	.st2{fill:#09B2B6;}
	.st3{fill:#166B92;}
	.st4{fill:#FFFFFF;}
</style>
<g>
	<polygon class="st0" points="13.2,5.5 8,5.5 10.4,0 13.2,0 	"/>
	<polygon class="st1" points="16.3,13.9 4.5,13.9 7.7,6.3 16.3,6.3 	"/>
	<polygon class="st2" points="8,5.5 0,5.5 0,0 10.4,0 	"/>
	<polygon class="st3" points="4.5,13.9 0,13.9 0,6.3 7.7,6.3 	"/>
</g>
<g>
	<path class="st4" d="M22.9,1.2h4.5c1.2,0,2.2,0.3,2.8,0.9c0.7,0.6,1,1.3,1,2.2c0,1.3-0.8,2.2-2.3,2.6c0.8,0.1,1.4,0.5,1.9,1
		c0.5,0.6,0.7,1.2,0.7,1.9c0,0.9-0.4,1.7-1.1,2.2c-0.7,0.6-1.6,0.9-2.8,0.9h-4.7V1.2z M24.8,2.7v3.5h2.4c0.6,0,1.1-0.2,1.5-0.5
		c0.4-0.3,0.5-0.7,0.5-1.3s-0.2-1-0.5-1.3c-0.4-0.3-0.9-0.5-1.5-0.5H24.8z M24.8,11.5h2.6c0.7,0,1.2-0.2,1.5-0.5
		c0.4-0.3,0.6-0.8,0.6-1.4c0-0.6-0.2-1-0.6-1.4S28,7.7,27.4,7.7h-2.5V11.5z"/>
	<path class="st4" d="M34.8,8.7V1.2h1.9v7.5c0,0.9,0.2,1.6,0.7,2s1.1,0.7,2,0.7c0.8,0,1.5-0.2,2-0.7c0.5-0.5,0.7-1.1,0.7-2V1.2h1.9
		v7.5c0,1.4-0.4,2.5-1.3,3.3c-0.9,0.8-2,1.1-3.3,1.1c-1.3,0-2.4-0.4-3.3-1.1C35.3,11.2,34.8,10.1,34.8,8.7z"/>
	<path class="st4" d="M47.9,13V1.2h1.9V13H47.9z"/>
	<path class="st4" d="M53.6,1.2h1.9v10.3h4V13h-5.9V1.2z"/>
	<path class="st4" d="M66.3,1.2c1.9,0,3.4,0.5,4.6,1.6c1.1,1.1,1.7,2.5,1.7,4.3c0,1.8-0.6,3.3-1.7,4.3c-1.1,1-2.7,1.6-4.6,1.6h-3.9
		V1.2H66.3z M64.4,11.5h1.9c1.4,0,2.4-0.4,3.2-1.2s1.1-1.9,1.1-3.2c0-1.4-0.4-2.4-1.1-3.2s-1.8-1.2-3.2-1.2h-1.9V11.5z"/>
	<path class="st4" d="M81.2,13.1c-1.7,0-3.1-0.6-4.3-1.7s-1.8-2.6-1.8-4.3s0.6-3.2,1.8-4.3S79.5,1,81.2,1c1.7,0,3.1,0.6,4.3,1.7
		c1.2,1.1,1.7,2.6,1.7,4.3s-0.6,3.2-1.7,4.3C84.3,12.5,82.9,13.1,81.2,13.1z M81.2,11.3c1.2,0,2.2-0.4,2.9-1.2
		c0.8-0.8,1.1-1.8,1.1-3.1S84.8,4.7,84.1,4s-1.7-1.2-2.9-1.2C80,2.8,79,3.2,78.3,4c-0.8,0.8-1.1,1.8-1.1,3.1s0.4,2.3,1.1,3.1
		C79,11,80,11.3,81.2,11.3z"/>
	<path class="st4" d="M94.1,2.6c-0.6,0-1,0.1-1.4,0.4c-0.4,0.3-0.5,0.7-0.5,1.3c0,0.6,0.2,1,0.6,1.3s1,0.5,1.6,0.6s1.2,0.3,1.8,0.5
		s1.1,0.5,1.6,1c0.4,0.5,0.6,1.2,0.6,2c0,0.9-0.4,1.7-1.1,2.3c-0.7,0.7-1.7,1-3,1s-2.2-0.3-3-0.9s-1.2-1.4-1.2-2.4h2.1
		c0,0.5,0.2,0.9,0.6,1.2s0.8,0.5,1.5,0.5s1.2-0.2,1.6-0.5s0.6-0.7,0.6-1.2S96.3,9,96.1,8.7s-0.5-0.5-0.9-0.6
		c-0.4-0.1-0.8-0.2-1.2-0.3c-0.4-0.1-0.9-0.2-1.3-0.4c-0.4-0.1-0.9-0.3-1.2-0.5C91,6.7,90.7,6.4,90.5,6S90.1,5,90.1,4.4
		c0-1,0.4-1.9,1.1-2.5C92,1.3,92.9,1,94.1,1s2.1,0.3,2.8,0.8s1.1,1.3,1.2,2.4H96c0-0.5-0.2-0.8-0.6-1.1C95.1,2.7,94.6,2.6,94.1,2.6z
		"/>
</g>
</svg>