<?xml version="1.0" encoding="utf-8"?>
<!-- Generator: Adobe Illustrator 19.2.1, SVG Export Plug-In . SVG Version: 6.00 Build 0)  -->
<svg version="1.1" id="Layer_1" xmlns="http://www.w3.org/2000/svg" xmlns:xlink="http://www.w3.org/1999/xlink" x="0px" y="0px"
	 viewBox="0 0 110 17" style="enable-background:new 0 0 110 17;" xml:space="preserve">
<style type="text/css">
	.st0{fill:#FFFFFF;}
	.st1{fill:#BBC836;}
</style>
<title>Group 12</title>
<desc>Created with Sketch.</desc>
<g id="Page-1_1_">
	<g id="_x30_2.01" transform="translate(-150.000000, -25.000000)">
		<g id="Group-5">
			<g id="Group-12" transform="translate(150.000000, 25.000000)">
				<g id="logo">
					<g id="Layer_1_1_">
						<g id="Page-1">
							<g id="Frontpage-1">
								<g id="VDG">
									<g id="Logo">
										<path id="Fill-1" class="st0" d="M34.1,0h15.4c5,0,8.2,0.4,10.5,2.8c1.2,1.2,2.1,3.3,2.1,5.8c0,2.5-0.8,4.9-2.3,6.1
											c-2,1.6-3.9,2.3-9.1,2.3H34.1V0L34.1,0L34.1,0z M41,13.2h8.7c3.2,0,5.1-1.5,5.1-4.7c0-3.2-1.9-4.7-5.1-4.7H41V13.2
											L41,13.2L41,13.2z"/>
										<path id="Fill-2" class="st0" d="M91,7.8l0,9.2h-16c-5.2,0-7-0.7-9-2.3c-1.5-1.2-2.3-3.6-2.3-6.1c0-2.5,0.8-4.6,2-5.8
											C68.2,0.4,71.3,0,76.3,0H91l0,3.9l-14.8,0c-3.2,0-5.1,1.5-5.1,4.6c0,3.2,1.9,4.6,5.1,4.6h7.8v-2.3l-8.1,0c0-0.6,0-3,0-3
											h8.1H91"/>
										<polyline id="Fill-3" class="st0" points="0,0 7.7,0 16.3,11.9 25,0 32.4,0 19.8,17 13.1,17 0,0 										"/>
										<polygon id="Fill-4" class="st1" points="92.7,9.3 100.5,9.3 100.5,17 92.7,17 										"/>
										<polygon id="Fill-5" class="st0" points="92.7,0 100.5,0 100.5,7.6 92.7,7.6 										"/>
										<polygon id="Fill-6" class="st0" points="102.2,9.3 110,9.3 110,17 102.2,17 										"/>
										<polygon id="Fill-7" class="st0" points="102.2,0 110,0 110,7.6 102.2,7.6 										"/>
									</g>
								</g>
							</g>
						</g>
					</g>
				</g>
			</g>
		</g>
	</g>
</g>
</svg>
