<?xml version="1.0" encoding="utf-8"?>
<!-- Generator: Adobe Illustrator 21.1.0, SVG Export Plug-In . SVG Version: 6.00 Build 0)  -->
<svg version="1.1" id="Layer_1" xmlns="http://www.w3.org/2000/svg" xmlns:xlink="http://www.w3.org/1999/xlink" x="0px" y="0px"
	 viewBox="0 0 32 32" style="enable-background:new 0 0 32 32;" xml:space="preserve">
<style type="text/css">
	.st0{fill:#69B283;}
	.st1{fill:#FFFFFF;}
</style>
<circle class="st0" cx="16" cy="16" r="16"/>
<g>
	<path class="st1" d="M14.6,18.3H6.9c-0.4,0-0.6,0.3-0.6,0.6c0,0.4,0.3,0.6,0.6,0.6h7.7c0.8,0,1.5,0.7,1.5,1.5
		c0,0.8-0.7,1.5-1.5,1.5s-1.5-0.7-1.5-1.5c0-0.4-0.3-0.6-0.6-0.6c-0.4,0-0.6,0.3-0.6,0.6c0,1.5,1.2,2.8,2.8,2.8s2.8-1.2,2.8-2.8
		C17.4,19.6,16.2,18.3,14.6,18.3z"/>
	<path class="st1" d="M6.9,13.7h12c1.5,0,2.8-1.2,2.8-2.8s-1.2-2.8-2.8-2.8c-1.5,0-2.8,1.2-2.8,2.8c0,0.4,0.3,0.6,0.6,0.6
		c0.4,0,0.6-0.3,0.6-0.6c0-0.8,0.7-1.5,1.5-1.5s1.5,0.7,1.5,1.5c0,0.8-0.7,1.5-1.5,1.5H6.9c-0.4,0-0.6,0.3-0.6,0.6
		C6.3,13.5,6.6,13.7,6.9,13.7z"/>
	<path class="st1" d="M22.4,15.4H6.9c-0.4,0-0.6,0.3-0.6,0.6c0,0.4,0.3,0.6,0.6,0.6h15.5c1.1,0,2.1,0.9,2.1,2.1s-0.9,2.1-2.1,2.1
		s-2.1-0.9-2.1-2.1c0-0.1,0-0.3,0.1-0.4c0.1-0.3-0.2-0.7-0.5-0.7c-0.4-0.1-0.7,0.2-0.7,0.5c-0.1,0.2-0.1,0.4-0.1,0.6
		c0,1.8,1.5,3.3,3.3,3.3s3.3-1.5,3.3-3.3C25.7,16.9,24.2,15.4,22.4,15.4z"/>
</g>
</svg>
