<?xml version="1.0" encoding="utf-8"?>
<!-- Generator: Adobe Illustrator 21.1.0, SVG Export Plug-In . SVG Version: 6.00 Build 0)  -->
<svg version="1.1" id="Layer_1" xmlns="http://www.w3.org/2000/svg" xmlns:xlink="http://www.w3.org/1999/xlink" x="0px" y="0px"
	 viewBox="0 0 32 32" style="enable-background:new 0 0 32 32;" xml:space="preserve">
<style type="text/css">
	.st0{fill:#FF9B03;}
	.st1{fill:none;stroke:#FFFFFF;stroke-width:0.5;stroke-miterlimit:10;}
	.st2{fill:#FFFFFF;}
</style>
<circle class="st0" cx="16" cy="16" r="16"/>
<path class="st1" d="M23.4,23.6H8.6c-0.5,0-0.8-0.4-0.8-0.8V9.2c0-0.5,0.4-0.8,0.8-0.8h14.8c0.5,0,0.8,0.4,0.8,0.8v13.6
	C24.2,23.2,23.9,23.6,23.4,23.6z"/>
<g>
	<g>
		<path class="st2" d="M9.6,9.4c-0.5,0-0.9,0.4-0.9,0.8v11.5c0,0.5,0.4,0.8,0.9,0.8h6.2V9.4H9.6z M13.2,17.5L13,16.9h-1.4l-0.2,0.7
			h-0.7l1.2-3.5h0.8l1.2,3.5H13.2z"/>
		<polygon class="st2" points="11.8,16.4 12.8,16.4 12.3,14.9 		"/>
	</g>
	<g>
		<path class="st2" d="M20.1,15.4c0.1-0.1,0.1-0.2,0.1-0.3c0-0.2-0.1-0.2-0.1-0.3c-0.1-0.1-0.2-0.1-0.4-0.1H19v0.9h0.6
			C19.8,15.5,20,15.5,20.1,15.4z"/>
		<path class="st2" d="M19.7,16H19v1h0.7c0.2,0,0.3-0.1,0.4-0.1c0.1-0.1,0.2-0.2,0.2-0.4c0-0.2-0.1-0.3-0.2-0.4
			C20,16.1,19.9,16,19.7,16z"/>
		<path class="st2" d="M22.4,9.4h-6.2v13.1h6.2c0.5,0,0.9-0.4,0.9-0.8V10.3C23.3,9.8,22.9,9.4,22.4,9.4z M20.7,17.3
			c-0.2,0.2-0.5,0.2-0.8,0.2h-1.5V14h1.4c0.4,0,0.6,0.1,0.8,0.2c0.2,0.2,0.3,0.4,0.3,0.7c0,0.4-0.2,0.7-0.7,0.8
			c0.2,0,0.4,0.1,0.6,0.3c0.1,0.2,0.2,0.4,0.2,0.6C21,16.9,20.9,17.1,20.7,17.3z"/>
	</g>
</g>
</svg>
