<?xml version="1.0" encoding="utf-8"?>
<!-- Generator: Adobe Illustrator 21.1.0, SVG Export Plug-In . SVG Version: 6.00 Build 0)  -->
<svg version="1.1" id="Layer_1" xmlns="http://www.w3.org/2000/svg" xmlns:xlink="http://www.w3.org/1999/xlink" x="0px" y="0px"
	 viewBox="0 0 32 32" style="enable-background:new 0 0 32 32;" xml:space="preserve">
<style type="text/css">
	.st0{fill:#FF9B03;}
	.st1{fill:#FFFFFF;}
	.st2{fill:none;stroke:#FFFFFF;stroke-width:0.25;stroke-miterlimit:10;}
</style>
<circle class="st0" cx="16" cy="16" r="16"/>
<polygon class="st1" points="5.8,25.1 6.3,25.1 6.3,8.7 16.1,8.7 16.1,25.1 16.6,25.1 16.6,8.1 5.8,8.1 "/>
<polygon class="st1" points="18,16.7 18.5,16.7 18.5,8.7 26.4,8.7 26.4,16.7 27,16.7 27,8.1 18,8.1 "/>
<polygon class="st1" points="27,15.6 26.4,15.6 26.4,16.3 18.5,16.3 18.5,15.6 18,15.6 18,16.8 27,16.8 "/>
<path class="st1" d="M6.9,9.2v15.9h8.5V9.2H6.9z M13.9,17.9c-0.4,0-0.8-0.3-0.8-0.8c0-0.4,0.3-0.8,0.8-0.8c0.4,0,0.8,0.3,0.8,0.8
	C14.7,17.5,14.3,17.9,13.9,17.9z"/>
<path class="st2" d="M29.2,14"/>
<path class="st2" d="M19.5,14"/>
<path class="st2" d="M24.5,17.8"/>
<path class="st2" d="M24.5,10.5"/>
<rect x="19.2" y="9.2" class="st1" width="3" height="3"/>
<rect x="22.7" y="9.2" class="st1" width="3" height="3"/>
<rect x="19.2" y="12.8" class="st1" width="3" height="3"/>
<rect x="22.7" y="12.8" class="st1" width="3" height="3"/>
</svg>
