<svg enable-background="new 0 0 32 32" version="1.1" viewBox="0 0 32 32" xmlns="http://www.w3.org/2000/svg">
 <style type="text/css">.st0{fill:#DD3C3C;}
	.st1{fill:none;stroke:#FFFFFF;stroke-width:0.25;stroke-miterlimit:10;}
	.st2{fill:#FFFFFF;}</style>
 <circle class="st0" cx="16" cy="16" r="16" fill="#ff5122"/>
 <path class="st1" d="m29.2 14"/>
 <path class="st1" d="m24.5 17.8"/>
 <path class="st1" d="m24.5 10.5"/>
 <g fill="#fff" stroke-width=".27869">
  <path class="st4" d="m11.875 18.303c0 3.4278 1.8951 4.4033 4.236 4.4033 2.341 0 4.236-0.94754 4.236-4.4033 0-3.4278-4.236-7.9983-4.236-7.9983s-4.236 4.5147-4.236 7.9983z"/>
  <path class="st4" d="m22.521 20.728-0.41803-0.41803c0.91967-0.91967 1.3656-2.1738 1.3656-3.5393 0-1.3656-0.50164-2.6754-1.3656-3.5393l0.41803-0.41803c1.0033 1.0033 1.6721 2.3688 1.6721 3.9574s-0.72459 2.9541-1.6721 3.9574z"/>
  <path class="st4" d="m24.5 22.762-0.50164-0.50164c1.3656-1.3656 2.2852-3.4557 2.2852-5.6295 0-2.1738-0.91967-4.041-2.2852-5.6295l0.50164-0.50164c1.5328 1.5328 2.3688 3.7065 2.3688 5.9918 0.13934 2.6197-0.80819 4.7377-2.3688 6.2705z"/>
  <path class="st4" d="m9.7296 12.507 0.41803 0.41803c-0.91967 0.91967-1.3656 2.1738-1.3656 3.5393 0 1.3656 0.50164 2.6754 1.3656 3.5393l-0.41803 0.41803c-1.0033-1.0033-1.6721-2.3688-1.6721-3.9574 0-1.5606 0.69672-2.9262 1.6721-3.9574z"/>
  <path class="st4" d="m7.7509 10.5 0.50164 0.50164c-1.3656 1.3656-2.2852 3.4557-2.2852 5.6295 0 2.1738 0.91967 4.041 2.2852 5.6295l-0.50164 0.50164c-1.5328-1.5328-2.3688-3.7065-2.3688-5.9918-0.16721-2.6197 0.80819-4.7655 2.3688-6.2705z"/>
 </g>
</svg>
