<svg enable-background="new 0 0 32 32" version="1.1" viewBox="0 0 32 32" xmlns="http://www.w3.org/2000/svg">
 <style type="text/css">.st0{fill:#DD3C3C;}
	.st1{fill:none;stroke:#FFFFFF;stroke-width:0.25;stroke-miterlimit:10;}
	.st2{fill:#FFFFFF;}</style>
 <circle class="st0" cx="16" cy="16" r="16" fill="#ff5122"/>
 <path class="st1" d="m29.2 14"/>
 <path class="st1" d="m24.5 17.8"/>
 <path class="st1" d="m24.5 10.5"/>
 <g fill="#fff" stroke-width=".29756">
  <path class="st4" d="m20.521 10.398-0.44635 0.44634c-1.0415-1.0415-2.4698-1.6068-4.0766-1.6068-1.6068 0-3.0649 0.59513-4.0766 1.6068l-0.44635-0.44634c1.1605-1.1605 2.7376-1.9044 4.4932-1.9044 1.7854 0 3.3922 0.74391 4.5527 1.9044z"/>
  <path class="st4" d="m22.872 8.077-0.59513 0.59513c-1.6068-1.6068-3.9576-2.6186-6.4274-2.6186-2.4698 0-4.6718 1.0415-6.4274 2.6186l-0.56537-0.59513c1.7556-1.7556 4.2254-2.7376 6.844-2.7376 2.9459-0.14878 5.4157 0.98196 7.1713 2.7376z"/>
  <path class="st4" d="m18.647 12.421h-5.0883c-1.0415 0-1.9044 0.86294-1.9044 1.9044v10.861c0 1.0415 0.86294 1.9044 1.9044 1.9044h5.0883c1.0415 0 1.9044-0.86294 1.9044-1.9044v-10.891c-0.02976-0.98196-0.92245-1.8747-1.9044-1.8747zm-2.6186 8.2723c-0.71415 0-1.1605-0.59513-1.1605-1.1605 0-0.59513 0.59513-1.1605 1.1605-1.1605 0.71415 0 1.1605 0.59513 1.1605 1.1605-0.02976 0.62488-0.44634 1.1605-1.1605 1.1605z"/>
 </g>
</svg>
