<svg enable-background="new 0 0 32 32" version="1.1" viewBox="0 0 32 32" xmlns="http://www.w3.org/2000/svg">
 <style type="text/css">.st0{fill:#ff6600;}
	.st1{fill:#FFFFFF;}
	.st2{fill:none;stroke:#FFFFFF;stroke-width:0.25;stroke-miterlimit:10;}</style>
 <circle class="st0" cx="16" cy="16" r="16"/>
 <path class="st2" d="m29.2 14"/>
 <path class="st2" d="m19.5 14"/>
 <path class="st2" d="m24.5 17.8"/>
 <path class="st2" d="m24.5 10.5"/>
 <g fill="#ffffff">
  <path d="m17.686 18.735c0 3.4089-2.7628 6.1694-6.1694 6.1694-3.4066 0-6.1694-2.7605-6.1694-6.1694 0-3.4066 2.7628-6.1694 6.1694-6.1694 3.4066 0 6.1694 2.7628 6.1694 6.1694z" stroke-width=".56086"/>
  <path d="m24.5 10.5c0 2.5904-2.0994 4.6881-4.6881 4.6881-2.5887 0-4.6881-2.0977-4.6881-4.6881 0-2.5887 2.0994-4.6881 4.6881-4.6881 2.5887 0 4.6881 2.0994 4.6881 4.6881z" stroke-width=".42619"/>
  <path d="m24.868 20.48c0 1.4445-1.1707 2.6143-2.6143 2.6143-1.4435 0-2.6143-1.1698-2.6143-2.6143 0-1.4435 1.1707-2.6143 2.6143-2.6143 1.4435 0 2.6143 1.1707 2.6143 2.6143z" stroke-width=".23766"/>
 </g>
</svg>
