<?xml version="1.0" encoding="utf-8"?>
<!-- Generator: Adobe Illustrator 21.1.0, SVG Export Plug-In . SVG Version: 6.00 Build 0)  -->
<svg version="1.1" id="Layer_1" xmlns="http://www.w3.org/2000/svg" xmlns:xlink="http://www.w3.org/1999/xlink" x="0px" y="0px"
	 viewBox="0 0 32 32" style="enable-background:new 0 0 32 32;" xml:space="preserve">
<style type="text/css">
	.st0{fill:#F9CD15;}
	.st1{fill:none;stroke:#FFFFFF;stroke-width:0.25;stroke-miterlimit:10;}
	.st2{fill:#FFFFFF;}
</style>
<circle class="st0" cx="16" cy="16" r="16"/>
<path class="st1" d="M29.2,14"/>
<path class="st1" d="M24.5,17.8"/>
<path class="st1" d="M24.5,10.5"/>
<g transform="translate(0,-288.53332)">
	<path class="st2" d="M14,296.6v1.8c0.6-0.2,1.3-0.4,2-0.4c0.7,0,1.4,0.1,2,0.4v-1.8H14z"/>
	<path class="st2" d="M20.9,303.5c0,2.7-2.2,4.9-4.9,4.9h0c-2.7,0-4.9-2.2-4.9-4.9l0,0c0-2.7,2.2-4.9,4.9-4.9h0
		C18.7,298.6,20.9,300.8,20.9,303.5L20.9,303.5z"/>
	<path class="st2" d="M16,309.6c-0.2,0-0.3,0.1-0.3,0.3v2.3c0,0.2,0.1,0.3,0.3,0.3c0.2,0,0.3-0.1,0.3-0.3c0,0,0,0,0,0v-2.3
		C16.3,309.7,16.2,309.6,16,309.6C16,309.6,16,309.6,16,309.6z"/>
	<path class="st2" d="M7.4,303.2c-0.2,0-0.3,0.1-0.3,0.3c0,0.2,0.1,0.3,0.3,0.3c0,0,0,0,0,0h2.3c0.2,0,0.3-0.1,0.3-0.3
		c0-0.2-0.1-0.3-0.3-0.3c0,0,0,0,0,0H7.4z"/>
	<path class="st2" d="M22.3,303.2c-0.2,0-0.3,0.1-0.3,0.3c0,0.2,0.1,0.3,0.3,0.3c0,0,0,0,0,0h2.3c0.2,0,0.3-0.1,0.3-0.3
		c0-0.2-0.1-0.3-0.3-0.3c0,0,0,0,0,0H22.3z"/>
	<path class="st2" d="M11.4,307.8c-0.1,0-0.1,0-0.2,0.1l-1.7,1.7c-0.1,0.1-0.1,0.3,0,0.4c0.1,0.1,0.3,0.1,0.4,0l1.7-1.7
		c0.1-0.1,0.1-0.3,0-0.4C11.5,307.9,11.5,307.8,11.4,307.8L11.4,307.8z"/>
	<path class="st2" d="M22.3,296.9c-0.1,0-0.1,0-0.2,0.1l-1.7,1.7c-0.1,0.1-0.1,0.3,0,0.4s0.3,0.1,0.4,0c0,0,0,0,0,0l1.7-1.7
		c0.1-0.1,0.1-0.3,0-0.4C22.5,296.9,22.4,296.9,22.3,296.9L22.3,296.9z"/>
	<path class="st2" d="M20.6,307.8c-0.2,0-0.3,0.1-0.3,0.3c0,0.1,0,0.2,0.1,0.2l1.7,1.7c0.1,0.1,0.3,0.1,0.4,0c0.1-0.1,0.1-0.3,0-0.4
		c0,0,0,0,0,0l-1.7-1.7C20.8,307.9,20.7,307.8,20.6,307.8L20.6,307.8z"/>
	<path class="st2" d="M9.7,296.9c-0.2,0-0.3,0.1-0.3,0.3c0,0.1,0,0.2,0.1,0.2l1.7,1.7c0.1,0.1,0.3,0.1,0.4,0c0.1-0.1,0.1-0.3,0-0.4
		c0,0,0,0,0,0L9.9,297C9.8,296.9,9.7,296.9,9.7,296.9L9.7,296.9z"/>
</g>
</svg>
