<?xml version="1.0" encoding="utf-8"?>
<!-- Generator: Adobe Illustrator 21.1.0, SVG Export Plug-In . SVG Version: 6.00 Build 0)  -->
<svg version="1.1" id="Layer_1" xmlns="http://www.w3.org/2000/svg" xmlns:xlink="http://www.w3.org/1999/xlink" x="0px" y="0px"
	 viewBox="0 0 32 32" style="enable-background:new 0 0 32 32;" xml:space="preserve">
<style type="text/css">
	.st0{fill:#BE67A9;}
	.st1{fill:#FFFFFF;}
</style>
<circle class="st0" cx="16" cy="16" r="16"/>
<g>
	<g>
		<path class="st1" d="M16.2,12v6.7c0,2.4-1.7,4.4-4.1,4.6c-2.5,0.2-4.6-1.6-4.9-3.9c0,0-0.7-4.7-0.7-4.7c-0.1-0.4,0.2-0.9,0.7-0.9
			s0.9,0.2,0.9,0.7l0.3,2.2c0,0.2,0.2,0.3,0.3,0.3c0.2,0,0.3-0.1,0.3-0.3v-6.2c0-0.3,0.2-0.6,0.5-0.7c0.4-0.1,0.9,0.2,0.9,0.7v5.1
			c0,0.1,0.1,0.3,0.3,0.3c0.1,0,0.3-0.1,0.3-0.3V9.3c0-0.3,0.2-0.6,0.5-0.7c0.4-0.1,0.9,0.2,0.9,0.7v5.9c0,0.1,0.1,0.3,0.3,0.3
			c0.1,0,0.3-0.1,0.3-0.3v-4.7c0-0.3,0.2-0.6,0.5-0.7c0.4-0.1,0.9,0.2,0.9,0.7v5.2c0,0.1,0.1,0.3,0.3,0.3c0.1,0,0.3-0.1,0.3-0.3
			v-3.7c0-0.3,0.2-0.6,0.5-0.7C15.9,11.3,16.2,11.6,16.2,12z"/>
	</g>
	<path class="st1" d="M18.6,12.6c-0.3-0.3-0.7-0.3-1,0c-0.3,0.3-0.3,0.7,0,1c1.3,1.3,1.3,3.5,0,4.9c-0.3,0.3-0.3,0.7,0,1
		s0.7,0.3,1,0C20.5,17.5,20.5,14.5,18.6,12.6z"/>
	<path class="st1" d="M20.5,10.7c-0.3-0.3-0.7-0.3-1,0c-0.3,0.3-0.3,0.7,0,1c2.4,2.4,2.4,6.3,0,8.7c-0.3,0.3-0.3,0.7,0,1
		c0.3,0.3,0.7,0.3,1,0C23.5,18.4,23.5,13.6,20.5,10.7z"/>
	<path class="st1" d="M22.5,8.7c-0.3-0.3-0.7-0.3-1,0s-0.3,0.7,0,1c3.5,3.5,3.5,9.1,0,12.6c-0.3,0.3-0.3,0.7,0,1s0.7,0.3,1,0
		C26.5,19.2,26.5,12.7,22.5,8.7z"/>
</g>
</svg>
