<svg enable-background="new 0 0 32 32" version="1.1" viewBox="0 0 32 32" xmlns="http://www.w3.org/2000/svg">
 <style type="text/css">.st0{fill:#6D5CEC;}
	.st1{fill:none;stroke:#FFFFFF;stroke-width:0.5;stroke-miterlimit:10;}
	.st2{fill:#FFFFFF;}</style>
 <circle class="st0" cx="16" cy="16" r="16"/>
 <g fill="#fff" stroke-width=".27684">
  <path class="st4" d="m14.646 26.459h2.4362c3.0452 0 5.426-0.58136 5.426-6.0073l-0.05536-8.3605c-0.11074-4.2079-0.74746-6.2565-4.817-6.2565h-1.135-0.63672-0.63672-1.135c-4.0695 0-4.7062 2.0486-4.8169 6.2565l-0.055367 8.3605c0 5.426 2.3808 6.0073 5.426 6.0073zm1.1627-1.2181c-0.1661 0-0.30452-0.13842-0.30452-0.30452 0-0.1661 0.13842-0.30452 0.30452-0.30452s0.30452 0.13842 0.30452 0.30452c0.02769 0.1661-0.11073 0.30452-0.30452 0.30452zm1.5226-2.713c0 0.52599-0.44294 0.96893-0.96893 0.96893h-0.99661c-0.52599 0-0.96893-0.44294-0.96893-0.96893v-0.58136c0-0.52599 0.44294-0.96893 0.96893-0.96893h0.99661c0.52599 0 0.96893 0.44294 0.96893 0.96893zm-3.848-15.392s1.3288-0.055365 2.3808-0.055365c1.052 0 2.3808 0.055365 2.3808 0.055365 1.7994 0 1.7164 2.1593 1.7164 2.1593s0.11073 2.713 0.11073 5.2599c0 2.5469-2.0763 2.3808-2.0763 2.3808h-4.2633s-2.0763 0.1661-2.0763-2.3808c0-2.5469 0.11073-5.2599 0.11073-5.2599s-0.08305-2.1593 1.7164-2.1593z"/>
  <path class="st4" d="m12.404 13.974c0 2.187 1.7718 2.0486 1.7718 2.0486h1.6887l1.7718 0.08305s1.7718 0.13842 1.7718-2.0486-0.08305-4.2633-0.08305-4.2633 0.05537-1.8825-1.4949-1.8825c0 0-1.0797-0.11073-1.9655-0.11073s-1.9102 0.027687-1.9102 0.027687c-1.5503 0-1.4949 1.8825-1.4949 1.8825s-0.05537 2.0763-0.05537 4.2633zm4.5401-3.2667h0.63672v2.0763h-0.63672zm-1.7164-2.2147h1.1904v0.58136c0 0.3322-0.27684 0.58136-0.58136 0.58136-0.3322 0-0.58136-0.27684-0.58136-0.58136v-0.58136zm-1.052 2.187h0.63672v2.0763h-0.63672z"/>
  <path class="st4" d="m15.505 22.943h0.71978c0.3322 0 0.58136-0.24915 0.58136-0.58136v-0.27684c0-0.3322-0.24915-0.58136-0.58136-0.58136h-0.71978c-0.3322 0-0.58136 0.24915-0.58136 0.58136v0.27684c0 0.3322 0.27684 0.58136 0.58136 0.58136z"/>
 </g>
</svg>
