<?xml version="1.0" encoding="utf-8"?>
<!-- Generator: Adobe Illustrator 21.1.0, SVG Export Plug-In . SVG Version: 6.00 Build 0)  -->
<svg version="1.1" id="Layer_1" xmlns="http://www.w3.org/2000/svg" xmlns:xlink="http://www.w3.org/1999/xlink" x="0px" y="0px"
	 viewBox="0 0 32 32" style="enable-background:new 0 0 32 32;" xml:space="preserve">
<style type="text/css">
	.st0{fill:#6D5CEC;}
	.st1{fill:#FFFFFF;}
	.st2{fill:none;stroke:#FFFFFF;stroke-width:0.25;stroke-miterlimit:10;}
</style>
<circle class="st0" cx="16" cy="16" r="16"/>
<g>
	<path class="st1" d="M24.6,12.9H5.4c-0.2,0-0.4,0.2-0.4,0.4v5.4c0,0.2,0.2,0.4,0.4,0.4h19.2c0.2,0,0.4-0.2,0.4-0.4v-5.4
		C25,13.1,24.8,12.9,24.6,12.9z M20.8,15.8h-0.5v-1.3h0.5V15.8z M22,17.1v0.3h-0.8v-0.3l0,0c0-0.1,0.1-0.3,0.2-0.3
		c0.1,0,0.1,0,0.2,0c0.1,0,0.1,0,0.2,0C21.9,16.8,22,17,22,17.1L22,17.1z M22.8,15.8h-0.5v-1.3h0.5V15.8z M16.4,15.8H16v-1.3h0.5
		V15.8z M17.6,17.1v0.3h-0.8v-0.3l0,0c0-0.1,0.1-0.3,0.2-0.3c0.1,0,0.1,0,0.2,0c0.1,0,0.1,0,0.2,0C17.5,16.8,17.6,17,17.6,17.1
		L17.6,17.1z M18.4,15.8h-0.5v-1.3h0.5V15.8z M12,15.8h-0.5v-1.3H12V15.8z M13.1,17.1v0.3h-0.8v-0.3l0,0c0-0.1,0.1-0.3,0.2-0.3
		c0.1,0,0.1,0,0.2,0s0.1,0,0.2,0C13,16.8,13.1,17,13.1,17.1L13.1,17.1z M13.9,15.8h-0.5v-1.3h0.5V15.8z M7.5,15.8H7v-1.3h0.5V15.8z
		 M8.7,17.1v0.3H7.9v-0.3l0,0c0-0.1,0.1-0.3,0.2-0.3c0.1,0,0.1,0,0.2,0c0.1,0,0.1,0,0.2,0C8.6,16.8,8.7,17,8.7,17.1L8.7,17.1z
		 M9.5,15.8H9v-1.3h0.5V15.8z"/>
	<path class="st2" d="M25.1,19.8H4.9c-0.4,0-0.7-0.3-0.7-0.7v-6.1c0-0.4,0.3-0.7,0.7-0.7h20.2c0.4,0,0.7,0.3,0.7,0.7v6.1
		C25.8,19.5,25.5,19.8,25.1,19.8z"/>
	<path class="st1" d="M26.5,15.6L26.5,15.6c0-0.2-0.1-0.3-0.2-0.3l-0.5-0.1v1.3l0.5-0.1c0.1,0,0.2-0.1,0.2-0.2v-0.1h1.3v-0.6
		L26.5,15.6z"/>
</g>
</svg>
