<?xml version="1.0" encoding="utf-8"?>
<!-- Generator: Adobe Illustrator 21.1.0, SVG Export Plug-In . SVG Version: 6.00 Build 0)  -->
<svg version="1.1" id="Layer_1" xmlns="http://www.w3.org/2000/svg" xmlns:xlink="http://www.w3.org/1999/xlink" x="0px" y="0px"
	 viewBox="0 0 32 32" style="enable-background:new 0 0 32 32;" xml:space="preserve">
<style type="text/css">
	.st0{fill:#6D5CEC;}
	.st1{fill:none;stroke:#FFFFFF;stroke-width:0.5;stroke-miterlimit:10;}
	.st2{fill:#FFFFFF;}
</style>
<circle class="st0" cx="16" cy="16" r="16"/>
<path class="st1" d="M23.4,23.6H8.6c-0.5,0-0.8-0.4-0.8-0.8V9.2c0-0.5,0.4-0.8,0.8-0.8h14.8c0.5,0,0.8,0.4,0.8,0.8v13.6
	C24.2,23.2,23.9,23.6,23.4,23.6z"/>
<path class="st2" d="M22.3,9.5H9.7c-0.5,0-0.8,0.4-0.8,0.8v11.4c0,0.5,0.4,0.8,0.8,0.8h12.5c0.5,0,0.8-0.4,0.8-0.8V10.3
	C23.1,9.9,22.7,9.5,22.3,9.5z M14.3,15.5h-0.7v-2.9h0.7V15.5z M16.8,18.4v0.7h-1.8v-0.7l0,0c0-0.3,0.2-0.6,0.4-0.8
	c0.1-0.1,0.3-0.1,0.5-0.1c0.1,0,0.3,0.1,0.4,0.1C16.7,17.8,16.8,18.1,16.8,18.4L16.8,18.4z M18.3,15.5h-0.7v-2.9h0.7V15.5z"/>
</svg>
