<?xml version="1.0" encoding="utf-8"?>
<!-- Generator: Adobe Illustrator 21.1.0, SVG Export Plug-In . SVG Version: 6.00 Build 0)  -->
<svg version="1.1" id="Layer_1" xmlns="http://www.w3.org/2000/svg" xmlns:xlink="http://www.w3.org/1999/xlink" x="0px" y="0px"
	 viewBox="0 0 32 32" style="enable-background:new 0 0 32 32;" xml:space="preserve">
<style type="text/css">
	.st0{fill:#6D5CEC;}
	.st1{fill:none;stroke:#FFFFFF;stroke-width:0.5;stroke-miterlimit:10;}
	.st2{fill:#FFFFFF;}
</style>
<circle class="st0" cx="16" cy="16" r="16"/>
<path class="st1" d="M23.4,23.6H8.6c-0.5,0-0.8-0.4-0.8-0.8V9.2c0-0.5,0.4-0.8,0.8-0.8h14.8c0.5,0,0.8,0.4,0.8,0.8v13.6
	C24.2,23.2,23.9,23.6,23.4,23.6z"/>
<path class="st2" d="M22.3,9.4H9.6c-0.5,0-0.8,0.4-0.8,0.8v11.5c0,0.5,0.4,0.8,0.8,0.8h12.9c0.5,0,0.8-0.4,0.8-0.8V10.3
	C23.2,9.8,22.8,9.4,22.3,9.4z M15.6,16.1v-2.2c0-0.2,0.1-0.4,0.3-0.4c0.2,0,0.4,0.2,0.3,0.4v2.2c0,0.2-0.1,0.4-0.3,0.4l0,0
	C15.8,16.4,15.6,16.3,15.6,16.1L15.6,16.1z M16,18.4c-1.2,0-2.1-1-2.1-2.2c0-0.6,0.4-1.4,0.8-1.8c0.1-0.1,0.4-0.1,0.5,0.1l0,0
	c0.1,0.1,0.1,0.4-0.1,0.5c-0.4,0.3-0.6,0.7-0.6,1.3c0,0.8,0.7,1.6,1.6,1.6c0.8,0,1.6-0.7,1.6-1.6c0-0.5-0.2-1-0.6-1.3
	c-0.1-0.1-0.2-0.3-0.1-0.5c0.1-0.1,0.3-0.2,0.5-0.1l0,0c0.6,0.5,0.8,1.1,0.8,1.8C18.1,17.4,17.2,18.4,16,18.4z"/>
</svg>
