<svg enable-background="new 0 0 32 32" version="1.1" viewBox="0 0 32 32" xmlns="http://www.w3.org/2000/svg">
 <style type="text/css">.st0{fill:#FF9B03;}
	.st1{fill:none;stroke:#FFFFFF;stroke-width:0.25;stroke-miterlimit:10;}
	.st2{fill:#FFFFFF;}</style>
 <circle class="st0" cx="16" cy="16" r="16"/>
 <g fill="none" stroke="#fff" stroke-miterlimit="10" stroke-width=".25">
  <path class="st1" d="m28.997 14.034"/>
  <path class="st1" d="m24.297 18.512"/>
  <path class="st1" d="m24.297 11.212"/>
 </g>
 <path class="st4" d="m24.985 20.594c0-0.17699-0.12642-0.30342-0.30342-0.30342s-0.30342 0.12642-0.30342 0.30342z" fill="#fff" stroke-width=".25285"/>
 <path class="st4" d="m25.137 8.9126h-18.281c-0.25285 0-0.45512 0.20228-0.45512 0.45512v11.252c0.025286 0.22756 0.20228 0.42984 0.45512 0.40456h7.8635v0.93553c-0.60683 0.02529-1.1378 0.07585-1.6182 0.12642-1.1631 0.15171-1.3148 0.35398-1.3148 0.53098 0 0.17699 0.15171 0.37927 1.3148 0.53098 0.96082 0.10114 1.9216 0.15171 2.8825 0.15171 0.96082 0 1.9216-0.05057 2.8825-0.15171 1.1631-0.15171 1.3148-0.35398 1.3148-0.53098 0-0.17699-0.15171-0.37927-1.3148-0.53098-0.45512-0.05057-1.0114-0.10114-1.6182-0.12642v-0.93553h7.8635c0.22756 0 0.42984-0.17699 0.45512-0.40456v-11.252c0.02529-0.25285-0.17699-0.45512-0.42984-0.45512zm-5.2845 13.73c-0.30342 0.17699-1.7194 0.37927-3.8686 0.37927-2.1492 0-3.5399-0.20228-3.8686-0.37927 0.22756-0.12642 1.1631-0.27813 2.579-0.35399v0.42984c0 0.07586 0.07585 0.15171 0.15171 0.15171h2.2503c0.07586 0 0.15171-0.07585 0.15171-0.15171v-0.42984c1.4412 0.05057 2.3768 0.20228 2.6043 0.35399zm-3.995-0.53098v-1.062h0.30342v1.062c0 0.07585-0.07586 0.15171-0.15171 0.15171-0.10114 0-0.15171-0.07585-0.15171-0.15171zm9.4312-1.5171v0.05057c0 0.02529-0.02529 0.02529-0.02529 0.02529-0.02529 0.02529-0.07585 0.05057-0.10114 0.05057h-18.306c-0.050571 0-0.075855-0.02529-0.10114-0.05057l-0.025286-0.02529v-0.5057h18.584v0.45512z" fill="#fff" stroke-width=".25285"/>
</svg>
