<?xml version="1.0" encoding="utf-8"?>
<!-- Generator: Adobe Illustrator 21.1.0, SVG Export Plug-In . SVG Version: 6.00 Build 0)  -->
<svg version="1.1" id="Layer_1" xmlns="http://www.w3.org/2000/svg" xmlns:xlink="http://www.w3.org/1999/xlink" x="0px" y="0px"
	 viewBox="0 0 32 32" style="enable-background:new 0 0 32 32;" xml:space="preserve">
<style type="text/css">
	.st0{fill:#BE68A9;}
	.st1{fill:#FFFFFF;}
</style>
<circle class="st0" cx="16" cy="16" r="16"/>
<g>
	<path class="st1" d="M12.8,19.2c0.5,0.3,1.9,1.1,3.4,2.1c0.3,0.2,0.7,0.4,1,0.7c0,0,0,0,0,0c0.7,0.5,1.3,1,1.9,1.4
		c0.7,0.5,1.2,1,1.8,1.3c1.3,0.7,3.2,0.8,4,0.9l0,0c0,0,3-3,2.5-4s-1.6-1-2.8-2.7c-0.5-0.7-0.9-1.5-1.4-2.4c-0.6-1.2-1.2-3-2.5-3.4
		c-0.5-0.2-1.4-0.4-2.4-0.6v2.1c0.2,0.1,0.3,0.1,0.5,0.2c0.5,0.2,0.9,0.6,1.1,1c0.1,0.1,0.1,0.2,0.2,0.3c0,0.1,0.1,0.2,0.1,0.3
		c0.2,0.9,0.1,1.6-0.4,2.3c-0.4,0.6-0.8,0.8-1.4,0.9c0,0,0,0,0,0c-0.2,0-0.4,0-0.7-0.1c-0.4-0.1-1-0.4-1.7-0.7
		c-0.6-0.3-1.3-0.6-1.6-0.7C13.7,18,13.2,18.6,12.8,19.2z"/>
	<path class="st1" d="M9.9,8.2v12.7c0,0.3,0.2,0.5,0.5,0.5H15c-1.2-0.7-2.1-1.3-2.5-1.5l-0.5-0.3l0.3-0.6c0.5-1,1.2-1.5,2-1.5
		c0.1,0,0.2,0,0.3,0c0.4,0.1,0.9,0.3,1.7,0.7c0.4,0.2,0.9,0.5,1.4,0.6V8.2c0-0.3-0.2-0.5-0.5-0.5h-6.8C10.1,7.8,9.9,8,9.9,8.2z
		 M10.8,9.3c0-0.2,0.2-0.4,0.4-0.4h0.1c0.2,0,0.4,0.2,0.4,0.4v10.5c0,0.2-0.2,0.4-0.4,0.4h-0.1c-0.2,0-0.4-0.2-0.4-0.4V9.3z"/>
</g>
</svg>
