<?xml version="1.0" encoding="utf-8"?>
<!-- Generator: Adobe Illustrator 21.1.0, SVG Export Plug-In . SVG Version: 6.00 Build 0)  -->
<svg version="1.1" id="Layer_1" xmlns="http://www.w3.org/2000/svg" xmlns:xlink="http://www.w3.org/1999/xlink" x="0px" y="0px"
	 viewBox="0 0 32 32" style="enable-background:new 0 0 32 32;" xml:space="preserve">
<style type="text/css">
	.st0{fill:#00BFF2;}
	.st1{fill:#FFFFFF;}
</style>
<circle class="st0" cx="16" cy="16" r="16"/>
<g>
	<path class="st1" d="M24.2,16.3v1.6h-0.7V19h-4.6c-0.1-0.5-0.6-0.9-1.2-0.9c-0.1,0-0.1,0-0.2,0l-1.2-2.2l5.1-2.5l0.4-1.6l-1.6-3.2
		L5.7,15.8l4.7,3.1l5.3-2.6l1.2,2.2c-0.2,0.2-0.3,0.5-0.3,0.8c0,0.7,0.5,1.2,1.2,1.2c0.4,0,0.8-0.3,1.1-0.6h4.7v1.2h0.7v1.6H25v-6.2
		H24.2z M19.5,10c0.3,0,0.6,0.3,0.6,0.6c0,0.3-0.3,0.6-0.6,0.6c-0.3,0-0.6-0.3-0.6-0.6S19.1,10,19.5,10z"/>
</g>
</svg>
