<svg enable-background="new 0 0 32 32" version="1.1" viewBox="0 0 32 32" xmlns="http://www.w3.org/2000/svg">
 <style type="text/css">.st0{fill:#DD3C3C;}
	.st1{fill:none;stroke:#FFFFFF;stroke-width:0.25;stroke-miterlimit:10;}
	.st2{fill:#FFFFFF;}</style>
 <circle class="st0" cx="16" cy="16" r="16" fill="#232349"/>
 <path class="st1" d="m29.2 14"/>
 <path class="st5" d="m15.471 15.449" fill="#fff" stroke-width=".27923"/>
 <g transform="matrix(.27923 0 0 .27923 -9.1288 -7.8669)" fill="#fff">
  <path class="st4" d="m116.4 97.7h-53.4c-1.4 0-2.6 1.1-2.6 2.5v8.1c0 1.4 1.2 2.6 2.6 2.5h53.3c1.4 0 2.6-1.1 2.6-2.5v-8.1c0.1-1.4-1.1-2.6-2.5-2.5zm-49.2 8c-0.8 0-1.5-0.7-1.5-1.6 0-0.8 0.7-1.5 1.6-1.5 0.8 0 1.5 0.7 1.5 1.5-0.1 0.9-0.8 1.6-1.6 1.6zm8.3 0c-0.8 0-1.5-0.7-1.5-1.6 0-0.8 0.7-1.5 1.6-1.5 0.8 0 1.5 0.7 1.5 1.5-0.1 0.9-0.8 1.6-1.6 1.6zm8.3 0c-0.8 0-1.5-0.7-1.5-1.6 0-0.8 0.7-1.5 1.6-1.5 0.8 0 1.5 0.7 1.5 1.5-0.1 0.9-0.8 1.6-1.6 1.6z"/>
  <path class="st4" d="m65.5 111.6v1.6c0 0.7 0.4 1.3 0.9 1.3h5.5c0.5 0 0.9-0.6 0.9-1.3v-1.6z"/>
  <path class="st4" d="m107.3 111.6v1.6c0 0.7 0.4 1.3 0.9 1.3h5.5c0.5 0 0.9-0.6 0.9-1.3v-1.6z"/>
  <path class="st4" d="m108.9 87.4h2.8l-0.3-25.4c0-0.3-0.1-0.5-0.4-0.7-0.2-0.2-0.5-0.3-0.8-0.3-0.6-0.1-1.1 0.4-1.2 0.9l-0.3 25.4z"/>
  <path class="st4" d="m112.4 96.9-0.2-7.7c0.1-0.6-0.3-1.1-0.9-1.1h-2.2c-0.6 0.1-0.9 0.6-0.9 1.1l-0.2 7.7z"/>
  <path class="st4" d="m115.3 65.1 0.7 0.5c1.6-2.3 1.6-5.3 0-7.6l-0.7 0.5c1.4 1.9 1.4 4.6 0 6.6z"/>
  <path class="st4" d="m105.2 65.1c-1.4-2-1.4-4.7 0-6.7l-0.7-0.5c-1.6 2.3-1.6 5.3 0 7.6z"/>
  <path class="st4" d="m119 67.5 0.8 0.5c2.7-3.8 2.7-8.8 0-12.6l-0.8 0.6c2.4 3.4 2.4 8.1 0 11.5z"/>
  <path class="st4" d="m101.5 67.5c-2.5-3.5-2.5-8.1 0-11.6l-0.8-0.5c-2.7 3.8-2.7 8.8 0 12.6z"/>
  <path class="st4" d="m67.9 87.4h2.8l-0.3-25.4c0-0.3-0.1-0.5-0.4-0.7-0.2-0.2-0.5-0.3-0.8-0.3-0.6 0-1.1 0.4-1.2 1l-0.3 25.4z"/>
  <path class="st4" d="m71.4 96.9-0.2-7.7c0.1-0.6-0.3-1.1-0.9-1.1h-2.2c-0.6 0.1-0.9 0.6-0.9 1.1l-0.2 7.7z"/>
  <path class="st4" d="m74.3 65.1 0.7 0.5c1.6-2.3 1.6-5.3 0-7.6l-0.7 0.5c1.4 1.9 1.4 4.6 0 6.6z"/>
  <path class="st4" d="m64.1 65.1c-1.4-2-1.4-4.7 0-6.7l-0.7-0.5c-1.6 2.3-1.6 5.3 0 7.6z"/>
  <path class="st4" d="m77.9 67.5 0.8 0.5c2.7-3.8 2.7-8.8 0-12.6l-0.8 0.6c2.5 3.4 2.5 8.1 0 11.5z"/>
  <path class="st4" d="m60.5 67.5c-2.5-3.5-2.5-8.1 0-11.6l-0.8-0.5c-2.7 3.8-2.7 8.8 0 12.6z"/>
 </g>
</svg>
