<svg enable-background="new 0 0 32 32" version="1.1" viewBox="0 0 32 32" xmlns="http://www.w3.org/2000/svg">
 <style type="text/css">.st0{fill:#FF9B03;}
	.st1{fill:none;stroke:#FFFFFF;stroke-width:0.25;stroke-miterlimit:10;}
	.st2{fill:#FFFFFF;}</style>
 <circle class="st0" cx="16" cy="16" r="16"/>
 <g fill="none" stroke="#fff" stroke-miterlimit="10" stroke-width=".25">
  <path class="st1" d="m28.997 14.034"/>
  <path class="st1" d="m24.297 17.834"/>
  <path class="st1" d="m24.297 10.534"/>
 </g>
 <g fill="#fff" stroke-width=".26251">
  <path class="st4" d="m5.4357 9.775v7.1664c0 1.7325 0.84002 3.2551 2.5988 3.2551h16.328c1.7063 0 2.5988-1.47 2.5988-3.2551v-7.1664h-21.525zm2.8876 5.8539c0.28876 0 0.49876 0.23626 0.49876 0.49876 0 0.28876-0.23626 0.49876-0.49876 0.49876-0.28876 0-0.49876-0.23626-0.49876-0.49876s0.21-0.49876 0.49876-0.49876zm-1.4438-0.02625c0.28876 0 0.49876 0.23626 0.49876 0.49876 0 0.28876-0.23626 0.49876-0.49876 0.49876-0.28876 0-0.49876-0.23626-0.49876-0.49876 0-0.2625 0.21-0.49876 0.49876-0.49876zm17.509 3.9901h-16.354c-1.05 0-1.9425-0.89252-2.0475-2.0475h20.449c-0.105 1.155-0.99752 2.0475-2.0475 2.0475z"/>
  <rect class="st4" x="8.5332" y="17.834" width="15.357" height="1.4438"/>
  <path class="st4" d="m10.922 20.931c-0.13125-0.105-0.31501-0.105-0.42001 0.0525-0.105 0.13125-0.105 0.31501 0.0525 0.42001 0.1575 0.13125 0.2625 0.31501 0.2625 0.49876 0 0.18376-0.105 0.36751-0.2625 0.49876-0.31501 0.23626-0.47251 0.60376-0.47251 0.97127 0 0.36751 0.1575 0.70877 0.47251 0.97127 0.0525 0.0525 0.13125 0.0525 0.18375 0.0525 0.105 0 0.1575-0.02625 0.23626-0.105 0.105-0.13125 0.105-0.31501-0.0525-0.42001-0.1575-0.13125-0.26251-0.31501-0.26251-0.49876 0-0.18375 0.105-0.36751 0.26251-0.49876 0.31501-0.23626 0.47251-0.60376 0.47251-0.97127 0-0.36751-0.1575-0.70877-0.47251-0.97127z"/>
  <path class="st4" d="m16.487 20.931c-0.13125-0.105-0.31501-0.105-0.42001 0.0525-0.105 0.13125-0.105 0.31501 0.0525 0.42001 0.1575 0.13125 0.2625 0.31501 0.2625 0.49876 0 0.18376-0.105 0.36751-0.2625 0.49876-0.31501 0.23626-0.47251 0.60376-0.47251 0.97127 0 0.36751 0.1575 0.70877 0.47251 0.97127 0.0525 0.0525 0.13125 0.0525 0.18375 0.0525 0.105 0 0.1575-0.02625 0.23626-0.105 0.105-0.13125 0.105-0.31501-0.0525-0.42001-0.1575-0.13125-0.26251-0.31501-0.26251-0.49876 0-0.18375 0.105-0.36751 0.26251-0.49876 0.31501-0.23626 0.47251-0.60376 0.47251-0.97127 0.02625-0.36751-0.1575-0.70877-0.47251-0.97127z"/>
  <path class="st4" d="m22.052 20.931c-0.13125-0.105-0.31501-0.105-0.42001 0.0525-0.105 0.13125-0.105 0.31501 0.0525 0.42001 0.1575 0.13125 0.26251 0.31501 0.26251 0.49876 0 0.18376-0.105 0.36751-0.26251 0.49876-0.31501 0.23626-0.47251 0.60376-0.47251 0.97127 0 0.36751 0.1575 0.70877 0.47251 0.97127 0.0525 0.0525 0.13125 0.0525 0.18375 0.0525 0.105 0 0.1575-0.02625 0.23626-0.105 0.105-0.13125 0.105-0.31501-0.0525-0.42001-0.1575-0.13125-0.26251-0.31501-0.26251-0.49876 0-0.18375 0.105-0.36751 0.26251-0.49876 0.31501-0.23626 0.47251-0.60376 0.47251-0.97127 0-0.36751-0.1575-0.70877-0.47251-0.97127z"/>
 </g>
</svg>
