<svg enable-background="new 0 0 32 32" version="1.1" viewBox="0 0 32 32" xmlns="http://www.w3.org/2000/svg">
 <style type="text/css">.st0{fill:#FF9B03;}
	.st1{fill:none;stroke:#FFFFFF;stroke-width:0.25;stroke-miterlimit:10;}
	.st2{fill:#FFFFFF;}</style>
 <circle class="st0" cx="16" cy="16" r="16"/>
 <path class="st1" d="m29.2 14"/>
 <path class="st1" d="m24.5 17.8"/>
 <path class="st1" d="m24.5 10.5"/>
 <g transform="matrix(.21499 0 0 .21499 -3.2035 -2.0491)">
  <path class="st2" d="m105.4 68.5-1.5 1.5c-3.5-3.5-8.4-5.4-13.8-5.4s-10.4 2-13.8 5.4l-1.5-1.5c3.9-3.9 9.3-6.5 15.3-6.5s11.4 2.6 15.3 6.5z"/>
  <path class="st2" d="m113.4 60.7-2 2c-5.4-5.4-13.4-8.9-21.8-8.9s-15.8 3.5-21.8 8.9l-1.9-2c5.9-5.9 14.3-9.3 23.3-9.3 9.9-0.6 18.2 3.3 24.2 9.3z"/>
 </g>
 <path class="st2" d="m18.102 14.161h-3.7408c-0.75245 0-1.3974 0.64496-1.3974 1.3974v7.933c0 0.75245 0.64496 1.3974 1.3974 1.3974h3.7193c0.75245 0 1.3974-0.64496 1.3974-1.3974v-7.9545c-0.0215-0.73096-0.66646-1.3759-1.3759-1.3759zm-2.8378 8.535c-0.36548 0-0.58046-0.30098-0.58046-0.58046 0-0.30098 0.30098-0.58046 0.58046-0.58046 0.36548 0 0.58046 0.30098 0.58046 0.58046 0 0.30098-0.21499 0.58046-0.58046 0.58046zm0-1.9349c-0.36548 0-0.58046-0.30098-0.58046-0.58046 0-0.30098 0.30098-0.58046 0.58046-0.58046 0.36548 0 0.58046 0.30098 0.58046 0.58046 0 0.30098-0.21499 0.58046-0.58046 0.58046zm-0.32248-3.6763c0-0.68796 0.55896-1.2469 1.2469-1.2469s1.2469 0.55896 1.2469 1.2469c0 0.68796-0.55897 1.2469-1.2469 1.2469s-1.2469-0.55896-1.2469-1.2469zm2.2574 5.6112c-0.36548 0-0.58046-0.30098-0.58046-0.58046 0-0.30098 0.30098-0.58046 0.58046-0.58046 0.36548 0 0.58046 0.30098 0.58046 0.58046-0.0215 0.30098-0.23648 0.58046-0.58046 0.58046zm0-1.9349c-0.36548 0-0.58046-0.30098-0.58046-0.58046 0-0.30098 0.30098-0.58046 0.58046-0.58046 0.36548 0 0.58046 0.30098 0.58046 0.58046-0.0215 0.30098-0.23648 0.58046-0.58046 0.58046z" stroke-width=".21499"/>
 <circle class="st2" cx="16.188" cy="17.128" r=".75245" stroke-width=".21499"/>
</svg>
