<?xml version="1.0" encoding="utf-8"?>
<!-- Generator: Adobe Illustrator 21.1.0, SVG Export Plug-In . SVG Version: 6.00 Build 0)  -->
<svg version="1.1" id="Layer_1" xmlns="http://www.w3.org/2000/svg" xmlns:xlink="http://www.w3.org/1999/xlink" x="0px" y="0px"
	 viewBox="0 0 32 32" style="enable-background:new 0 0 32 32;" xml:space="preserve">
<style type="text/css">
	.st0{fill:#FF9B03;}
	.st1{fill:#FFFFFF;}
</style>
<circle class="st0" cx="16" cy="16" r="16"/>
<g>
	<path class="st1" d="M8,8.3c2.2,2.1,5,2.9,8,2.9c2.9,0,5.8-0.9,7.9-2.9H8z M7.8,8.5v15.2h3.4c0.1-2.4-0.7-3.9-2.5-5.6
		c2.8-0.7,3.8-4.6,4.6-7C11.2,10.9,9.3,9.9,7.8,8.5z M18.7,11.2c0.7,2.4,1.8,6.3,4.5,7c-1.8,1.6-2.5,3.1-2.5,5.6h3.4V8.5
		C22.6,9.9,20.8,10.9,18.7,11.2z"/>
</g>
</svg>
