<?xml version="1.0" encoding="utf-8"?>
<!-- Generator: Adobe Illustrator 21.1.0, SVG Export Plug-In . SVG Version: 6.00 Build 0)  -->
<svg version="1.1" id="Layer_1" xmlns="http://www.w3.org/2000/svg" xmlns:xlink="http://www.w3.org/1999/xlink" x="0px" y="0px"
	 viewBox="0 0 32 32" style="enable-background:new 0 0 32 32;" xml:space="preserve">
<style type="text/css">
	.st0{fill:#FF5122;}
	.st1{fill:none;stroke:#FFFFFF;stroke-width:0.25;stroke-miterlimit:10;}
	.st2{fill:#FFFFFF;}
</style>
<circle class="st0" cx="16" cy="16" r="16"/>
<path class="st1" d="M29.2,14"/>
<path class="st1" d="M24.5,17.8"/>
<path class="st1" d="M24.5,10.5"/>
<g>
	<path class="st2" d="M12.3,20.1v-3.8c0-2,1.6-3.7,3.7-3.7c2,0,3.7,1.6,3.7,3.7l0,0v3.8l0,0H12.3L12.3,20.1z M20.5,23.1h-9v-2.3h9
		V23.1z"/>
	<path class="st2" d="M16,10.5c0.2,0,0.4-0.2,0.4-0.4V7.6c0-0.2-0.2-0.4-0.4-0.4s-0.4,0.2-0.4,0.4V10C15.6,10.3,15.8,10.5,16,10.5z"
		/>
	<path class="st2" d="M23.5,14h-2.4c-0.2,0-0.4,0.2-0.4,0.4s0.2,0.4,0.4,0.4h2.4c0.2,0,0.4-0.2,0.4-0.4C23.9,14.1,23.8,14,23.5,14z"
		/>
	<path class="st2" d="M11.3,14.3c0-0.2-0.2-0.4-0.4-0.4H8.5c-0.2,0-0.4,0.2-0.4,0.4s0.2,0.4,0.4,0.4h2.4
		C11.1,14.7,11.3,14.6,11.3,14.3z"/>
	<path class="st2" d="M12.6,11.6c0.2,0.2,0.4,0.2,0.6,0c0.2-0.2,0.2-0.4,0-0.6l-1.7-1.7c-0.2-0.2-0.4-0.2-0.6,0
		c-0.2,0.2-0.2,0.4,0,0.6L12.6,11.6z"/>
	<path class="st2" d="M19.1,11.7c0.1,0,0.2,0,0.3-0.1l1.7-1.7c0.2-0.2,0.2-0.4,0-0.6c-0.2-0.2-0.4-0.2-0.6,0l0,0L18.8,11
		c-0.2,0.2-0.2,0.4,0,0.6C18.9,11.6,19,11.7,19.1,11.7L19.1,11.7z"/>
</g>
</svg>
