<?xml version="1.0" encoding="utf-8"?>
<!-- Generator: Adobe Illustrator 21.1.0, SVG Export Plug-In . SVG Version: 6.00 Build 0)  -->
<svg version="1.1" id="Layer_1" xmlns="http://www.w3.org/2000/svg" xmlns:xlink="http://www.w3.org/1999/xlink" x="0px" y="0px"
	 viewBox="0 0 125.3 125.3" style="enable-background:new 0 0 125.3 125.3;" xml:space="preserve">
<style type="text/css">
	.st0{fill:#00809E;}
	.st1{fill:#FFFFFF;}
</style>
<circle class="st0" cx="62.6" cy="62.6" r="62.6"/>
<g>
	<path class="st1" d="M29.1,47h8.6l5,14.9h39.9l5-14.9h8.6V32.1h-67V47z M75.4,50.7h7l-1.9,5.6h-6.1L75.4,50.7z M67.9,50.7h3.7
		l-0.9,5.6h-6.2v-2.2C66.1,53.5,67.3,52.3,67.9,50.7z M62.6,47c1,0,1.9,0.8,1.9,1.9s-0.8,1.9-1.9,1.9c-1,0-1.9-0.8-1.9-1.9
		S61.6,47,62.6,47z M57.4,50.7c0.6,1.6,1.8,2.8,3.4,3.4v2.2h-6.2l-0.9-5.6H57.4z M49.9,50.7l0.9,5.6h-6.1l-1.9-5.6H49.9z"/>
	<path class="st1" d="M64,68c4.3,4.3,4.3,11.3,0,15.7c-1.4,1.4-2.2,3.2-2.2,5.2c0,2,0.8,3.8,2.2,5.2l2.6-2.6
		c-0.7-0.7-1.1-1.6-1.1-2.6s0.4-1.9,1.1-2.6c5.8-5.8,5.8-15.2,0-20.9L64,68z"/>
	<path class="st1" d="M61.3,81c1.4-1.4,2.2-3.2,2.2-5.2s-0.8-3.8-2.2-5.2l-2.6,2.6c0.7,0.7,1.1,1.6,1.1,2.6s-0.4,1.9-1.1,2.6
		c-5.8,5.8-5.8,15.2,0,20.9l2.6-2.6C57,92.4,57,85.3,61.3,81z"/>
</g>
</svg>
