<?xml version="1.0" encoding="utf-8"?>
<!-- Generator: Adobe Illustrator 21.1.0, SVG Export Plug-In . SVG Version: 6.00 Build 0)  -->
<svg version="1.1" id="Layer_1" xmlns="http://www.w3.org/2000/svg" xmlns:xlink="http://www.w3.org/1999/xlink" x="0px" y="0px"
	 viewBox="0 0 32 32" style="enable-background:new 0 0 32 32;" xml:space="preserve">
<style type="text/css">
	.st0{fill:#196B93;}
	.st1{fill:none;stroke:#FFFFFF;stroke-width:0.25;stroke-miterlimit:10;}
	.st2{fill:#FFFFFF;}
</style>
<circle class="st0" cx="16" cy="16" r="16"/>
<path class="st1" d="M29.2,14"/>
<path class="st1" d="M24.5,17.8"/>
<path class="st1" d="M24.5,10.5"/>
<g transform="translate(0,-952.36218)">
	<path class="st2" d="M16,959.7c-0.1,0-0.1,0-0.2,0c0,0-0.1,0.1-0.1,0.1c0,0-0.1,0.1-0.1,0.1s0,0.1,0,0.2v2.8c0,0.1,0,0.1,0,0.2
		c0,0.1,0.1,0.1,0.1,0.2l0,0l0,0c0,0,0.1,0.1,0.2,0.1c0.1,0,0.1,0,0.2,0c2.6,0,4.8,2.2,4.8,4.8c0,0,0,0,0,0.1v0c0,0,0,0.1,0,0.1
		c-0.1,2.5-2.2,4.6-4.7,4.6c0,0-0.1,0-0.1,0c-2.6,0-4.6-2.1-4.7-4.6c0,0,0-0.1,0-0.1c0,0,0-0.1,0-0.1c0-2.1,1.4-3.9,3.3-4.6
		c0.1,0,0.1,0,0.1-0.1c0,0,0.1-0.1,0.1-0.1c0,0,0-0.1,0-0.2s0-0.1,0-0.2s0-0.1-0.1-0.1c0,0-0.1-0.1-0.1-0.1c0,0-0.1,0-0.2,0
		c-0.1,0-0.1,0-0.2,0c-2.2,0.7-3.7,2.7-3.8,5.1H7.7c-0.1,0-0.1,0-0.2,0c0,0-0.1,0-0.1,0.1c0,0-0.1,0.1-0.1,0.1c0,0,0,0.1,0,0.2
		s0,0.1,0,0.2c0,0,0.1,0.1,0.1,0.1c0,0,0.1,0.1,0.1,0.1c0,0,0.1,0,0.2,0h2.7c0.3,2.7,2.5,4.8,5.2,5v2.9c0,0.1,0,0.1,0,0.2
		c0,0,0,0.1,0.1,0.1c0,0,0.1,0.1,0.1,0.1c0,0,0.1,0,0.2,0c0.1,0,0.1,0,0.2,0c0,0,0.1-0.1,0.1-0.1c0,0,0.1-0.1,0.1-0.1
		c0-0.1,0-0.1,0-0.2v-2.9c2.7-0.2,4.9-2.3,5.2-5h2.7c0.1,0,0.1,0,0.2,0c0,0,0.1,0,0.1-0.1s0.1-0.1,0.1-0.1c0,0,0-0.1,0-0.2
		s0-0.1,0-0.2c0,0-0.1-0.1-0.1-0.1c0,0-0.1-0.1-0.1-0.1c0,0-0.1,0-0.2,0h-2.7c-0.1-2.9-2.4-5.2-5.2-5.4v-2.5c0-0.1,0-0.1,0-0.2
		c0-0.1-0.1-0.1-0.1-0.1c0,0-0.1-0.1-0.1-0.1C16.1,959.7,16.1,959.7,16,959.7L16,959.7z"/>
	<path class="st2" d="M16,965.8c-1.4,0-2.6,1.2-2.6,2.6s1.2,2.6,2.6,2.6s2.6-1.2,2.6-2.6S17.4,965.8,16,965.8z"/>
</g>
</svg>
