<?xml version="1.0" encoding="utf-8"?>
<!-- Generator: Adobe Illustrator 21.1.0, SVG Export Plug-In . SVG Version: 6.00 Build 0)  -->
<svg version="1.1" id="Layer_1" xmlns="http://www.w3.org/2000/svg" xmlns:xlink="http://www.w3.org/1999/xlink" x="0px" y="0px"
	 viewBox="0 0 86.2 110.2" style="enable-background:new 0 0 86.2 110.2;" xml:space="preserve">
<style type="text/css">
	.st0{fill:none;stroke:#D6191C;stroke-width:2;stroke-miterlimit:10;}
</style>
<path class="st0" d="M37.1,42.3c-0.2,0.9-0.5,1.7-0.5,2.6c0,17.1,0,34.2,0,51.2c0,2.6,0,5.2,0,7.7c-0.1,3-2.3,5.2-5.4,5.4
	c-2.6,0.2-5.3-1.8-5.7-4.6c-0.3-2.6-0.2-5.1-0.2-7.7c0-6,0-12-0.1-18c0-0.7-0.7-1.4-1-2.1C23.8,77.6,23,78.3,23,79
	c-0.1,7.4-0.1,14.8-0.1,22.2c0,0.7,0,1.5,0,2.2c-0.2,3.4-2.6,5.9-5.6,5.8c-3.4-0.1-5.6-2.5-5.6-6.2c0-19.3,0-38.7,0-58
	c0-0.9-0.2-1.8-0.4-2.8c-0.3,0-0.6,0-0.9,0c-0.1,0.8-0.2,1.7-0.2,2.5c0,7.8,0,15.7,0,23.5c0,3.3-1.4,4.9-4.5,5.1
	c-2.8,0.3-4.5-1.1-4.5-3.9C1,58.8,1,48.1,1.1,37.3c0-4,2.1-5.9,6.1-5.9c11.2,0,22.5,0,33.7,0c4.3,0,6.3,1.8,6.3,6.2
	c0.1,10.6,0,21.2,0,31.7c0,2.8-1.3,4.1-3.8,4.2c-2.7,0.1-4.9-1.5-5.2-4c-0.1-0.7,0-1.3,0-2c0-7.5,0-15,0-22.5c0-0.9,0-1.8,0-2.6
	C37.8,42.4,37.5,42.4,37.1,42.3z"/>
<circle class="st0" cx="24.1" cy="19.4" r="10.1"/>
<path class="st0" d="M79.7,6.5c-7.3-7.3-19.2-7.3-26.5,0c-7.3,7.3-7.3,19.2,0,26.5c7.3,7.3,19.2,7.3,26.5,0
	C87,25.7,87,13.8,79.7,6.5z"/>
<path class="st0" d="M76.2,25.6c2.5,2.5-1.2,6.2-3.7,3.7l-6-6l-6,6c-2.5,2.5-6.2-1.2-3.7-3.7l6-6l-6-6c-2.4-2.5,1.3-6.2,3.7-3.7l6,6
	l6-6c2.5-2.4,6.2,1.3,3.7,3.7l-6,6L76.2,25.6z"/>
</svg>
