<?xml version="1.0" encoding="UTF-8"?>
<svg xmlns="http://www.w3.org/2000/svg" xmlns:xlink="http://www.w3.org/1999/xlink">
    <symbol viewBox="0 0 63.2 51.9" id="blacklist">
        <path  fill="none" stroke="#D7191C" stroke-miterlimit="10" d="M58.5,4.7c-5.6-5.6-14.6-5.6-20.1,0c-5.6,5.5-5.6,14.5,0,20.1c5.5,5.6,14.5,5.6,20.1,0S64.1,10.2,58.5,4.7z"/>
        <path  fill="none" stroke="#D7191C" stroke-miterlimit="10" d="M55.9,19.2c1.9,1.9-0.9,4.7-2.8,2.8l-4.6-4.5L43.9,22c-1.9,1.9-4.7-0.9-2.8-2.8l4.6-4.6L41.1,10
	c-1.8-1.9,1-4.7,2.8-2.8l4.5,4.6l4.6-4.6c1.9-1.8,4.7,1,2.8,2.8l-4.5,4.5L55.9,19.2z"/>
        <g>
            <path  fill="none" stroke="#D7191C" stroke-miterlimit="10" d="M34.8,11.2H16.3c-2.5,0-4.1,0.9-6.1,3.8L6.7,23H1.3c-0.8,0-2.4,4.3,3.2,4.5L2.7,32c0.1,5.8,0.1,11.5,0.1,17.3
		c0,1.2,1,2.2,2.2,2.2h7.3c1.2,0,2.1-1,2.1-2.2v-4.7h27.5v4.7c0,1.2,1,2.2,2.2,2.2h7.3c1.2,0,2.1-1,2.1-2.2c0-5.7,0.1-11.5,0.1-17.3
		l-1.4-3.5 M39.1,25.5C39,25.5,39,25.4,39.1,25.5L9.6,25.4c1.1-2.4,2.2-5,3.6-7.8c0.8-1.3,1.6-2.5,3.1-2.7h17.9 M10.6,39.4
		c-2,0-3.5-1.6-3.5-3.5c0-2,1.5-3.5,3.5-3.5c1.9,0,3.5,1.5,3.5,3.5C14.1,37.8,12.5,39.4,10.6,39.4z M35.4,38.7H20.6
		c-0.8,0-1.6-0.8-1.6-1.6c0-0.9,0.8-1.7,1.6-1.7h14.8c0.9,0,1.6,0.8,1.6,1.7C37,38,36.3,38.7,35.4,38.7z M45.5,39.4
		c-1.9,0-3.5-1.6-3.5-3.5c0-2,1.6-3.5,3.5-3.5c2,0,3.5,1.5,3.5,3.5C49,37.8,47.4,39.4,45.5,39.4z"/>
        </g>
    </symbol>
    <symbol viewBox="0 0 63 51.7" id="whitelist">
        <path fill="none" stroke="#A6CEE4"  stroke-miterlimit="10" d="M58.3,4.7c-5.5-5.5-14.5-5.5-20,0c-5.5,5.5-5.5,14.5,0,20c5.5,5.5,14.5,5.5,20,0S63.8,10.2,58.3,4.7z"/>
        <g>
            <path fill="none" stroke="#A6CEE4"  stroke-miterlimit="10" d="M34.7,11.2H16.2c-2.5,0-4,0.9-6.1,3.8l-3.5,7.9H1.3c-0.8,0-2.4,4.3,3.2,4.5l-1.9,4.5C2.7,37.6,2.7,43.3,2.7,49
		c0,1.2,1,2.2,2.2,2.2h7.2c1.2,0,2.1-1,2.1-2.2v-4.7h27.4V49c0,1.2,1,2.2,2.2,2.2H51c1.2,0,2.1-1,2.1-2.2c0-5.7,0.1-11.4,0.1-17.2
		l-1.4-3.4 M38.9,25.4C38.9,25.4,38.9,25.3,38.9,25.4L9.6,25.3c1.1-2.4,2.2-4.9,3.5-7.7c0.8-1.3,1.6-2.5,3.1-2.6h17.8 M10.6,39.2
		c-1.9,0-3.5-1.6-3.5-3.5c0-1.9,1.5-3.5,3.5-3.5c1.9,0,3.5,1.5,3.5,3.5C14.1,37.6,12.5,39.2,10.6,39.2z M35.3,38.6H20.6
		c-0.8,0-1.6-0.8-1.6-1.6c0-0.9,0.8-1.7,1.6-1.7h14.8c0.9,0,1.6,0.8,1.6,1.7C36.9,37.8,36.2,38.6,35.3,38.6z M45.3,39.2
		c-1.9,0-3.5-1.6-3.5-3.5c0-1.9,1.6-3.5,3.5-3.5c1.9,0,3.5,1.5,3.5,3.5C48.8,37.6,47.3,39.2,45.3,39.2z"/>
        </g>
        <path fill="none" stroke="#A6CEE4"  stroke-miterlimit="10" d="M57,10.8L46.9,21.3c-0.6,0.6-1.5,0.6-2,0l-5-5.3c-0.6-0.6-0.6-1.5,0-2.1c0.6-0.6,1.5-0.6,2,0l4,4.2L55,8.7
	c0.6-0.6,1.5-0.6,2,0C57.6,9.3,57.6,10.2,57,10.8z"/>
    </symbol>
    <symbol viewBox="0 0 62.8 51.6" id="mismatch">
        <path fill="none" stroke="#DEE012" stroke-miterlimit="10" d="M58.2,4.7c-5.5-5.5-14.5-5.5-20,0c-5.5,5.5-5.5,14.5,0,20c5.5,5.5,14.5,5.5,20,0S63.7,10.1,58.2,4.7z"/>
        <g>
            <path fill="none" stroke="#DEE012" stroke-miterlimit="10" d="M34.7,11.2H16.2c-2.5,0-4,0.9-6.1,3.8l-3.5,7.8H1.3c-0.8,0-2.4,4.3,3.2,4.4l-1.9,4.5
		c0.1,5.8,0.1,11.5,0.1,17.2c0,1.2,1,2.2,2.2,2.2h7.2c1.2,0,2.1-1,2.1-2.2v-4.7h27.4v4.7c0,1.2,1,2.2,2.2,2.2h7.2
		c1.2,0,2.1-1,2.1-2.2c0-5.7,0.1-11.4,0.1-17.2l-1.4-3.4 M38.9,25.4C38.8,25.3,38.8,25.3,38.9,25.4L9.5,25.3
		c1.1-2.4,2.2-4.9,3.5-7.7c0.8-1.3,1.6-2.5,3.1-2.6H34 M10.6,39.1c-1.9,0-3.5-1.6-3.5-3.5c0-1.9,1.5-3.5,3.5-3.5
		c1.9,0,3.5,1.5,3.5,3.5C14,37.5,12.5,39.1,10.6,39.1z M35.2,38.5H20.5c-0.8,0-1.6-0.8-1.6-1.6c0-0.9,0.8-1.7,1.6-1.7h14.7
		c0.9,0,1.6,0.8,1.6,1.7C36.8,37.8,36.1,38.5,35.2,38.5z M45.2,39.1c-1.9,0-3.5-1.6-3.5-3.5c0-1.9,1.6-3.5,3.5-3.5
		c1.9,0,3.5,1.5,3.5,3.5C48.7,37.5,47.2,39.1,45.2,39.1z"/>
        </g>
        <g>
            <path fill="none" stroke="#DEE012" stroke-miterlimit="10" d="M48.4,17.2c0.7,0,1.3-1,1.3-2.3L50,7.5c0-1.2-0.7-2.3-1.6-2.3c-0.9,0-1.6,1-1.6,2.3l0.3,7.5
		C47.1,16.2,47.7,17.2,48.4,17.2z"/>
            <path fill="none" stroke="#DEE012" stroke-miterlimit="10" d="M48.4,22.9c1.2,0,2-0.9,2-2c0-1.2-0.8-2-2-2c-1.1,0-1.9,0.8-1.9,2C46.4,22,47.2,22.9,48.4,22.9z"/>
        </g>
    </symbol>
    <symbol viewBox="0 0 40.5 40.5" id="blacklist-1">
        <g>
            <path fill="none" stroke="#D7191C" stroke-miterlimit="10" d="M34.2,6.3C26.5-1.4,14-1.4,6.3,6.3c-7.7,7.7-7.7,20.2,0,27.9c7.7,7.7,20.2,7.7,27.9,0S41.9,14,34.2,6.3z"/>
            <path fill="none" stroke="#D7191C" stroke-miterlimit="10" d="M30.5,26.4c2.6,2.6-1.3,6.5-3.9,3.9L20.3,24L14,30.3c-2.6,2.6-6.5-1.3-3.9-3.9l6.3-6.3l-6.3-6.3
	c-2.6-2.6,1.3-6.5,3.9-3.9l6.3,6.3l6.3-6.3c2.6-2.6,6.5,1.3,3.9,3.9L24.2,20L30.5,26.4z"/>
        </g>
    </symbol>
    <symbol viewBox="0 0 40.7 40.7" id="mismatch-1">
        <g>
            <path fill="none" stroke="#DEE012" stroke-miterlimit="10" d="M34.3,6.3c-7.8-7.8-20.3-7.8-28,0c-7.8,7.7-7.8,20.3,0,28c7.7,7.8,20.3,7.8,28,0S42.1,14,34.3,6.3z"/>
            <path fill="none" stroke="#DEE012" stroke-miterlimit="10" d="M20.4,24.6c0.9,0,1.8-1.4,1.8-3.2l0.4-10.5c0.1-1.7-0.9-3.2-2.2-3.2c-1.3,0-2.3,1.4-2.2,3.2l0.4,10.5
		C18.6,23.2,19.4,24.6,20.4,24.6z"/>
            <path fill="none" stroke="#DEE012" stroke-miterlimit="10" d="M20.3,32.5c1.7,0,2.7-1.2,2.7-2.8c0-1.7-1.1-2.8-2.7-2.8c-1.6,0-2.7,1.2-2.7,2.8
		C17.6,31.3,18.7,32.5,20.3,32.5z"/>
        </g>
    </symbol>
    <symbol viewBox="0 0 40.5 40.5" id="whitelist-1">
        <g>
            <path fill="none" stroke="#A6CEE4" stroke-miterlimit="10" d="M34.2,6.3C26.5-1.4,14-1.4,6.3,6.3s-7.7,20.2,0,27.9s20.2,7.7,27.9,0S41.9,14,34.2,6.3z"/>
            <path fill="none" stroke="#A6CEE4" stroke-miterlimit="10" d="M32.4,14.3L18,29.2c-0.9,0.9-2.1,0.9-2.8,0l-7.1-7.5c-0.9-0.9-0.9-2.1,0-3c0.9-0.9,2.1-0.9,2.8,0l5.7,6
	l12.9-13.3c0.9-0.9,2.1-0.9,2.8,0C33.2,12.2,33.2,13.4,32.4,14.3z"/>
        </g>
    </symbol>
</svg>