<?xml version="1.0" encoding="utf-8"?>
<!-- Generator: Adobe Illustrator 21.1.0, SVG Export Plug-In . SVG Version: 6.00 Build 0)  -->
<svg version="1.1" id="Layer_1" xmlns="http://www.w3.org/2000/svg" xmlns:xlink="http://www.w3.org/1999/xlink" x="0px" y="0px"
	 viewBox="0 0 36 36" style="enable-background:new 0 0 36 36;" xml:space="preserve">
<style type="text/css">
	.st0{fill:none;}
</style>
<polygon points="36,0 33.4,0 0,33 0,36 2.5,36 36,2.5 "/>
<polygon points="23.2,0 0,23 0,28 28.3,0 "/>
<polygon points="13.1,0.1 0,12.9 0,18 18,0 "/>
<polygon points="2.9,0 0,3 0,8 8,0 "/>
<polygon points="36,7.6 7.6,36 12.7,36 36,12.7 "/>
<polygon points="36,17.8 17.8,36 22.9,36 36,22.9 "/>
<polygon points="36,28 28,36 33.1,36 36,33.1 "/>
<path class="st0" d="M-6-6h48v48H-6V-6z"/>
</svg>
