<?xml version="1.0" encoding="UTF-8"?>
<svg xmlns="http://www.w3.org/2000/svg" xmlns:xlink="http://www.w3.org/1999/xlink">
	<symbol viewBox="0 0 100 125" id="broker">
		<path fill="#DF94A7" d="M7.3,7.3v85.4h85.4V7.3H7.3z M88.7,11.3v23.5H11.3V11.3H88.7z M88.7,38.8v22.4H11.3V38.8H88.7z M11.3,88.7V65.2
			h77.4v23.5H11.3z"/>
		<rect x="19.2" y="20.3" fill="#DF94A7" width="32.1" height="4"/>
		<rect x="19.2" y="48" fill="#DF94A7" width="32.1" height="4"/>
		<rect x="19.2" y="75.7" fill="#DF94A7" width="32.1" height="4"/>
	</symbol>
	<symbol viewBox="0 0 32 32" id="security">
		<circle fill="#00BFF2" cx="16" cy="16" r="16"/>
		<g>
			<path fill="#FFFFFF" d="M24.2,16.3v1.6h-0.7V19h-4.6c-0.1-0.5-0.6-0.9-1.2-0.9c-0.1,0-0.1,0-0.2,0l-1.2-2.2l5.1-2.5l0.4-1.6l-1.6-3.2
				L5.7,15.8l4.7,3.1l5.3-2.6l1.2,2.2c-0.2,0.2-0.3,0.5-0.3,0.8c0,0.7,0.5,1.2,1.2,1.2c0.4,0,0.8-0.3,1.1-0.6h4.7v1.2h0.7v1.6H25v-6.2
				h-0.8V16.3z M19.5,10c0.3,0,0.6,0.3,0.6,0.6s-0.3,0.6-0.6,0.6c-0.3,0-0.6-0.3-0.6-0.6S19.1,10,19.5,10z"/>
		</g>
	</symbol>
	<symbol viewBox="0 0 92.5 59.5" id="client">
		<g>
			<g>
				<g transform="translate(5.000000, 21.000000)">
					<path fill="none" stroke="#0F96F0" stroke-width="2.5" d="M69.8,4.2c0-0.2,0-0.5,0-0.7c0-12.8-10.4-23.3-23.3-23.3c-9.3,0-17.2,5.4-21,13.2c-1.6-0.8-3.4-1.3-5.4-1.3
						c-5.9,0-10.9,4.3-11.8,10c-7.1,2.4-12.2,9.1-12.2,17c0,9.9,8.1,18,18,18l55.6,0c9.1,0,16.4-7.4,16.4-16.5
						C86.2,11.6,78.9,4.2,69.8,4.2L69.8,4.2z"/>
				</g>
			</g>
		</g>
	</symbol>
	<symbol viewBox="0 0 68 68" id="detection">
		<path fill="#DFE112" d="M4,4v12c0,1.1-0.9,2-2,2s-2-0.9-2-2V2c0-1.1,0.9-2,2-2h14c1.1,0,2,0.9,2,2s-0.9,2-2,2H4z M64,4H52
		c-1.1,0-2-0.9-2-2s0.9-2,2-2h14c1.1,0,2,0.9,2,2v14c0,1.1-0.9,2-2,2s-2-0.9-2-2V4z M4,64h12c1.1,0,2,0.9,2,2s-0.9,2-2,2H2
		c-1.1,0-2-0.9-2-2V52c0-1.1,0.9-2,2-2s2,0.9,2,2V64z M64,64V52c0-1.1,0.9-2,2-2s2,0.9,2,2v14c0,1.1-0.9,2-2,2H52c-1.1,0-2-0.9-2-2
		s0.9-2,2-2H64z M48,46c0,1.1-0.9,2-2,2H22c-1.1,0-2-0.9-2-2V22c0-1.1,0.9-2,2-2h24c1.1,0,2,0.9,2,2V46z"/>
	</symbol>
</svg>