<?xml version="1.0" encoding="utf-8"?>
<!-- Generator: Adobe Illustrator 21.0.0, SVG Export Plug-In . SVG Version: 6.00 Build 0)  -->
<svg version="1.1" id="Layer_1" xmlns="http://www.w3.org/2000/svg" xmlns:xlink="http://www.w3.org/1999/xlink" x="0px" y="0px"
	 viewBox="0 0 28 38.5" style="enable-background:new 0 0 28 38.5;" xml:space="preserve">
<style type="text/css">
	.st0{fill:#FFFFFF;}
</style>
<g>
	<g>
		<path d="M20,2.5c-0.7,0-1.2,0.2-1.7,0.5C18,1.6,18,0,15.1,0s-2.9,4-2.9,4s-0.4-0.4-1.6-0.4c-1.8,0-3.3,1.5-3.3,3.3v11.3l-1-2
			c-0.5-1.3-1.7-2.2-3.1-2.2c-0.4,0-0.8,0.1-1.1,0.2c-1.7,0.6-2.6,2.5-2,4.3l6.9,14.7c0,0.1,0.1,0.1,0.1,0.1c0.7,1.1,1.5,2,2.6,2.9
			c0.1,0.1,0.1,0.1,0.2,0.1c0.1,0.1,0.1,0.1,0.1,0.1c2,1.4,4.3,2.2,6.7,2.2c6.1,0,11-4.8,11.3-10.9v-0.1V27v-0.1v-0.4V9.9
			c0-1.8-1.4-3.3-3.3-3.3c-0.7,0-1.2,0.2-1.7,0.5C22.8,5.9,23.2,2.5,20,2.5z M10.5,34.1c-0.8-0.7-1.4-1.4-1.9-2.2L2,17.5
			c-0.2-0.7,0.1-1.5,0.8-1.8c0.7-0.2,1.5,0.1,1.7,0.8l2.8,6C7.5,23,8,23.2,8.4,23.1c0.4-0.1,0.7-0.5,0.7-0.9V6.8
			c0-0.8,0.6-1.4,1.4-1.4s1.4,0.7,1.4,1.4c0,0,0,4.1,0,8V15c0,0.5,0.4,0.9,0.9,0.9s0.9-0.4,0.9-0.9c0,0,0-0.1,0-0.2
			c0-1.1,0-11.7,0-11.8c0.1-0.7,0.7-1.3,1.4-1.3c0.8,0,1.4,0.7,1.4,1.4v13.1v0.2c0,0.5,0.4,0.9,0.9,0.9s0.9-0.4,0.9-0.9
			c0,0,0-10.8,0-10.8c0.1-1.2,0.7-1.3,1.4-1.3c0.8,0,1.4,0.7,1.4,1.4c0,0,0-1.1,0,1.3v10.9c0,0.5,0.4,0.9,0.9,0.9
			c0.5,0,0.9-0.4,0.9-0.9c0,0,0-8.1,0-8.2c0.1-1.3,0.7-1.2,1.4-1.2c0.8,0,1.4,0.7,1.4,1.4v16.5v0.1v0.1v0.3v0.5c-0.2,5-4.3,9-9.3,9
			c-2.2-0.1-4-0.7-5.6-1.8l-0.1-0.1C10.8,34.3,10.7,34.2,10.5,34.1z"/>
	</g>
</g>
<path class="st0" d="M10.5,34.1c-0.8-0.7-1.4-1.4-1.9-2.2L2,17.5c-0.2-0.7,0.1-1.5,0.8-1.8c0.7-0.2,1.5,0.1,1.7,0.8l2.8,6
	C7.5,23,8,23.2,8.4,23.1c0.4-0.1,0.7-0.5,0.7-0.9V6.8c0-0.8,0.6-1.4,1.4-1.4s1.4,0.7,1.4,1.4c0,0,0,4.1,0,8V15
	c0,0.5,0.4,0.9,0.9,0.9s0.9-0.4,0.9-0.9c0,0,0-0.1,0-0.2c0-1.1,0-11.7,0-11.8c0.1-0.7,0.7-1.3,1.4-1.3c0.8,0,1.4,0.7,1.4,1.4v13.1
	v0.2c0,0.5,0.4,0.9,0.9,0.9s0.9-0.4,0.9-0.9c0,0,0-10.8,0-10.8c0.1-1.2,0.7-1.3,1.4-1.3c0.8,0,1.4,0.7,1.4,1.4c0,0,0-1.1,0,1.3v10.9
	c0,0.5,0.4,0.9,0.9,0.9c0.5,0,0.9-0.4,0.9-0.9c0,0,0-8.1,0-8.2c0.1-1.3,0.7-1.2,1.4-1.2c0.8,0,1.4,0.7,1.4,1.4v16.5v0.1v0.1v0.3v0.5
	c-0.2,5-4.3,9-9.3,9c-2.2-0.1-4-0.7-5.6-1.8l-0.1-0.1C10.8,34.3,10.7,34.2,10.5,34.1z"/>
</svg>
