<svg width="704" height="64" version="1.1" viewBox="0 0 660 60" xmlns="http://www.w3.org/2000/svg" xmlns:xlink="http://www.w3.org/1999/xlink">
 <g id="enabled" fill="#464646">
  <g id="polyline">
   <path d="m18 36v6h6v-6zm4 4h-2v-2h2z"/>
   <path d="m36 18v6h6v-6zm4 4h-2v-2h2z"/>
   <path d="m23.142 39.145-2.285-2.29 16-15.998 2.285 2.285z"/>
  </g>
  <path id="polygon" d="M 100,24.565 97.904,39.395 83.07,42 76,28.773 86.463,18 Z"/>
  <path id="rectangle" d="m140 20h20v20h-20z"/>
  <path id="circle" d="m221 30c0 6.078-4.926 11-11 11s-11-4.922-11-11c0-6.074 4.926-11 11-11s11 4.926 11 11z"/>
  <path id="marker" d="m270 19c-4.971 0-9 4.029-9 9s5.001 12 9 14c4.001-2 9-9.029 9-14s-4.029-9-9-9zm0 12.5c-2.484 0-4.5-2.014-4.5-4.5 0-2.484 2.016-4.5 4.5-4.5 2.485 0 4.5 2.016 4.5 4.5 0 2.486-2.015 4.5-4.5 4.5z"/>
  <g id="edit">
   <path d="m337 30.156v6.011c0 1.658-1.344 3-3 3h-10c-1.655 0-3-1.342-3-3v-10c0-1.657 1.345-3 3-3h6.345l3.19-3.17h-9.535c-3.313 0-6 2.687-6 6v10c0 3.313 2.687 6 6 6h10c3.314 0 6-2.687 6-6v-8.809l-3 2.968" fill="#464646"/>
   <path d="m338.72 24.637-8.892 8.892h-2.828v-2.829l8.89-8.89z" fill="#464646"/>
   <path transform="rotate(225.01 340.7 19.817)" d="m338.7 17.826h4v4h-4z" fill="#464646"/>
  </g>
  <g id="remove">
   <path d="m381 42h18v-18h-18zm14-16h2v14h-2zm-4 0h2v14h-2zm-4 0h2v14h-2zm-4 0h2v14h-2z" fill="#464646"/>
   <path d="m395 20v-4h-10v4h-6v2h22v-2zm-2 0h-6v-2h6z" fill="#464646"/>
  </g>
 </g>
 <g id="disabled" transform="translate(120)" fill="#bbb">
  <use id="edit-disabled" width="100%" height="100%" xlink:href="#edit"/>
  <use id="remove-disabled" width="100%" height="100%" xlink:href="#remove"/>
 </g>
 <path d="m581.66 30c0 6.078-4.926 11-11 11s-11-4.922-11-11c0-6.074 4.926-11 11-11s11 4.926 11 11z" fill="none" stroke="#464646" stroke-width="2"/>
 <g fill="#464646">
  <path d="m632.27 34.903c0 4.7554-3.8541 8.6064-8.6064 8.6064s-8.6064-3.851-8.6064-8.6064c0-4.7523 3.8541-8.6064 8.6064-8.6064s8.6064 3.8541 8.6064 8.6064z" stroke-width=".7824"/>
  <path d="m641.77 23.415c0 3.6136-2.9287 6.5399-6.54 6.5399-3.6112 0-6.5399-2.9263-6.5399-6.5399 0-3.6112 2.9287-6.5399 6.5399-6.5399 3.6112 0 6.54 2.9287 6.54 6.5399z" stroke-width=".59454"/>
  <path d="m642.29 37.337c0 2.0151-1.6331 3.6469-3.6469 3.6469-2.0138 0-3.6469-1.6318-3.6469-3.6469 0-2.0138 1.6332-3.6469 3.6469-3.6469 2.0138 0 3.6469 1.6332 3.6469 3.6469z" stroke-width=".33154"/>
 </g>
</svg>
