<?xml version="1.0" encoding="UTF-8"?>
<svg xmlns="http://www.w3.org/2000/svg" xmlns:xlink="http://www.w3.org/1999/xlink">
    <symbol viewBox="0 0 47 48.7" id="store-health">
        <g>
            <path fill="none" stroke-miterlimit="10" d="M4.7,5.8h37.5c0.6,0,1.1-0.5,1.1-1.1v-3c0-0.6-0.5-1.1-1.1-1.1H4.7C4.1,0.5,3.6,1,3.6,1.6v3
		C3.7,5.3,4.1,5.8,4.7,5.8z"/>
            <path fill="none" stroke-miterlimit="10"  d="M46.4,19.6l-3.1-8.5V8.6c0-0.6-0.5-1.1-1.1-1.1H4.7C4.1,7.5,3.6,8,3.6,8.6v2.6l-3,8.3
		c-0.3,0.9,0.2,1.9,1.2,2.2c0.8,0.3,1.6,0.1,2-0.4v25.7c0,0.6,0.5,1.1,1.1,1.1h23.9V28.7h9v19.5h4.4c0.6,0,1.1-0.5,1.1-1.1V21.5
		c0.5,0.4,1.2,0.5,1.9,0.2C46.1,21.5,46.7,20.5,46.4,19.6z M12.6,20.5l0.1-0.8l1-6.8h4.6l-1,6.8l-0.1,0.8c-0.2,1.3-1.4,2.3-2.6,2.3
		S12.4,21.7,12.6,20.5z M6.1,22.8c-1.3,0-2.1-1-1.8-2.3l0.1-0.8l1.5-6.8h4.6l-1.5,6.8l-0.1,0.8C8.7,21.7,7.4,22.8,6.1,22.8z
		 M23.4,42.4H8.7V28.7h14.8L23.4,42.4L23.4,42.4z M25.7,19.7v0.8c0,1.3-1,2.3-2.3,2.3c-1.3,0-2.3-1-2.3-2.3v-0.8v-6.8h4.6L25.7,19.7
		z M32.4,22.8c-1.3,0-2.4-1-2.6-2.3l-0.1-0.8l-1-6.8h4.6l1,6.8l0.1,0.8C34.6,21.7,33.7,22.8,32.4,22.8z M40.6,22.8
		c-1.3,0-2.5-1-2.8-2.3l-0.1-0.8l-1.5-6.8h4.6l1.5,6.8l0.1,0.8C42.7,21.7,41.9,22.8,40.6,22.8z"/>
        </g>
    </symbol>
	<symbol viewBox="0 0 103.2 101.6" id="heatmap">
        <circle fill="none" stroke-miterlimit="10" stroke-width="2" cx="44.7" cy="62.5" r="23.9"/>
		<circle fill="none" stroke-miterlimit="10" stroke-width="2" cx="81.8" cy="32.2" r="16.9"/>
		<circle fill="none" stroke-miterlimit="10" stroke-width="2" cx="16.9" cy="28.7" r="12.5"/>
		<circle fill="none" stroke-miterlimit="10" stroke-width="2" cx="84.5" cy="73.6" r="9.8"/>
    </symbol>
	<symbol viewBox="0 0 103.2 101.6" id="demographic">
        <path fill="none" stroke-miterlimit="10" stroke-width="2" d="M34.4,69.5c0,7.1-0.1,14.5-0.1,21.6c0,0.7,0,1.4,0,2.1c-0.2,3.3-2.5,5.7-5.4,5.6c-3.3-0.1-5.4-2.4-5.4-5.9
			c0-18.5,0-37.1,0-55.6c0-0.9,0-1.7,0-2.7c-0.3,0-1.2,0-1.5,0c0,0.9,0,1.6,0,2.4c0,7.5,0,15.1,0,22.5c0,3.2-1.3,4.7-4.3,4.9
			c-2.7,0.3-4.3-1.1-4.3-3.7c-0.2-10.2-0.2-20.4-0.1-30.8c0-3.8,2-5.7,5.9-5.7c10.7,0,21.6,0,32.3,0c4.1,0,6,1.7,6,5.9
			c0.1,10.2,0,20.3,0,30.4c0,2.7-1.2,3.9-3.6,4c-2.6,0.1-4.7-1.4-5-3.8c-0.1-0.7,0-1.2,0-1.9c0-7.2,0-14.4,0-21.6c0-0.9,0-1.7,0-2.5
			c-0.4,0-1.1,0-1.6,0c0,1,0,1.5,0,2.4c0,16.4,0,32.8,0,49.1c0,2.5,0,5,0,7.4c-0.1,2.9-2.2,5-5.2,5.2c-2.5,0.2-5.1-1.7-5.5-4.4
			c-0.3-2.5-0.2-4.9-0.2-7.4c0-5.8-0.1-11.7-0.1-17.5L34.4,69.5z"/>
		<circle fill="none" stroke-miterlimit="10" stroke-width="2" cx="35.5" cy="12.6" r="9.7"/>
		<circle fill="none" stroke-miterlimit="10" stroke-width="2" cx="64" cy="12.3" r="9.6"/>
		<path fill="none" stroke-miterlimit="10" stroke-width="2" d="M53.8,24.6c6.3,0.1,15.1,0,21.4,0.1c3,0,4.6,1,5.6,3.8c3,7.7,5.9,15.3,8.7,23.1c0.5,1.4,0.4,3.5-0.3,5
			c-0.6,1.1-2.4,2.1-3.7,2.3c-1.7,0.2-3.1-1-3.7-2.8c-2.2-5.8-4.5-11.7-6.7-17.5c-0.3-0.7-0.6-1.2-0.8-1.8c-0.2,0-0.4,0.1-0.6,0.1
			c0.3,1.3,0.3,2.8,0.8,4c3.2,8.7,6.5,17.3,9.8,25.9c0.3,0.7,0.5,1.3,0.9,2.2c-3.7,0-7.5,0-11.4,0c0,1.2,0.1,2,0.1,3
			c0,7.4,0,15,0,22.4c0,4-0.5,4.7-3.3,4.7c-3.4,0-4.9-1.3-4.9-4.9c-0.1-7.6,0-17.6,0-25.2l-1.9,0c0,7.1,0,16.2,0,23.3
			c0,0.7,0,1.4,0,2.1c0,3.2-1.1,4.5-3.8,4.5c-4.1,0-5.3-0.9-5.4-4.5c-0.1-7.3,0-14.6,0-21.9c0-1,0-2.2,0-3.4c-1.3,0-2.6,0-3.8,0
			s-2.3,0-3.5,0"/>
    </symbol>
	<symbol viewBox="0 0 50.8 59" id="prj_no_of_transactions">
        <g>
			<path fill="none" stroke-miterlimit="10" d="M38.5,13.6c4.6,3.8,7.5,9.5,7.5,15.9c0,5.5-2.1,10.7-6,14.5c-0.9,0.9-0.9,2.2,0,3.1c0.4,0.4,1,0.6,1.5,0.6
				s1.1-0.2,1.5-0.6c4.7-4.7,7.3-10.9,7.3-17.6c0-5.3-1.7-10.2-4.5-14.2c-0.2-0.3-0.4-0.6-0.6-0.9"/>
			<path fill="none" stroke-miterlimit="10" d="M35.5,6.7c-2.9-1.3-6.2-2.1-9.6-2.1V1.8c0-0.5-0.2-0.9-0.7-1.2c-0.4-0.2-0.9-0.2-1.3,0.1l-7.7,4.7
				c-0.4,0.2-0.6,0.7-0.6,1.1s0.2,0.9,0.6,1.1l7.6,4.8c0.2,0.1,0.4,0.2,0.7,0.2c0.2,0,0.4-0.1,0.7-0.2c0.4-0.2,0.7-0.7,0.7-1.2V8.8
				c2.8,0.1,5.4,0.7,7.8,1.8"/>
			<path fill="none" stroke-miterlimit="10" d="M26.9,46.5c-0.4-0.2-0.9-0.2-1.3-0.1c-0.4,0.2-0.7,0.7-0.7,1.2V50C13.7,49.7,4.8,40.7,4.8,29.5
				c0-5.5,2.1-10.6,6-14.5c0.9-0.9,0.9-2.2,0-3.1c-0.9-0.9-2.2-0.9-3.1,0C3,16.6,0.4,22.8,0.4,29.5c0,13.5,10.9,24.6,24.4,24.8v2.8
				c0,0.5,0.2,0.9,0.7,1.2c0.2,0.1,0.4,0.2,0.7,0.2c0.2,0,0.5-0.1,0.7-0.2l7.7-4.8c0.4-0.2,0.6-0.7,0.6-1.1c0-0.4-0.2-0.9-0.6-1.1
				L26.9,46.5z"/>
		</g>
		<path fill="none" d="M47.9,1.2c-0.9,0-1.7,0.8-1.7,1.7c0,0.4,0.2,0.9,0.5,1.2l-3.1,6.2c-0.1,0-0.1,0-0.2,0c-0.2,0-0.4,0-0.6,0.1
			l-2.4-2.7c0.1-0.3,0.2-0.5,0.2-0.8c0-0.9-0.8-1.7-1.7-1.7S37.1,6,37.1,6.9c0,0.4,0.2,0.8,0.4,1.1l-3,5.2c-0.1,0-0.2,0-0.3,0
			c-0.9,0-1.7,0.8-1.7,1.7s0.8,1.7,1.7,1.7s1.7-0.8,1.7-1.7c0-0.4-0.2-0.8-0.4-1.1l3-5.2c0.3,0.1,0.6,0,0.9-0.1l2.4,2.7
			c-0.1,0.3-0.2,0.5-0.2,0.8c0,0.9,0.8,1.7,1.7,1.7c0.9,0,1.7-0.8,1.7-1.7c0-0.4-0.2-0.9-0.5-1.2l3.1-6.2c0.1,0,0.1,0,0.2,0
			c0.9,0,1.7-0.8,1.7-1.7S48.9,1.2,47.9,1.2z M34.2,15.7c-0.4,0-0.8-0.3-0.8-0.8s0.3-0.8,0.8-0.8c0.4,0,0.8,0.3,0.8,0.8
			S34.7,15.7,34.2,15.7z M38.8,7.6c-0.4,0-0.8-0.3-0.8-0.8c0-0.4,0.3-0.8,0.8-0.8c0.4,0,0.8,0.3,0.8,0.8C39.6,7.3,39.2,7.6,38.8,7.6z
			M43.3,12.9c-0.4,0-0.8-0.3-0.8-0.8s0.3-0.8,0.8-0.8s0.8,0.3,0.8,0.8S43.8,12.9,43.3,12.9z M47.9,3.7c-0.4,0-0.8-0.3-0.8-0.8
			s0.3-0.8,0.8-0.8s0.8,0.3,0.8,0.8S48.4,3.7,47.9,3.7z"/>
		<g>
			<path fill="none" stroke-miterlimit="10" d="M27.4,28l-0.2-0.1c0-0.5,0-1.1,0-1.6c0-1.1,0-2.2,0-3.3c0-0.4,0-0.8,0-1.3c1.5,0.2,2.6,1.5,3,3
				c0,0.9,1,1.6,1.8,1.5c0.8-0.1,1.7-0.8,1.6-1.7c-0.2-1.7-1-3.6-2.5-4.6c-1.1-0.8-2.5-1.5-3.9-1.6v-0.5c0-0.1,0-0.1,0-0.2
				c0-0.3,0-0.2,0-0.5c0-0.4-0.2-0.9-0.5-1.2c-0.3-0.3-0.7-0.5-1.2-0.5c-0.4,0-0.9,0.2-1.2,0.5c-0.3,0.3-0.5,0.7-0.5,1.2
				c0,0.2,0-0.2,0,0c0,0.2,0,0.3,0,0.5v0.7c-0.4,0.1-0.8,0.1-1.2,0.2c-3,0.6-5.3,3-5.3,6.2c0,0.1,0,0.2,0,0.3c0,3.3,3.3,5.3,6.2,6
				c0.1,0,0.3,0.1,0.4,0.1v0.3c0,0.6,0,0.8,0,1.4c0,1.1,0,2.2,0,3.3c0,0.3,0,0.6,0,0.9c0,0-0.4-0.1-0.4-0.1c-1.6-0.4-2.7-1.6-2.9-3.3
				c-0.1-0.9-1.2-1.4-2-1.2c-0.4,0.1-0.8,0.4-1,0.8c-0.1,0.1-0.1,0.3-0.2,0.4c-0.3,1.1,0.5,2.8,1.1,3.7c0.6,0.9,1.5,1.7,2.5,2.2
				c0.9,0.5,1.6,0.6,2.6,0.8l0.3,0c0,0.2,0,0.5,0,0.6c0,0.3,0,0.6,0,1v0c0,0.4,0.2,0.9,0.5,1.2c0.3,0.3,0.7,0.5,1.2,0.5
				c0.4,0,0.9-0.2,1.2-0.5c0.3-0.3,0.5-0.7,0.5-1.2c0-0.2,0-0.4,0-0.7v-1c0,0,0.3,0,0.3,0c3.2,0,6.3-3,6-6.3
				C33.3,30.7,30.4,28.7,27.4,28L27,27.9"/>
			<path fill="none" stroke-miterlimit="10" d="M23.8,22.2c0,1.1,0,2.2,0,3.3c0,0.6,0,1.3,0,2c0,0-0.3-0.1-0.3-0.1c-1.5-0.3-3.1-1.5-2.9-3.2
				c0.2-1.6,1.7-2.2,3.1-2.5L23.8,22.2z"/>
			<path fill="none" stroke-miterlimit="10" d="M27.2,36.5c0-1.7,0-3.5,0-5.2c0,0,0.3,0.1,0.3,0.1c1.5,0.3,3.1,1.5,2.9,3.2c-0.2,1.6-1.7,2.2-3.1,2.5
				C27.2,37,27.2,36.5,27.2,36.5z"/>
		</g>
    </symbol>
	<symbol viewBox="0 0 50.8 59" id="prj_revenue">
        <path fill="none" d="M47.9,1.2c-0.9,0-1.7,0.8-1.7,1.7c0,0.4,0.2,0.9,0.5,1.2l-3.1,6.2c-0.1,0-0.1,0-0.2,0c-0.2,0-0.4,0-0.6,0.1
			l-2.4-2.7c0.1-0.3,0.2-0.5,0.2-0.8c0-0.9-0.8-1.7-1.7-1.7S37.1,6,37.1,6.9c0,0.4,0.2,0.8,0.4,1.1l-3,5.2c-0.1,0-0.2,0-0.3,0
			c-0.9,0-1.7,0.8-1.7,1.7s0.8,1.7,1.7,1.7s1.7-0.8,1.7-1.7c0-0.4-0.2-0.8-0.4-1.1l3-5.2c0.3,0.1,0.6,0,0.9-0.1l2.4,2.7
			c-0.1,0.3-0.2,0.5-0.2,0.8c0,0.9,0.8,1.7,1.7,1.7S45,12.9,45,12c0-0.4-0.2-0.9-0.5-1.2l3.1-6.2c0.1,0,0.1,0,0.2,0
			c0.9,0,1.7-0.8,1.7-1.7S48.9,1.2,47.9,1.2z M34.2,15.7c-0.4,0-0.8-0.3-0.8-0.8s0.3-0.8,0.8-0.8c0.4,0,0.8,0.3,0.8,0.8
			S34.7,15.7,34.2,15.7z M38.8,7.6c-0.4,0-0.8-0.3-0.8-0.8C38,6.4,38.3,6,38.8,6c0.4,0,0.8,0.3,0.8,0.8S39.2,7.6,38.8,7.6z M43.3,12.9
			c-0.4,0-0.8-0.3-0.8-0.8s0.3-0.8,0.8-0.8s0.8,0.3,0.8,0.8S43.8,12.9,43.3,12.9z M47.9,3.7c-0.4,0-0.8-0.3-0.8-0.8s0.3-0.8,0.8-0.8
			s0.8,0.3,0.8,0.8S48.4,3.7,47.9,3.7z"/>
		<g>
			<path fill="none" stroke-miterlimit="10" d="M32.6,10.6c-0.3-0.2-0.5-0.5-0.8-0.7c-2.2-1.7-5.2-3-8-3.3v-1c0-0.1,0-0.2,0-0.4c0-0.6,0-0.4,0-1.1
				c0-0.9-0.4-1.8-1-2.5c-0.6-0.6-1.5-1-2.5-1c-0.9,0.1-1.8,0.4-2.5,1c-0.6,0.6-1,1.5-1,2.5c0,0.4,0-0.5,0,0c0,0.4,0,0.6,0,1v1.4
				c-0.8,0.1-1.6,0.2-2.4,0.4C8.4,8.3,3.7,13,3.7,19.5c0,0.2,0,0.4,0,0.5c0,6.8,6.7,10.9,12.6,12.2c0.2,0.1,0.5,0.1,0.8,0.1v0.7
				c0,1.2,0,1.7,0,2.9c0,2.3,0,4.5,0,6.8c0,0.6,0,1.2,0,1.9c0,0-0.8-0.2-0.8-0.2c-3.3-0.8-5.4-3.3-5.9-6.6c-0.2-1.8-2.5-2.9-4.2-2.4
				c-0.8,0.3-1.6,0.8-2.1,1.6c-0.2,0.3-0.3,0.5-0.4,0.8c-0.7,2.3,0.9,5.6,2.2,7.5c1.3,1.9,3,3.5,5.1,4.5c1.9,0.9,3.2,1.3,5.3,1.6
				l0.6,0.1c0,0.4,0,0.9,0,1.3c0,0.6,0,1.3,0,2v0.1c0,0.9,0.4,1.8,1,2.5c0.6,0.6,1.5,1,2.5,1c0.9-0.1,1.8-0.4,2.5-1
				c0.6-0.6,1-1.5,1-2.5c0-0.4,0-0.9,0-1.4v-2.1c0,0,0.6,0,0.6,0c6.6,0,12.8-6.1,12.3-12.8c-0.5-6.6-6.3-10.8-12.4-11.9l-0.9-0.4"/>
			<path fill="none" stroke-miterlimit="10" d="M24.3,26.5l-0.4-0.2c0-1.1,0-2.2,0-3.3c0-2.3,0-4.5,0-6.8c0-0.9,0-1.7,0-2.6c3.2,0.5,5.3,3.1,6.1,6.1
				c0,1.9,2,3.3,3.7,3.2c1.7-0.1,3.5-1.6,3.2-3.4c-0.1-0.4-0.1-0.9-0.2-1.3"/>
			<path fill="none" stroke-miterlimit="10" d="M17,14.6c0,2.2,0,4.4,0,6.6c0,1.3,0,2.7,0,4c0,0-0.5-0.1-0.5-0.1c-3.1-0.7-6.3-3.1-5.9-6.5
				c0.4-3.2,3.5-4.5,6.4-5.1L17,14.6z"/>
			<path fill="none" stroke-miterlimit="10" d="M23.9,43.9c0-3.5,0-7.1,0-10.6c0,0,0.5,0.1,0.5,0.1c3.1,0.7,6.3,3,5.9,6.5c-0.4,3.3-3.6,4.5-6.4,5.1
				C23.8,44.9,23.9,43.9,23.9,43.9z"/>
		</g>
    </symbol>
	<symbol viewBox="0 0 50.8 59" id="gender_trend">
        <g>
			<path fill="none" stroke-miterlimit="10" d="M15.2,40.6c0,4.2-0.1,8.6-0.1,12.8c0,0.4,0,0.8,0,1.2C15,56.6,13.7,58,12,58c-2-0.1-3.2-1.4-3.2-3.5
				c0-11,0-22,0-33c0-0.5,0-1,0-1.6c-0.2,0-0.7,0-0.9,0c0,0.5,0,1,0,1.4c0,4.5,0,9,0,13.4c0,1.9-0.8,2.8-2.6,2.9
				c-1.6,0.2-2.6-0.7-2.6-2.2C2.6,29.3,2.6,23.2,2.7,17c0-2.3,1.2-3.4,3.5-3.4c6.4,0,12.8,0,19.2,0c2.4,0,3.6,1,3.6,3.5
				c0.1,6.1,0,12.1,0,18.1c0,1.6-0.7,2.3-2.1,2.4c-1.5,0.1-2.8-0.8-3-2.3c-0.1-0.4,0-0.7,0-1.1c0-4.3,0-8.6,0-12.8c0-0.5,0-1,0-1.5
				c-0.2,0-0.7,0-1,0c0,0.6,0,0.9,0,1.4c0,9.7,0,19.5,0,29.2c0,1.5,0,3,0,4.4c-0.1,1.7-1.3,3-3.1,3.1c-1.5,0.1-3-1-3.3-2.6
				c-0.2-1.5-0.1-2.9-0.1-4.4c0-3.4-0.1-7-0.1-10.4L15.2,40.6z"/>
			<circle fill="none" stroke-miterlimit="10" cx="15.9" cy="6.7" r="5.8"/>
			<circle fill="none" stroke-miterlimit="10" cx="32.8" cy="6.6" r="5.7"/>
			<path fill="none" stroke-miterlimit="10" d="M26.8,13.9c3.7,0.1,9,0,12.7,0.1c1.8,0,2.7,0.6,3.3,2.3c1.8,4.6,3.5,9.1,5.2,13.7c0.3,0.8,0.2,2.1-0.2,3
				c-0.4,0.7-1.4,1.2-2.2,1.4c-1,0.1-1.8-0.6-2.2-1.7c-1.3-3.4-2.7-7-4-10.4c-0.2-0.4-0.4-0.7-0.5-1.1c-0.1,0-0.2,0.1-0.4,0.1
				c0.2,0.8,0.2,1.7,0.5,2.4c1.9,5.2,3.9,10.3,5.8,15.4c0.2,0.4,0.3,0.8,0.5,1.3c-2.2,0-4.5,0-6.8,0c0,0.7,0.1,1.2,0.1,1.8
				c0,4.4,0,8.9,0,13.3c0,2.4-0.3,2.8-2,2.8c-2,0-2.9-0.8-2.9-2.9c-0.1-4.5,0-10.5,0-15h-1.1c0,4.2,0,9.6,0,13.8c0,0.4,0,0.8,0,1.2
				c0,1.9-0.7,2.7-2.3,2.7c-2.4,0-3.1-0.5-3.2-2.7c-0.1-4.3,0-8.7,0-13c0-0.6,0-1.3,0-2c-0.8,0-1.5,0-2.3,0s-1.4,0-2.1,0"/>
		</g>
    </symbol>
	<symbol viewBox="0 0 50.8 59" id="age_group_trend">
        <path fill="none" stroke-miterlimit="10" d="M16.2,40.6c0,4.2-0.1,8.6-0.1,12.8c0,0.4,0,0.8,0,1.2C16,56.6,14.7,58,13,58c-2-0.1-3.2-1.4-3.2-3.5
			c0-11,0-22,0-33c0-0.5,0-1,0-1.6c-0.2,0-0.7,0-0.9,0c0,0.5,0,1,0,1.4c0,4.5,0,9,0,13.4c0,1.9-0.8,2.8-2.6,2.9
			c-1.6,0.2-2.6-0.7-2.6-2.2C3.6,29.3,3.6,23.2,3.7,17c0-2.3,1.2-3.4,3.5-3.4c6.4,0,12.8,0,19.2,0c2.4,0,3.6,1,3.6,3.5
			c0.1,6.1,0,12.1,0,18.1c0,1.6-0.7,2.3-2.1,2.4c-1.5,0.1-2.8-0.8-3-2.3c-0.1-0.4,0-0.7,0-1.1c0-4.3,0-8.6,0-12.8c0-0.5,0-1,0-1.5
			c-0.2,0-0.7,0-1,0c0,0.6,0,0.9,0,1.4c0,9.7,0,19.5,0,29.2c0,1.5,0,3,0,4.4c-0.1,1.7-1.3,3-3.1,3.1c-1.5,0.1-3-1-3.3-2.6
			c-0.2-1.5-0.1-2.9-0.1-4.4c0-3.4-0.1-7-0.1-10.4L16.2,40.6z"/>
		<circle fill="none" stroke-miterlimit="10" cx="16.9" cy="6.7" r="5.8"/>
		<path fill="none" stroke-miterlimit="10" d="M29.6,24.5c4.6,0,11.2,0,15.7,0c1.8,0,2.7,0.8,2.7,2.6c0,4.6,0,9.1,0,13.6c0,1.2-0.5,1.7-1.6,1.8
			c-1.2,0-2.1-0.6-2.2-1.7c0-0.3,0-0.5,0-0.9c0-3.2,0-6.5,0-9.7c0-0.4,0-0.8,0-1.1c-0.2,0-0.5,0-0.7,0c0,0.4,0,0.7,0,1.1
			c0,7.4,0,14.7,0,22c0,1.1,0,2.2,0,3.3c0,1.3-1,2.2-2.3,2.3c-1.1,0.1-2.3-0.8-2.5-2c-0.1-1.1-0.1-2.2-0.1-3.3c0-2.6,0-5.2,0-7.8
			l-0.9,0c0,3.2,0,6.5,0,9.7c0,0.3,0,0.6,0,0.9c-0.1,1.5-1.1,2.6-2.4,2.5c-1.5,0-2.4-1.1-2.4-2.6c0-3.8,0-7.7,0-11.5
			c0-0.5,0-0.9,0-1.4c0-4,0-8,0-12c0-0.4,0-0.8,0-1.2c-0.1,0-0.5,0-0.7,0c0,0.4,0,0.7,0,1.1c0,3.4,0,6.8,0,10.1c0,1.4-0.6,2.1-1.9,2.2
			c-1.2,0.1-1.9-0.5-1.9-1.7c0-0.6,0-2.3,0-2.9"/>
		<circle fill="none" stroke-miterlimit="10" cx="38.2" cy="19.3" r="4.4"/>
    </symbol>
	<symbol viewBox="0 0 56.1 52.9" id="zone_trend">
        <path fill="none" d="M54.5,0c-0.9,0-1.8,0.8-1.8,1.8c0,0.4,0.2,0.9,0.5,1.2L50,9.5c-0.1,0-0.1,0-0.2,0c-0.2,0-0.4,0-0.6,0.1
			l-2.5-2.8c0.1-0.3,0.2-0.5,0.2-0.8c0-0.9-0.8-1.8-1.8-1.8S43.2,5,43.2,5.9c0,0.4,0.2,0.8,0.4,1.1l-3.1,5.4c-0.1,0-0.2,0-0.3,0
			c-0.9,0-1.8,0.8-1.8,1.8c0,0.9,0.8,1.8,1.8,1.8s1.8-0.8,1.8-1.8c0-0.4-0.2-0.8-0.4-1.1l3.1-5.4c0.3,0.1,0.6,0,0.9-0.1l2.5,2.8
			c-0.1,0.3-0.2,0.5-0.2,0.8c0,0.9,0.8,1.8,1.8,1.8s1.8-0.8,1.8-1.8c0-0.4-0.2-0.9-0.5-1.2l3.2-6.4c0.1,0,0.1,0,0.2,0
			c0.9,0,1.8-0.8,1.8-1.8S55.5,0,54.5,0z M40.2,15.1c-0.4,0-0.8-0.3-0.8-0.8s0.3-0.8,0.8-0.8c0.4,0,0.8,0.3,0.8,0.8
			S40.8,15.1,40.2,15.1z M45,6.7c-0.4,0-0.8-0.3-0.8-0.8C44.2,5.4,44.5,5,45,5c0.4,0,0.8,0.3,0.8,0.8C45.8,6.3,45.4,6.7,45,6.7z
			M49.7,12.2c-0.4,0-0.8-0.3-0.8-0.8s0.3-0.8,0.8-0.8s0.8,0.3,0.8,0.8S50.2,12.2,49.7,12.2z M54.5,2.6c-0.4,0-0.8-0.3-0.8-0.8
			s0.3-0.8,0.8-0.8s0.8,0.3,0.8,0.8S55,2.6,54.5,2.6z"/>
		<g>
			<polygon fill="none" stroke-miterlimit="10" points="0.5,7 0.5,16.3 9.7,7 	"/>
			<polygon fill="none" stroke-miterlimit="10" points="15.3,11.8 0.5,26.6 0.5,37 15.3,22.1 	"/>
			<polygon fill="none" stroke-miterlimit="10" points="15.3,7 9.7,7 0.5,16.3 0.5,26.6 15.3,11.8 	"/>
			<polygon fill="none" stroke-miterlimit="10" points="15.3,22.1 0.5,37 0.5,47.4 15.3,32.5 	"/>
			<polygon fill="none" stroke-miterlimit="10" points="15.3,42.9 5.8,52.4 15.3,52.4 	"/>
			<polygon fill="none" stroke-miterlimit="10" points="15.3,32.5 0.5,47.4 0.5,52.4 5.8,52.4 15.3,42.9 	"/>
		</g>
		<g>
			<polyline fill="none" stroke-miterlimit="10" points="21.5,26.8 21.5,35.6 22.9,35.6 	"/>
			<polyline fill="none" stroke-miterlimit="10" points="38.9,7 30.8,7 21.5,16.4 21.5,26.8 33.4,14.8 35.7,12.5 	"/>
			<polygon fill="none" stroke-miterlimit="10" points="21.5,7 21.5,16.4 30.8,7 	"/>
			<polyline fill="none" stroke-miterlimit="10" points="40,18.6 38.3,20.3 22.9,35.6 33.3,35.6 46.1,22.8 46.1,18.5 46.1,15.7 	"/>
			<polygon fill="none" stroke-miterlimit="10" points="46.1,33.2 46.1,22.8 33.3,35.6 43.6,35.6 	"/>
			<polygon fill="none" stroke-miterlimit="10" points="46.1,35.6 46.1,33.2 43.6,35.6 	"/>
		</g>
		<g>
			<polygon fill="none" stroke-miterlimit="10" points="26.8,42.2 21.5,47.5 21.5,52.4 26.9,52.4 37.2,42.2 	"/>
			<polygon fill="none" stroke-miterlimit="10" points="21.5,42.2 21.5,47.5 26.8,42.2 	"/>
			<polygon fill="none" stroke-miterlimit="10" points="46,43.7 37.3,52.4 46,52.4 	"/>
			<polygon fill="none" stroke-miterlimit="10" points="46,42.2 37.2,42.2 26.9,52.4 37.3,52.4 46,43.7 	"/>
		</g>
    </symbol>
	<symbol viewBox="0 0 46.3 46.1" id="zone_dwell_time">
        <g>
			<g>
				<polygon fill="none" stroke-miterlimit="10" points="0.5,0.5 0.5,9.7 9.7,0.5 		"/>
				<polygon fill="none" stroke-miterlimit="10" points="15.3,5.2 0.5,20 0.5,30.3 15.3,15.5 		"/>
				<polygon fill="none" stroke-miterlimit="10" points="15.3,0.5 9.7,0.5 0.5,9.7 0.5,20 15.3,5.2 		"/>
				<polygon fill="none" stroke-miterlimit="10" points="15.3,15.5 0.5,30.3 0.5,40.6 15.3,25.8 		"/>
				<polygon fill="none" stroke-miterlimit="10" points="15.3,36.1 5.7,45.6 15.3,45.6 		"/>
				<polygon fill="none" stroke-miterlimit="10" points="15.3,25.8 0.5,40.6 0.5,45.6 5.7,45.6 15.3,36.1 		"/>
			</g>
			<g>
				<polygon fill="none" stroke-miterlimit="10" points="45.8,0.5 40.9,0.5 21.3,20.1 21.3,28.9 22.8,28.9 45.8,5.9 		"/>
				<polygon fill="none" stroke-miterlimit="10" points="30.6,0.5 21.3,9.8 21.3,20.1 40.9,0.5 		"/>
				<polygon fill="none" stroke-miterlimit="10" points="21.3,0.5 21.3,9.8 30.6,0.5 		"/>
				<polygon fill="none" stroke-miterlimit="10" points="45.8,5.9 22.8,28.9 33.1,28.9 45.8,16.2 		"/>
				<polygon fill="none" stroke-miterlimit="10" points="45.8,26.5 45.8,16.2 33.1,28.9 43.4,28.9 		"/>
				<polygon fill="none" stroke-miterlimit="10" points="45.8,28.9 45.8,26.5 43.4,28.9 		"/>
			</g>
			<g>
				<polygon fill="none" stroke-miterlimit="10" points="26.7,35.5 21.4,40.7 21.4,45.6 26.8,45.6 37,35.5 		"/>
				<polygon fill="none" stroke-miterlimit="10" points="21.4,35.5 21.4,40.7 26.7,35.5 		"/>
				<polygon fill="none" stroke-miterlimit="10" points="45.8,36.9 37.1,45.6 45.8,45.6 		"/>
				<polygon fill="none" stroke-miterlimit="10" points="45.8,35.5 37,35.5 26.8,45.6 37.1,45.6 45.8,36.9 		"/>
			</g>
		</g>
    </symbol>
	<symbol viewBox="0 0 50.8 59" id="prj_transactions_staff">
        <g>
			<path fill="none" stroke-miterlimit="10" d="M38.5,13.6c4.6,3.8,7.5,9.5,7.5,15.9c0,5.5-2.1,10.7-6,14.5c-0.9,0.9-0.9,2.2,0,3.1c0.4,0.4,1,0.6,1.5,0.6
				s1.1-0.2,1.5-0.6c4.7-4.7,7.3-10.9,7.3-17.6c0-5.3-1.7-10.2-4.5-14.2c-0.2-0.3-0.4-0.6-0.6-0.9"/>
			<path fill="none" stroke-miterlimit="10" d="M35.5,6.7c-2.9-1.3-6.2-2.1-9.6-2.1V1.8c0-0.5-0.2-0.9-0.7-1.2c-0.4-0.2-0.9-0.2-1.3,0.1l-7.7,4.7
				c-0.4,0.2-0.6,0.7-0.6,1.1s0.2,0.9,0.6,1.1l7.6,4.8c0.2,0.1,0.4,0.2,0.7,0.2c0.2,0,0.4-0.1,0.7-0.2c0.4-0.2,0.7-0.7,0.7-1.2V8.8
				c2.8,0.1,5.4,0.7,7.8,1.8"/>
			<path fill="none" stroke-miterlimit="10" d="M26.9,46.5c-0.4-0.2-0.9-0.2-1.3-0.1c-0.4,0.2-0.7,0.7-0.7,1.2V50C13.7,49.7,4.8,40.7,4.8,29.5
				c0-5.5,2.1-10.6,6-14.5c0.9-0.9,0.9-2.2,0-3.1c-0.9-0.9-2.2-0.9-3.1,0C3,16.6,0.4,22.8,0.4,29.5c0,13.5,10.9,24.6,24.4,24.8v2.8
				c0,0.5,0.2,0.9,0.7,1.2c0.2,0.1,0.4,0.2,0.7,0.2c0.2,0,0.5-0.1,0.7-0.2l7.7-4.8c0.4-0.2,0.6-0.7,0.6-1.1c0-0.4-0.2-0.9-0.6-1.1
				L26.9,46.5z"/>
		</g>
		<path fill="none" d="M47.9,1.2c-0.9,0-1.7,0.8-1.7,1.7c0,0.4,0.2,0.9,0.5,1.2l-3.1,6.2c-0.1,0-0.1,0-0.2,0c-0.2,0-0.4,0-0.6,0.1
			l-2.4-2.7c0.1-0.3,0.2-0.5,0.2-0.8c0-0.9-0.8-1.7-1.7-1.7S37.1,6,37.1,6.9c0,0.4,0.2,0.8,0.4,1.1l-3,5.2c-0.1,0-0.2,0-0.3,0
			c-0.9,0-1.7,0.8-1.7,1.7s0.8,1.7,1.7,1.7s1.7-0.8,1.7-1.7c0-0.4-0.2-0.8-0.4-1.1l3-5.2c0.3,0.1,0.6,0,0.9-0.1l2.4,2.7
			c-0.1,0.3-0.2,0.5-0.2,0.8c0,0.9,0.8,1.7,1.7,1.7c0.9,0,1.7-0.8,1.7-1.7c0-0.4-0.2-0.9-0.5-1.2l3.1-6.2c0.1,0,0.1,0,0.2,0
			c0.9,0,1.7-0.8,1.7-1.7S48.9,1.2,47.9,1.2z M34.2,15.7c-0.4,0-0.8-0.3-0.8-0.8s0.3-0.8,0.8-0.8c0.4,0,0.8,0.3,0.8,0.8
			S34.7,15.7,34.2,15.7z M38.8,7.6c-0.4,0-0.8-0.3-0.8-0.8c0-0.4,0.3-0.8,0.8-0.8c0.4,0,0.8,0.3,0.8,0.8C39.6,7.3,39.2,7.6,38.8,7.6z
			M43.3,12.9c-0.4,0-0.8-0.3-0.8-0.8s0.3-0.8,0.8-0.8s0.8,0.3,0.8,0.8S43.8,12.9,43.3,12.9z M47.9,3.7c-0.4,0-0.8-0.3-0.8-0.8
			s0.3-0.8,0.8-0.8s0.8,0.3,0.8,0.8S48.4,3.7,47.9,3.7z"/>
		<g>
			<path fill="none" stroke-miterlimit="10" d="M27.4,28l-0.2-0.1c0-0.5,0-1.1,0-1.6c0-1.1,0-2.2,0-3.3c0-0.4,0-0.8,0-1.3c1.5,0.2,2.6,1.5,3,3
				c0,0.9,1,1.6,1.8,1.5c0.8-0.1,1.7-0.8,1.6-1.7c-0.2-1.7-1-3.6-2.5-4.6c-1.1-0.8-2.5-1.5-3.9-1.6v-0.5c0-0.1,0-0.1,0-0.2
				c0-0.3,0-0.2,0-0.5c0-0.4-0.2-0.9-0.5-1.2c-0.3-0.3-0.7-0.5-1.2-0.5c-0.4,0-0.9,0.2-1.2,0.5c-0.3,0.3-0.5,0.7-0.5,1.2
				c0,0.2,0-0.2,0,0c0,0.2,0,0.3,0,0.5v0.7c-0.4,0.1-0.8,0.1-1.2,0.2c-3,0.6-5.3,3-5.3,6.2c0,0.1,0,0.2,0,0.3c0,3.3,3.3,5.3,6.2,6
				c0.1,0,0.3,0.1,0.4,0.1v0.3c0,0.6,0,0.8,0,1.4c0,1.1,0,2.2,0,3.3c0,0.3,0,0.6,0,0.9c0,0-0.4-0.1-0.4-0.1c-1.6-0.4-2.7-1.6-2.9-3.3
				c-0.1-0.9-1.2-1.4-2-1.2c-0.4,0.1-0.8,0.4-1,0.8c-0.1,0.1-0.1,0.3-0.2,0.4c-0.3,1.1,0.5,2.8,1.1,3.7c0.6,0.9,1.5,1.7,2.5,2.2
				c0.9,0.5,1.6,0.6,2.6,0.8l0.3,0c0,0.2,0,0.5,0,0.6c0,0.3,0,0.6,0,1v0c0,0.4,0.2,0.9,0.5,1.2c0.3,0.3,0.7,0.5,1.2,0.5
				c0.4,0,0.9-0.2,1.2-0.5c0.3-0.3,0.5-0.7,0.5-1.2c0-0.2,0-0.4,0-0.7v-1c0,0,0.3,0,0.3,0c3.2,0,6.3-3,6-6.3
				C33.3,30.7,30.4,28.7,27.4,28L27,27.9"/>
			<path fill="none" stroke-miterlimit="10" d="M23.8,22.2c0,1.1,0,2.2,0,3.3c0,0.6,0,1.3,0,2c0,0-0.3-0.1-0.3-0.1c-1.5-0.3-3.1-1.5-2.9-3.2
				c0.2-1.6,1.7-2.2,3.1-2.5L23.8,22.2z"/>
			<path fill="none" stroke-miterlimit="10" d="M27.2,36.5c0-1.7,0-3.5,0-5.2c0,0,0.3,0.1,0.3,0.1c1.5,0.3,3.1,1.5,2.9,3.2c-0.2,1.6-1.7,2.2-3.1,2.5
				C27.2,37,27.2,36.5,27.2,36.5z"/>
		</g>
    </symbol>
	<symbol viewBox="0 0 50.8 59" id="prj_revenue_staff">
        <path fill="none" d="M47.9,1.2c-0.9,0-1.7,0.8-1.7,1.7c0,0.4,0.2,0.9,0.5,1.2l-3.1,6.2c-0.1,0-0.1,0-0.2,0c-0.2,0-0.4,0-0.6,0.1
			l-2.4-2.7c0.1-0.3,0.2-0.5,0.2-0.8c0-0.9-0.8-1.7-1.7-1.7S37.1,6,37.1,6.9c0,0.4,0.2,0.8,0.4,1.1l-3,5.2c-0.1,0-0.2,0-0.3,0
			c-0.9,0-1.7,0.8-1.7,1.7s0.8,1.7,1.7,1.7s1.7-0.8,1.7-1.7c0-0.4-0.2-0.8-0.4-1.1l3-5.2c0.3,0.1,0.6,0,0.9-0.1l2.4,2.7
			c-0.1,0.3-0.2,0.5-0.2,0.8c0,0.9,0.8,1.7,1.7,1.7S45,12.9,45,12c0-0.4-0.2-0.9-0.5-1.2l3.1-6.2c0.1,0,0.1,0,0.2,0
			c0.9,0,1.7-0.8,1.7-1.7S48.9,1.2,47.9,1.2z M34.2,15.7c-0.4,0-0.8-0.3-0.8-0.8s0.3-0.8,0.8-0.8c0.4,0,0.8,0.3,0.8,0.8
			S34.7,15.7,34.2,15.7z M38.8,7.6c-0.4,0-0.8-0.3-0.8-0.8C38,6.4,38.3,6,38.8,6c0.4,0,0.8,0.3,0.8,0.8S39.2,7.6,38.8,7.6z M43.3,12.9
			c-0.4,0-0.8-0.3-0.8-0.8s0.3-0.8,0.8-0.8s0.8,0.3,0.8,0.8S43.8,12.9,43.3,12.9z M47.9,3.7c-0.4,0-0.8-0.3-0.8-0.8s0.3-0.8,0.8-0.8
			s0.8,0.3,0.8,0.8S48.4,3.7,47.9,3.7z"/>
		<g>
			<path fill="none" stroke-miterlimit="10" d="M32.6,10.6c-0.3-0.2-0.5-0.5-0.8-0.7c-2.2-1.7-5.2-3-8-3.3v-1c0-0.1,0-0.2,0-0.4c0-0.6,0-0.4,0-1.1
				c0-0.9-0.4-1.8-1-2.5c-0.6-0.6-1.5-1-2.5-1c-0.9,0.1-1.8,0.4-2.5,1c-0.6,0.6-1,1.5-1,2.5c0,0.4,0-0.5,0,0c0,0.4,0,0.6,0,1v1.4
				c-0.8,0.1-1.6,0.2-2.4,0.4C8.4,8.3,3.7,13,3.7,19.5c0,0.2,0,0.4,0,0.5c0,6.8,6.7,10.9,12.6,12.2c0.2,0.1,0.5,0.1,0.8,0.1v0.7
				c0,1.2,0,1.7,0,2.9c0,2.3,0,4.5,0,6.8c0,0.6,0,1.2,0,1.9c0,0-0.8-0.2-0.8-0.2c-3.3-0.8-5.4-3.3-5.9-6.6c-0.2-1.8-2.5-2.9-4.2-2.4
				c-0.8,0.3-1.6,0.8-2.1,1.6c-0.2,0.3-0.3,0.5-0.4,0.8c-0.7,2.3,0.9,5.6,2.2,7.5c1.3,1.9,3,3.5,5.1,4.5c1.9,0.9,3.2,1.3,5.3,1.6
				l0.6,0.1c0,0.4,0,0.9,0,1.3c0,0.6,0,1.3,0,2v0.1c0,0.9,0.4,1.8,1,2.5c0.6,0.6,1.5,1,2.5,1c0.9-0.1,1.8-0.4,2.5-1
				c0.6-0.6,1-1.5,1-2.5c0-0.4,0-0.9,0-1.4v-2.1c0,0,0.6,0,0.6,0c6.6,0,12.8-6.1,12.3-12.8c-0.5-6.6-6.3-10.8-12.4-11.9l-0.9-0.4"/>
			<path fill="none" stroke-miterlimit="10" d="M24.3,26.5l-0.4-0.2c0-1.1,0-2.2,0-3.3c0-2.3,0-4.5,0-6.8c0-0.9,0-1.7,0-2.6c3.2,0.5,5.3,3.1,6.1,6.1
				c0,1.9,2,3.3,3.7,3.2c1.7-0.1,3.5-1.6,3.2-3.4c-0.1-0.4-0.1-0.9-0.2-1.3"/>
			<path fill="none" stroke-miterlimit="10" d="M17,14.6c0,2.2,0,4.4,0,6.6c0,1.3,0,2.7,0,4c0,0-0.5-0.1-0.5-0.1c-3.1-0.7-6.3-3.1-5.9-6.5
				c0.4-3.2,3.5-4.5,6.4-5.1L17,14.6z"/>
			<path fill="none" stroke-miterlimit="10" d="M23.9,43.9c0-3.5,0-7.1,0-10.6c0,0,0.5,0.1,0.5,0.1c3.1,0.7,6.3,3,5.9,6.5c-0.4,3.3-3.6,4.5-6.4,5.1
				C23.8,44.9,23.9,43.9,23.9,43.9z"/>
		</g>
    </symbol>
	<symbol viewBox="0 0 50.8 59" id="staff_instore">
        <polygon fill="none" points="2.1,32.1 48.7,32.1 48.7,35.8 46.4,35.8 46.4,49.8 4.4,49.8 4.4,35.8 2.1,35.8 "/>
		<path fill="none" stroke-miterlimit="10" d="M33.1,18.8c-3.1,0-5.8,2.7-5.8,5.8v7.5h12.8v-7.5c0-3.1-2.7-5.8-5.8-5.8H33.1z"/>
		<path fill="none" stroke-miterlimit="10" d="M29.5,13.3c0,2.3,1.9,4.2,4.2,4.2c2.2,0,4.1-1.9,4.1-4.2c0-2.2-1.9-4.1-4.1-4.1C31.4,9.2,29.5,11.1,29.5,13.3z"
			/>
		<path fill="none" stroke-miterlimit="10" d="M16,18.8c-3.1,0-5.8,2.7-5.8,5.8v7.5h12.8v-7.5c0-3.1-2.7-5.8-5.8-5.8H16z"/>
		<path fill="none" stroke-miterlimit="10" d="M12.4,13.3c0,2.3,1.9,4.2,4.2,4.2c2.2,0,4.1-1.9,4.1-4.2c0-2.2-1.9-4.1-4.1-4.1C14.3,9.2,12.4,11.1,12.4,13.3z"
			/>
		<polygon fill="none" stroke-miterlimit="10" points="48.7,32.1 2.1,32.1 2.1,35.8 4.4,35.8 4.4,49.8 46.4,49.8 46.4,35.8 48.7,35.8 "/>
    </symbol>
	<symbol viewBox="0 0 50.8 59" id="staff_customers">
        <path fill="none" stroke-miterlimit="10" d="M16,18.8c-3.1,0-5.8,2.7-5.8,5.8v7.5H23v-7.5c0-3.1-2.7-5.8-5.8-5.8H16z"/>
		<path fill="none" stroke-miterlimit="10" d="M12.4,13.3c0,2.3,1.9,4.2,4.2,4.2c2.2,0,4.1-1.9,4.1-4.2c0-2.2-1.9-4.1-4.1-4.1C14.3,9.2,12.4,11.1,12.4,13.3z"
			/>
		<polyline fill="none" stroke-miterlimit="10" points="30.4,32.1 2.1,32.1 2.1,35.8 4.4,35.8 4.4,49.8 46.4,49.8 46.4,35.8 48.7,35.8 48.7,32.1 36.1,32.1 
			"/>
		<g>
			<path fill="none" stroke-miterlimit="10" d="M30.7,47.2H31V32.5c-0.7-0.6-1.2-1.5-1.2-2.5v-9.5c0-1.8,1.5-3.3,3.3-3.3h0.4c1.8,0,3.3,1.5,3.3,3.3V30
				c0,1-0.5,1.9-1.2,2.5c0,5.3,0,17,0,17c0,0.4-4.3,0.2-0.8,0.2h-4c-0.7,0-1.3-0.6-1.3-1.3C29.5,47.8,30,47.2,30.7,47.2z"/>
		</g>
		<g>
			<path fill="none" stroke-miterlimit="10" d="M33.1,15.8c-2,0-3.6-1.6-3.6-3.6s1.6-3.6,3.6-3.6s3.6,1.6,3.6,3.6C36.7,14.2,35.1,15.8,33.1,15.8z"/>
		</g>
    </symbol>
	<symbol viewBox="0 0 50.8 59" id="staff_transactions">
        <polygon fill="none" stroke-miterlimit="10" points="2.1,32.1 48.7,32.1 48.7,35.8 46.4,35.8 46.4,49.8 4.4,49.8 4.4,35.8 2.1,35.8 "/>
		<path fill="none" stroke-miterlimit="10" d="M16,18.8c-3.1,0-5.8,2.7-5.8,5.8v7.5h12.8v-7.5c0-3.1-2.7-5.8-5.8-5.8H16z"/>
		<path fill="none" stroke-miterlimit="10" d="M12.4,13.3c0,2.3,1.9,4.2,4.2,4.2c2.2,0,4.1-1.9,4.1-4.2c0-2.2-1.9-4.1-4.1-4.1C14.3,9.2,12.4,11.1,12.4,13.3z"
			/>
		<polygon fill="none" stroke-miterlimit="10" points="48.7,32.1 2.1,32.1 2.1,35.8 4.4,35.8 4.4,49.8 46.4,49.8 46.4,35.8 48.7,35.8 "/>
		<g>
			<path fill="none" stroke-miterlimit="10" d="M35.6,13.4l-0.2-0.1c0-0.4,0-0.9,0-1.3c0-0.9,0-1.8,0-2.8c0-0.4,0-0.7,0-1.1c1.3,0.2,2.2,1.3,2.5,2.5
				c0,0.8,0.8,1.3,1.5,1.3c0.7,0,1.4-0.7,1.3-1.4c-0.2-1.4-0.9-3-2.1-3.9c-0.9-0.7-2.1-1.2-3.3-1.3V4.9c0,0,0-0.1,0-0.2
				c0-0.2,0-0.2,0-0.4c0-0.4-0.2-0.7-0.4-1c-0.2-0.2-0.6-0.4-1-0.4c-0.4,0-0.7,0.2-1,0.4c-0.2,0.2-0.4,0.6-0.4,1c0,0.2,0-0.2,0,0
				c0,0.2,0,0.2,0,0.4v0.6c-0.3,0-0.7,0.1-1,0.2c-2.4,0.5-4.4,2.4-4.4,5.1c0,0.1,0,0.2,0,0.2c0,2.8,2.7,4.4,5.1,5c0.1,0,0.2,0,0.3,0
				v0.3c0,0.5,0,0.7,0,1.2c0,0.9,0,1.8,0,2.8c0,0.2,0,0.5,0,0.8l-0.3-0.1c-1.3-0.3-2.2-1.3-2.4-2.7c-0.1-0.7-1-1.2-1.7-1
				c-0.3,0.1-0.7,0.3-0.9,0.7c-0.1,0.1-0.1,0.2-0.2,0.3c-0.3,0.9,0.4,2.3,0.9,3.1c0.5,0.8,1.2,1.4,2.1,1.8c0.8,0.4,1.3,0.5,2.2,0.7
				l0.2,0c0,0.2,0,0.4,0,0.5c0,0.2,0,0.5,0,0.8v0c0,0.4,0.2,0.7,0.4,1c0.2,0.2,0.6,0.4,1,0.4c0.4,0,0.7-0.2,1-0.4
				c0.2-0.2,0.4-0.6,0.4-1c0-0.2,0-0.4,0-0.6v-0.9h0.2c2.7,0,5.2-2.5,5-5.2C40.5,15.6,38.1,13.9,35.6,13.4l-0.4-0.1"/>
			<path fill="none" stroke-miterlimit="10" d="M32.6,8.6c0,0.9,0,1.8,0,2.7c0,0.5,0,1.1,0,1.6l-0.2,0c-1.3-0.3-2.6-1.3-2.4-2.6c0.2-1.3,1.4-1.8,2.6-2.1V8.6z
				"/>
			<path fill="none" stroke-miterlimit="10" d="M35.5,20.5c0-1.4,0-2.9,0-4.3l0.2,0c1.3,0.3,2.6,1.2,2.4,2.6c-0.2,1.3-1.5,1.8-2.6,2.1
				C35.4,20.9,35.5,20.5,35.5,20.5z"/>
		</g>
    </symbol>

    <symbol viewBox="0 0 103.2 101.6" id="walk-by">
        <g>
            <path fill="none" stroke-miterlimit="10" stroke-width="2" d="M83.8,37.4c2.2,6.1,7.8,9.1,12.7,12.6c1,0.7,3.5,0.5,4.6-0.3c1.7-1.2,1.3-3.3,0.2-4.9c-0.5-0.8-1.2-1.5-2-2
		c-5.7-3.3-9.3-8.3-11.6-14.3c-0.5-1.3-1.3-2.5-1.9-3.8c-3-6-11.5-8.2-17.1-4.3c-4.6,3.2-9.2,6.5-13.7,9.9c-1.2,0.9-2.2,2.5-2.6,3.9
		C51,39.1,50,44,48.8,48.9c-0.6,2.7,0.3,4.7,2.4,5.3c2.5,0.7,4.4-0.3,5.2-3.1c0.9-3,2-6,2.2-9.1c0.3-5.4,4.6-7.2,7.9-10
		c0,2-0.4,3.8-0.6,5.7c-0.7,6-3.2,12-0.9,18.2c0.3,1-0.1,2.3-0.3,3.4C62.5,69.7,59,79.5,52.6,88.2c-1,1.3-1.7,2.8-2.5,4.2
		c-1.7,3-1.3,5.4,1,7.1c2.6,1.8,5,1.5,7.2-1.4c1.9-2.5,3.6-5.1,5.2-7.8c2.9-4.8,5.9-9.7,8.4-14.8c1.7-3.2,2.6-6.8,4-10.8
		c1.9,3.3,3.5,6.2,5.3,8.8c2.1,2.9,3,6.1,3.4,9.5c0.5,4.2,1.2,8.5,1.8,12.7c0.5,3.2,2.6,4.9,5.5,4.7c2.9-0.2,4.4-2.2,4.3-5.6
		c0-0.7,0-1.3-0.1-2c-0.5-3.7-1.2-7.3-1.6-11c-0.7-6.1-2.2-11.9-6.1-16.9c-2.5-3.2-4.4-6.9-6.5-10.4c-0.6-1-1.1-2.3-1-3.4
		c0.6-4.8,1.4-9.6,2.2-15C83.7,37,84,37.3,83.8,37.4z"/>
            <path fill="none" stroke-miterlimit="10" stroke-width="2" d="M82.5,1c-4.3,0.1-7.9,3.8-8,8.2c-0.1,4.7,3.6,8.5,8.2,8.5c4.4,0,7.8-3.4,7.8-8C90.6,5,86.9,1.1,82.5,1z"/>
        </g>
        <g>
            <path fill="none" stroke-miterlimit="10" stroke-width="2" d="M32,46.7c1.9,5.2,6.6,7.8,10.8,10.7c0.9,0.6,3,0.4,3.9-0.3c1.4-1,1.1-2.8,0.2-4.2c-0.4-0.7-1-1.3-1.7-1.7
		c-4.9-2.8-7.9-7.1-9.9-12.2c-0.4-1.1-1.1-2.1-1.6-3.2c-2.6-5.1-9.8-7-14.6-3.7c-3.9,2.7-7.8,5.5-11.7,8.4c-1,0.8-1.9,2.1-2.2,3.3
		c-1.2,4.2-2,8.4-3.1,12.5c-0.5,2.3,0.3,4,2,4.5c2.1,0.6,3.7-0.3,4.4-2.6c0.8-2.6,1.7-5.1,1.9-7.8c0.3-4.6,3.9-6.1,6.7-8.5
		c0,1.7-0.3,3.2-0.5,4.9C16.1,52.1,14,57.2,16,62.5c0.3,0.9-0.1,2-0.3,2.9C13.8,74.3,10.8,82.6,5.4,90c-0.9,1.1-1.4,2.4-2.1,3.6
		c-1.4,2.6-1.1,4.6,0.9,6.1c2.2,1.5,4.3,1.3,6.1-1.2c1.6-2.1,3.1-4.3,4.4-6.6c2.5-4.1,5-8.3,7.2-12.6c1.4-2.7,2.2-5.8,3.4-9.2
		c1.6,2.8,3,5.3,4.5,7.5c1.8,2.5,2.6,5.2,2.9,8.1c0.4,3.6,1,7.2,1.5,10.8c0.4,2.7,2.2,4.2,4.7,4s3.7-1.9,3.7-4.8
		c0-0.6,0-1.1-0.1-1.7c-0.4-3.2-1-6.2-1.4-9.4c-0.6-5.2-1.9-10.1-5.2-14.4c-2.1-2.7-3.7-5.9-5.5-8.9c-0.5-0.9-0.9-2-0.9-2.9
		c0.5-4.1,1.2-8.2,1.9-12.8C31.9,46.4,32.2,46.7,32,46.7z"/>
            <path fill="none" stroke-miterlimit="10" stroke-width="2" d="M30.9,15.7c-3.7,0.1-6.7,3.2-6.8,7c-0.1,4,3.1,7.2,7,7.2c3.7,0,6.6-2.9,6.6-6.8C37.8,19.1,34.6,15.8,30.9,15.7
		z"/>
        </g>
    </symbol>
    <symbol viewBox="0 0 71.9 112.2" id="walk-in">
        <g>
            <path fill="none" stroke-miterlimit="10" stroke-width="2" d="M36.2,43.2c2.2,6.1,7.8,9.1,12.7,12.6c1,0.7,3.5,0.5,4.6-0.3c1.7-1.2,1.3-3.3,0.2-4.9c-0.5-0.8-1.2-1.5-2-2
	c-5.7-3.3-9.3-8.3-11.6-14.3c-0.5-1.3-1.3-2.5-1.9-3.8c-3-6-11.5-8.2-17.1-4.3c-4.6,3.2-9.2,6.5-13.7,9.9C6.2,37,5.2,38.6,4.8,40
	c-1.4,4.9-2.4,9.8-3.6,14.7c-0.6,2.7,0.3,4.7,2.4,5.3c2.5,0.7,4.4-0.3,5.2-3.1c0.9-3,2-6,2.2-9.1c0.3-5.4,4.6-7.2,7.9-10
	c0,2-0.4,3.8-0.6,5.7c-0.7,6-3.2,12-0.9,18.2c0.3,1-0.1,2.3-0.3,3.4C14.9,75.5,11.4,85.3,5,94c-1,1.3-1.7,2.8-2.5,4.2
	c-1.7,3-1.3,5.4,1,7.1c2.6,1.8,5,1.5,7.2-1.4c1.9-2.5,3.6-5.1,5.2-7.8c2.9-4.8,5.9-9.7,8.4-14.8c1.7-3.2,2.6-6.8,4-10.8
	c1.9,3.3,3.5,6.2,5.3,8.8c2.1,2.9,3,6.1,3.4,9.5c0.5,4.2,1.2,8.5,1.8,12.7c0.5,3.2,2.6,4.9,5.5,4.7c2.9-0.2,4.4-2.2,4.3-5.6
	c0-0.7,0-1.3-0.1-2c-0.5-3.7-1.2-7.3-1.6-11c-0.7-6.1-2.2-11.9-6.1-16.9c-2.5-3.2-4.4-6.9-6.5-10.4c-0.6-1-1.1-2.3-1-3.4
	c0.6-4.8,1.4-9.6,2.2-15C36.1,42.8,36.4,43.1,36.2,43.2z"/>
            <path fill="none" stroke-miterlimit="10" stroke-width="2" d="M34.9,6.8c-4.3,0.1-7.9,3.8-8,8.2c-0.1,4.7,3.6,8.5,8.2,8.5c4.4,0,7.8-3.4,7.8-8C43,10.8,39.3,6.9,34.9,6.8z"/>
            <polyline fill="none" stroke-miterlimit="10" stroke-width="2" points="55.2,1 70.9,1 70.9,111.2 56.2,111.2 "/>
        </g>
    </symbol>
    <symbol viewBox="0 0 50.8 59" id="walk-in-conversion">
        <g>
            <g>
                <path fill="none" stroke-miterlimit="10" d="M25.9,4.6V1.8c0-0.5-0.2-0.9-0.7-1.2c-0.4-0.2-0.9-0.2-1.3,0.1l-7.7,4.7c-0.4,0.2-0.6,0.7-0.6,1.1
		s0.2,0.9,0.6,1.1l7.6,4.8c0.2,0.1,0.4,0.2,0.7,0.2c0.2,0,0.4-0.1,0.7-0.2c0.4-0.2,0.7-0.7,0.7-1.2V8.8C37,9.2,46,18.3,46,29.5
		c0,5.5-2.1,10.7-6,14.5c-0.9,0.9-0.9,2.2,0,3.1c0.4,0.4,1,0.6,1.5,0.6s1.1-0.2,1.5-0.6c4.7-4.7,7.3-10.9,7.3-17.6
		C50.3,15.9,39.4,4.9,25.9,4.6z"/>
                <path fill="none" stroke-miterlimit="10" d="M26.9,46.5c-0.4-0.2-0.9-0.2-1.3-0.1c-0.4,0.2-0.7,0.7-0.7,1.2V50C13.7,49.7,4.8,40.7,4.8,29.5
		c0-5.5,2.1-10.6,6-14.5c0.9-0.9,0.9-2.2,0-3.1c-0.9-0.9-2.2-0.9-3.1,0C3,16.6,0.4,22.8,0.4,29.5c0,13.5,10.9,24.6,24.4,24.8v2.8
		c0,0.5,0.2,0.9,0.7,1.2c0.2,0.1,0.4,0.2,0.7,0.2c0.2,0,0.5-0.1,0.7-0.2l7.7-4.8c0.4-0.2,0.6-0.7,0.6-1.1c0-0.4-0.2-0.9-0.6-1.1
		L26.9,46.5z"/>
            </g>
            <path fill="none" stroke-miterlimit="10" d="M16.9,26.8c-0.8-0.8-1.1-1.7-1.1-2.9c0-1.2,0.4-2.2,1.1-2.9c0.8-0.7,1.7-1.1,2.9-1.1c1.2,0,2.1,0.4,2.9,1.1
	s1.1,1.7,1.1,2.9c0,1.2-0.4,2.2-1.1,2.9c-0.8,0.8-1.7,1.1-2.9,1.1S17.7,27.5,16.9,26.8z"/>
            <path fill="none" stroke-miterlimit="10" d="M18.7,24.9c-0.3-0.3-0.4-0.6-0.4-1.1s0.1-0.8,0.4-1.1c0.3-0.3,0.6-0.4,1.1-0.4c0.4,0,0.8,0.1,1.1,0.4
	c0.3,0.3,0.4,0.6,0.4,1.1s-0.1,0.8-0.4,1.1c-0.3,0.3-0.6,0.4-1.1,0.4C19.4,25.4,19,25.2,18.7,24.9z"/>
            <path fill="none" stroke-miterlimit="10" d="M28.8,38c-0.8-0.8-1.1-1.7-1.1-2.9s0.4-2.2,1.1-2.9c0.8-0.7,1.7-1.1,2.9-1.1s2.1,0.4,2.9,1.1
	c0.8,0.7,1.1,1.7,1.1,2.9s-0.4,2.2-1.1,2.9c-0.8,0.8-1.7,1.1-2.9,1.1S29.5,38.7,28.8,38z"/>
            <path fill="none" stroke-miterlimit="10" d="M30.6,36.1c-0.3-0.3-0.4-0.6-0.4-1.1s0.1-0.8,0.4-1.1s0.6-0.4,1.1-0.4c0.4,0,0.8,0.1,1.1,0.4
	c0.3,0.3,0.4,0.6,0.4,1.1s-0.1,0.8-0.4,1.1c-0.3,0.3-0.6,0.4-1.1,0.4C31.2,36.5,30.9,36.4,30.6,36.1z"/>
            <path fill="none" stroke-miterlimit="10" d="M19.8,40.5L19.8,40.5C19,40,18.7,39,19.1,38.2l10.5-19.4c0.5-0.8,1.5-1.1,2.3-0.7l0,0c0.8,0.5,1.1,1.5,0.7,2.3
	L22.1,39.8C21.6,40.7,20.6,41,19.8,40.5z"/>
        </g>
    </symbol>
	 <symbol viewBox="0 0 78 109.5" id="total_sales">
		<g>
			<path fill="none" stroke-miterlimit="10" d="M45,53.9c0-1.9,0-3.7,0-5.6c0-3.8,0-7.6,0-11.4c0-1.4,0-2.9,0-4.3"/>
			<path fill="none" stroke-miterlimit="10" d="M33.5,32.4c0,0.6,0,1.3,0,1.9c0,3.7,0,7.4,0,11.1c0,2.2,0,4.5,0,6.7"/>
			<path fill="none" stroke-miterlimit="10" d="M45,84.3c0-0.1,0-0.3,0-0.4c0-3.7,0-7.4,0-11.1c0-2.3,0-4.7,0-7"/>
			<path fill="none" stroke-miterlimit="10" d="M33.5,63.9c0,2,0,4,0,6c0,3.8,0,7.6,0,11.4c0,1,0,2,0,3.1"/>
			<path fill="none" stroke-miterlimit="10" d="M33.5,96c0,0.6,0,1.3,0,1.9c0,1.1,0,2.2,0,3.3v0.1c0,1.5,0.6,3,1.7,4.1c1,1,2.6,1.7,4.1,1.7
				c1.5-0.1,3-0.6,4.1-1.7c1-1.1,1.7-2.5,1.7-4.1c0-0.7,0-1.5,0-2.3c0-1.1,0-2.2,0-3.2"/>
			<path fill="none" stroke-miterlimit="10" d="M45,20.9c0-0.2,0-0.4,0-0.6c0-1.1,0-2.2,0-3.3v-0.1c0-1.5-0.6-3-1.7-4.1c-1-1-2.6-1.7-4.1-1.7
				c-1.5,0.1-3,0.6-4.1,1.7c-1,1.1-1.7,2.5-1.7,4.1c0,0.7,0,1.5,0,2.3c0,0.6,0,1.1,0,1.7"/>
			<path fill="none" stroke-miterlimit="10" d="M45,65.8c0.6,0.2,1.2,0.3,1.8,0.5c0.7,0.2,1.3,0.4,1.9,0.7c1.3,0.6,2.6,1.3,3.8,2.2c0.5,0.5,1.1,1,1.5,1.5
				c0.3,0.4,0.5,0.8,0.8,1.3c0.2,0.5,0.3,1,0.4,1.4c0.1,0.9,0.1,1.8,0.1,2.8c-0.1,0.8-0.4,1.6-0.6,2.3c-0.3,0.6-0.6,1.2-1,1.7
				s-0.9,1-1.4,1.4c-0.8,0.6-1.7,1.1-2.6,1.5c-1.5,0.6-3,1-4.6,1.2 M45,95.9c1.4-0.2,2.8-0.4,4.1-0.7c2-0.4,3.9-1.1,5.7-1.9
				c1.2-0.5,2.3-1.1,3.4-1.9c1.3-0.9,2.5-1.9,3.5-3.1c1.9-2.2,3.2-4.5,4.1-7.2c0.2-0.7,0.4-1.5,0.5-2.2c0.2-1.1,0.3-2.3,0.4-3.4
				c0-0.8,0-1.6-0.1-2.4c-0.1-2-0.5-3.8-1.3-5.6c-0.3-0.8-0.6-1.5-1.1-2.2c-0.5-0.9-1.2-1.7-1.9-2.5c-1-1.3-2.3-2.2-3.6-3.2
				c-1-0.7-2-1.3-3.1-1.9c-3.4-1.7-7-3-10.7-3.7 M55.2,73.4c0,0.1,0,0.1,0,0.2c0.1,0.4,0.1,0.9,0.2,1.3C55.3,74.4,55.3,73.9,55.2,73.4
				z"/>
			<path fill="none" stroke-miterlimit="10" d="M45,32.6c0.8,0.2,1.6,0.4,2.4,0.7c1.1,0.5,2.1,1.1,3,1.8c0.8,0.7,1.5,1.4,2.2,2.2c0.7,1,1.3,2.1,1.9,3.2
				c0.3,0.8,0.5,1.6,0.7,2.4c0,0.7,0.2,1.3,0.5,1.8c0.2,0.7,0.6,1.3,1.2,1.9c1,1,2.6,1.7,4.1,1.7c1.5-0.1,3-0.6,4.1-1.7
				c1-1,1.9-2.6,1.7-4.1c-0.2-2-0.6-3.8-1.4-5.6c-0.7-1.8-1.5-3.6-2.6-5.2c-1.3-1.8-2.7-3.6-4.5-5c-1.1-0.9-2.3-1.8-3.6-2.5
				c-1.4-0.8-2.8-1.4-4.3-1.9c-1.7-0.6-3.5-1.1-5.3-1.3"/>
			<path fill="none" stroke-miterlimit="10" d="M33.5,52.1c-1.2-0.3-2.4-0.7-3.6-1.1c-1.3-0.6-2.5-1.3-3.6-2.1c-0.7-0.6-1.3-1.2-1.9-1.9
				c-0.4-0.6-0.8-1.3-1.2-2c-0.2-0.6-0.4-1.2-0.5-1.9c0-0.8,0-1.5,0.1-2.3s0.4-1.6,0.6-2.4c0.3-0.6,0.6-1.2,1-1.7
				c0.5-0.5,0.9-1,1.5-1.5c0.9-0.6,1.9-1.2,2.9-1.7c1.5-0.6,3.1-1,4.7-1.3"/>
			<path fill="none" stroke-miterlimit="10" d="M33.5,20.8c-1.4,0.2-2.8,0.4-4.1,0.7c-2.2,0.5-4.2,1.3-6.3,2.2c-2.1,0.9-4,2.3-5.7,3.8c-1,0.9-1.9,2-2.7,3.2
				c-0.6,0.8-1.1,1.6-1.5,2.5c-0.6,1.4-1.2,2.8-1.5,4.3c-0.3,1.7-0.5,3.3-0.5,5c0,0.3,0,0.6,0,0.9c0.2,3,1.1,5.8,2.6,8.5
				c2.2,3.8,5.8,6.9,9.7,8.8c2.8,1.3,5.7,2.4,8.7,3c0.4,0.1,0.9,0.2,1.3,0.2"/>
			<path fill="none" stroke-miterlimit="10" d="M33.5,84.4c-1.3-0.3-2.6-0.6-3.8-1.1c-1-0.5-2-1-2.9-1.7c-0.7-0.6-1.3-1.2-1.8-1.8c-0.6-0.8-1-1.6-1.5-2.5
				c-0.5-1.4-0.9-2.8-1.1-4.3c-0.2-0.7-0.5-1.4-1-2c-0.4-0.6-0.9-1.1-1.6-1.5c-1.2-0.7-3.1-1-4.4-0.6c-1.4,0.5-2.7,1.3-3.4,2.7
				c-0.3,0.5-0.5,0.9-0.7,1.4c-0.3,1-0.3,2,0,3.1c1.1,7.2,5.6,13.7,12.2,16.9c3.1,1.6,6.5,2.5,10,3"/>
		</g>
    </symbol>
	 <symbol viewBox="0 0 50.8 59" id="no_of_transactions">
		<g>
			<path fill="none" stroke-miterlimit="10" d="M25.9,4.6V1.8c0-0.5-0.2-0.9-0.7-1.2c-0.4-0.2-0.9-0.2-1.3,0.1l-7.7,4.7c-0.4,0.2-0.6,0.7-0.6,1.1
				s0.2,0.9,0.6,1.1l7.6,4.8c0.2,0.1,0.4,0.2,0.7,0.2c0.2,0,0.4-0.1,0.7-0.2c0.4-0.2,0.7-0.7,0.7-1.2V8.8C37,9.2,46,18.3,46,29.5
				c0,5.5-2.1,10.7-6,14.5c-0.9,0.9-0.9,2.2,0,3.1c0.4,0.4,1,0.6,1.5,0.6s1.1-0.2,1.5-0.6c4.7-4.7,7.3-10.9,7.3-17.6
				C50.3,15.9,39.4,4.9,25.9,4.6z"/>
			<path fill="none" stroke-miterlimit="10" d="M26.9,46.5c-0.4-0.2-0.9-0.2-1.3-0.1c-0.4,0.2-0.7,0.7-0.7,1.2V50C13.7,49.7,4.8,40.7,4.8,29.5
				c0-5.5,2.1-10.6,6-14.5c0.9-0.9,0.9-2.2,0-3.1c-0.9-0.9-2.2-0.9-3.1,0C3,16.6,0.4,22.8,0.4,29.5c0,13.5,10.9,24.6,24.4,24.8v2.8
				c0,0.5,0.2,0.9,0.7,1.2c0.2,0.1,0.4,0.2,0.7,0.2c0.2,0,0.5-0.1,0.7-0.2l7.7-4.8c0.4-0.2,0.6-0.7,0.6-1.1c0-0.4-0.2-0.9-0.6-1.1
				L26.9,46.5z"/>
		</g>
		<g>
			<path fill="none" stroke-miterlimit="10" d="M27.1,28c0-0.5,0-1,0-1.6c0-1.1,0-2.2,0-3.2c0-0.4,0-0.8,0-1.2"/>
			<path fill="none" stroke-miterlimit="10" d="M23.9,21.9c0,0.2,0,0.4,0,0.5c0,1,0,2.1,0,3.1c0,0.6,0,1.3,0,1.9"/>
			<path fill="none" stroke-miterlimit="10" d="M27.1,36.6c0,0,0-0.1,0-0.1c0-1,0-2.1,0-3.1c0-0.7,0-1.3,0-2"/>
			<path fill="none" stroke-miterlimit="10" d="M23.9,30.9c0,0.6,0,1.1,0,1.7c0,1.1,0,2.2,0,3.2c0,0.3,0,0.6,0,0.9"/>
			<path fill="none" stroke-miterlimit="10" d="M23.9,39.9c0,0.2,0,0.4,0,0.5c0,0.3,0,0.6,0,0.9v0c0,0.4,0.2,0.8,0.5,1.2c0.3,0.3,0.7,0.5,1.2,0.5
				c0.4,0,0.8-0.2,1.2-0.5c0.3-0.3,0.5-0.7,0.5-1.2c0-0.2,0-0.4,0-0.7c0-0.3,0-0.6,0-0.9"/>
			<path fill="none" stroke-miterlimit="10" d="M27.1,18.7c0-0.1,0-0.1,0-0.2c0-0.3,0-0.6,0-0.9v0c0-0.4-0.2-0.8-0.5-1.2c-0.3-0.3-0.7-0.5-1.2-0.5
				c-0.4,0-0.8,0.2-1.2,0.5c-0.3,0.3-0.5,0.7-0.5,1.2c0,0.2,0,0.4,0,0.7c0,0.2,0,0.3,0,0.5"/>
			<path fill="none" stroke-miterlimit="10" d="M27.1,31.4c0.2,0.1,0.3,0.1,0.5,0.1c0.2,0.1,0.4,0.1,0.5,0.2c0.4,0.2,0.7,0.4,1.1,0.6c0.1,0.1,0.3,0.3,0.4,0.4
				c0.1,0.1,0.1,0.2,0.2,0.4c0.1,0.1,0.1,0.3,0.1,0.4c0,0.3,0,0.5,0,0.8c0,0.2-0.1,0.5-0.2,0.7c-0.1,0.2-0.2,0.3-0.3,0.5
				c-0.1,0.1-0.3,0.3-0.4,0.4c-0.2,0.2-0.5,0.3-0.7,0.4c-0.4,0.2-0.8,0.3-1.3,0.3 M27.1,39.9c0.4-0.1,0.8-0.1,1.2-0.2
				c0.6-0.1,1.1-0.3,1.6-0.5c0.3-0.1,0.7-0.3,1-0.5c0.4-0.3,0.7-0.5,1-0.9c0.5-0.6,0.9-1.3,1.2-2c0.1-0.2,0.1-0.4,0.1-0.6
				c0.1-0.3,0.1-0.7,0.1-1c0-0.2,0-0.5,0-0.7c0-0.6-0.1-1.1-0.4-1.6c-0.1-0.2-0.2-0.4-0.3-0.6c-0.1-0.3-0.3-0.5-0.5-0.7
				c-0.3-0.4-0.7-0.6-1-0.9c-0.3-0.2-0.6-0.4-0.9-0.5c-1-0.5-2-0.8-3-1 M30,33.5C30,33.6,30,33.6,30,33.5c0,0.2,0,0.3,0.1,0.4
				C30,33.8,30,33.7,30,33.5z"/>
			<path fill="none" stroke-miterlimit="10" d="M27.1,22c0.2,0.1,0.5,0.1,0.7,0.2c0.3,0.1,0.6,0.3,0.8,0.5c0.2,0.2,0.4,0.4,0.6,0.6c0.2,0.3,0.4,0.6,0.5,0.9
				c0.1,0.2,0.1,0.5,0.2,0.7c0,0.2,0.1,0.4,0.1,0.5c0.1,0.2,0.2,0.4,0.3,0.5c0.3,0.3,0.7,0.5,1.2,0.5c0.4,0,0.8-0.2,1.2-0.5
				c0.3-0.3,0.5-0.7,0.5-1.2c-0.1-0.6-0.2-1.1-0.4-1.6c-0.2-0.5-0.4-1-0.7-1.5c-0.4-0.5-0.8-1-1.3-1.4c-0.3-0.3-0.7-0.5-1-0.7
				c-0.4-0.2-0.8-0.4-1.2-0.5c-0.5-0.2-1-0.3-1.5-0.4"/>
			<path fill="none" stroke-miterlimit="10" d="M23.9,27.5c-0.3-0.1-0.7-0.2-1-0.3c-0.4-0.2-0.7-0.4-1-0.6c-0.2-0.2-0.4-0.3-0.5-0.5c-0.1-0.2-0.2-0.4-0.3-0.6
				c-0.1-0.2-0.1-0.3-0.1-0.5c0-0.2,0-0.4,0-0.7c0-0.2,0.1-0.5,0.2-0.7c0.1-0.2,0.2-0.3,0.3-0.5c0.1-0.1,0.3-0.3,0.4-0.4
				c0.3-0.2,0.5-0.3,0.8-0.5c0.4-0.2,0.9-0.3,1.3-0.4"/>
			<path fill="none" stroke-miterlimit="10" d="M23.9,18.7c-0.4,0.1-0.8,0.1-1.2,0.2c-0.6,0.1-1.2,0.4-1.8,0.6s-1.1,0.7-1.6,1.1c-0.3,0.3-0.5,0.6-0.8,0.9
				c-0.2,0.2-0.3,0.5-0.4,0.7c-0.2,0.4-0.3,0.8-0.4,1.2c-0.1,0.5-0.1,0.9-0.1,1.4c0,0.1,0,0.2,0,0.3c0.1,0.8,0.3,1.6,0.7,2.4
				c0.6,1.1,1.6,2,2.7,2.5c0.8,0.4,1.6,0.7,2.5,0.8c0.1,0,0.3,0.1,0.4,0.1"/>
			<path fill="none" stroke-miterlimit="10" d="M23.9,36.7c-0.4-0.1-0.7-0.2-1.1-0.3c-0.3-0.1-0.6-0.3-0.8-0.5c-0.2-0.2-0.4-0.3-0.5-0.5
				c-0.2-0.2-0.3-0.5-0.4-0.7c-0.1-0.4-0.3-0.8-0.3-1.2c-0.1-0.2-0.1-0.4-0.3-0.6c-0.1-0.2-0.3-0.3-0.5-0.4c-0.3-0.2-0.9-0.3-1.2-0.2
				c-0.4,0.1-0.8,0.4-1,0.8c-0.1,0.1-0.1,0.3-0.2,0.4c-0.1,0.3-0.1,0.6,0,0.9c0.3,2,1.6,3.9,3.5,4.8c0.9,0.5,1.8,0.7,2.8,0.8"/>
		</g>
    </symbol>
	 <symbol viewBox="0 0 78 109.5" id="avg_sales_transtions">
		<path fill="none" stroke-miterlimit="10" d="M67.9,19.6c-0.4-0.3-0.8-0.5-1.1-0.9c-1.6-1.5-3.2-2.9-4.8-4.4c-0.3-0.3-0.5-0.7-0.5-1.1c0-2,0-4,0.1-6.1
			c0-0.9,0.4-1.3,1.1-1.3c0.7,0,1.1,0.5,1.1,1.4c0,1.6-0.1,3.1,0,4.7c0,0.4,0.2,0.9,0.5,1.2c1.3,1.4,2.7,2.6,4,4
			c0.3,0.3,0.6,0.7,0.9,1.1c0,0.5,0,0.9,0,1.4C68.8,19.6,68.3,19.6,67.9,19.6z"/>
		<path fill="none" stroke-miterlimit="10" d="M66,0c1.5,0.4,2.9,0.9,4.4,1.3c0.2,0,0.5-0.2,0.7-0.4C71.8,0,72.3,0.1,72.8,1c0.6,1.2,1.1,2.3,1.7,3.5
			c0.4,0.9,0.1,1.3-0.8,1.2c-1.4-0.1-2.8-0.3-4.2-0.5c-0.8-0.1-1-0.6-0.6-1.3c0.1-0.2,0.3-0.4,0.5-0.7c-4-1.6-7.7-1.3-11.1,1.2
			c-3.7,2.8-5.1,6.7-4,11.3c1.1,4.5,4.2,7.3,8.8,8.2c6.1,1.1,12.1-3.5,12.6-9.7c0.1-0.9,0-1.8,0-2.8c0-0.9,0.3-1.4,1-1.5
			c0.6-0.1,1.1,0.5,1.3,1.3c0,0.2,0.1,0.5,0.2,0.7c0,0.8,0,1.6,0,2.4c0,0.1-0.1,0.2-0.1,0.4c-0.9,7.4-7.7,12.6-15.1,11.4
			c-6.9-1.1-11.7-7.4-10.9-14.5c0.6-5.3,4.4-9.8,9.6-11.2c0.8-0.2,1.5-0.3,2.3-0.5C64.4,0,65.2,0,66,0z"/>
		<path fill="none" stroke-miterlimit="10" d="M35.5,53.9c0-1.9,0-3.7,0-5.6c0-3.8,0-7.6,0-11.4c0-1.4,0-2.9,0-4.3"/>
		<path fill="none" stroke-miterlimit="10" d="M24,32.4c0,0.6,0,1.3,0,1.9c0,3.7,0,7.4,0,11.1c0,2.2,0,4.5,0,6.7"/>
		<path fill="none" stroke-miterlimit="10" d="M35.5,84.3c0-0.1,0-0.3,0-0.4c0-3.7,0-7.4,0-11.1c0-2.3,0-4.7,0-7"/>
		<path fill="none" stroke-miterlimit="10" d="M24,63.9c0,2,0,4,0,6c0,3.8,0,7.6,0,11.4c0,1,0,2,0,3.1"/>
		<path fill="none" stroke-miterlimit="10" d="M24,96c0,0.6,0,1.3,0,1.9c0,1.1,0,2.2,0,3.3c0,0,0,0.1,0,0.1c0,1.5,0.6,3,1.7,4.1c1,1,2.6,1.7,4.1,1.7
			c1.5-0.1,3-0.6,4.1-1.7c1-1.1,1.7-2.5,1.7-4.1c0-0.7,0-1.5,0-2.3c0-1.1,0-2.2,0-3.2"/>
		<path fill="none" stroke-miterlimit="10" d="M35.5,20.9c0-0.2,0-0.4,0-0.6c0-1.1,0-2.2,0-3.3c0,0,0-0.1,0-0.1c0-1.5-0.6-3-1.7-4.1c-1-1-2.6-1.7-4.1-1.7
			c-1.5,0.1-3,0.6-4.1,1.7c-1,1.1-1.7,2.5-1.7,4.1c0,0.7,0,1.5,0,2.3c0,0.6,0,1.1,0,1.7"/>
		<path fill="none" stroke-miterlimit="10" d="M35.5,65.8c0.6,0.2,1.2,0.3,1.8,0.5c0.7,0.2,1.3,0.4,1.9,0.7c1.3,0.6,2.6,1.3,3.8,2.2c0.5,0.5,1.1,1,1.5,1.5
			c0.3,0.4,0.5,0.8,0.8,1.3c0.2,0.5,0.3,1,0.4,1.4c0.1,0.9,0.1,1.8,0.1,2.8c-0.1,0.8-0.4,1.6-0.6,2.3c-0.3,0.6-0.6,1.2-1,1.7
			c-0.4,0.5-0.9,1-1.4,1.4c-0.8,0.6-1.7,1.1-2.6,1.5c-1.5,0.6-3,1-4.6,1.2 M35.5,95.9c1.4-0.2,2.8-0.4,4.1-0.7c2-0.4,3.9-1.1,5.7-1.9
			c1.2-0.5,2.3-1.1,3.4-1.9c1.3-0.9,2.5-1.9,3.5-3.1c1.9-2.2,3.2-4.5,4.1-7.2c0.2-0.7,0.4-1.5,0.5-2.2c0.2-1.1,0.3-2.3,0.4-3.4
			c0-0.8,0-1.6-0.1-2.4c-0.1-2-0.5-3.8-1.3-5.6c-0.3-0.8-0.6-1.5-1.1-2.2c-0.5-0.9-1.2-1.7-1.9-2.5c-1-1.3-2.3-2.2-3.6-3.2
			c-1-0.7-2-1.3-3.1-1.9c-3.4-1.7-7-3-10.7-3.7 M45.7,73.4c0,0.1,0,0.1,0,0.2c0.1,0.4,0.1,0.9,0.2,1.3C45.8,74.4,45.8,73.9,45.7,73.4z
			"/>
		<path fill="none" stroke-miterlimit="10" d="M35.5,32.6c0.8,0.2,1.6,0.4,2.4,0.7c1.1,0.5,2.1,1.1,3,1.8c0.8,0.7,1.5,1.4,2.2,2.2c0.7,1,1.3,2.1,1.9,3.2
			c0.3,0.8,0.5,1.6,0.7,2.4c0,0.7,0.2,1.3,0.5,1.8c0.2,0.7,0.6,1.3,1.2,1.9c1,1,2.6,1.7,4.1,1.7c1.5-0.1,3-0.6,4.1-1.7
			c1-1,1.9-2.6,1.7-4.1c-0.2-2-0.6-3.8-1.4-5.6c-0.7-1.8-1.5-3.6-2.6-5.2c-1.3-1.8-2.7-3.6-4.5-5c-1.1-0.9-2.3-1.8-3.6-2.5
			c-1.4-0.8-2.8-1.4-4.3-1.9c-1.7-0.6-3.5-1.1-5.3-1.3"/>
		<path fill="none" stroke-miterlimit="10" d="M24,52.1c-1.2-0.3-2.4-0.7-3.6-1.1c-1.3-0.6-2.5-1.3-3.6-2.1c-0.7-0.6-1.3-1.2-1.9-1.9c-0.4-0.6-0.8-1.3-1.2-2
			c-0.2-0.6-0.4-1.2-0.5-1.9c0-0.8,0-1.5,0.1-2.3c0.1-0.8,0.4-1.6,0.6-2.4c0.3-0.6,0.6-1.2,1-1.7c0.5-0.5,0.9-1,1.5-1.5
			c0.9-0.6,1.9-1.2,2.9-1.7c1.5-0.6,3.1-1,4.7-1.3"/>
		<path fill="none" stroke-miterlimit="10" d="M24,20.8c-1.4,0.2-2.8,0.4-4.1,0.7c-2.2,0.5-4.2,1.3-6.3,2.2c-2.1,0.9-4,2.3-5.7,3.8c-1,0.9-1.9,2-2.7,3.2
			c-0.6,0.8-1.1,1.6-1.5,2.5c-0.6,1.4-1.2,2.8-1.5,4.3c-0.3,1.7-0.5,3.3-0.5,5c0,0.3,0,0.6,0,0.9c0.2,3,1.1,5.8,2.6,8.5
			c2.2,3.8,5.8,6.9,9.7,8.8c2.8,1.3,5.7,2.4,8.7,3c0.4,0.1,0.9,0.2,1.3,0.2"/>
		<path fill="none" stroke-miterlimit="10" d="M24,84.4c-1.3-0.3-2.6-0.6-3.8-1.1c-1-0.5-2-1-2.9-1.7c-0.7-0.6-1.3-1.2-1.8-1.8c-0.6-0.8-1-1.6-1.5-2.5
			c-0.5-1.4-0.9-2.8-1.1-4.3c-0.2-0.7-0.5-1.4-1-2c-0.4-0.6-0.9-1.1-1.6-1.5c-1.2-0.7-3.1-1-4.4-0.6c-1.4,0.5-2.7,1.3-3.4,2.7
			C2.2,72.1,2,72.5,1.8,73c-0.3,1-0.3,2,0,3.1C2.9,83.3,7.4,89.8,14,93c3.1,1.6,6.5,2.5,10,3"/>
    </symbol>
	<symbol viewBox="0 0 50.8 59" id="avg_items_transactions">
        <g>
			<path fill="none" stroke-miterlimit="10" d="M25.9,4.6V1.8c0-0.5-0.2-0.9-0.7-1.2c-0.4-0.2-0.9-0.2-1.3,0.1l-7.7,4.7c-0.4,0.2-0.6,0.7-0.6,1.1
				s0.2,0.9,0.6,1.1l7.6,4.8c0.2,0.1,0.4,0.2,0.7,0.2c0.2,0,0.4-0.1,0.7-0.2c0.4-0.2,0.7-0.7,0.7-1.2V8.8C37,9.2,46,18.3,46,29.5
				c0,5.5-2.1,10.7-6,14.5c-0.9,0.9-0.9,2.2,0,3.1c0.4,0.4,1,0.6,1.5,0.6s1.1-0.2,1.5-0.6c4.7-4.7,7.3-10.9,7.3-17.6
				C50.3,15.9,39.4,4.9,25.9,4.6z"/>
			<path fill="none" stroke-miterlimit="10" d="M26.9,46.5c-0.4-0.2-0.9-0.2-1.3-0.1c-0.4,0.2-0.7,0.7-0.7,1.2V50C13.7,49.7,4.8,40.7,4.8,29.5
				c0-5.5,2.1-10.6,6-14.5c0.9-0.9,0.9-2.2,0-3.1c-0.9-0.9-2.2-0.9-3.1,0C3,16.6,0.4,22.8,0.4,29.5c0,13.5,10.9,24.6,24.4,24.8v2.8
				c0,0.5,0.2,0.9,0.7,1.2c0.2,0.1,0.4,0.2,0.7,0.2c0.2,0,0.5-0.1,0.7-0.2l7.7-4.8c0.4-0.2,0.6-0.7,0.6-1.1c0-0.4-0.2-0.9-0.6-1.1
				L26.9,46.5z"/>
		</g>
		<g>
			<path fill="none" stroke-miterlimit="10" d="M37,22.8c-0.5-0.6-1.2-0.9-1.9-0.9h-3.9h-3.6h-3h-5L19.1,20c-0.3-1.1-1.2-1.9-2.4-1.9h-2.6
				c-0.4,0-0.8,0.4-0.8,0.8s0.4,0.8,0.8,0.8h2.6c0.4,0,0.7,0.3,0.8,0.6l3.1,12.4c0.3,1.1,1.2,1.9,2.4,1.9h10.2c1.1,0,2.1-0.8,2.4-1.9
				l1.9-7.8C37.6,24.1,37.5,23.4,37,22.8z"/>
			<path fill="none" stroke-miterlimit="10" d="M23.5,35.6c-1.5,0-2.6,1.2-2.6,2.6c0,1.5,1.2,2.6,2.6,2.6c1.5,0,2.6-1.2,2.6-2.6C26.2,36.8,25,35.6,23.5,35.6z
				M23.5,39.3c-0.6,0-1-0.5-1-1c0-0.6,0.5-1,1-1s1,0.5,1,1C24.6,38.8,24.1,39.3,23.5,39.3z"/>
			<path fill="none" stroke-miterlimit="10" d="M32.3,35.6c-1.5,0-2.6,1.2-2.6,2.6c0,1.5,1.2,2.6,2.6,2.6c1.5,0,2.6-1.2,2.6-2.6
				C34.9,36.8,33.7,35.6,32.3,35.6z M32.3,39.3c-0.6,0-1-0.5-1-1c0-0.6,0.5-1,1-1s1,0.5,1,1C33.3,38.8,32.8,39.3,32.3,39.3z"/>
		</g>
    </symbol>
    <symbol viewBox="0 0 50.8 59" id="no-of-sales">
        <g>
            <g>
                <path fill="none" stroke-miterlimit="10" d="M25.9,4.6V1.8c0-0.5-0.2-0.9-0.7-1.2c-0.4-0.2-0.9-0.2-1.3,0.1l-7.7,4.7c-0.4,0.2-0.6,0.7-0.6,1.1
		c0,0.4,0.2,0.9,0.6,1.1l7.6,4.8c0.2,0.1,0.4,0.2,0.7,0.2c0.2,0,0.4-0.1,0.7-0.2c0.4-0.2,0.7-0.7,0.7-1.2V8.8
		C37,9.2,46,18.3,46,29.5c0,5.5-2.1,10.7-6,14.5c-0.9,0.9-0.9,2.2,0,3.1c0.4,0.4,1,0.6,1.5,0.6s1.1-0.2,1.5-0.6
		c4.7-4.7,7.3-10.9,7.3-17.6C50.3,15.9,39.4,4.9,25.9,4.6z"/>
                <path fill="none" stroke-miterlimit="10" d="M26.9,46.5c-0.4-0.2-0.9-0.2-1.3-0.1c-0.4,0.2-0.7,0.7-0.7,1.2V50C13.7,49.7,4.8,40.7,4.8,29.5
		c0-5.5,2.1-10.6,6-14.5c0.9-0.9,0.9-2.2,0-3.1c-0.9-0.9-2.2-0.9-3.1,0c-4.7,4.7-7.3,10.9-7.3,17.6c0,13.5,10.9,24.6,24.4,24.8v2.8
		c0,0.5,0.2,0.9,0.7,1.2c0.2,0.1,0.4,0.2,0.7,0.2c0.2,0,0.5-0.1,0.7-0.2l7.7-4.8c0.4-0.2,0.6-0.7,0.6-1.1c0-0.4-0.2-0.9-0.6-1.1
		L26.9,46.5z"/>
            </g>
            <g>
                <path fill="none" stroke-miterlimit="10" d="M27,28.2c0-0.5,0-0.9,0-1.4c0-1,0-1.9,0-2.9c0-0.4,0-0.7,0-1.1"/>
                <path fill="none" stroke-miterlimit="10" d="M24,22.6c0,0.2,0,0.3,0,0.5c0,0.9,0,1.9,0,2.8c0,0.6,0,1.2,0,1.7"/>
                <path fill="none" stroke-miterlimit="10" d="M27,35.9c0,0,0-0.1,0-0.1c0-0.9,0-1.9,0-2.8c0-0.6,0-1.2,0-1.8"/>
                <path fill="none" stroke-miterlimit="10" d="M24,30.7c0,0.5,0,1,0,1.5c0,1,0,1.9,0,2.9c0,0.3,0,0.5,0,0.8"/>
                <path fill="none" stroke-miterlimit="10" d="M24,38.9c0,0.2,0,0.3,0,0.5c0,0.3,0,0.6,0,0.8v0c0,0.4,0.2,0.8,0.4,1.1c0.3,0.3,0.7,0.4,1.1,0.4
		c0.4,0,0.8-0.2,1.1-0.4c0.3-0.3,0.4-0.6,0.4-1.1c0-0.2,0-0.4,0-0.6c0-0.3,0-0.6,0-0.8"/>
                <path fill="none" stroke-miterlimit="10" d="M27,19.7c0-0.1,0-0.1,0-0.2c0-0.3,0-0.6,0-0.8v0c0-0.4-0.2-0.8-0.4-1.1c-0.3-0.3-0.7-0.4-1.1-0.4
		c-0.4,0-0.8,0.2-1.1,0.4c-0.3,0.3-0.4,0.6-0.4,1.1c0,0.2,0,0.4,0,0.6c0,0.2,0,0.3,0,0.4"/>
                <path fill="none" stroke-miterlimit="10" d="M27,31.2c0.2,0.1,0.3,0.1,0.5,0.1c0.2,0.1,0.3,0.1,0.5,0.2c0.3,0.2,0.7,0.3,1,0.6c0.1,0.1,0.3,0.3,0.4,0.4
		c0.1,0.1,0.1,0.2,0.2,0.3c0.1,0.1,0.1,0.3,0.1,0.4c0,0.2,0,0.5,0,0.7c0,0.2-0.1,0.4-0.2,0.6c-0.1,0.2-0.2,0.3-0.3,0.4
		s-0.2,0.3-0.4,0.4c-0.2,0.2-0.4,0.3-0.7,0.4c-0.4,0.2-0.8,0.3-1.2,0.3 M27,38.9c0.4-0.1,0.7-0.1,1.1-0.2c0.5-0.1,1-0.3,1.5-0.5
		c0.3-0.1,0.6-0.3,0.9-0.5c0.3-0.2,0.6-0.5,0.9-0.8c0.5-0.6,0.8-1.2,1.1-1.8c0.1-0.2,0.1-0.4,0.1-0.6c0.1-0.3,0.1-0.6,0.1-0.9
		c0-0.2,0-0.4,0-0.6c0-0.5-0.1-1-0.3-1.4c-0.1-0.2-0.2-0.4-0.3-0.6c-0.1-0.2-0.3-0.4-0.5-0.6c-0.3-0.3-0.6-0.6-0.9-0.8
		c-0.3-0.2-0.5-0.3-0.8-0.5c-0.9-0.4-1.8-0.8-2.7-0.9 M29.6,33.2C29.6,33.2,29.6,33.2,29.6,33.2c0,0.2,0,0.3,0.1,0.4
		C29.6,33.4,29.6,33.3,29.6,33.2z"/>
                <path fill="none" stroke-miterlimit="10" d="M27,22.7c0.2,0.1,0.4,0.1,0.6,0.2c0.3,0.1,0.5,0.3,0.8,0.5c0.2,0.2,0.4,0.4,0.6,0.6c0.2,0.3,0.3,0.5,0.5,0.8
		c0.1,0.2,0.1,0.4,0.2,0.6c0,0.2,0.1,0.3,0.1,0.5c0.1,0.2,0.2,0.3,0.3,0.5c0.3,0.3,0.7,0.4,1.1,0.4c0.4,0,0.8-0.2,1.1-0.4
		c0.3-0.3,0.5-0.7,0.4-1.1c-0.1-0.5-0.2-1-0.4-1.4c-0.2-0.5-0.4-0.9-0.7-1.3c-0.3-0.5-0.7-0.9-1.2-1.3c-0.3-0.2-0.6-0.5-0.9-0.6
		c-0.4-0.2-0.7-0.4-1.1-0.5c-0.4-0.2-0.9-0.3-1.4-0.3"/>
                <path fill="none" stroke-miterlimit="10" d="M24,27.7c-0.3-0.1-0.6-0.2-0.9-0.3c-0.3-0.2-0.6-0.3-0.9-0.5c-0.2-0.2-0.3-0.3-0.5-0.5
		c-0.1-0.2-0.2-0.3-0.3-0.5c-0.1-0.2-0.1-0.3-0.1-0.5c0-0.2,0-0.4,0-0.6c0-0.2,0.1-0.4,0.2-0.6c0.1-0.2,0.2-0.3,0.3-0.4
		c0.1-0.1,0.2-0.3,0.4-0.4c0.2-0.2,0.5-0.3,0.7-0.4c0.4-0.2,0.8-0.3,1.2-0.3"/>
                <path fill="none" stroke-miterlimit="10" d="M24,19.7c-0.4,0.1-0.7,0.1-1.1,0.2c-0.6,0.1-1.1,0.3-1.6,0.6s-1,0.6-1.5,1c-0.3,0.2-0.5,0.5-0.7,0.8
		c-0.2,0.2-0.3,0.4-0.4,0.6c-0.2,0.4-0.3,0.7-0.4,1.1c-0.1,0.4-0.1,0.8-0.1,1.3c0,0.1,0,0.2,0,0.2c0.1,0.8,0.3,1.5,0.7,2.2
		c0.6,1,1.5,1.8,2.5,2.3c0.7,0.3,1.5,0.6,2.2,0.8c0.1,0,0.2,0.1,0.3,0.1"/>
                <path fill="none" stroke-miterlimit="10" d="M24,36c-0.3-0.1-0.7-0.2-1-0.3c-0.3-0.1-0.5-0.3-0.7-0.4c-0.2-0.2-0.3-0.3-0.5-0.5c-0.2-0.2-0.3-0.4-0.4-0.6
		c-0.1-0.4-0.2-0.7-0.3-1.1c-0.1-0.2-0.1-0.4-0.3-0.5c-0.1-0.2-0.2-0.3-0.4-0.4c-0.3-0.2-0.8-0.3-1.1-0.2c-0.4,0.1-0.7,0.3-0.9,0.7
		c-0.1,0.1-0.1,0.2-0.2,0.4c-0.1,0.3-0.1,0.5,0,0.8c0.3,1.8,1.4,3.5,3.1,4.3c0.8,0.4,1.7,0.6,2.6,0.8"/>
            </g>
        </g>
    </symbol>
    <symbol viewBox="0 0 50.8 59" id="sales-conversion">
        <g>
            <g>
                <path fill="none" stroke-miterlimit="10" d="M25.9,4.6V1.8c0-0.5-0.2-0.9-0.7-1.2c-0.4-0.2-0.9-0.2-1.3,0.1l-7.7,4.7c-0.4,0.2-0.6,0.7-0.6,1.1
		c0,0.4,0.2,0.9,0.6,1.1l7.6,4.8c0.2,0.1,0.4,0.2,0.7,0.2c0.2,0,0.4-0.1,0.7-0.2c0.4-0.2,0.7-0.7,0.7-1.2V8.8
		C37,9.2,46,18.3,46,29.5c0,5.5-2.1,10.7-6,14.5c-0.9,0.9-0.9,2.2,0,3.1c0.4,0.4,1,0.6,1.5,0.6s1.1-0.2,1.5-0.6
		c4.7-4.7,7.3-10.9,7.3-17.6C50.3,15.9,39.4,4.9,25.9,4.6z"/>
                <path fill="none" stroke-miterlimit="10" d="M26.9,46.5c-0.4-0.2-0.9-0.2-1.3-0.1c-0.4,0.2-0.7,0.7-0.7,1.2V50C13.7,49.7,4.8,40.7,4.8,29.5
		c0-5.5,2.1-10.6,6-14.5c0.9-0.9,0.9-2.2,0-3.1c-0.9-0.9-2.2-0.9-3.1,0c-4.7,4.7-7.3,10.9-7.3,17.6c0,13.5,10.9,24.6,24.4,24.8v2.8
		c0,0.5,0.2,0.9,0.7,1.2c0.2,0.1,0.4,0.2,0.7,0.2c0.2,0,0.5-0.1,0.7-0.2l7.7-4.8c0.4-0.2,0.6-0.7,0.6-1.1c0-0.4-0.2-0.9-0.6-1.1
		L26.9,46.5z"/>
            </g>
            <path fill="none" stroke-miterlimit="10" d="M16.9,26.8c-0.8-0.8-1.1-1.7-1.1-2.9c0-1.2,0.4-2.2,1.1-2.9c0.8-0.7,1.7-1.1,2.9-1.1c1.2,0,2.1,0.4,2.9,1.1
	c0.8,0.7,1.1,1.7,1.1,2.9c0,1.2-0.4,2.2-1.1,2.9c-0.8,0.8-1.7,1.1-2.9,1.1C18.6,27.9,17.7,27.5,16.9,26.8z"/>
            <path fill="none" stroke-miterlimit="10" d="M18.7,24.9c-0.3-0.3-0.4-0.6-0.4-1.1s0.1-0.8,0.4-1.1c0.3-0.3,0.6-0.4,1.1-0.4c0.4,0,0.8,0.1,1.1,0.4
	c0.3,0.3,0.4,0.6,0.4,1.1s-0.1,0.8-0.4,1.1c-0.3,0.3-0.6,0.4-1.1,0.4C19.4,25.4,19,25.2,18.7,24.9z"/>
            <path fill="none" stroke-miterlimit="10" d="M28.8,38c-0.8-0.8-1.1-1.7-1.1-2.9c0-1.2,0.4-2.2,1.1-2.9c0.8-0.7,1.7-1.1,2.9-1.1c1.2,0,2.1,0.4,2.9,1.1
	c0.8,0.7,1.1,1.7,1.1,2.9c0,1.2-0.4,2.2-1.1,2.9c-0.8,0.8-1.7,1.1-2.9,1.1C30.5,39.1,29.5,38.7,28.8,38z"/>
            <path fill="none" stroke-miterlimit="10" d="M30.6,36.1c-0.3-0.3-0.4-0.6-0.4-1.1s0.1-0.8,0.4-1.1c0.3-0.3,0.6-0.4,1.1-0.4c0.4,0,0.8,0.1,1.1,0.4
	c0.3,0.3,0.4,0.6,0.4,1.1s-0.1,0.8-0.4,1.1c-0.3,0.3-0.6,0.4-1.1,0.4C31.2,36.5,30.9,36.4,30.6,36.1z"/>
            <path fill="none" stroke-miterlimit="10" d="M19.8,40.5L19.8,40.5c-0.8-0.5-1.1-1.5-0.7-2.3l10.5-19.4c0.5-0.8,1.5-1.1,2.3-0.7l0,0c0.8,0.5,1.1,1.5,0.7,2.3
	L22.1,39.8C21.6,40.7,20.6,41,19.8,40.5z"/>
        </g>
    </symbol>
	<symbol viewBox="0 0 76.8 112.9" id="walkin_avg">
		<path fill="none" stroke-miterlimit="10" stroke-width="2" d="M36.2,48.6c2.2,6.1,7.8,9.1,12.7,12.6c1,0.7,3.5,0.5,4.6-0.3c1.7-1.2,1.3-3.3,0.2-4.9c-0.5-0.8-1.2-1.5-2-2
		c-5.7-3.3-9.3-8.3-11.6-14.3c-0.5-1.3-1.3-2.5-1.9-3.8c-3-6-11.5-8.2-17.1-4.3c-4.6,3.2-9.2,6.5-13.7,9.9c-1.2,0.9-2.2,2.5-2.6,3.9
		c-1.4,4.9-2.4,9.8-3.6,14.7c-0.6,2.7,0.3,4.7,2.4,5.3c2.5,0.7,4.4-0.3,5.2-3.1c0.9-3,2-6,2.2-9.1c0.3-5.4,4.6-7.2,7.9-10
		c0,2-0.4,3.8-0.6,5.7c-0.7,6-3.2,12-0.9,18.2c0.3,1-0.1,2.3-0.3,3.4C14.9,80.9,11.4,90.7,5,99.4c-1,1.3-1.7,2.8-2.5,4.2
		c-1.7,3-1.3,5.4,1,7.1c2.6,1.8,5,1.5,7.2-1.4c1.9-2.5,3.6-5.1,5.2-7.8c2.9-4.8,5.9-9.7,8.4-14.8c1.7-3.2,2.6-6.8,4-10.8
		c1.9,3.3,3.5,6.2,5.3,8.8c2.1,2.9,3,6.1,3.4,9.5c0.5,4.2,1.2,8.5,1.8,12.7c0.5,3.2,2.6,4.9,5.5,4.7c2.9-0.2,4.4-2.2,4.3-5.6
		c0-0.7,0-1.3-0.1-2c-0.5-3.7-1.2-7.3-1.6-11c-0.7-6.1-2.2-11.9-6.1-16.9c-2.5-3.2-4.4-6.9-6.5-10.4c-0.6-1-1.1-2.3-1-3.4
		c0.6-4.8,1.4-9.6,2.2-15C36.1,48.2,36.4,48.5,36.2,48.6z"/>
		<path fill="none" stroke-miterlimit="10" stroke-width="2" d="M34.9,12.2c-4.3,0.1-7.9,3.8-8,8.2c-0.1,4.7,3.6,8.5,8.2,8.5c4.4,0,7.8-3.4,7.8-8C43,16.2,39.3,12.3,34.9,12.2z"/>
		<path fill="none" stroke-miterlimit="10" d="M66.5,19.7c-0.4-0.3-0.8-0.5-1.1-0.9c-1.6-1.5-3.2-2.9-4.8-4.4c-0.3-0.3-0.5-0.7-0.5-1.1c0-2,0-4,0.1-6.1
			c0-0.9,0.4-1.3,1.1-1.3c0.7,0,1.1,0.5,1.1,1.4c0,1.6-0.1,3.1,0,4.7c0,0.4,0.2,0.9,0.5,1.2c1.3,1.4,2.7,2.6,4,4
			c0.3,0.3,0.6,0.7,0.9,1.1c0,0.5,0,0.9,0,1.4C67.4,19.7,66.9,19.7,66.5,19.7z"/>
		<path fill="none" stroke-miterlimit="10" stroke-width="2" d="M64.6,0.1C66.1,0.5,67.5,1,69,1.4c0.2,0,0.5-0.2,0.7-0.4c0.7-0.9,1.2-0.8,1.7,0.1c0.6,1.2,1.1,2.3,1.7,3.5
			c0.4,0.9,0.1,1.3-0.8,1.2c-1.4-0.1-2.8-0.3-4.2-0.5c-0.8-0.1-1-0.6-0.6-1.3c0.1-0.2,0.3-0.4,0.5-0.7C64,1.7,60.3,2,56.9,4.5
			c-3.7,2.8-5.1,6.7-4,11.3c1.1,4.5,4.2,7.3,8.8,8.2c6.1,1.1,12.1-3.5,12.6-9.7c0.1-0.9,0-1.8,0-2.8c0-0.9,0.3-1.4,1-1.5
			c0.6-0.1,1.1,0.5,1.3,1.3c0,0.2,0.1,0.5,0.2,0.7c0,0.8,0,1.6,0,2.4c0,0.1-0.1,0.2-0.1,0.4c-0.9,7.4-7.7,12.6-15.1,11.4
			c-6.9-1.1-11.7-7.4-10.9-14.5c0.6-5.3,4.4-9.8,9.6-11.2c0.8-0.2,1.5-0.3,2.3-0.5C63,0.1,63.8,0.1,64.6,0.1z"/>
	</symbol>
	<symbol viewBox="0 0 76.8 112.9" id="walkby_avg">
		<path fill="none" stroke-miterlimit="10" stroke-width="2" d="M36.2,48.6c2.2,6.1,7.8,9.1,12.7,12.6c1,0.7,3.5,0.5,4.6-0.3c1.7-1.2,1.3-3.3,0.2-4.9c-0.5-0.8-1.2-1.5-2-2
			c-5.7-3.3-9.3-8.3-11.6-14.3c-0.5-1.3-1.3-2.5-1.9-3.8c-3-6-11.5-8.2-17.1-4.3c-4.6,3.2-9.2,6.5-13.7,9.9c-1.2,0.9-2.2,2.5-2.6,3.9
			c-1.4,4.9-2.4,9.8-3.6,14.7c-0.6,2.7,0.3,4.7,2.4,5.3c2.5,0.7,4.4-0.3,5.2-3.1c0.9-3,2-6,2.2-9.1c0.3-5.4,4.6-7.2,7.9-10
			c0,2-0.4,3.8-0.6,5.7c-0.7,6-3.2,12-0.9,18.2c0.3,1-0.1,2.3-0.3,3.4C14.9,80.9,11.4,90.7,5,99.4c-1,1.3-1.7,2.8-2.5,4.2
			c-1.7,3-1.3,5.4,1,7.1c2.6,1.8,5,1.5,7.2-1.4c1.9-2.5,3.6-5.1,5.2-7.8c2.9-4.8,5.9-9.7,8.4-14.8c1.7-3.2,2.6-6.8,4-10.8
			c1.9,3.3,3.5,6.2,5.3,8.8c2.1,2.9,3,6.1,3.4,9.5c0.5,4.2,1.2,8.5,1.8,12.7c0.5,3.2,2.6,4.9,5.5,4.7c2.9-0.2,4.4-2.2,4.3-5.6
			c0-0.7,0-1.3-0.1-2c-0.5-3.7-1.2-7.3-1.6-11c-0.7-6.1-2.2-11.9-6.1-16.9c-2.5-3.2-4.4-6.9-6.5-10.4c-0.6-1-1.1-2.3-1-3.4
			c0.6-4.8,1.4-9.6,2.2-15C36.1,48.2,36.4,48.5,36.2,48.6z"/>
		<path fill="none" stroke-miterlimit="10" stroke-width="2" d="M34.9,12.2c-4.3,0.1-7.9,3.8-8,8.2c-0.1,4.7,3.6,8.5,8.2,8.5c4.4,0,7.8-3.4,7.8-8C43,16.2,39.3,12.3,34.9,12.2z"/>
		<path fill="none" stroke-miterlimit="10" d="M66.5,19.7c-0.4-0.3-0.8-0.5-1.1-0.9c-1.6-1.5-3.2-2.9-4.8-4.4c-0.3-0.3-0.5-0.7-0.5-1.1c0-2,0-4,0.1-6.1
			c0-0.9,0.4-1.3,1.1-1.3c0.7,0,1.1,0.5,1.1,1.4c0,1.6-0.1,3.1,0,4.7c0,0.4,0.2,0.9,0.5,1.2c1.3,1.4,2.7,2.6,4,4
			c0.3,0.3,0.6,0.7,0.9,1.1c0,0.5,0,0.9,0,1.4C67.4,19.7,66.9,19.7,66.5,19.7z"/>
		<path fill="none" stroke-miterlimit="10" stroke-width="2" d="M64.6,0.1C66.1,0.5,67.5,1,69,1.4c0.2,0,0.5-0.2,0.7-0.4c0.7-0.9,1.2-0.8,1.7,0.1c0.6,1.2,1.1,2.3,1.7,3.5
			c0.4,0.9,0.1,1.3-0.8,1.2c-1.4-0.1-2.8-0.3-4.2-0.5c-0.8-0.1-1-0.6-0.6-1.3c0.1-0.2,0.3-0.4,0.5-0.7C64,1.7,60.3,2,56.9,4.5
			c-3.7,2.8-5.1,6.7-4,11.3c1.1,4.5,4.2,7.3,8.8,8.2c6.1,1.1,12.1-3.5,12.6-9.7c0.1-0.9,0-1.8,0-2.8c0-0.9,0.3-1.4,1-1.5
			c0.6-0.1,1.1,0.5,1.3,1.3c0,0.2,0.1,0.5,0.2,0.7c0,0.8,0,1.6,0,2.4c0,0.1-0.1,0.2-0.1,0.4c-0.9,7.4-7.7,12.6-15.1,11.4
			c-6.9-1.1-11.7-7.4-10.9-14.5c0.6-5.3,4.4-9.8,9.6-11.2c0.8-0.2,1.5-0.3,2.3-0.5C63,0.1,63.8,0.1,64.6,0.1z"/>
	</symbol>
	<symbol viewBox="0 0 50.8 59" id="likelihood">
		<g>
			<g>
				<path fill="none" stroke-miterlimit="10" d="M30.5,11.8h1.9c0.4,0,0.7,0.2,0.9,0.5c0.1,0.2,0.1,0.3,0.1,0.5c0,0.2,0,0.4-0.1,0.5l-3.7,5.9
					c-0.2,0.3-0.5,0.5-0.8,0.5s-0.7-0.2-0.8-0.5l-3.6-5.9c-0.2-0.3-0.2-0.7,0-1c0.2-0.3,0.5-0.5,0.9-0.5h2.2v-9h3.4
					C30.7,2.8,30.5,11.6,30.5,11.8z"/>
			</g>
			<g>
				<path fill="none" stroke-miterlimit="10" d="M46,24.3c-0.8-1.1-2.1-1.7-3.5-1.7h-7.1h-6.5h-5.4h-9l-0.9-3.4c-0.5-2-2.3-3.4-4.3-3.4H4.7
					c-0.8,0-1.4,0.6-1.4,1.4s0.6,1.4,1.4,1.4h4.7c0.7,0,1.3,0.5,1.5,1.2l5.6,22.4c0.5,2,2.3,3.4,4.3,3.4h18.4c2,0,3.8-1.4,4.3-3.4
					L46.8,28C47.2,26.8,46.9,25.4,46,24.3z"/>
				<path fill="none" stroke-miterlimit="10" d="M21.7,47.4c-2.6,0-4.8,2.2-4.8,4.8c0,2.6,2.2,4.8,4.8,4.8s4.8-2.2,4.8-4.8C26.5,49.6,24.3,47.4,21.7,47.4z
					M21.7,54.1c-1.1,0-1.9-0.8-1.9-1.9c0-1.1,0.8-1.9,1.9-1.9s1.9,0.8,1.9,1.9C23.6,53.2,22.7,54.1,21.7,54.1z"/>
				<path fill="none" stroke-miterlimit="10" d="M37.5,47.4c-2.6,0-4.8,2.2-4.8,4.8c0,2.6,2.2,4.8,4.8,4.8c2.6,0,4.8-2.2,4.8-4.8
					C42.3,49.6,40.2,47.4,37.5,47.4z M37.5,54.1c-1.1,0-1.9-0.8-1.9-1.9c0-1.1,0.8-1.9,1.9-1.9c1.1,0,1.9,0.8,1.9,1.9
					C39.4,53.2,38.5,54.1,37.5,54.1z"/>
			</g>
		</g>
    </symbol>
    <symbol viewBox="0 0 48.2 106.8" id="demographics-1-19">
        <g>
            <path fill="none" stroke-miterlimit="10" stroke-width="2" d="M15,70.8c0-3.6,0-10.5,0-14.1c0-0.7-0.2-1.4-0.3-2.1c-0.2,0-0.5,0-0.7,0c-0.1,0.6-0.2,1.3-0.2,1.9
	c0,6,0,12,0,18c0,2.5-1.1,3.7-3.4,3.9c-2.1,0.2-3.4-0.8-3.4-3c-0.2-8-0.2-16.2-0.1-24.5c0-3.1,1.6-4.5,4.7-4.5c8.6,0,17.2,0,25.8,0
	c3.3,0,4.8,1.4,4.8,4.7c0.1,8.1,0,16.2,0,24.2c0,2.1-1,3.1-2.9,3.2c-2.1,0.1-3.7-1.1-4-3.1c-0.1-0.5,0-1,0-1.5c0-5.7,0-11.5,0-17.2
	c0-0.7,0-1.4,0-2c-0.3,0-0.5,0-0.8-0.1c-0.2,0.7-0.4,1.3-0.4,2c0,3.6,0,10.6,0,14.1"/>
            <path fill="none" stroke-miterlimit="10" stroke-width="2" d="M34.1,70.7c0,8.6-0.1,16.7-0.1,25.2c0,2,0,4,0,5.9c-0.1,2.3-1.8,4-4.1,4.1c-2,0.2-4.1-1.4-4.4-3.5
	c-0.2-2-0.2-3.9-0.2-5.9c0-4.6,0-9.2-0.1-13.8c0-0.5-0.5-1.1-0.8-1.6c-0.3,0.6-0.9,1.1-0.9,1.7c-0.1,5.7-0.1,11.3-0.1,17
	c0,0.5,0,1.1,0,1.7c-0.2,2.6-2,4.5-4.3,4.4c-2.6-0.1-4.3-1.9-4.3-4.7c0-10.2,0-20.3,0-30.5"/>
            <path fill="none" stroke-miterlimit="10" stroke-width="2" d="M31.8,37.3c0,4.2-3.4,7.6-7.6,7.6s-7.5-3.4-7.5-7.6"/>
            <path fill="none" stroke-miterlimit="10" stroke-width="2" d="M24.3,38.3c-1,0.3-1.8,0.8-2.8,0.9c-1.2,0.2-2.4-0.6-3.6-1.1c-1.1-0.5-3.1-1.2-4.5-1.1c0.9-0.5,1.9-1.1,2.9-1.5
	l0,0h0.2c0.4,0.2,1.2,0,2-0.1c1.5-0.2,2.9-0.2,4.3-0.1c1.4,0.2,2.8,0.5,4.1,1.1c0.8,0.4,1.5,0.8,2.2,1.2
	C27.5,37.6,25.9,37.8,24.3,38.3z M30.8,37.9c-0.9,0-3.4-1.7-4.8-2.2c-1.5-0.5-3-0.8-4.5-0.8c-0.6,0-1.3,0-1.9,0
	c-0.8,0.1-2.1,0.5-2.9,0.2c0.7-4.1,1.8-7.6,6.3-8.2c1.9-0.2,3.8-0.2,5.7,0.5c2.4,0.9,3.3,2.9,3.6,5.3C32.4,34.2,32.8,37.9,30.8,37.9
	z"/>
        </g>
    </symbol>
    <symbol viewBox="0 0 48.2 101.9" id="demographics-20-29">
        <g>
            <path fill="none" stroke-miterlimit="10" stroke-width="2" d="M37.1,34c-0.2,0.9-0.5,1.7-0.5,2.6c0,17.1,0,34.2,0,51.2c0,2.6,0,5.2,0,7.7c-0.1,3-2.3,5.2-5.4,5.4
	c-2.6,0.2-5.3-1.8-5.7-4.6c-0.3-2.6-0.2-5.1-0.2-7.7c0-6,0-12-0.1-18c0-0.7-0.7-1.4-1-2.1C23.8,69.3,23,70,23,70.7
	c-0.1,7.4-0.1,14.8-0.1,22.2c0,0.7,0,1.5,0,2.2c-0.2,3.4-2.6,5.9-5.6,5.8c-3.4-0.1-5.6-2.5-5.6-6.2c0-19.3,0-38.7,0-58
	c0-0.9-0.2-1.8-0.4-2.8c-0.3,0-0.6,0-0.9,0c-0.1,0.8-0.2,1.7-0.2,2.5c0,7.8,0,15.7,0,23.5c0,3.3-1.4,4.9-4.5,5.1
	c-2.8,0.3-4.5-1.1-4.5-3.9C1,50.5,1,39.8,1.1,29c0-4,2.1-5.9,6.1-5.9c11.2,0,22.5,0,33.7,0c4.3,0,6.3,1.8,6.3,6.2
	c0.1,10.6,0,21.2,0,31.7c0,2.8-1.3,4.1-3.8,4.2c-2.7,0.1-4.9-1.5-5.2-4c-0.1-0.7,0-1.3,0-2c0-7.5,0-15,0-22.5c0-0.9,0-1.8,0-2.6
	C37.8,34.1,37.5,34.1,37.1,34z"/>
            <circle fill="none" stroke-miterlimit="10" stroke-width="2" cx="24.1" cy="11.1" r="10.1"/>
        </g>
    </symbol>
    <symbol viewBox="0 0 48.2 106.8" id="demographics-30-39">
        <g>
            <circle fill="none" stroke-miterlimit="10" stroke-width="2" cx="24.1" cy="16.3" r="10.1"/>
            <path fill="none" stroke-miterlimit="10" stroke-width="2" d="M47.2,34.5c0-4.4-2-6.2-6.3-6.2c-4.8,0-9.7,0-14.6,0L25,31h-1.7L22,28.3c-4.9,0-9.9,0-14.8,0
	c-4,0-6.1,1.9-6.1,5.9C1,45,1,55.7,1.2,66.3c0,2.8,1.7,4.2,4.5,3.9c3.1-0.2,4.5-1.8,4.5-5.1c0-7.8,0-15.7,0-23.5
	c0-0.8,0.1-1.7,0.2-2.5c0.3,0,0.6,0,0.9,0c0.2,1,0.4,1.9,0.4,2.8c0,19.3,0,38.7,0,58c0,3.7,2.2,6.1,5.6,6.2c3,0.1,5.4-2.4,5.6-5.8
	c0-0.7,0-1.5,0-2.2c0-7.4,0-14.8,0.1-22.2c0-0.7,0.8-1.4,1.2-2.2c0.3,0.7,1,1.4,1,2.1c0.1,6,0.1,12,0.1,18c0,2.6-0.1,5.1,0.2,7.7
	c0.4,2.8,3.1,4.8,5.7,4.6c3.1-0.2,5.3-2.4,5.4-5.4c0-2.5,0-5.1,0-7.7c0-17,0-34.1,0-51.2c0-0.9,0.3-1.7,0.5-2.6
	c0.4,0.1,0.7,0.1,1.1,0.1c0,0.8,0,1.7,0,2.6c0,7.5,0,15,0,22.5c0,0.7-0.1,1.3,0,2c0.3,2.5,2.5,4.1,5.2,4c2.5-0.1,3.8-1.4,3.8-4.2
	C47.2,55.7,47.3,45.1,47.2,34.5z M24.1,56.8l-3.8-4.4l2.8-20.5H25l2.8,20.5L24.1,56.8z"/>
        </g>
    </symbol>
    <symbol viewBox="0 0 48.2 106.8" id="demographics-40-49">
        <g>
            <path fill="none" stroke-miterlimit="10" stroke-width="2" d="M37.1,38.9c-0.2,0.9-0.5,1.7-0.5,2.6c0,17.1,0,34.2,0,51.2c0,2.6,0,5.2,0,7.7c-0.1,3-2.3,5.2-5.4,5.4
	c-2.6,0.2-5.3-1.8-5.7-4.6c-0.3-2.6-0.2-5.1-0.2-7.7c0-6,0-12-0.1-18c0-0.7-0.7-1.4-1-2.1c-0.4,0.8-1.2,1.5-1.2,2.2
	c-0.1,7.4-0.1,14.8-0.1,22.2c0,0.7,0,1.5,0,2.2c-0.2,3.4-2.6,5.9-5.6,5.8c-3.4-0.1-5.6-2.5-5.6-6.2c0-19.3,0-38.7,0-58
	c0-0.9-0.2-1.8-0.4-2.8c-0.3,0-0.6,0-0.9,0c-0.1,0.8-0.2,1.7-0.2,2.5c0,7.8,0,15.7,0,23.5c0,3.3-1.4,4.9-4.5,5.1
	c-2.8,0.3-4.5-1.1-4.5-3.9C1,55.4,1,44.7,1.1,33.9c0-4,2.1-5.9,6.1-5.9c11.2,0,22.5,0,33.7,0c4.3,0,6.3,1.8,6.3,6.2
	c0.1,10.6,0,21.2,0,31.7c0,2.8-1.3,4.1-3.8,4.2c-2.7,0.1-4.9-1.5-5.2-4c-0.1-0.7,0-1.3,0-2c0-7.5,0-15,0-22.5c0-0.9,0-1.8,0-2.6
	C37.8,39,37.5,39,37.1,38.9z"/>
            <path fill="none" stroke-miterlimit="10" stroke-width="2" d="M24.2,8.9c5.6,0,10,1.5,10,7.1s-4.5,10.1-10.1,10.1S14,21.6,14,16S18.6,8.9,24.2,8.9z"/>
            <path fill="none" stroke-miterlimit="10" stroke-width="2" d="M9.2,12.8c0-0.1,0-0.2,0-0.3c0.4-0.2,0.7-0.5,1.1-0.6c1.5-0.4,3-0.8,4.5-1.2c0,0,0-0.1,0-0.2
	c0.4-3.9,2.2-7.1,5.4-9.3C20.6,1,21.1,1,21.4,1.1c1.8,0.7,3.7,0.7,5.5,0C27.1,1,27.6,1,27.8,1.2c2.3,1.5,4,3.6,4.8,6.2
	c0.4,1.1,0.6,2.3,0.8,3.3c1.6,0.5,3.3,0.9,4.9,1.4c0.3,0.1,0.5,0.4,0.7,0.6c-0.2,0.2-0.5,0.6-0.8,0.7c-0.8,0.2-1.6,0.3-2.3,0.3
	c-5.5,0.1-11,0.2-16.5,0.1c-2.7,0-5.4-0.1-8.1-0.3C10.6,13.5,9.9,13.1,9.2,12.8z M15.7,10.7c5.7-0.7,11.2-0.7,16.8,0
	c-0.1-0.5-0.1-0.9-0.2-1.3c0-0.5-0.3-0.7-0.8-0.7c-1.9-0.1-3.9-0.4-5.8-0.3c-3.1,0-6.1,0.2-9.2,0.4c-0.2,0-0.4,0.2-0.5,0.3
	C15.9,9.6,15.8,10.1,15.7,10.7z"/>
        </g>
    </symbol>
    <symbol viewBox="0 0 51.4 101.9" id="demographics-55">
        <g>
            <path fill="none" stroke-miterlimit="10" stroke-width="2" d="M37.1,34c-0.2,0.9-0.5,1.7-0.5,2.6c0,17.1,0,34.2,0,51.2c0,2.6,0,5.2,0,7.7c-0.1,3-2.3,5.2-5.4,5.4
	c-2.6,0.2-5.3-1.8-5.7-4.6c-0.3-2.6-0.2-5.1-0.2-7.7c0-6,0-12-0.1-18c0-0.7-0.7-1.4-1-2.1C23.8,69.3,23,70,23,70.7
	c-0.1,7.4-0.1,14.8-0.1,22.2c0,0.7,0,1.5,0,2.2c-0.2,3.4-2.6,5.9-5.6,5.8c-3.4-0.1-5.6-2.5-5.6-6.2c0-19.3,0-38.7,0-58
	c0-0.9-0.2-1.8-0.4-2.8c-0.3,0-0.6,0-0.9,0c-0.1,0.8-0.2,1.7-0.2,2.5c0,7.8,0,15.7,0,23.5c0,3.3-1.4,4.9-4.5,5.1
	c-2.8,0.3-4.5-1.1-4.5-3.9C1,50.5,1,39.8,1.1,29c0-4,2.1-5.9,6.1-5.9c11.2,0,22.5,0,33.7,0c4.3,0,6.3,1.8,6.3,6.2
	c0.1,10.6,0,21.2,0,31.7c0,2.8-1.3,4.1-3.8,4.2c-2.7,0.1-4.9-1.5-5.2-4c-0.1-0.7,0-1.3,0-2c0-7.5,0-15,0-22.5c0-0.9,0-1.8,0-2.6
	C37.8,34.1,37.5,34.1,37.1,34z"/>
            <circle fill="none" stroke-miterlimit="10" stroke-width="2" cx="24.1" cy="11.1" r="10.1"/>
            <path fill="none" stroke-miterlimit="10" stroke-width="2" d="M50.4,99.9c-0.8,1.4-3.2,1.4-3.2-0.7c0-9.6,0-18.1,0-27.6c0-0.6,0-1.2,0-1.8c-0.2-1.7-0.7-2.2-1.5-1.6
	c-1.3,0.9-1.3,0.7-2.3,1.5c0,0.2-0.7,0.6-0.9,0.5c-1.2-0.3-0.9-1.7-0.9-2c0-1.5,1.3-2.9,2.7-3.3c3.5-1.1,4.7-0.6,6.2,3.1
	C50.2,78.6,50.4,89,50.4,99.9z"/>
        </g>
    </symbol>
    <symbol viewBox="0 0 56.3 102.9" id="demographics-female">
        <g>
            <circle fill="none" stroke-miterlimit="10" stroke-width="2" cx="28.2" cy="11.1" r="10.1"/>
            <path fill="none" stroke-miterlimit="10" stroke-width="2" d="M1,54c3.2-8.3,6.4-16.5,9.5-24.8c1.6-4.2,3.1-5.4,7.5-5.3c7.3,0.2,14.7,0,22,0.1c3.1,0,4.8,1.1,5.9,4
	c3.1,8.1,6.2,16.1,9.1,24.2c0.5,1.5,0.4,3.7-0.3,5.2c-0.6,1.2-2.5,2.2-3.9,2.4c-1.8,0.2-3.2-1-3.9-2.9c-2.3-6.1-4.7-12.3-7-18.4
	c-0.3-0.7-0.6-1.3-0.8-1.9c-0.2,0-0.4,0.1-0.6,0.1c0.3,1.4,0.3,2.9,0.8,4.2c3.4,9.1,6.8,18.2,10.3,27.2c0.3,0.7,0.5,1.4,0.9,2.3
	c-3.9,0-7.6,0-11.6,0c-0.1,1.2-0.2,2.1-0.2,3.1c0,7.8,0,15.7,0,23.5c0,4.2-0.5,4.9-3.5,4.9c-3.6,0-5.1-1.4-5.1-5.1c-0.1-8,0-16,0-24
	c0-0.7-0.1-1.3-0.1-2c-1.9-0.2-1.9-0.2-1.9,1.6c0,7.5,0,15,0,22.5c0,0.7,0,1.5,0,2.2c0,3.4-1.2,4.7-4,4.7c-4.3,0-5.6-0.9-5.7-4.7
	c-0.1-7.7,0-15.3,0-23c0-1.1,0-2.3,0-3.6c-4,0-7.8,0-11.9,0c1.3-3.5,2.5-6.8,3.7-10c2.5-6.5,5-13,7.4-19.6c0.5-1.4,0.6-2.8,0.9-4.3
	c-0.2-0.1-0.4-0.2-0.6-0.2c-0.3,0.6-0.6,1.2-0.8,1.8c-2.2,5.7-4.4,11.3-6.5,17c-0.8,2.3-1.9,4-4.6,4.2C3.2,59.9,2.1,58,1,56
	C1,55.3,1,54.7,1,54z"/>
        </g>
    </symbol>
    <symbol viewBox="0 0 48.2 101.9" id="demographics-male">
        <g>
            <path fill="none" stroke-miterlimit="10" stroke-width="2" d="M37.1,34c-0.2,0.9-0.5,1.7-0.5,2.6c0,17.1,0,34.2,0,51.2c0,2.6,0,5.2,0,7.7c-0.1,3-2.3,5.2-5.4,5.4
	c-2.6,0.2-5.3-1.8-5.7-4.6c-0.3-2.6-0.2-5.1-0.2-7.7c0-6,0-12-0.1-18c0-0.7-0.7-1.4-1-2.1C23.8,69.3,23,70,23,70.7
	c-0.1,7.4-0.1,14.8-0.1,22.2c0,0.7,0,1.5,0,2.2c-0.2,3.4-2.6,5.9-5.6,5.8c-3.4-0.1-5.6-2.5-5.6-6.2c0-19.3,0-38.7,0-58
	c0-0.9-0.2-1.8-0.4-2.8c-0.3,0-0.6,0-0.9,0c-0.1,0.8-0.2,1.7-0.2,2.5c0,7.8,0,15.7,0,23.5c0,3.3-1.4,4.9-4.5,5.1
	c-2.8,0.3-4.5-1.1-4.5-3.9C1,50.5,1,39.8,1.1,29c0-4,2.1-5.9,6.1-5.9c11.2,0,22.5,0,33.7,0c4.3,0,6.3,1.8,6.3,6.2
	c0.1,10.6,0,21.2,0,31.7c0,2.8-1.3,4.1-3.8,4.2c-2.7,0.1-4.9-1.5-5.2-4c-0.1-0.7,0-1.3,0-2c0-7.5,0-15,0-22.5c0-0.9,0-1.8,0-2.6
	C37.8,34.1,37.5,34.1,37.1,34z"/>
            <circle fill="none" stroke-miterlimit="10" stroke-width="2" cx="24.1" cy="11.1" r="10.1"/>
        </g>
    </symbol>
    <symbol viewBox="0 0 78 109.5" id="queue-time">
        <g>
            <path fill="none" stroke-miterlimit="10" stroke-width="2" d="M42.2,102.3h-0.6V66.5c1.8-1.5,2.9-3.7,2.9-6.1V37.2c0-4.4-3.5-7.9-7.9-7.9h-1c-4.4,0-7.9,3.5-7.9,7.9v23.2
				c0,2.5,1.1,4.7,2.9,6.1c0,12.9,0,39.9,0,40c0,1.1,0.9,2,2,2c0.1,0,9.7,0,9.7,0c1.7,0,3.1-1.4,3.1-3.1
				C45.3,103.7,43.9,102.3,42.2,102.3z"/>
            <path fill="none" stroke-miterlimit="10" stroke-width="2" d="M36.1,25.8c4.6,0,8.2-3.7,8.2-8.3c0-4.5-3.7-8.2-8.3-8.2c-4.5,0-8.2,3.7-8.2,8.3
				C27.8,22.2,31.6,25.8,36.1,25.8z"/>
            <path fill="none" stroke-miterlimit="10" stroke-width="2" d="M14.5,102.3H15V66.5c1.8-1.5,2.9-3.7,2.9-6.1V37.2c0-4.4-3.5-7.9-7.9-7.9h-1c-4.4,0-7.9,3.5-7.9,7.9v23.2
				c0,2.5,1.1,4.7,2.9,6.1c0,12.9,0,39.9,0,40c0,1.1,0.9,2,2,2c0.1,0,8.7,0,8.7,0c1.7,0,3.1-1.4,3.1-3.1
				C17.6,103.7,16.2,102.3,14.5,102.3z"/>
            <path fill="none" stroke-miterlimit="10" stroke-width="2" d="M9.5,25.8c4.6,0,8.2-3.7,8.2-8.3c0-4.5-3.7-8.2-8.3-8.2c-4.5,0-8.2,3.7-8.2,8.3C1.2,22.2,4.9,25.8,9.5,25.8z
				"/>
            <path d="M67.9,19.6c-0.4-0.3-0.8-0.5-1.1-0.9c-1.6-1.5-3.2-2.9-4.8-4.4c-0.3-0.3-0.5-0.7-0.5-1.1c0-2,0-4,0.1-6.1
	c0-0.9,0.4-1.3,1.1-1.3c0.7,0,1.1,0.5,1.1,1.4c0,1.6-0.1,3.1,0,4.7c0,0.4,0.2,0.9,0.5,1.2c1.3,1.4,2.7,2.6,4,4
	c0.3,0.3,0.6,0.7,0.9,1.1c0,0.5,0,0.9,0,1.4C68.8,19.6,68.3,19.6,67.9,19.6z"/>
            <path d="M66,0c1.5,0.4,2.9,0.9,4.4,1.3c0.2,0,0.5-0.2,0.7-0.4C71.8,0,72.3,0.1,72.8,1c0.6,1.2,1.1,2.3,1.7,3.5
	c0.4,0.9,0.1,1.3-0.8,1.2c-1.4-0.1-2.8-0.3-4.2-0.5c-0.8-0.1-1-0.6-0.6-1.3c0.1-0.2,0.3-0.4,0.5-0.7c-4-1.6-7.7-1.3-11.1,1.2
	c-3.7,2.8-5.1,6.7-4,11.3c1.1,4.5,4.2,7.3,8.8,8.2c6.1,1.1,12.1-3.5,12.6-9.7c0.1-0.9,0-1.8,0-2.8c0-0.9,0.3-1.4,1-1.5
	c0.6-0.1,1.1,0.5,1.3,1.3c0,0.2,0.1,0.5,0.2,0.7c0,0.8,0,1.6,0,2.4c0,0.1-0.1,0.2-0.1,0.4c-0.9,7.4-7.7,12.6-15.1,11.4
	c-6.9-1.1-11.7-7.4-10.9-14.5c0.6-5.3,4.4-9.8,9.6-11.2c0.8-0.2,1.5-0.3,2.3-0.5C64.4,0,65.2,0,66,0z"/>
        </g>
    </symbol>
    <symbol viewBox="0 0 78 109.5" id="queue-density">
        <g>
            <path fill="none" stroke-miterlimit="10" stroke-width="2" d="M45.2,102.3h-0.6V66.5c1.8-1.5,2.9-3.7,2.9-6.1V37.2c0-4.4-3.5-7.9-7.9-7.9h-1c-4.4,0-7.9,3.5-7.9,7.9v23.2
				c0,2.5,1.1,4.7,2.9,6.1c0,12.9,0,39.9,0,40c0,1.1,0.9,2,2,2c0.1,0,9.7,0,9.7,0c1.7,0,3.1-1.4,3.1-3.1
				C48.3,103.7,46.9,102.3,45.2,102.3z"/>
            <path fill="none" stroke-miterlimit="10" stroke-width="2" d="M39.1,25.8c4.6,0,8.2-3.7,8.2-8.3c0-4.5-3.7-8.2-8.3-8.2c-4.5,0-8.2,3.7-8.2,8.3
				C30.8,22.2,34.6,25.8,39.1,25.8z"/>
            <path fill="none" stroke-miterlimit="10" stroke-width="2" d="M72.2,102.3h-0.6V66.5c1.8-1.5,2.9-3.7,2.9-6.1V37.2c0-4.4-3.5-7.9-7.9-7.9h-1c-4.4,0-7.9,3.5-7.9,7.9v23.2
				c0,2.5,1.1,4.7,2.9,6.1c0,12.9,0,39.9,0,40c0,1.1,0.9,2,2,2c0.1,0,9.7,0,9.7,0c1.7,0,3.1-1.4,3.1-3.1
				C75.3,103.7,73.9,102.3,72.2,102.3z"/>
            <path fill="none" stroke-miterlimit="10" stroke-width="2" d="M66.1,25.8c4.6,0,8.2-3.7,8.2-8.3c0-4.5-3.7-8.2-8.3-8.2c-4.5,0-8.2,3.7-8.2,8.3
				C57.9,22.2,61.6,25.8,66.1,25.8z"/>
            <path fill="none" stroke-miterlimit="10" stroke-width="2" d="M17.5,102.3H18V66.5c1.8-1.5,2.9-3.7,2.9-6.1V37.2c0-4.4-3.5-7.9-7.9-7.9h-1c-4.4,0-7.9,3.5-7.9,7.9v23.2
				c0,2.5,1.1,4.7,2.9,6.1c0,12.9,0,39.9,0,40c0,1.1,0.9,2,2,2c0.1,0,8.7,0,8.7,0c1.7,0,3.1-1.4,3.1-3.1
				C20.6,103.7,19.2,102.3,17.5,102.3z"/>
            <path fill="none" stroke-miterlimit="10" stroke-width="2" d="M12.5,25.8c4.6,0,8.2-3.7,8.2-8.3c0-4.5-3.7-8.2-8.3-8.2c-4.5,0-8.2,3.7-8.2,8.3
				C4.2,22.2,7.9,25.8,12.5,25.8z"/>
        </g>
    </symbol>
    <symbol viewBox="0 0 80.1 102" id="queue-drop-offs">
        <g>
            <path fill="none" stroke-miterlimit="10" stroke-width="2" d="M75.8,94h0.5V58.1c1.8-1.5,2.9-3.7,2.9-6.1V28.9c0-4.4-3.5-7.9-7.9-7.9h-1c-4.4,0-7.9,3.5-7.9,7.9V52
				c0,2.5,1.1,4.7,2.9,6.1c0,12.9,0,39.9,0,40c0,1.1,0.9,2,2,2c0.1,0,8.7,0,8.7,0c1.7,0,3.1-1.4,3.1-3.1C78.8,95.3,77.5,94,75.8,94z
				"/>
            <path fill="none" stroke-miterlimit="10" stroke-width="2" d="M70.7,17.5c4.6,0,8.2-3.7,8.2-8.3c0-4.5-3.7-8.2-8.3-8.2c-4.5,0-8.2,3.7-8.2,8.3
				C62.5,13.8,66.2,17.5,70.7,17.5z"/>
            <path fill="none" stroke-miterlimit="10" stroke-width="2" d="M20.5,36.4c0.8,5.4,1.6,10.2,2.2,15c0.1,1.1-0.4,2.4-1,3.4c-2.1,3.5-4,7.2-6.5,10.4c-3.9,5-5.4,10.8-6.1,16.9
	c-0.4,3.7-1.1,7.3-1.6,11c-0.1,0.7-0.1,1.3-0.1,2c-0.1,3.4,1.4,5.4,4.3,5.6c2.9,0.2,5-1.5,5.5-4.7c0.6-4.2,1.3-8.5,1.8-12.7
	c0.4-3.4,1.3-6.6,3.4-9.5c1.8-2.6,3.4-5.5,5.3-8.8c1.4,4,2.3,7.6,4,10.8c2.5,5.1,5.5,10,8.4,14.8c1.6,2.7,3.3,5.3,5.2,7.8
	c2.2,2.9,4.6,3.2,7.2,1.4c2.3-1.7,2.7-4.1,1-7.1c-0.8-1.4-1.5-2.9-2.5-4.2c-6.4-8.7-9.9-18.5-12.1-28.9c-0.2-1.1-0.6-2.4-0.3-3.4
	c2.3-6.2-0.2-12.2-0.9-18.2c-0.2-1.9-0.6-3.7-0.6-5.7c3.3,2.8,7.6,4.6,7.9,10c0.2,3.1,1.3,6.1,2.2,9.1c0.8,2.8,2.7,3.8,5.2,3.1
	c2.1-0.6,3-2.6,2.4-5.3c-1.2-4.9-2.2-9.8-3.6-14.7c-0.4-1.4-1.4-3-2.6-3.9c-4.5-3.4-9.1-6.7-13.7-9.9c-5.6-3.9-14.1-1.7-17.1,4.3
	c-0.6,1.3-1.4,2.5-1.9,3.8c-2.3,6-5.9,11-11.6,14.3c-0.8,0.5-1.5,1.2-2,2c-1.1,1.6-1.5,3.7,0.2,4.9c1.1,0.8,3.6,1,4.6,0.3
	c4.9-3.5,10.5-6.5,12.7-12.6C19.6,37.6,19.9,37.3,20.5,36.4z"/>
            <path fill="none" stroke-miterlimit="10" stroke-width="2" d="M13.1,10c0,4.6,3.4,8,7.8,8c4.6,0,8.3-3.8,8.2-8.5c-0.1-4.4-3.7-8.1-8-8.2C16.7,1.4,13,5.3,13.1,10z"/>
        </g>
    </symbol>
    <symbol viewBox="0 0 80.1 102" id="queue-transaction-time">
        <g>
            <path d="M67.9,19.6c-0.4-0.3-0.8-0.5-1.1-0.9c-1.6-1.5-3.2-2.9-4.8-4.4c-0.3-0.3-0.5-0.7-0.5-1.1c0-2,0-4,0.1-6.1
	c0-0.9,0.4-1.3,1.1-1.3c0.7,0,1.1,0.5,1.1,1.4c0,1.6-0.1,3.1,0,4.7c0,0.4,0.2,0.9,0.5,1.2c1.3,1.4,2.7,2.6,4,4
	c0.3,0.3,0.6,0.7,0.9,1.1c0,0.5,0,0.9,0,1.4C68.8,19.6,68.3,19.6,67.9,19.6z"/>
            <path d="M66,0c1.5,0.4,2.9,0.9,4.4,1.3c0.2,0,0.5-0.2,0.7-0.4C71.8,0,72.3,0.1,72.8,1c0.6,1.2,1.1,2.3,1.7,3.5
	c0.4,0.9,0.1,1.3-0.8,1.2c-1.4-0.1-2.8-0.3-4.2-0.5c-0.8-0.1-1-0.6-0.6-1.3c0.1-0.2,0.3-0.4,0.5-0.7c-4-1.6-7.7-1.3-11.1,1.2
	c-3.7,2.8-5.1,6.7-4,11.3c1.1,4.5,4.2,7.3,8.8,8.2c6.1,1.1,12.1-3.5,12.6-9.7c0.1-0.9,0-1.8,0-2.8c0-0.9,0.3-1.4,1-1.5
	c0.6-0.1,1.1,0.5,1.3,1.3c0,0.2,0.1,0.5,0.2,0.7c0,0.8,0,1.6,0,2.4c0,0.1-0.1,0.2-0.1,0.4c-0.9,7.4-7.7,12.6-15.1,11.4
	c-6.9-1.1-11.7-7.4-10.9-14.5c0.6-5.3,4.4-9.8,9.6-11.2c0.8-0.2,1.5-0.3,2.3-0.5C64.4,0,65.2,0,66,0z"/>
            <path fill="none" stroke-miterlimit="10" stroke-width="2" d="M35.5,53.9c0-1.9,0-3.7,0-5.6c0-3.8,0-7.6,0-11.4c0-1.4,0-2.9,0-4.3"/>
            <path fill="none" stroke-miterlimit="10" stroke-width="2" d="M24,32.4c0,0.6,0,1.3,0,1.9c0,3.7,0,7.4,0,11.1c0,2.2,0,4.5,0,6.7"/>
            <path fill="none" stroke-miterlimit="10" stroke-width="2" d="M35.5,84.3c0-0.1,0-0.3,0-0.4c0-3.7,0-7.4,0-11.1c0-2.3,0-4.7,0-7"/>
            <path fill="none" stroke-miterlimit="10" stroke-width="2" d="M24,63.9c0,2,0,4,0,6c0,3.8,0,7.6,0,11.4c0,1,0,2,0,3.1"/>
            <path fill="none" stroke-miterlimit="10" stroke-width="2" d="M24,96c0,0.6,0,1.3,0,1.9c0,1.1,0,2.2,0,3.3c0,0,0,0.1,0,0.1c0,1.5,0.6,3,1.7,4.1c1,1,2.6,1.7,4.1,1.7
	c1.5-0.1,3-0.6,4.1-1.7c1-1.1,1.7-2.5,1.7-4.1c0-0.7,0-1.5,0-2.3c0-1.1,0-2.2,0-3.2"/>
            <path fill="none" stroke-miterlimit="10" stroke-width="2" d="M35.5,20.9c0-0.2,0-0.4,0-0.6c0-1.1,0-2.2,0-3.3c0,0,0-0.1,0-0.1c0-1.5-0.6-3-1.7-4.1c-1-1-2.6-1.7-4.1-1.7
	c-1.5,0.1-3,0.6-4.1,1.7c-1,1.1-1.7,2.5-1.7,4.1c0,0.7,0,1.5,0,2.3c0,0.6,0,1.1,0,1.7"/>
            <path fill="none" stroke-miterlimit="10" stroke-width="2" d="M35.5,65.8c0.6,0.2,1.2,0.3,1.8,0.5c0.7,0.2,1.3,0.4,1.9,0.7c1.3,0.6,2.6,1.3,3.8,2.2c0.5,0.5,1.1,1,1.5,1.5
	c0.3,0.4,0.5,0.8,0.8,1.3c0.2,0.5,0.3,1,0.4,1.4c0.1,0.9,0.1,1.8,0.1,2.8c-0.1,0.8-0.4,1.6-0.6,2.3c-0.3,0.6-0.6,1.2-1,1.7
	c-0.4,0.5-0.9,1-1.4,1.4c-0.8,0.6-1.7,1.1-2.6,1.5c-1.5,0.6-3,1-4.6,1.2 M35.5,95.9c1.4-0.2,2.8-0.4,4.1-0.7c2-0.4,3.9-1.1,5.7-1.9
	c1.2-0.5,2.3-1.1,3.4-1.9c1.3-0.9,2.5-1.9,3.5-3.1c1.9-2.2,3.2-4.5,4.1-7.2c0.2-0.7,0.4-1.5,0.5-2.2c0.2-1.1,0.3-2.3,0.4-3.4
	c0-0.8,0-1.6-0.1-2.4c-0.1-2-0.5-3.8-1.3-5.6c-0.3-0.8-0.6-1.5-1.1-2.2c-0.5-0.9-1.2-1.7-1.9-2.5c-1-1.3-2.3-2.2-3.6-3.2
	c-1-0.7-2-1.3-3.1-1.9c-3.4-1.7-7-3-10.7-3.7 M45.7,73.4c0,0.1,0,0.1,0,0.2c0.1,0.4,0.1,0.9,0.2,1.3C45.8,74.4,45.8,73.9,45.7,73.4z
	"/>
            <path fill="none" stroke-miterlimit="10" stroke-width="2" d="M35.5,32.6c0.8,0.2,1.6,0.4,2.4,0.7c1.1,0.5,2.1,1.1,3,1.8c0.8,0.7,1.5,1.4,2.2,2.2c0.7,1,1.3,2.1,1.9,3.2
	c0.3,0.8,0.5,1.6,0.7,2.4c0,0.7,0.2,1.3,0.5,1.8c0.2,0.7,0.6,1.3,1.2,1.9c1,1,2.6,1.7,4.1,1.7c1.5-0.1,3-0.6,4.1-1.7
	c1-1,1.9-2.6,1.7-4.1c-0.2-2-0.6-3.8-1.4-5.6c-0.7-1.8-1.5-3.6-2.6-5.2c-1.3-1.8-2.7-3.6-4.5-5c-1.1-0.9-2.3-1.8-3.6-2.5
	c-1.4-0.8-2.8-1.4-4.3-1.9c-1.7-0.6-3.5-1.1-5.3-1.3"/>
            <path fill="none" stroke-miterlimit="10" stroke-width="2" d="M24,52.1c-1.2-0.3-2.4-0.7-3.6-1.1c-1.3-0.6-2.5-1.3-3.6-2.1c-0.7-0.6-1.3-1.2-1.9-1.9c-0.4-0.6-0.8-1.3-1.2-2
	c-0.2-0.6-0.4-1.2-0.5-1.9c0-0.8,0-1.5,0.1-2.3c0.1-0.8,0.4-1.6,0.6-2.4c0.3-0.6,0.6-1.2,1-1.7c0.5-0.5,0.9-1,1.5-1.5
	c0.9-0.6,1.9-1.2,2.9-1.7c1.5-0.6,3.1-1,4.7-1.3"/>
            <path fill="none" stroke-miterlimit="10" stroke-width="2" d="M24,20.8c-1.4,0.2-2.8,0.4-4.1,0.7c-2.2,0.5-4.2,1.3-6.3,2.2c-2.1,0.9-4,2.3-5.7,3.8c-1,0.9-1.9,2-2.7,3.2
	c-0.6,0.8-1.1,1.6-1.5,2.5c-0.6,1.4-1.2,2.8-1.5,4.3c-0.3,1.7-0.5,3.3-0.5,5c0,0.3,0,0.6,0,0.9c0.2,3,1.1,5.8,2.6,8.5
	c2.2,3.8,5.8,6.9,9.7,8.8c2.8,1.3,5.7,2.4,8.7,3c0.4,0.1,0.9,0.2,1.3,0.2"/>
            <path fill="none" stroke-miterlimit="10" stroke-width="2" d="M24,84.4c-1.3-0.3-2.6-0.6-3.8-1.1c-1-0.5-2-1-2.9-1.7c-0.7-0.6-1.3-1.2-1.8-1.8c-0.6-0.8-1-1.6-1.5-2.5
	c-0.5-1.4-0.9-2.8-1.1-4.3c-0.2-0.7-0.5-1.4-1-2c-0.4-0.6-0.9-1.1-1.6-1.5c-1.2-0.7-3.1-1-4.4-0.6c-1.4,0.5-2.7,1.3-3.4,2.7
	C2.2,72.1,2,72.5,1.8,73c-0.3,1-0.3,2,0,3.1C2.9,83.3,7.4,89.8,14,93c3.1,1.6,6.5,2.5,10,3"/>
        </g>
    </symbol>
    <symbol viewBox="0 0 98.5 100.9" id="queue-active-cashier">
        <g>
            <path fill="none" stroke-miterlimit="10" stroke-width="2" d="M80,57.5c1.8-1.5,2.9-3,2.9-5.5V28.9c0-4.4-3.5-7.9-7.9-7.9h-1c-4.4,0-7.9,3.5-7.9,7.9V52
				c0,2.5,1.1,4,2.9,5.5C68.9,57.5,80.1,57.7,80,57.5z"/>
            <path fill="none" stroke-miterlimit="10" stroke-width="2" d="M74.5,17.5c4.6,0,8.2-3.7,8.2-8.3c0-4.5-3.7-8.2-8.3-8.2c-4.5,0-8.2,3.7-8.2,8.3
				C66.2,13.8,69.9,17.5,74.5,17.5z"/>
            <polygon fill="none" points="1,57.6 97.5,57.6 97.5,66.6 91.9,66.6 91.9,99.9 6.6,99.9 6.6,66.6 1,66.6 "/>
            <rect x="7.3" y="31.5" fill="none" width="47.9" height="26.2"/>
            <rect x="8.1" y="14.2" fill="none" width="21.2" height="11.8"/>
            <polygon fill="none" points="21.2,26.2 21.2,31.5 15.9,31.5 15.9,26.2 "/>
            <polygon fill="none" stroke-miterlimit="10" stroke-width="2" points="97.5,57.6 1,57.6 1,66.6 6.6,66.6 6.6,99.9 91.9,99.9 91.9,66.6 97.5,66.6 "/>
            <polygon fill="none" stroke-miterlimit="10" stroke-width="2" points="55.2,57.6 55.2,31.5 21.2,31.5 15.9,31.5 7.3,31.5 7.3,57.6 "/>
            <polygon fill="none" stroke-miterlimit="10" stroke-width="2" points="21.2,31.5 21.2,26.2 15.9,26.2 15.9,31.5 "/>
            <polygon fill="none" stroke-miterlimit="10" stroke-width="2" points="15.9,26.2 21.2,26.2 29,26.2 29,14.2 8.1,14.2 8.1,26.2 "/>
        </g>
    </symbol>
    <symbol viewBox="0 0 56 41.1" id="vehicle-detected">
        <path fill="none" stroke-miterlimit="10" d="M54.7,12.2h-5.3l-3.5-7.9c-2.1-2.9-3.6-3.8-6.1-3.8H16.3c-2.5,0-4,0.9-6.1,3.8l-3.5,7.9H1.3
	c-0.8,0-2.4,4.3,3.2,4.5l-1.9,4.5C2.7,27,2.7,32.7,2.7,38.4c0,1.2,1,2.2,2.2,2.2h7.3c1.2,0,2.1-1,2.1-2.2v-4.7h27.5v4.7
	c0,1.2,1,2.2,2.2,2.2h7.3c1.2,0,2.1-1,2.1-2.2c0-5.7,0.1-11.4,0.1-17.2l-1.9-4.5C57.1,16.5,55.5,12.2,54.7,12.2z M10.6,28.6
	c-2,0-3.5-1.6-3.5-3.5c0-2,1.5-3.5,3.5-3.5c1.9,0,3.5,1.5,3.5,3.5C14.1,27,12.5,28.6,10.6,28.6z M35.4,28H20.6
	c-0.8,0-1.6-0.8-1.6-1.6c0-0.9,0.8-1.7,1.6-1.7h14.8c0.9,0,1.6,0.8,1.6,1.7C37,27.2,36.3,28,35.4,28z M9.6,14.7
	c1.1-2.4,2.2-5,3.6-7.7c0.8-1.3,1.6-2.5,3.1-2.6h23.5c1.5,0.1,2.4,1.3,3.1,2.6c1.4,2.8,2.4,5.3,3.6,7.7H9.6z M45.4,28.6
	c-1.9,0-3.5-1.6-3.5-3.5c0-2,1.6-3.5,3.5-3.5c2,0,3.5,1.5,3.5,3.5C48.9,27,47.4,28.6,45.4,28.6z"/>
    </symbol>
	<svg id="people-others" fill="none" stroke="#DFE112" stroke-width="2" stroke-miterlimit="10" version="1.1" xmlns="http://www.w3.org/2000/svg" xmlns:xlink="http://www.w3.org/1999/xlink" x="0px" y="0px"
		 viewBox="0 0 86.6 110.9" style="enable-background:new 0 0 86.6 110.9;" xml:space="preserve">
		<style type="text/css">
			.st0{fill:none;stroke:#DFE112;stroke-width:2;stroke-miterlimit:10;}
		</style>
		<path class="st0" d="M37.1,42.9c-0.2,0.9-0.5,1.7-0.5,2.6c0,17.1,0,34.2,0,51.2c0,2.6,0,5.2,0,7.7c-0.1,3-2.3,5.2-5.4,5.4
			c-2.6,0.2-5.3-1.8-5.7-4.6c-0.3-2.6-0.2-5.1-0.2-7.7c0-6,0-12-0.1-18c0-0.7-0.7-1.4-1-2.1c-0.4,0.8-1.2,1.5-1.2,2.2
			c-0.1,7.4-0.1,14.8-0.1,22.2c0,0.7,0,1.5,0,2.2c-0.2,3.4-2.6,5.9-5.6,5.8c-3.4-0.1-5.6-2.5-5.6-6.2c0-19.3,0-38.7,0-58
			c0-0.9-0.2-1.8-0.4-2.8c-0.3,0-0.6,0-0.9,0c-0.1,0.8-0.2,1.7-0.2,2.5c0,7.8,0,15.7,0,23.5c0,3.3-1.4,4.9-4.5,5.1
			c-2.8,0.3-4.5-1.1-4.5-3.9C1,59.4,1,48.7,1.1,37.9c0-4,2.1-5.9,6.1-5.9c11.2,0,22.5,0,33.7,0c4.3,0,6.3,1.8,6.3,6.2
			c0.1,10.6,0,21.2,0,31.7c0,2.8-1.3,4.1-3.8,4.2c-2.7,0.1-4.9-1.5-5.2-4c-0.1-0.7,0-1.3,0-2c0-7.5,0-15,0-22.5c0-0.9,0-1.8,0-2.6
			C37.8,43,37.5,43,37.1,42.9z"/>
		<circle class="st0" cx="24.1" cy="20" r="10.1"/>
		<path class="st0" d="M80.1,6.5c-7.3-7.3-19.2-7.3-26.5,0c-7.3,7.3-7.3,19.2,0,26.5c7.3,7.3,19.2,7.3,26.5,0
			C87.5,25.7,87.5,13.8,80.1,6.5z"/>
		<g>
			<path class="st0" d="M66.7,23.9c1,0,1.8-1.5,1.9-3.2L69,9.9C69,8.2,68,6.7,66.7,6.7c-1.3,0-2.3,1.5-2.3,3.2l0.4,10.7
				C64.9,22.4,65.7,23.9,66.7,23.9z"/>
			<path class="st0" d="M66.7,31.9c1.7,0,2.8-1.2,2.8-2.9c0-1.7-1.1-2.9-2.8-2.9c-1.6,0-2.8,1.2-2.8,2.9C63.9,30.7,65,31.9,66.7,31.9z
				"/>
		</g>
	</svg>
	<svg id="people-people" fill="none" stroke="#4E6DE2" stroke-width="2" stroke-miterlimit="10" version="1.1" xmlns="http://www.w3.org/2000/svg" xmlns:xlink="http://www.w3.org/1999/xlink" x="0px" y="0px"
		 viewBox="0 0 48.2 101.9" style="enable-background:new 0 0 48.2 101.9;" xml:space="preserve">
		<style type="text/css">
			.st0{fill:none;stroke:#4E6DE2;stroke-width:2;stroke-miterlimit:10;}
		</style>
		<path class="st0" d="M37.1,34c-0.2,0.9-0.5,1.7-0.5,2.6c0,17.1,0,34.2,0,51.2c0,2.6,0,5.2,0,7.7c-0.1,3-2.3,5.2-5.4,5.4
			c-2.6,0.2-5.3-1.8-5.7-4.6c-0.3-2.6-0.2-5.1-0.2-7.7c0-6,0-12-0.1-18c0-0.7-0.7-1.4-1-2.1C23.8,69.3,23,70,23,70.7
			c-0.1,7.4-0.1,14.8-0.1,22.2c0,0.7,0,1.5,0,2.2c-0.2,3.4-2.6,5.9-5.6,5.8c-3.4-0.1-5.6-2.5-5.6-6.2c0-19.3,0-38.7,0-58
			c0-0.9-0.2-1.8-0.4-2.8c-0.3,0-0.6,0-0.9,0c-0.1,0.8-0.2,1.7-0.2,2.5c0,7.8,0,15.7,0,23.5c0,3.3-1.4,4.9-4.5,5.1
			c-2.8,0.3-4.5-1.1-4.5-3.9C1,50.5,1,39.8,1.1,29c0-4,2.1-5.9,6.1-5.9c11.2,0,22.5,0,33.7,0c4.3,0,6.3,1.8,6.3,6.2
			c0.1,10.6,0,21.2,0,31.7c0,2.8-1.3,4.1-3.8,4.2c-2.7,0.1-4.9-1.5-5.2-4c-0.1-0.7,0-1.3,0-2c0-7.5,0-15,0-22.5c0-0.9,0-1.8,0-2.6
			C37.8,34.1,37.5,34.1,37.1,34z"/>
		<circle class="st0" cx="24.1" cy="11.1" r="10.1"/>
	</svg>
	<svg id="people-suspect" fill="none" stroke="#D6191C" stroke-width="2" stroke-miterlimit="10" version="1.1" xmlns="http://www.w3.org/2000/svg" xmlns:xlink="http://www.w3.org/1999/xlink" x="0px" y="0px"
	 	 viewBox="0 0 86.2 110.2" style="enable-background:new 0 0 86.2 110.2;" xml:space="preserve">
		<style type="text/css">
			.st0{fill:none;stroke:#D6191C;stroke-width:2;stroke-miterlimit:10;}
		</style>
		<path class="st0" d="M37.1,42.3c-0.2,0.9-0.5,1.7-0.5,2.6c0,17.1,0,34.2,0,51.2c0,2.6,0,5.2,0,7.7c-0.1,3-2.3,5.2-5.4,5.4
			c-2.6,0.2-5.3-1.8-5.7-4.6c-0.3-2.6-0.2-5.1-0.2-7.7c0-6,0-12-0.1-18c0-0.7-0.7-1.4-1-2.1C23.8,77.6,23,78.3,23,79
			c-0.1,7.4-0.1,14.8-0.1,22.2c0,0.7,0,1.5,0,2.2c-0.2,3.4-2.6,5.9-5.6,5.8c-3.4-0.1-5.6-2.5-5.6-6.2c0-19.3,0-38.7,0-58
			c0-0.9-0.2-1.8-0.4-2.8c-0.3,0-0.6,0-0.9,0c-0.1,0.8-0.2,1.7-0.2,2.5c0,7.8,0,15.7,0,23.5c0,3.3-1.4,4.9-4.5,5.1
			c-2.8,0.3-4.5-1.1-4.5-3.9C1,58.8,1,48.1,1.1,37.3c0-4,2.1-5.9,6.1-5.9c11.2,0,22.5,0,33.7,0c4.3,0,6.3,1.8,6.3,6.2
			c0.1,10.6,0,21.2,0,31.7c0,2.8-1.3,4.1-3.8,4.2c-2.7,0.1-4.9-1.5-5.2-4c-0.1-0.7,0-1.3,0-2c0-7.5,0-15,0-22.5c0-0.9,0-1.8,0-2.6
			C37.8,42.4,37.5,42.4,37.1,42.3z"/>
		<circle class="st0" cx="24.1" cy="19.4" r="10.1"/>
		<path class="st0" d="M79.7,6.5c-7.3-7.3-19.2-7.3-26.5,0c-7.3,7.3-7.3,19.2,0,26.5c7.3,7.3,19.2,7.3,26.5,0
			C87,25.7,87,13.8,79.7,6.5z"/>
		<path class="st0" d="M76.2,25.6c2.5,2.5-1.2,6.2-3.7,3.7l-6-6l-6,6c-2.5,2.5-6.2-1.2-3.7-3.7l6-6l-6-6c-2.4-2.5,1.3-6.2,3.7-3.7l6,6
			l6-6c2.5-2.4,6.2,1.3,3.7,3.7l-6,6L76.2,25.6z"/>
	</svg>
	<svg id="people-vip" fill="none" stroke="#A5CDE3" stroke-width="2" stroke-miterlimit="10" version="1.1" xmlns="http://www.w3.org/2000/svg" xmlns:xlink="http://www.w3.org/1999/xlink" x="0px" y="0px"
		 viewBox="0 0 86.6 110.9" style="enable-background:new 0 0 86.6 110.9;" xml:space="preserve">
		<style type="text/css">
			.st0{fill:none;stroke:#A5CDE3;stroke-width:2;stroke-miterlimit:10;}
			.st1{fill:none;stroke:#A6CEE4;stroke-width:2;stroke-miterlimit:10;}
		</style>
		<path class="st0" d="M37.1,42.9c-0.2,0.9-0.5,1.7-0.5,2.6c0,17.1,0,34.2,0,51.2c0,2.6,0,5.2,0,7.7c-0.1,3-2.3,5.2-5.4,5.4
			c-2.6,0.2-5.3-1.8-5.7-4.6c-0.3-2.6-0.2-5.1-0.2-7.7c0-6,0-12-0.1-18c0-0.7-0.7-1.4-1-2.1c-0.4,0.8-1.2,1.5-1.2,2.2
			c-0.1,7.4-0.1,14.8-0.1,22.2c0,0.7,0,1.5,0,2.2c-0.2,3.4-2.6,5.9-5.6,5.8c-3.4-0.1-5.6-2.5-5.6-6.2c0-19.3,0-38.7,0-58
			c0-0.9-0.2-1.8-0.4-2.8c-0.3,0-0.6,0-0.9,0c-0.1,0.8-0.2,1.7-0.2,2.5c0,7.8,0,15.7,0,23.5c0,3.3-1.4,4.9-4.5,5.1
			c-2.8,0.3-4.5-1.1-4.5-3.9C1,59.4,1,48.7,1.1,37.9c0-4,2.1-5.9,6.1-5.9c11.2,0,22.5,0,33.7,0c4.3,0,6.3,1.8,6.3,6.2
			c0.1,10.6,0,21.2,0,31.7c0,2.8-1.3,4.1-3.8,4.2c-2.7,0.1-4.9-1.5-5.2-4c-0.1-0.7,0-1.3,0-2c0-7.5,0-15,0-22.5c0-0.9,0-1.8,0-2.6
			C37.8,43,37.5,43,37.1,42.9z"/>
		<circle class="st0" cx="24.1" cy="20" r="10.1"/>
		<path class="st1" d="M80.1,6.5c-7.3-7.3-19.2-7.3-26.5,0c-7.3,7.3-7.3,19.2,0,26.5c7.3,7.3,19.2,7.3,26.5,0
			C87.5,25.7,87.5,13.8,80.1,6.5z"/>
		<g transform="translate(0,-952.36218)">
			<path class="st1" d="M66.9,960.2c-0.2,0-0.4,0.1-0.5,0.3l-2.5,7.6h-8.1c-0.3,0-0.5,0.2-0.5,0.5c0,0.2,0.1,0.3,0.2,0.4l6.6,4.8
				l-2.5,7.9c-0.1,0.3,0.1,0.5,0.3,0.6c0.2,0.1,0.3,0,0.5-0.1l6.6-4.8l6.6,4.8c0.2,0.2,0.5,0.1,0.7-0.1c0.1-0.1,0.1-0.3,0.1-0.5
				l-2.5-7.9l6.6-4.8c0.2-0.2,0.3-0.5,0.1-0.7c-0.1-0.1-0.2-0.2-0.4-0.2h-8.1l-2.5-7.6C67.3,960.4,67.1,960.2,66.9,960.2z"/>
		</g>
	</svg>
    <symbol viewBox="0 0 63.2 51.9" id="blacklist-alert">
        <path  fill="none" stroke-miterlimit="10" d="M58.5,4.7c-5.6-5.6-14.6-5.6-20.1,0c-5.6,5.5-5.6,14.5,0,20.1c5.5,5.6,14.5,5.6,20.1,0S64.1,10.2,58.5,4.7z"/>
        <path  fill="none" stroke-miterlimit="10" d="M55.9,19.2c1.9,1.9-0.9,4.7-2.8,2.8l-4.6-4.5L43.9,22c-1.9,1.9-4.7-0.9-2.8-2.8l4.6-4.6L41.1,10
	c-1.8-1.9,1-4.7,2.8-2.8l4.5,4.6l4.6-4.6c1.9-1.8,4.7,1,2.8,2.8l-4.5,4.5L55.9,19.2z"/>
        <g>
            <path  fill="none" stroke-miterlimit="10" d="M34.8,11.2H16.3c-2.5,0-4.1,0.9-6.1,3.8L6.7,23H1.3c-0.8,0-2.4,4.3,3.2,4.5L2.7,32c0.1,5.8,0.1,11.5,0.1,17.3
		c0,1.2,1,2.2,2.2,2.2h7.3c1.2,0,2.1-1,2.1-2.2v-4.7h27.5v4.7c0,1.2,1,2.2,2.2,2.2h7.3c1.2,0,2.1-1,2.1-2.2c0-5.7,0.1-11.5,0.1-17.3
		l-1.4-3.5 M39.1,25.5C39,25.5,39,25.4,39.1,25.5L9.6,25.4c1.1-2.4,2.2-5,3.6-7.8c0.8-1.3,1.6-2.5,3.1-2.7h17.9 M10.6,39.4
		c-2,0-3.5-1.6-3.5-3.5c0-2,1.5-3.5,3.5-3.5c1.9,0,3.5,1.5,3.5,3.5C14.1,37.8,12.5,39.4,10.6,39.4z M35.4,38.7H20.6
		c-0.8,0-1.6-0.8-1.6-1.6c0-0.9,0.8-1.7,1.6-1.7h14.8c0.9,0,1.6,0.8,1.6,1.7C37,38,36.3,38.7,35.4,38.7z M45.5,39.4
		c-1.9,0-3.5-1.6-3.5-3.5c0-2,1.6-3.5,3.5-3.5c2,0,3.5,1.5,3.5,3.5C49,37.8,47.4,39.4,45.5,39.4z"/>
        </g>
    </symbol>
    <symbol viewBox="0 0 63 51.7" id="whitelist-alert">
        <path fill="none" stroke-miterlimit="10" d="M58.3,4.7c-5.5-5.5-14.5-5.5-20,0c-5.5,5.5-5.5,14.5,0,20c5.5,5.5,14.5,5.5,20,0S63.8,10.2,58.3,4.7z"/>
        <g>
            <path fill="none" stroke-miterlimit="10" d="M34.7,11.2H16.2c-2.5,0-4,0.9-6.1,3.8l-3.5,7.9H1.3c-0.8,0-2.4,4.3,3.2,4.5l-1.9,4.5C2.7,37.6,2.7,43.3,2.7,49
		c0,1.2,1,2.2,2.2,2.2h7.2c1.2,0,2.1-1,2.1-2.2v-4.7h27.4V49c0,1.2,1,2.2,2.2,2.2H51c1.2,0,2.1-1,2.1-2.2c0-5.7,0.1-11.4,0.1-17.2
		l-1.4-3.4 M38.9,25.4C38.9,25.4,38.9,25.3,38.9,25.4L9.6,25.3c1.1-2.4,2.2-4.9,3.5-7.7c0.8-1.3,1.6-2.5,3.1-2.6h17.8 M10.6,39.2
		c-1.9,0-3.5-1.6-3.5-3.5c0-1.9,1.5-3.5,3.5-3.5c1.9,0,3.5,1.5,3.5,3.5C14.1,37.6,12.5,39.2,10.6,39.2z M35.3,38.6H20.6
		c-0.8,0-1.6-0.8-1.6-1.6c0-0.9,0.8-1.7,1.6-1.7h14.8c0.9,0,1.6,0.8,1.6,1.7C36.9,37.8,36.2,38.6,35.3,38.6z M45.3,39.2
		c-1.9,0-3.5-1.6-3.5-3.5c0-1.9,1.6-3.5,3.5-3.5c1.9,0,3.5,1.5,3.5,3.5C48.8,37.6,47.3,39.2,45.3,39.2z"/>
        </g>
        <path fill="none" stroke-miterlimit="10" d="M57,10.8L46.9,21.3c-0.6,0.6-1.5,0.6-2,0l-5-5.3c-0.6-0.6-0.6-1.5,0-2.1c0.6-0.6,1.5-0.6,2,0l4,4.2L55,8.7
	c0.6-0.6,1.5-0.6,2,0C57.6,9.3,57.6,10.2,57,10.8z"/>
    </symbol>
    <symbol viewBox="0 0 62.8 51.6" id="other-alert">
        <path fill="none" stroke-miterlimit="10" d="M58.2,4.7c-5.5-5.5-14.5-5.5-20,0c-5.5,5.5-5.5,14.5,0,20c5.5,5.5,14.5,5.5,20,0S63.7,10.1,58.2,4.7z"/>
        <g>
            <path fill="none" stroke-miterlimit="10" d="M34.7,11.2H16.2c-2.5,0-4,0.9-6.1,3.8l-3.5,7.8H1.3c-0.8,0-2.4,4.3,3.2,4.4l-1.9,4.5
		c0.1,5.8,0.1,11.5,0.1,17.2c0,1.2,1,2.2,2.2,2.2h7.2c1.2,0,2.1-1,2.1-2.2v-4.7h27.4v4.7c0,1.2,1,2.2,2.2,2.2h7.2
		c1.2,0,2.1-1,2.1-2.2c0-5.7,0.1-11.4,0.1-17.2l-1.4-3.4 M38.9,25.4C38.8,25.3,38.8,25.3,38.9,25.4L9.5,25.3
		c1.1-2.4,2.2-4.9,3.5-7.7c0.8-1.3,1.6-2.5,3.1-2.6H34 M10.6,39.1c-1.9,0-3.5-1.6-3.5-3.5c0-1.9,1.5-3.5,3.5-3.5
		c1.9,0,3.5,1.5,3.5,3.5C14,37.5,12.5,39.1,10.6,39.1z M35.2,38.5H20.5c-0.8,0-1.6-0.8-1.6-1.6c0-0.9,0.8-1.7,1.6-1.7h14.7
		c0.9,0,1.6,0.8,1.6,1.7C36.8,37.8,36.1,38.5,35.2,38.5z M45.2,39.1c-1.9,0-3.5-1.6-3.5-3.5c0-1.9,1.6-3.5,3.5-3.5
		c1.9,0,3.5,1.5,3.5,3.5C48.7,37.5,47.2,39.1,45.2,39.1z"/>
        </g>
        <g>
            <path fill="none" stroke-miterlimit="10" d="M48.4,17.2c0.7,0,1.3-1,1.3-2.3L50,7.5c0-1.2-0.7-2.3-1.6-2.3c-0.9,0-1.6,1-1.6,2.3l0.3,7.5
		C47.1,16.2,47.7,17.2,48.4,17.2z"/>
            <path fill="none" stroke-miterlimit="10" d="M48.4,22.9c1.2,0,2-0.9,2-2c0-1.2-0.8-2-2-2c-1.1,0-1.9,0.8-1.9,2C46.4,22,47.2,22.9,48.4,22.9z"/>
        </g>
    </symbol>

</svg>