<svg enable-background="new 0 0 180.4 180.4" version="1.1" viewBox="0 0 180.4 180.4" xmlns="http://www.w3.org/2000/svg">
    <circle class="selected-circle-outer" cx="90.2" cy="90.2" r="72.2" opacity=".4" stroke-miterlimit="10"
            stroke-width="36"/>
    <path class="rounded-circle"
          d="m121.3 136.4c0-8.2 6.6-14.8 14.8-14.8 0.5 0 0.9 0 1.4 0.1h0.2c0.4 0 0.8 0.1 1.3 0.2h0.1c0.9 0.2 1.8 0.5 2.6 0.8 0.1 0 0.2 0.1 0.3 0.1 0.3 0.1 0.6 0.3 0.8 0.4 0.1 0.1 0.3 0.1 0.4 0.2 0.2 0.1 0.4 0.3 0.7 0.4 0.1 0.1 0.2 0.1 0.3 0.2 6.1-9.7 9.6-21.1 9.6-33.4 0-34.6-28.1-62.7-62.7-62.7s-62.6 28.2-62.6 62.8 28.1 62.7 62.7 62.7c11.9 0 22.9-3.3 32.4-9-1.5-2.3-2.3-5-2.3-8z"/>
    <path class="selected-circle"
          d="m121.3 136.4c0-8.2 6.6-14.8 14.8-14.8 0.5 0 0.9 0 1.4 0.1h0.2c0.4 0 0.8 0.1 1.3 0.2h0.1c0.9 0.2 1.8 0.5 2.6 0.8 0.1 0 0.2 0.1 0.3 0.1 0.3 0.1 0.6 0.3 0.8 0.4 0.1 0.1 0.3 0.1 0.4 0.2 0.2 0.1 0.4 0.3 0.7 0.4 0.1 0.1 0.2 0.1 0.3 0.2 6.1-9.7 9.6-21.1 9.6-33.4 0-34.6-28.1-62.7-62.7-62.7s-62.6 28.2-62.6 62.8 28.1 62.7 62.7 62.7c11.9 0 22.9-3.3 32.4-9-1.5-2.3-2.3-5-2.3-8z"/>
	<g class="icon-content">
		<path class="fill-stroke-color" d="M72.7,97.2c2,1.2,6.8,4.1,12.1,7.6c1.2,0.8,2.4,1.6,3.6,2.4c0.1,0,0.1,0.1,0.2,0.1c2.7,1.8,4.9,3.6,6.8,5.2
		c2.4,1.9,4.4,3.6,6.6,4.7c4.6,2.4,11.6,3,14.4,3.2l0.1,0c0,0,11-11,9-14.3s-5.6-3.6-10.1-9.8c-1.7-2.4-3.4-5.5-5.1-8.8
		c-2.2-4.2-4.5-10.9-9.2-12.4c-1.9-0.6-5.2-1.4-8.7-2.3v7.5c0.6,0.2,1.2,0.4,1.8,0.6c1.8,0.6,3.2,2.2,4,3.7c0.2,0.4,0.4,0.9,0.6,1.2
		c0.1,0.3,0.2,0.7,0.3,0.9c0.8,3.4,0.4,5.7-1.4,8.5c-1.3,2-3,3.1-5.2,3.3c0,0,0,0,0,0c-0.6,0-1.4-0.1-2.4-0.5
		c-1.5-0.5-3.5-1.5-6-2.7c-2.3-1.1-4.6-2.3-5.6-2.4C76,92.6,74,94.8,72.7,97.2z"/>
		<path class="fill-stroke-color" d="M62,57.3v45.8c0,0.9,0.7,1.6,1.6,1.6h16.7c-4.2-2.7-7.7-4.8-9-5.6l-2-1.2l1.1-2c1.9-3.5,4.5-5.4,7.2-5.4
		c0.3,0,0.6,0,1,0.1c1.3,0.2,3.3,1.1,6.3,2.6c1.4,0.7,3.3,1.6,4.9,2.3V57.3c0-0.9-0.7-1.6-1.6-1.6H63.6C62.7,55.7,62,56.4,62,57.3z
		 M65.3,61.2c0-0.7,0.6-1.3,1.3-1.3h0.3c0.7,0,1.3,0.6,1.3,1.3v38c0,0.7-0.6,1.3-1.3,1.3h-0.3c-0.7,0-1.3-0.6-1.3-1.3V61.2z"/>
	</g>
    <circle class="status-circle" cx="138" cy="138.2" r="13.1"/>
    <g class="alert-content">
        <rect class="exclamation" x="39.2" y="25.3" width="10.6" height="33.5"/>
        <path class="triangle"
              d="m71.4 57.5l-24.5-40c-1.6-2.7-4.3-2.6-5.9 0l-24.5 40c-1.6 2.7-0.4 4.7 2.7 4.7h49.6c3 0 4.2-2.1 2.6-4.7zm-27.5-31.2c1.6 0 2.8 1.7 2.7 3.9l-0.5 12.8c-0.1 2.1-1.1 3.9-2.2 3.9s-2.1-1.7-2.2-3.9l-0.5-12.8c-0.1-2.2 1.1-3.9 2.7-3.9zm0 30.1c-2 0-3.3-1.5-3.3-3.4 0-2 1.4-3.4 3.3-3.4 2 0 3.3 1.4 3.3 3.4s-1.3 3.4-3.3 3.4z"/>
    </g>
</svg>
