<svg version="1.1" id="Layer_1" xmlns="http://www.w3.org/2000/svg" xmlns:xlink="http://www.w3.org/1999/xlink" x="0px" y="0px"
	 viewBox="0 0 180.4 180.4" style="enable-background:new 0 0 180.4 180.4;" >
<g>
	<circle class="selected-circle-outer" cx="90.2" cy="90.2" r="72.2" opacity=".4" stroke-miterlimit="10"
            stroke-width="36"/>
</g>
<path fill="#FF5122" d="M121.3,136.4c0-8.2,6.6-14.8,14.8-14.8l0,0l0,0c0.5,0,0.9,0,1.4,0.1c0.1,0,0.1,0,0.2,0c0.4,0,0.8,0.1,1.3,0.2
	h0.1c0.9,0.2,1.8,0.5,2.6,0.8c0.1,0,0.2,0.1,0.3,0.1c0.3,0.1,0.6,0.3,0.8,0.4c0.1,0.1,0.3,0.1,0.4,0.2c0.2,0.1,0.4,0.3,0.7,0.4
	c0.1,0.1,0.2,0.1,0.3,0.2c6.1-9.7,9.6-21.1,9.6-33.4c0-34.6-28.1-62.7-62.7-62.7S28.5,56.1,28.5,90.7s28.1,62.7,62.7,62.7
	c11.9,0,22.9-3.3,32.4-9C122.1,142.1,121.3,139.4,121.3,136.4z"/>
<path class="rounded-circle" d="M121.3,136.4c0-8.2,6.6-14.8,14.8-14.8l0,0l0,0c0.5,0,0.9,0,1.4,0.1c0.1,0,0.1,0,0.2,0c0.4,0,0.8,0.1,1.3,0.2
	h0.1c0.9,0.2,1.8,0.5,2.6,0.8c0.1,0,0.2,0.1,0.3,0.1c0.3,0.1,0.6,0.3,0.8,0.4c0.1,0.1,0.3,0.1,0.4,0.2c0.2,0.1,0.4,0.3,0.7,0.4
	c0.1,0.1,0.2,0.1,0.3,0.2c6.1-9.7,9.6-21.1,9.6-33.4c0-34.6-28.1-62.7-62.7-62.7S28.5,56.1,28.5,90.7s28.1,62.7,62.7,62.7
	c11.9,0,22.9-3.3,32.4-9C122.1,142.1,121.3,139.4,121.3,136.4z"/>
<circle class="status-circle" cx="138" cy="138.2" r="13.1"/>
<rect x="39.2" y="25.3" class="fill-stroke-color" width="10.6" height="33.5"/>
<g>
	<path fill="#D72638" d="M71.4,57.5l-24.5-40c-1.6-2.7-4.3-2.6-5.9,0l-24.5,40c-1.6,2.7-0.4,4.7,2.7,4.7h49.6
		C71.8,62.2,73,60.1,71.4,57.5z M43.9,26.3c1.6,0,2.8,1.7,2.7,3.9L46.1,43c-0.1,2.1-1.1,3.9-2.2,3.9c-1.1,0-2.1-1.7-2.2-3.9
		l-0.5-12.8C41.1,28,42.3,26.3,43.9,26.3z M43.9,56.4c-2,0-3.3-1.5-3.3-3.4c0-2,1.4-3.4,3.3-3.4c2,0,3.3,1.4,3.3,3.4
		S45.9,56.4,43.9,56.4z"/>
</g>
<path fill="none" stroke="#FFFFFF" stroke-width="0.25" stroke-miterlimit="10" d="M89.2,85"/>
<g>
	<path class="fill-stroke-color" d="M76.7,108.3V94.4c0-7.3,5.8-13.5,13.5-13.5c7.3,0,13.5,5.8,13.5,13.5l0,0v13.9l0,0H76.7L76.7,108.3z
		 M106.7,119.3H73.7v-8.4h32.9V119.3z"/>
	<path class="fill-stroke-color" d="M90.2,73.2c0.7,0,1.5-0.7,1.5-1.5v-9.1c0-0.7-0.7-1.5-1.5-1.5s-1.5,0.7-1.5,1.5v8.8
		C88.7,72.5,89.5,73.2,90.2,73.2z"/>
	<path class="fill-stroke-color" d="M117.6,86h-8.8c-0.7,0-1.5,0.7-1.5,1.5c0,0.7,0.7,1.5,1.5,1.5h8.8c0.7,0,1.5-0.7,1.5-1.5
		C119.1,86.4,118.7,86,117.6,86z"/>
	<path class="fill-stroke-color" d="M73,87.1c0-0.7-0.7-1.5-1.5-1.5h-8.8c-0.7,0-1.5,0.7-1.5,1.5s0.7,1.5,1.5,1.5h8.8C72.3,88.6,73,88.2,73,87.1z"
		/>
	<path class="fill-stroke-color" d="M77.8,77.2c0.7,0.7,1.5,0.7,2.2,0c0.7-0.7,0.7-1.5,0-2.2l-6.2-6.2c-0.7-0.7-1.5-0.7-2.2,0
		c-0.7,0.7-0.7,1.5,0,2.2L77.8,77.2z"/>
	<path class="fill-stroke-color" d="M101.5,77.6c0.4,0,0.7,0,1.1-0.4l6.2-6.2c0.7-0.7,0.7-1.5,0-2.2c-0.7-0.7-1.5-0.7-2.2,0l0,0l-6.2,6.2
		c-0.7,0.7-0.7,1.5,0,2.2C100.8,77.2,101.2,77.6,101.5,77.6L101.5,77.6z"/>
</g>
</svg>
