<svg version="1.1" xmlns="http://www.w3.org/2000/svg" xmlns:xlink="http://www.w3.org/1999/xlink" x="0px" y="0px"
	 viewBox="0 0 180.4 180.4" style="enable-background:new 0 0 180.4 180.4;">
<g>
	<circle class="selected-circle-outer" cx="90.2" cy="90.2" r="72.2" opacity=".4" stroke-miterlimit="10"
            stroke-width="36"/>
</g>
<path fill="#FF5122" d="M121.3,136.4c0-8.2,6.6-14.8,14.8-14.8l0,0l0,0c0.5,0,0.9,0,1.4,0.1c0.1,0,0.1,0,0.2,0c0.4,0,0.8,0.1,1.3,0.2
	h0.1c0.9,0.2,1.8,0.5,2.6,0.8c0.1,0,0.2,0.1,0.3,0.1c0.3,0.1,0.6,0.3,0.8,0.4c0.1,0.1,0.3,0.1,0.4,0.2c0.2,0.1,0.4,0.3,0.7,0.4
	c0.1,0.1,0.2,0.1,0.3,0.2c6.1-9.7,9.6-21.1,9.6-33.4c0-34.6-28.1-62.7-62.7-62.7S28.5,56.1,28.5,90.7s28.1,62.7,62.7,62.7
	c11.9,0,22.9-3.3,32.4-9C122.1,142.1,121.3,139.4,121.3,136.4z"/>
<path class="rounded-circle" d="M121.3,136.4c0-8.2,6.6-14.8,14.8-14.8l0,0l0,0c0.5,0,0.9,0,1.4,0.1c0.1,0,0.1,0,0.2,0c0.4,0,0.8,0.1,1.3,0.2
	h0.1c0.9,0.2,1.8,0.5,2.6,0.8c0.1,0,0.2,0.1,0.3,0.1c0.3,0.1,0.6,0.3,0.8,0.4c0.1,0.1,0.3,0.1,0.4,0.2c0.2,0.1,0.4,0.3,0.7,0.4
	c0.1,0.1,0.2,0.1,0.3,0.2c6.1-9.7,9.6-21.1,9.6-33.4c0-34.6-28.1-62.7-62.7-62.7S28.5,56.1,28.5,90.7s28.1,62.7,62.7,62.7
	c11.9,0,22.9-3.3,32.4-9C122.1,142.1,121.3,139.4,121.3,136.4z"/>
<circle class="status-circle" cx="138" cy="138.2" r="13.1"/>
<rect x="39.2" y="25.3" class="fill-stroke-color" width="10.6" height="33.5"/>
<path fill="none" stroke="#FFFFFF" stroke-width="0.25" stroke-miterlimit="10" d="M89.2,85"/>
<path class="fill-stroke-color" d="M104.8,66.4l-1.5,1.5c-3.5-3.5-8.3-5.4-13.7-5.4s-10.3,2-13.7,5.4l-1.5-1.5c3.9-3.9,9.2-6.4,15.1-6.4
	C95.5,60,100.9,62.5,104.8,66.4z"/>
<path class="fill-stroke-color" d="M112.7,58.6l-2,2c-5.4-5.4-13.3-8.8-21.6-8.8s-15.7,3.5-21.6,8.8l-1.9-2c5.9-5.9,14.2-9.2,23-9.2
	C98.5,48.9,106.8,52.7,112.7,58.6z"/>
<path class="fill-stroke-color" d="M98.5,73.2H81.4c-3.5,0-6.4,2.9-6.4,6.4v36.5c0,3.5,2.9,6.4,6.4,6.4h17.1c3.5,0,6.4-2.9,6.4-6.4V79.5
	C104.8,76.2,101.8,73.2,98.5,73.2z M89.7,101c-2.4,0-3.9-2-3.9-3.9c0-2,2-3.9,3.9-3.9c2.4,0,3.9,2,3.9,3.9
	C93.5,99.2,92.1,101,89.7,101z"/>
<g>
	<path fill="#D72638" d="M71.4,57.5l-24.5-40c-1.6-2.7-4.3-2.6-5.9,0l-24.5,40c-1.6,2.7-0.4,4.7,2.7,4.7h49.6
		C71.8,62.2,73,60.1,71.4,57.5z M43.9,26.3c1.6,0,2.8,1.7,2.7,3.9L46.1,43c-0.1,2.1-1.1,3.9-2.2,3.9c-1.1,0-2.1-1.7-2.2-3.9
		l-0.5-12.8C41.1,28,42.3,26.3,43.9,26.3z M43.9,56.4c-2,0-3.3-1.5-3.3-3.4c0-2,1.4-3.4,3.3-3.4c2,0,3.3,1.4,3.3,3.4
		S45.9,56.4,43.9,56.4z"/>
</g>
</svg>
