<?xml version="1.0" encoding="utf-8"?>
<!-- Generator: Adobe Illustrator 21.1.0, SVG Export Plug-In . SVG Version: 6.00 Build 0)  -->
<svg version="1.1" id="Layer_1" xmlns="http://www.w3.org/2000/svg" xmlns:xlink="http://www.w3.org/1999/xlink" x="0px" y="0px"
	 viewBox="0 0 33.2 69" style="enable-background:new 0 0 33.2 69;" xml:space="preserve">
<style type="text/css">
	.st0{fill:#7342A5;}
	.st1{fill:#FFFFFF;}
</style>
<circle class="st0" cx="16.6" cy="16.6" r="16.6"/>
<circle class="st0" cx="16.6" cy="67.1" r="1.9"/>
<rect x="15.9" y="32.9" class="st0" width="1.4" height="33.1"/>
<path class="st1" d="M12.5,18h2.9c0.2,0,0.3,0.1,0.3,0.3l0,6.2c0,0.3,0.5,0.4,0.6,0.1l4.4-9.7c0.1-0.2-0.1-0.4-0.3-0.4l-2.6,0.1
	c-0.2,0-0.3-0.1-0.3-0.3V8.6c0-0.3-0.4-0.4-0.6-0.1l-4.6,9.2C12.1,17.8,12.2,18,12.5,18z"/>
</svg>
