<svg enable-background="new 0 0 104 134.5" version="1.1" viewBox="0 0 104 134.5" xmlns="http://www.w3.org/2000/svg">
 <g class="farm-select" fill="none" stroke="#fff" stroke-miterlimit="10">
  <path d="M52,108C29.3,83.4,18,64.8,18,52.2C18,33.3,33.2,18,52,18s34,15.3,34,34.2C86,64.8,74.7,83.4,52,108z" opacity=".5" stroke-width="36"/>
  <path d="M52,108C29.3,83.4,18,64.8,18,52.2C18,33.3,33.2,18,52,18s34,15.3,34,34.2C86,64.8,74.7,83.4,52,108z" stroke-width="8"/>
 </g>
 <path class="farm-status" fill="#229393" d="M52,108C29.3,83.4,18,64.8,18,52.2C18,33.3,33.2,18,52,18s34,15.3,34,34.2C86,64.8,74.7,83.4,52,108z"/>
 <g class="farm-icon" fill="#fff">
  <path d="M63.2,61.4c0.1,1.5,2.7,5.9,5.4,6.9c-0.5-1.2-0.6-3.6-1.1-4.3c-0.6-0.8-1.4-1.4-2.1-2.1
	c0.1-0.1,0.1-0.3,0.2-0.4c0.6-0.1,1.2-0.1,1.7-0.2c0.3-0.1,0.6-0.3,1-0.4c-0.3-0.2-0.6-0.5-1-0.6c-0.4-0.1-0.9-0.1-1.4-0.1
	c0-4.3-0.1-8.4,0-12.6c0.1-2.3-0.5-4-2-5.7c-2.1-2.3-4-4.8-6-7.3c-2.6,3.2-5.1,6.2-7.5,9.2c-0.3,0.4-0.4,1.1-0.4,1.7
	c0,4.3,0,8.6,0,12.9c0,0.5-0.1,1.1-0.1,1.7c-0.4,0-0.7,0.1-0.9,0.1c-2.4,0.1-2.4,0.1-2.4-2.2c0-4.4,0-8.7,0-13.1
	c0-1.4-0.4-2.6-1.7-3.4c-1.2-0.8-2.5-0.8-3.8-0.1c-1.4,0.8-1.9,2-1.9,3.6c0,4.5,0,9,0,13.5c0,0.5-0.1,1.1-0.1,1.6
	c-1.3,0-2.6,0-3.9,0v1.1c0.5,0,1,0.1,1.4,0.2c-0.5,0.3-0.9,0.5-1.4,0.8v1.4c2.4-1.9,4.6-2.5,7.3-2.1c-3.1,1.7-5.4,4-7.3,6.6v2.2h2.8
	c1.2-2.6,2.6-5,4.6-7.2c1.3-1.4,2.9-2.1,4.8-1.7c-3.3,2.3-4.5,5.5-5.3,8.9h4.6c0.3-2,0.5-3.9,1-5.8c0.8-2.8,2.2-3.5,5.3-3
	c-2.3,1.4-2.3,3.5-2.1,5.7c0.1,1.1,0.2,2.1,0.3,3.2h4.6c-0.5-1.9-1-3.7-1.3-5.6c-0.4-2.8,0.6-3.6,3.7-3.3c-1.3,0.9-1,2-0.5,3
	c1.1,2,2.2,3.9,3.3,5.8H66c-1.6-2-3.2-3.9-4.7-5.9c-0.5-0.7-0.5-1.7-0.8-2.5c0.8-0.2,1.6-0.4,2.4-0.6C63,61.3,63.2,61.4,63.2,61.4z
	 M60.7,44.5c0.2,0,0.4,0.1,0.7,0.1c-0.4,0.6-0.7,1.1-1.2,1.8c-0.4-0.7-0.8-1.2-1.2-2C59.8,44.5,60.2,44.5,60.7,44.5z M58.6,45.4
	c1.5,1.3,1.5,1.3,0,3C58.6,47.2,58.6,46.3,58.6,45.4z M57.5,45.3c0,1,0,1.9,0,2.9C56,46.9,56,46.7,57.5,45.3z M57.2,44.6
	c-0.4,0.7-0.8,1.2-1.2,1.8c-0.5-0.6-0.8-1.1-1.3-1.8C55.7,44.6,56.3,44.6,57.2,44.6z M54.4,45.3c1.5,1.4,1.5,1.5,0,3.1
	C54.4,47.2,54.4,46.3,54.4,45.3z M61.6,60.2c-2.5,0-4.7,0-7.1,0c0-2.5,0-4.9,0-7.5c2.3,0,4.7,0,7.1,0C61.6,55.2,61.6,57.6,61.6,60.2
	z M61.7,48.4c-0.5-0.6-0.8-1.1-1.3-1.7c0.4-0.6,0.7-1,1.3-1.8C61.7,46.3,61.7,47.2,61.7,48.4z"/>
 </g>
</svg>
