<svg enable-background="new 0 0 180.4 180.4" version="1.1" viewBox="0 0 180.4 180.4" xmlns="http://www.w3.org/2000/svg">
 <circle class="selected-circle-outer" cx="90.2" cy="90.2" r="72.2" opacity=".4" stroke-miterlimit="10" stroke-width="36"/>
 <path class="rounded-circle" d="m121.3 136.4c0-8.2 6.6-14.8 14.8-14.8 0.5 0 0.9 0 1.4 0.1h0.2c0.4 0 0.8 0.1 1.3 0.2h0.1c0.9 0.2 1.8 0.5 2.6 0.8 0.1 0 0.2 0.1 0.3 0.1 0.3 0.1 0.6 0.3 0.8 0.4 0.1 0.1 0.3 0.1 0.4 0.2 0.2 0.1 0.4 0.3 0.7 0.4 0.1 0.1 0.2 0.1 0.3 0.2 6.1-9.7 9.6-21.1 9.6-33.4 0-34.6-28.1-62.7-62.7-62.7s-62.6 28.2-62.6 62.8 28.1 62.7 62.7 62.7c11.9 0 22.9-3.3 32.4-9-1.5-2.3-2.3-5-2.3-8z"/>
 <path class="selected-circle" d="m121.3 136.4c0-8.2 6.6-14.8 14.8-14.8 0.5 0 0.9 0 1.4 0.1h0.2c0.4 0 0.8 0.1 1.3 0.2h0.1c0.9 0.2 1.8 0.5 2.6 0.8 0.1 0 0.2 0.1 0.3 0.1 0.3 0.1 0.6 0.3 0.8 0.4 0.1 0.1 0.3 0.1 0.4 0.2 0.2 0.1 0.4 0.3 0.7 0.4 0.1 0.1 0.2 0.1 0.3 0.2 6.1-9.7 9.6-21.1 9.6-33.4 0-34.6-28.1-62.7-62.7-62.7s-62.6 28.2-62.6 62.8 28.1 62.7 62.7 62.7c11.9 0 22.9-3.3 32.4-9-1.5-2.3-2.3-5-2.3-8z"/>
 <g class="icon-content">
	<path class="fill-stroke-color" d="M116.4,97.7H63c-1.4,0-2.6,1.1-2.6,2.5v8.1c0,1.4,1.2,2.6,2.6,2.5h53.3c1.4,0,2.6-1.1,2.6-2.5v-8.1   C119,98.8,117.8,97.6,116.4,97.7z M67.2,105.7c-0.8,0-1.5-0.7-1.5-1.6c0-0.8,0.7-1.5,1.6-1.5c0.8,0,1.5,0.7,1.5,1.5   C68.7,105,68,105.7,67.2,105.7L67.2,105.7z M75.5,105.7c-0.8,0-1.5-0.7-1.5-1.6c0-0.8,0.7-1.5,1.6-1.5c0.8,0,1.5,0.7,1.5,1.5   C77,105,76.3,105.7,75.5,105.7L75.5,105.7z M83.8,105.7c-0.8,0-1.5-0.7-1.5-1.6c0-0.8,0.7-1.5,1.6-1.5c0.8,0,1.5,0.7,1.5,1.5   C85.3,105,84.6,105.7,83.8,105.7L83.8,105.7z"/>
	<path class="fill-stroke-color" d="M65.5,111.6v1.6c0,0.7,0.4,1.3,0.9,1.3h5.5c0.5,0,0.9-0.6,0.9-1.3v-1.6H65.5z"/>
	<path class="fill-stroke-color" d="M107.3,111.6v1.6c0,0.7,0.4,1.3,0.9,1.3h5.5c0.5,0,0.9-0.6,0.9-1.3v-1.6H107.3z"/>
	<path class="fill-stroke-color" d="M108.9,87.4h2.8L111.4,62c0-0.3-0.1-0.5-0.4-0.7c-0.2-0.2-0.5-0.3-0.8-0.3c-0.6-0.1-1.1,0.4-1.2,0.9l-0.3,25.4   L108.9,87.4z"/>
	<path class="fill-stroke-color" d="M112.4,96.9l-0.2-7.7c0.1-0.6-0.3-1.1-0.9-1.1h-2.2c-0.6,0.1-0.9,0.6-0.9,1.1l-0.2,7.7H112.4z"/>
	<path class="fill-stroke-color" d="M115.3,65.1l0.7,0.5c1.6-2.3,1.6-5.3,0-7.6l-0.7,0.5C116.7,60.4,116.7,63.1,115.3,65.1L115.3,65.1z"/>
	<path class="fill-stroke-color" d="M105.2,65.1c-1.4-2-1.4-4.7,0-6.7l-0.7-0.5c-1.6,2.3-1.6,5.3,0,7.6L105.2,65.1z"/>
	<path class="fill-stroke-color" d="M119,67.5l0.8,0.5c2.7-3.8,2.7-8.8,0-12.6L119,56C121.4,59.4,121.4,64.1,119,67.5L119,67.5z"/>
	<path class="fill-stroke-color" d="M101.5,67.5c-2.5-3.5-2.5-8.1,0-11.6l-0.8-0.5c-2.7,3.8-2.7,8.8,0,12.6L101.5,67.5z"/>
	<path class="fill-stroke-color" d="M67.9,87.4h2.8L70.4,62c0-0.3-0.1-0.5-0.4-0.7c-0.2-0.2-0.5-0.3-0.8-0.3C68.6,61,68.1,61.4,68,62l-0.3,25.4   L67.9,87.4z"/>
	<path class="fill-stroke-color" d="M71.4,96.9l-0.2-7.7c0.1-0.6-0.3-1.1-0.9-1.1h-2.2c-0.6,0.1-0.9,0.6-0.9,1.1L67,96.9H71.4z"/>
	<path class="fill-stroke-color" d="M74.3,65.1l0.7,0.5c1.6-2.3,1.6-5.3,0-7.6l-0.7,0.5C75.7,60.4,75.7,63.1,74.3,65.1L74.3,65.1z"/>
	<path class="fill-stroke-color" d="M64.1,65.1c-1.4-2-1.4-4.7,0-6.7l-0.7-0.5c-1.6,2.3-1.6,5.3,0,7.6L64.1,65.1z"/>
	<path class="fill-stroke-color" d="M77.9,67.5l0.8,0.5c2.7-3.8,2.7-8.8,0-12.6L77.9,56C80.4,59.4,80.4,64.1,77.9,67.5L77.9,67.5z"/>
	<path class="fill-stroke-color" d="M60.5,67.5c-2.5-3.5-2.5-8.1,0-11.6l-0.8-0.5c-2.7,3.8-2.7,8.8,0,12.6L60.5,67.5z"/>
 </g>
 <circle class="status-circle" cx="138" cy="138.2" r="13.1"/>
 <g class="alert-content">
  <rect class="exclamation" x="39.2" y="25.3" width="10.6" height="33.5"/>
  <path class="triangle" d="m71.4 57.5l-24.5-40c-1.6-2.7-4.3-2.6-5.9 0l-24.5 40c-1.6 2.7-0.4 4.7 2.7 4.7h49.6c3 0 4.2-2.1 2.6-4.7zm-27.5-31.2c1.6 0 2.8 1.7 2.7 3.9l-0.5 12.8c-0.1 2.1-1.1 3.9-2.2 3.9s-2.1-1.7-2.2-3.9l-0.5-12.8c-0.1-2.2 1.1-3.9 2.7-3.9zm0 30.1c-2 0-3.3-1.5-3.3-3.4 0-2 1.4-3.4 3.3-3.4 2 0 3.3 1.4 3.3 3.4s-1.3 3.4-3.3 3.4z"/>
 </g>
</svg>
