<svg enable-background="new 0 0 180.4 180.4" version="1.1" viewBox="0 0 180.4 180.4" xmlns="http://www.w3.org/2000/svg">
    <circle class="selected-circle-outer" cx="90.2" cy="90.2" r="72.2" opacity=".4" stroke-miterlimit="10"
            stroke-width="36"/>
    <path class="rounded-circle"
          d="m121.3 136.4c0-8.2 6.6-14.8 14.8-14.8 0.5 0 0.9 0 1.4 0.1h0.2c0.4 0 0.8 0.1 1.3 0.2h0.1c0.9 0.2 1.8 0.5 2.6 0.8 0.1 0 0.2 0.1 0.3 0.1 0.3 0.1 0.6 0.3 0.8 0.4 0.1 0.1 0.3 0.1 0.4 0.2 0.2 0.1 0.4 0.3 0.7 0.4 0.1 0.1 0.2 0.1 0.3 0.2 6.1-9.7 9.6-21.1 9.6-33.4 0-34.6-28.1-62.7-62.7-62.7s-62.6 28.2-62.6 62.8 28.1 62.7 62.7 62.7c11.9 0 22.9-3.3 32.4-9-1.5-2.3-2.3-5-2.3-8z"/>
    <path class="selected-circle"
          d="m121.3 136.4c0-8.2 6.6-14.8 14.8-14.8 0.5 0 0.9 0 1.4 0.1h0.2c0.4 0 0.8 0.1 1.3 0.2h0.1c0.9 0.2 1.8 0.5 2.6 0.8 0.1 0 0.2 0.1 0.3 0.1 0.3 0.1 0.6 0.3 0.8 0.4 0.1 0.1 0.3 0.1 0.4 0.2 0.2 0.1 0.4 0.3 0.7 0.4 0.1 0.1 0.2 0.1 0.3 0.2 6.1-9.7 9.6-21.1 9.6-33.4 0-34.6-28.1-62.7-62.7-62.7s-62.6 28.2-62.6 62.8 28.1 62.7 62.7 62.7c11.9 0 22.9-3.3 32.4-9-1.5-2.3-2.3-5-2.3-8z"/>
	<g class="icon-content">
	<path class="fill-stroke-color" d="M105.4,68.5l-1.5,1.5c-3.5-3.5-8.4-5.4-13.8-5.4s-10.4,2-13.8,5.4l-1.5-1.5c3.9-3.9,9.3-6.5,15.3-6.5   S101.5,64.6,105.4,68.5z"/>
	<path class="fill-stroke-color" d="M113.4,60.7l-2,2c-5.4-5.4-13.4-8.9-21.8-8.9s-15.8,3.5-21.8,8.9l-1.9-2c5.9-5.9,14.3-9.3,23.3-9.3   C99.1,50.8,107.4,54.7,113.4,60.7z"/>
	<path class="fill-stroke-color" d="M99.1,75.4H81.7c-3.5,0-6.5,3-6.5,6.5v36.9c0,3.5,3,6.5,6.5,6.5h17.3c3.5,0,6.5-3,6.5-6.5v-37  C105.4,78.4,102.4,75.4,99.1,75.4z M85.9,115.1c-1.7,0-2.7-1.4-2.7-2.7c0-1.4,1.4-2.7,2.7-2.7c1.7,0,2.7,1.4,2.7,2.7  C88.6,113.8,87.6,115.1,85.9,115.1z M85.9,106.1c-1.7,0-2.7-1.4-2.7-2.7c0-1.4,1.4-2.7,2.7-2.7c1.7,0,2.7,1.4,2.7,2.7  C88.6,104.8,87.6,106.1,85.9,106.1z M84.4,89c0-3.2,2.6-5.8,5.8-5.8c3.2,0,5.8,2.6,5.8,5.8s-2.6,5.8-5.8,5.8  C87,94.8,84.4,92.2,84.4,89z M94.9,115.1c-1.7,0-2.7-1.4-2.7-2.7c0-1.4,1.4-2.7,2.7-2.7c1.7,0,2.7,1.4,2.7,2.7  C97.5,113.8,96.5,115.1,94.9,115.1z M94.9,106.1c-1.7,0-2.7-1.4-2.7-2.7c0-1.4,1.4-2.7,2.7-2.7c1.7,0,2.7,1.4,2.7,2.7  C97.5,104.8,96.5,106.1,94.9,106.1z"/>
	<circle class="fill-stroke-color" cx="90.2" cy="89.2" r="3.5"/>
	</g>
    <circle class="status-circle" cx="138" cy="138.2" r="13.1"/>
    <g class="alert-content">
        <rect class="exclamation" x="39.2" y="25.3" width="10.6" height="33.5"/>
        <path class="triangle"
              d="m71.4 57.5l-24.5-40c-1.6-2.7-4.3-2.6-5.9 0l-24.5 40c-1.6 2.7-0.4 4.7 2.7 4.7h49.6c3 0 4.2-2.1 2.6-4.7zm-27.5-31.2c1.6 0 2.8 1.7 2.7 3.9l-0.5 12.8c-0.1 2.1-1.1 3.9-2.2 3.9s-2.1-1.7-2.2-3.9l-0.5-12.8c-0.1-2.2 1.1-3.9 2.7-3.9zm0 30.1c-2 0-3.3-1.5-3.3-3.4 0-2 1.4-3.4 3.3-3.4 2 0 3.3 1.4 3.3 3.4s-1.3 3.4-3.3 3.4z"/>
    </g>
</svg>
