<svg enable-background="new 0 0 180.4 180.4" version="1.1" viewBox="0 0 180.4 180.4" xmlns="http://www.w3.org/2000/svg">
    <circle class="selected-circle-outer" cx="90.2" cy="90.2" r="72.2" opacity=".4" stroke-miterlimit="10"
            stroke-width="36"/>
    <path class="rounded-circle"
          d="m121.3 136.4c0-8.2 6.6-14.8 14.8-14.8 0.5 0 0.9 0 1.4 0.1h0.2c0.4 0 0.8 0.1 1.3 0.2h0.1c0.9 0.2 1.8 0.5 2.6 0.8 0.1 0 0.2 0.1 0.3 0.1 0.3 0.1 0.6 0.3 0.8 0.4 0.1 0.1 0.3 0.1 0.4 0.2 0.2 0.1 0.4 0.3 0.7 0.4 0.1 0.1 0.2 0.1 0.3 0.2 6.1-9.7 9.6-21.1 9.6-33.4 0-34.6-28.1-62.7-62.7-62.7s-62.6 28.2-62.6 62.8 28.1 62.7 62.7 62.7c11.9 0 22.9-3.3 32.4-9-1.5-2.3-2.3-5-2.3-8z"/>
    <path class="selected-circle"
          d="m121.3 136.4c0-8.2 6.6-14.8 14.8-14.8 0.5 0 0.9 0 1.4 0.1h0.2c0.4 0 0.8 0.1 1.3 0.2h0.1c0.9 0.2 1.8 0.5 2.6 0.8 0.1 0 0.2 0.1 0.3 0.1 0.3 0.1 0.6 0.3 0.8 0.4 0.1 0.1 0.3 0.1 0.4 0.2 0.2 0.1 0.4 0.3 0.7 0.4 0.1 0.1 0.2 0.1 0.3 0.2 6.1-9.7 9.6-21.1 9.6-33.4 0-34.6-28.1-62.7-62.7-62.7s-62.6 28.2-62.6 62.8 28.1 62.7 62.7 62.7c11.9 0 22.9-3.3 32.4-9-1.5-2.3-2.3-5-2.3-8z"/>
    <g class="icon-content">
        <path class="fill-stroke-color" d="m91.1 75.8v24.3c0 8.5-6.3 15.9-14.7 16.7-8.9 0.8-16.6-5.6-17.7-14 0-0.1-2.7-17.1-2.7-17.1-0.3-1.6 0.9-3.1 2.5-3.4s3.1 0.9 3.4 2.5l1.2 7.8c0.1 0.6 0.6 1 1.2 1 0.7 0 1.2-0.5 1.2-1.2v-22.4c0-1.2 0.7-2.2 1.9-2.5 1.6-0.4 3.1 0.8 3.1 2.4v18.3c0 0.5 0.4 1 1 1 0.5 0 1-0.4 1-1v-22.1c0-1.2 0.7-2.2 1.9-2.5 1.6-0.4 3.1 0.8 3.1 2.4v21.3c0 0.5 0.4 1 1 1 0.5 0 1-0.4 1-1v-16.9c0-1.2 0.7-2.2 1.9-2.5 1.6-0.4 3.1 0.8 3.1 2.4v18.9c0 0.5 0.4 1 1 1 0.5 0 1-0.4 1-1v-13.2c0-1.2 0.7-2.2 1.9-2.5 1.3-0.4 2.7 0.8 2.7 2.3z"/>
        <path class="fill-stroke-color" d="m99.7 77.9c-1-1-2.5-1-3.5 0s-1 2.5 0 3.5c4.8 4.8 4.8 12.7 0 17.5-1 1-1 2.5 0 3.5s2.5 1 3.5 0c6.7-6.7 6.7-17.7 0-24.5z"/>
        <path class="fill-stroke-color" d="m106.6 71c-1-1-2.5-1-3.5 0s-1 2.5 0 3.5c8.7 8.7 8.7 22.8 0 31.5-1 1-1 2.5 0 3.5s2.5 1 3.5 0c10.6-10.7 10.6-27.9 0-38.5z"/>
        <path class="fill-stroke-color" d="m113.6 64c-1-1-2.5-1-3.5 0s-1 2.5 0 3.5c12.5 12.5 12.5 32.9 0 45.4-1 1-1 2.5 0 3.5s2.5 1 3.5 0c14.5-14.5 14.5-38 0-52.4z"/>
    </g>
    <circle class="status-circle" cx="138" cy="138.2" r="13.1"/>
    <g class="alert-content">
        <rect class="exclamation" x="39.2" y="25.3" width="10.6" height="33.5"/>
        <path class="triangle"
              d="m71.4 57.5l-24.5-40c-1.6-2.7-4.3-2.6-5.9 0l-24.5 40c-1.6 2.7-0.4 4.7 2.7 4.7h49.6c3 0 4.2-2.1 2.6-4.7zm-27.5-31.2c1.6 0 2.8 1.7 2.7 3.9l-0.5 12.8c-0.1 2.1-1.1 3.9-2.2 3.9s-2.1-1.7-2.2-3.9l-0.5-12.8c-0.1-2.2 1.1-3.9 2.7-3.9zm0 30.1c-2 0-3.3-1.5-3.3-3.4 0-2 1.4-3.4 3.3-3.4 2 0 3.3 1.4 3.3 3.4s-1.3 3.4-3.3 3.4z"/>
    </g>
</svg>