<svg enable-background="new 0 0 165 165" version="1.1" viewBox="0 0 165 165" xmlns="http://www.w3.org/2000/svg">
 <g id="Layer_1_copy">
  <circle cx="82.7" cy="82.5" r="62.7" fill="#E459DF" opacity=".4" stroke="#fff" stroke-miterlimit="10" stroke-width="36"/>
  <g fill="#fff">
   <path d="m83.8 65.5v28.9c0 10.1-7.5 18.9-17.5 19.8-10.6 1-19.7-6.6-21.1-16.7 0-0.2-3.2-20.3-3.2-20.3-0.3-1.9 1-3.7 2.9-4s3.7 1 4 2.9l1.5 9.3c0.1 0.7 0.7 1.2 1.4 1.2 0.8 0 1.4-0.6 1.4-1.4v-26.6c0-1.4 0.9-2.7 2.2-3 1.9-0.5 3.7 1 3.7 2.8v21.7c0 0.6 0.5 1.2 1.2 1.2 0.6 0 1.2-0.5 1.2-1.2v-26.2c0-1.4 0.9-2.7 2.2-3 1.9-0.5 3.7 1 3.7 2.8v25.3c0 0.6 0.5 1.2 1.2 1.2 0.6 0 1.2-0.5 1.2-1.2v-20c0-1.4 0.9-2.7 2.2-3 1.9-0.5 3.7 1 3.7 2.8v22.5c0 0.6 0.5 1.2 1.2 1.2 0.6 0 1.2-0.5 1.2-1.2v-15.7c0-1.4 0.9-2.7 2.2-3 1.8-0.4 3.5 1 3.5 2.9z"/>
   <path d="m93.9 68c-1.1-1.1-3-1.1-4.2 0-1.1 1.1-1.1 3 0 4.2 5.7 5.7 5.7 15 0 20.8-1.1 1.1-1.1 3 0 4.2 1.1 1.1 3 1.1 4.2 0 8-8.2 8-21.2 0-29.2z"/>
   <path d="m102.2 59.7c-1.1-1.1-3-1.1-4.2 0s-1.1 3 0 4.2c10.3 10.3 10.3 27.1 0 37.4-1.1 1.1-1.1 3 0 4.2s3 1.1 4.2 0c12.6-12.8 12.6-33.2 0-45.8z"/>
   <path d="m110.5 51.4c-1.1-1.1-3-1.1-4.2 0s-1.1 3 0 4.2c14.9 14.9 14.9 39.1 0 54-1.1 1.1-1.1 3 0 4.2s3 1.1 4.2 0c17.2-17.3 17.2-45.3 0-62.4z"/>
  </g>
 </g>
 <circle cx="82.7" cy="82.5" r="62.7" fill="#BE67A9" stroke="#EF9BEC" stroke-miterlimit="10" stroke-width="8"/>
 <g fill="#fff">
  <path d="m83.6 68.2v24.3c0 8.5-6.3 15.9-14.7 16.7-8.9 0.8-16.6-5.6-17.7-14 0-0.1-2.7-17.1-2.7-17.1-0.3-1.6 0.9-3.1 2.5-3.4s3.1 0.9 3.4 2.5l1.2 7.8c0.1 0.6 0.6 1 1.2 1 0.7 0 1.2-0.5 1.2-1.2v-22.4c0-1.2 0.7-2.2 1.9-2.5 1.6-0.4 3.1 0.8 3.1 2.4v18.3c0 0.5 0.4 1 1 1 0.5 0 1-0.4 1-1v-22.2c0-1.2 0.7-2.2 1.9-2.5 1.6-0.4 3.1 0.8 3.1 2.4v21.3c0 0.5 0.4 1 1 1 0.5 0 1-0.4 1-1v-16.9c0-1.2 0.7-2.2 1.9-2.5 1.6-0.4 3.1 0.8 3.1 2.4v18.9c0 0.5 0.4 1 1 1 0.5 0 1-0.4 1-1v-13.2c0-1.2 0.7-2.2 1.9-2.5 1.2-0.4 2.7 0.8 2.7 2.4z"/>
  <path d="m92.1 70.3c-1-1-2.5-1-3.5 0s-1 2.5 0 3.5c4.8 4.8 4.8 12.7 0 17.5-1 1-1 2.5 0 3.5s2.5 1 3.5 0c6.8-6.8 6.8-17.8 0-24.5z"/>
  <path d="m99.1 63.3c-1-1-2.5-1-3.5 0s-1 2.5 0 3.5c8.7 8.7 8.7 22.8 0 31.5-1 1-1 2.5 0 3.5s2.5 1 3.5 0c10.6-10.7 10.6-27.9 0-38.5z"/>
  <path d="m106.1 56.3c-1-1-2.5-1-3.5 0s-1 2.5 0 3.5c12.5 12.5 12.5 32.9 0 45.4-1 1-1 2.5 0 3.5s2.5 1 3.5 0c14.5-14.4 14.5-38 0-52.4z"/>
 </g>
</svg>
