<svg enable-background="new 0 0 180.4 180.4" version="1.1" viewBox="0 0 180.4 180.4" xmlns="http://www.w3.org/2000/svg">
    <circle class="selected-circle-outer" cx="90.2" cy="90.2" r="72.2" opacity=".4" stroke-miterlimit="10"
            stroke-width="36"/>
    <path class="rounded-circle"
          d="m121.3 136.4c0-8.2 6.6-14.8 14.8-14.8 0.5 0 0.9 0 1.4 0.1h0.2c0.4 0 0.8 0.1 1.3 0.2h0.1c0.9 0.2 1.8 0.5 2.6 0.8 0.1 0 0.2 0.1 0.3 0.1 0.3 0.1 0.6 0.3 0.8 0.4 0.1 0.1 0.3 0.1 0.4 0.2 0.2 0.1 0.4 0.3 0.7 0.4 0.1 0.1 0.2 0.1 0.3 0.2 6.1-9.7 9.6-21.1 9.6-33.4 0-34.6-28.1-62.7-62.7-62.7s-62.6 28.2-62.6 62.8 28.1 62.7 62.7 62.7c11.9 0 22.9-3.3 32.4-9-1.5-2.3-2.3-5-2.3-8z"/>
    <path class="selected-circle"
          d="m121.3 136.4c0-8.2 6.6-14.8 14.8-14.8 0.5 0 0.9 0 1.4 0.1h0.2c0.4 0 0.8 0.1 1.3 0.2h0.1c0.9 0.2 1.8 0.5 2.6 0.8 0.1 0 0.2 0.1 0.3 0.1 0.3 0.1 0.6 0.3 0.8 0.4 0.1 0.1 0.3 0.1 0.4 0.2 0.2 0.1 0.4 0.3 0.7 0.4 0.1 0.1 0.2 0.1 0.3 0.2 6.1-9.7 9.6-21.1 9.6-33.4 0-34.6-28.1-62.7-62.7-62.7s-62.6 28.2-62.6 62.8 28.1 62.7 62.7 62.7c11.9 0 22.9-3.3 32.4-9-1.5-2.3-2.3-5-2.3-8z"/>
	<g class="icon-content">
		<path class="fill-stroke-color" d="M101.5,79.8l-1.1,1.1c-2.6-2.6-6.2-4-10.2-4s-7.7,1.5-10.2,4l-1.1-1.1c2.9-2.9,6.9-4.8,11.3-4.8
		S98.6,76.9,101.5,79.8z"/>
	<path class="fill-stroke-color" d="M107.4,74l-1.5,1.5c-4-4-9.9-6.6-16.1-6.6s-11.7,2.6-16.1,6.6L72.3,74c4.4-4.4,10.6-6.9,17.2-6.9
		C96.8,66.7,103,69.6,107.4,74z"/>
	<path class="fill-stroke-color" d="M113.2,68.1l-1.5,1.5c-5.5-5.5-13.2-8.8-21.6-8.8s-16.1,3.3-21.6,8.8l-1.5-1.5c5.8-5.8,13.9-9.5,23-9.5
		S107.4,62.3,113.2,68.1z"/>
	<path class="fill-stroke-color" d="M96.8,84.9H84c-2.6,0-4.8,2.2-4.8,4.8V117c0,2.6,2.2,4.8,4.8,4.8h12.8c2.6,0,4.8-2.2,4.8-4.8V89.6
		C101.5,87.1,99.3,84.9,96.8,84.9z M90.2,95.8c-1.8,0-2.9-1.5-2.9-2.9c0-1.5,1.5-2.9,2.9-2.9c1.8,0,2.9,1.5,2.9,2.9
		C93.1,94.4,92,95.8,90.2,95.8z"/>
	</g>
    <circle class="status-circle" cx="138" cy="138.2" r="13.1"/>
    <g class="alert-content">
        <rect class="exclamation" x="39.2" y="25.3" width="10.6" height="33.5"/>
        <path class="triangle"
              d="m71.4 57.5l-24.5-40c-1.6-2.7-4.3-2.6-5.9 0l-24.5 40c-1.6 2.7-0.4 4.7 2.7 4.7h49.6c3 0 4.2-2.1 2.6-4.7zm-27.5-31.2c1.6 0 2.8 1.7 2.7 3.9l-0.5 12.8c-0.1 2.1-1.1 3.9-2.2 3.9s-2.1-1.7-2.2-3.9l-0.5-12.8c-0.1-2.2 1.1-3.9 2.7-3.9zm0 30.1c-2 0-3.3-1.5-3.3-3.4 0-2 1.4-3.4 3.3-3.4 2 0 3.3 1.4 3.3 3.4s-1.3 3.4-3.3 3.4z"/>
    </g>
</svg>
