<svg enable-background="new 0 0 180.4 180.4" version="1.1" viewBox="0 0 180.4 180.4" xmlns="http://www.w3.org/2000/svg">
 <circle class="selected-circle-outer" cx="90.2" cy="90.2" r="72.2" opacity=".4" stroke-miterlimit="10"
            stroke-width="36"/>
    <path class="rounded-circle"
          d="m121.3 136.4c0-8.2 6.6-14.8 14.8-14.8 0.5 0 0.9 0 1.4 0.1h0.2c0.4 0 0.8 0.1 1.3 0.2h0.1c0.9 0.2 1.8 0.5 2.6 0.8 0.1 0 0.2 0.1 0.3 0.1 0.3 0.1 0.6 0.3 0.8 0.4 0.1 0.1 0.3 0.1 0.4 0.2 0.2 0.1 0.4 0.3 0.7 0.4 0.1 0.1 0.2 0.1 0.3 0.2 6.1-9.7 9.6-21.1 9.6-33.4 0-34.6-28.1-62.7-62.7-62.7s-62.6 28.2-62.6 62.8 28.1 62.7 62.7 62.7c11.9 0 22.9-3.3 32.4-9-1.5-2.3-2.3-5-2.3-8z"/>
<path class="selected-circle" d="m121.3 136.4c0-8.2 6.6-14.8 14.8-14.8 0.5 0 0.9 0 1.4 0.1h0.2c0.4 0 0.8 0.1 1.3 0.2h0.1c0.9 0.2 1.8 0.5 2.6 0.8 0.1 0 0.2 0.1 0.3 0.1 0.3 0.1 0.6 0.3 0.8 0.4 0.1 0.1 0.3 0.1 0.4 0.2 0.2 0.1 0.4 0.3 0.7 0.4 0.1 0.1 0.2 0.1 0.3 0.2 6.1-9.7 9.6-21.1 9.6-33.4 0-34.6-28.1-62.7-62.7-62.7s-62.6 28.2-62.6 62.8 28.1 62.7 62.7 62.7c11.9 0 22.9-3.3 32.4-9-1.5-2.3-2.3-5-2.3-8z"/>    
    <g class="icon-content">
		<g>
		<circle class="fill-stroke-color" cx="55.8" cy="87.7" r="0.9"/>
		<circle class="fill-stroke-color" cx="61.3" cy="87.9" r="0.9"/>
		<path class="fill-stroke-color" d="M50.3,63.6v27.3c0,6.6,3.2,12.4,9.9,12.4h62.2c6.5,0,9.9-5.6,9.9-12.4V63.6C132.4,63.6,50.3,63.6,50.3,63.6z     M61.3,85.9c1.1,0,1.9,0.9,1.9,1.9c0,1.1-0.9,1.9-1.9,1.9c-1.1,0-1.9-0.9-1.9-1.9C59.4,86.8,60.2,85.9,61.3,85.9z M55.8,85.8    c1.1,0,1.9,0.9,1.9,1.9c0,1.1-0.9,1.9-1.9,1.9c-1.1,0-1.9-0.9-1.9-1.9C53.9,86.7,54.7,85.8,55.8,85.8z M122.5,101H60.2    c-4,0-7.4-3.4-7.8-7.8h77.9h0C129.9,97.6,126.5,101,122.5,101z"/>
		<rect x="62.1" y="94.3" class="fill-stroke-color" width="58.5" height="5.5"/>
	</g>
	<path class="fill-stroke-color" d="M71.2,106.1c-0.5-0.4-1.2-0.4-1.6,0.2c-0.4,0.5-0.4,1.2,0.2,1.6c0.6,0.5,1,1.2,1,1.9s-0.4,1.4-1,1.9   c-1.2,0.9-1.8,2.3-1.8,3.7s0.6,2.7,1.8,3.7c0.2,0.2,0.5,0.2,0.7,0.2c0.4,0,0.6-0.1,0.9-0.4c0.4-0.5,0.4-1.2-0.2-1.6   c-0.6-0.5-1-1.2-1-1.9c0-0.7,0.4-1.4,1-1.9c1.2-0.9,1.8-2.3,1.8-3.7S72.4,107.1,71.2,106.1z"/>
	<path class="fill-stroke-color" d="M92.4,106.1c-0.5-0.4-1.2-0.4-1.6,0.2c-0.4,0.5-0.4,1.2,0.2,1.6c0.6,0.5,1,1.2,1,1.9s-0.4,1.4-1,1.9   c-1.2,0.9-1.8,2.3-1.8,3.7s0.6,2.7,1.8,3.7c0.2,0.2,0.5,0.2,0.7,0.2c0.4,0,0.6-0.1,0.9-0.4c0.4-0.5,0.4-1.2-0.2-1.6   c-0.6-0.5-1-1.2-1-1.9c0-0.7,0.4-1.4,1-1.9c1.2-0.9,1.8-2.3,1.8-3.7C94.3,108.4,93.6,107.1,92.4,106.1z"/>
	<path class="fill-stroke-color" d="M113.6,106.1c-0.5-0.4-1.2-0.4-1.6,0.2c-0.4,0.5-0.4,1.2,0.2,1.6c0.6,0.5,1,1.2,1,1.9s-0.4,1.4-1,1.9   c-1.2,0.9-1.8,2.3-1.8,3.7s0.6,2.7,1.8,3.7c0.2,0.2,0.5,0.2,0.7,0.2c0.4,0,0.6-0.1,0.9-0.4c0.4-0.5,0.4-1.2-0.2-1.6   c-0.6-0.5-1-1.2-1-1.9c0-0.7,0.4-1.4,1-1.9c1.2-0.9,1.8-2.3,1.8-3.7S114.8,107.1,113.6,106.1z"/>
    </g>
    <circle class="status-circle" cx="138" cy="138.2" r="13.1"/>
    <g class="alert-content">
        <rect class="exclamation" x="39.2" y="25.3" width="10.6" height="33.5"/>
        <path class="triangle"
              d="m71.4 57.5l-24.5-40c-1.6-2.7-4.3-2.6-5.9 0l-24.5 40c-1.6 2.7-0.4 4.7 2.7 4.7h49.6c3 0 4.2-2.1 2.6-4.7zm-27.5-31.2c1.6 0 2.8 1.7 2.7 3.9l-0.5 12.8c-0.1 2.1-1.1 3.9-2.2 3.9s-2.1-1.7-2.2-3.9l-0.5-12.8c-0.1-2.2 1.1-3.9 2.7-3.9zm0 30.1c-2 0-3.3-1.5-3.3-3.4 0-2 1.4-3.4 3.3-3.4 2 0 3.3 1.4 3.3 3.4s-1.3 3.4-3.3 3.4z"/>
    </g>
</svg>
