<svg enable-background="new 0 0 180.4 180.4" version="1.1" viewBox="0 0 180.4 180.4" xmlns="http://www.w3.org/2000/svg">
 <circle class="selected-circle-outer" cx="90.2" cy="90.2" r="72.2" opacity=".4" stroke-miterlimit="10"
            stroke-width="36"/>
    <path class="rounded-circle"
          d="m121.3 136.4c0-8.2 6.6-14.8 14.8-14.8 0.5 0 0.9 0 1.4 0.1h0.2c0.4 0 0.8 0.1 1.3 0.2h0.1c0.9 0.2 1.8 0.5 2.6 0.8 0.1 0 0.2 0.1 0.3 0.1 0.3 0.1 0.6 0.3 0.8 0.4 0.1 0.1 0.3 0.1 0.4 0.2 0.2 0.1 0.4 0.3 0.7 0.4 0.1 0.1 0.2 0.1 0.3 0.2 6.1-9.7 9.6-21.1 9.6-33.4 0-34.6-28.1-62.7-62.7-62.7s-62.6 28.2-62.6 62.8 28.1 62.7 62.7 62.7c11.9 0 22.9-3.3 32.4-9-1.5-2.3-2.3-5-2.3-8z"/>
<path class="selected-circle" d="m121.3 136.4c0-8.2 6.6-14.8 14.8-14.8 0.5 0 0.9 0 1.4 0.1h0.2c0.4 0 0.8 0.1 1.3 0.2h0.1c0.9 0.2 1.8 0.5 2.6 0.8 0.1 0 0.2 0.1 0.3 0.1 0.3 0.1 0.6 0.3 0.8 0.4 0.1 0.1 0.3 0.1 0.4 0.2 0.2 0.1 0.4 0.3 0.7 0.4 0.1 0.1 0.2 0.1 0.3 0.2 6.1-9.7 9.6-21.1 9.6-33.4 0-34.6-28.1-62.7-62.7-62.7s-62.6 28.2-62.6 62.8 28.1 62.7 62.7 62.7c11.9 0 22.9-3.3 32.4-9-1.5-2.3-2.3-5-2.3-8z"/>    
    <g class="icon-content">
		<path class="fill-stroke-color" d="M127.6,106.8c0-0.7-0.5-1.2-1.2-1.2c-0.7,0-1.2,0.5-1.2,1.2l0,0H127.6z"/>
		<path class="fill-stroke-color" d="M128.2,60.6H55.9c-1,0-1.8,0.8-1.8,1.8v44.4l0,0c0,0,0,0.1,0,0.1c0.1,0.9,0.8,1.7,1.8,1.6H87v3.7   c-2.4,0.1-4.5,0.3-6.4,0.5c-4.6,0.6-5.2,1.4-5.2,2.1s0.6,1.5,5.2,2.1c3.8,0.4,7.6,0.6,11.4,0.6c3.8,0,7.6-0.2,11.4-0.6   c4.6-0.6,5.2-1.4,5.2-2.1c0-0.7-0.6-1.5-5.2-2.1c-1.8-0.2-4-0.4-6.4-0.5v-3.7h31.1c0.9,0,1.7-0.7,1.8-1.6c0,0,0-0.1,0-0.1l0,0V62.4   C130,61.4,129.2,60.6,128.2,60.6z M107.3,114.9c-1.2,0.7-6.8,1.5-15.3,1.5s-14-0.8-15.3-1.5c0.9-0.5,4.6-1.1,10.2-1.4v1.7   c0,0.3,0.3,0.6,0.6,0.6h8.9c0.3,0,0.6-0.3,0.6-0.6v-1.7C102.7,113.7,106.4,114.3,107.3,114.9z M91.5,112.8v-4.2h1.2v4.2   c0,0.3-0.3,0.6-0.6,0.6C91.7,113.4,91.5,113.1,91.5,112.8L91.5,112.8z M128.8,106.8c0,0.1,0,0.1,0,0.2c0,0,0,0,0,0   c0,0.1-0.1,0.1-0.1,0.1c0,0,0,0,0,0c-0.1,0.1-0.3,0.2-0.4,0.2H55.9c-0.2,0-0.3-0.1-0.4-0.2c0,0,0,0,0,0c0,0-0.1-0.1-0.1-0.1   c0,0,0,0,0,0c0-0.1,0-0.1,0-0.2V105h73.5V106.8z"/>
    </g>
    <circle class="status-circle" cx="138" cy="138.2" r="13.1"/>
    <g class="alert-content">
        <rect class="exclamation" x="39.2" y="25.3" width="10.6" height="33.5"/>
        <path class="triangle"
              d="m71.4 57.5l-24.5-40c-1.6-2.7-4.3-2.6-5.9 0l-24.5 40c-1.6 2.7-0.4 4.7 2.7 4.7h49.6c3 0 4.2-2.1 2.6-4.7zm-27.5-31.2c1.6 0 2.8 1.7 2.7 3.9l-0.5 12.8c-0.1 2.1-1.1 3.9-2.2 3.9s-2.1-1.7-2.2-3.9l-0.5-12.8c-0.1-2.2 1.1-3.9 2.7-3.9zm0 30.1c-2 0-3.3-1.5-3.3-3.4 0-2 1.4-3.4 3.3-3.4 2 0 3.3 1.4 3.3 3.4s-1.3 3.4-3.3 3.4z"/>
    </g>
</svg>
