<svg enable-background="new 0 0 104 134.5" version="1.1" viewBox="0 0 104 134.5" xmlns="http://www.w3.org/2000/svg">
 <g class="store-select" fill="none" stroke="#fff" stroke-miterlimit="10">
  <path d="M52,108C29.3,83.4,18,64.8,18,52.2C18,33.3,33.2,18,52,18s34,15.3,34,34.2C86,64.8,74.7,83.4,52,108z" opacity=".5" stroke-width="36"/>
  <path d="M52,108C29.3,83.4,18,64.8,18,52.2C18,33.3,33.2,18,52,18s34,15.3,34,34.2C86,64.8,74.7,83.4,52,108z" stroke-width="8"/>
 </g>
 <path class="store-status" d="M52,108C29.3,83.4,18,64.8,18,52.2C18,33.3,33.2,18,52,18s34,15.3,34,34.2C86,64.8,74.7,83.4,52,108z"/>
 <g class="store-icon" fill="#fff">
  <path d="m39.2 40h26.4c0.4 0 0.8-0.3 0.8-0.8v-2.1c0-0.4-0.3-0.8-0.8-0.8h-26.4c-0.4 0-0.8 0.3-0.8 0.8v2.1c0 0.4 0.4 0.8 0.8 0.8z"/>
  <path d="m68.5 49.7l-2.2-6v-1.7c0-0.4-0.3-0.8-0.8-0.8h-26.3c-0.4 0-0.8 0.3-0.8 0.8v1.9l-2.1 5.9c-0.2 0.6 0.2 1.3 0.9 1.5 0.5 0.2 1.1 0.1 1.4-0.3v16.1c0 0.4 0.3 0.8 0.8 0.8h16.8v-12.8h6.3v12.8h3.1c0.4 0 0.8-0.3 0.8-0.8v-16c0.3 0.3 0.8 0.3 1.3 0.2 0.6-0.3 1-1 0.8-1.6zm-23.8 0.6l0.1-0.5 0.7-4.8h3.2l-0.7 4.8-0.1 0.5c-0.1 0.9-1 1.6-1.9 1.6s-1.4-0.7-1.3-1.6zm-4.5 1.7c-0.9 0-1.5-0.7-1.3-1.6l0.1-0.5 1-4.8h3.2l-1 4.8-0.1 0.5c-0.1 0.8-1 1.6-1.9 1.6zm12.2 11.7h-10.4v-8.6h10.4v8.6zm1.6-13.9v0.5c0 0.9-0.7 1.6-1.6 1.6s-1.6-0.7-1.6-1.6v-5.3h3.2v4.8zm4.7 2.2c-0.9 0-1.7-0.7-1.9-1.6l-0.1-0.5-0.6-4.9h3.2l0.7 4.8 0.1 0.5c0.1 0.9-0.5 1.7-1.4 1.7zm5.8 0c-0.9 0-1.8-0.7-2-1.6l-0.1-0.5-1-4.8h3.2l1 4.8 0.1 0.5c0.2 0.8-0.4 1.6-1.2 1.6z"/>
 </g>
</svg>
