
<svg version="1.1" xmlns="http://www.w3.org/2000/svg" xmlns:xlink="http://www.w3.org/1999/xlink" x="0px" y="0px"
	 viewBox="0 0 180.4 180.4" style="enable-background:new 0 0 180.4 180.4;">
<g>
	<circle class="selected-circle-outer" cx="90.2" cy="90.2" r="72.2" opacity=".4" stroke-miterlimit="10" stroke-width="36"/>
</g>
<path fill="#FF5122" d="M121.9,136.4c0-8.2,6.6-14.8,14.8-14.8l0,0l0,0c0.5,0,0.9,0,1.4,0.1c0.1,0,0.1,0,0.2,0c0.4,0,0.8,0.1,1.3,0.2
	h0.1c0.9,0.2,1.8,0.5,2.6,0.8c0.1,0,0.2,0.1,0.3,0.1c0.3,0.1,0.6,0.3,0.8,0.4c0.1,0.1,0.3,0.1,0.4,0.2c0.2,0.1,0.4,0.3,0.7,0.4
	c0.1,0.1,0.2,0.1,0.3,0.2c6.1-9.7,9.6-21.1,9.6-33.4c0-34.6-28.1-62.7-62.7-62.7S29.1,56.1,29.1,90.7s28.1,62.7,62.7,62.7
	c11.9,0,22.9-3.3,32.4-9C122.7,142.1,121.9,139.4,121.9,136.4z"/>
<path class="rounded-circle" d="M121.3,136.4c0-8.2,6.6-14.8,14.8-14.8l0,0l0,0c0.5,0,0.9,0,1.4,0.1c0.1,0,0.1,0,0.2,0c0.4,0,0.8,0.1,1.3,0.2
	h0.1c0.9,0.2,1.8,0.5,2.6,0.8c0.1,0,0.2,0.1,0.3,0.1c0.3,0.1,0.6,0.3,0.8,0.4c0.1,0.1,0.3,0.1,0.4,0.2c0.2,0.1,0.4,0.3,0.7,0.4
	c0.1,0.1,0.2,0.1,0.3,0.2c6.1-9.7,9.6-21.1,9.6-33.4c0-34.6-28.1-62.7-62.7-62.7S28.5,56.1,28.5,90.7s28.1,62.7,62.7,62.7
	c11.9,0,22.9-3.3,32.4-9C122.1,142.1,121.3,139.4,121.3,136.4z"/>
<circle class="status-circle" cx="138" cy="138.2" r="13.1"/>
<rect x="39.2" y="25.3" class="fill-stroke-color" width="10.6" height="33.5"/>
<g>
	<path fill="#D72638" d="M71.4,57.5l-24.5-40c-1.6-2.7-4.3-2.6-5.9,0l-24.5,40c-1.6,2.7-0.4,4.7,2.7,4.7h49.6
		C71.8,62.2,73,60.1,71.4,57.5z M43.9,26.3c1.6,0,2.8,1.7,2.7,3.9L46.1,43c-0.1,2.1-1.1,3.9-2.2,3.9c-1.1,0-2.1-1.7-2.2-3.9
		l-0.5-12.8C41.1,28,42.3,26.3,43.9,26.3z M43.9,56.4c-2,0-3.3-1.5-3.3-3.4c0-2,1.4-3.4,3.3-3.4c2,0,3.3,1.4,3.3,3.4
		S45.9,56.4,43.9,56.4z"/>
</g>
<g>
	<circle class="selected-circle-outer" cx="-1254.4" cy="145.3" r="72.2"/>
</g>
<path fill="#FF5122" d="M-1446.3,190.5c0-8.2,6.6-14.8,14.8-14.8l0,0l0,0c0.5,0,0.9,0,1.4,0.1c0.1,0,0.1,0,0.2,0c0.4,0,0.8,0.1,1.3,0.2
	h0.1c0.9,0.2,1.8,0.5,2.6,0.8c0.1,0,0.2,0.1,0.3,0.1c0.3,0.1,0.6,0.3,0.8,0.4c0.1,0.1,0.3,0.1,0.4,0.2c0.2,0.1,0.4,0.3,0.7,0.4
	c0.1,0.1,0.2,0.1,0.3,0.2c6.1-9.7,9.6-21.1,9.6-33.4c0-34.6-28.1-62.7-62.7-62.7c-34.6,0-62.6,28.2-62.6,62.8s28.1,62.7,62.7,62.7
	c11.9,0,22.9-3.3,32.4-9C-1445.5,196.2-1446.3,193.5-1446.3,190.5z"/>
<path fill="none" stroke="#FFFFFF" stroke-miterlimit="10" stroke-width="8.5" d="M-1223.3,191.5c0-8.2,6.6-14.8,14.8-14.8l0,0l0,0c0.5,0,0.9,0,1.4,0.1c0.1,0,0.1,0,0.2,0c0.4,0,0.8,0.1,1.3,0.2
	h0.1c0.9,0.2,1.8,0.5,2.6,0.8c0.1,0,0.2,0.1,0.3,0.1c0.3,0.1,0.6,0.3,0.8,0.4c0.1,0.1,0.3,0.1,0.4,0.2c0.2,0.1,0.4,0.3,0.7,0.4
	c0.1,0.1,0.2,0.1,0.3,0.2c6.1-9.7,9.6-21.1,9.6-33.4c0-34.6-28.1-62.7-62.7-62.7c-34.6,0-62.6,28.2-62.6,62.8s28.1,62.7,62.7,62.7
	c11.9,0,22.9-3.3,32.4-9C-1222.5,197.2-1223.3,194.5-1223.3,191.5z"/>
<circle fill="#7ACD1F" cx="-1206.6" cy="193.3" r="13.1"/>
<path fill="none" stroke="#FFFFFF" stroke-miterlimit="10" stroke-width="0.25" d="M-1257.2,138"/>
<path class="fill-stroke-color" d="M-1269.2,149.4c0,12.3,6.8,15.8,15.2,15.8s15.2-3.4,15.2-15.8c0-12.3-15.2-28.7-15.2-28.7
	S-1269.2,137-1269.2,149.4z"/>
<path class="fill-stroke-color" d="M-1231.1,158.1l-1.5-1.5c3.3-3.3,4.9-7.8,4.9-12.7s-1.8-9.6-4.9-12.7l1.5-1.5c3.6,3.6,6,8.5,6,14.2
	S-1227.6,154.5-1231.1,158.1z"/>
<path class="fill-stroke-color" d="M-1224,165.4l-1.8-1.8c4.9-4.9,8.2-12.4,8.2-20.2s-3.3-14.5-8.2-20.2l1.8-1.8c5.5,5.5,8.5,13.3,8.5,21.5
	C-1214.9,152.3-1218.3,160-1224,165.4z"/>
<path class="fill-stroke-color" d="M-1276.9,128.7l1.5,1.5c-3.3,3.3-4.9,7.8-4.9,12.7s1.8,9.6,4.9,12.7l-1.5,1.5c-3.6-3.6-6-8.5-6-14.2
	C-1282.9,137.2-1280.4,132.3-1276.9,128.7z"/>
<path class="fill-stroke-color" d="M-1284,121.4l1.8,1.8c-4.9,4.9-8.2,12.4-8.2,20.2c0,7.8,3.3,14.5,8.2,20.2l-1.8,1.8c-5.5-5.5-8.5-13.3-8.5-21.5
	C-1293.1,134.5-1289.7,126.9-1284,121.4z"/>
<path fill="none" stroke="#FFFFFF" stroke-miterlimit="10" stroke-width="0.25" d="M88.1,83.5"/>
<path class="fill-stroke-color" d="M76.1,95c0,12.3,6.8,15.8,15.2,15.8s15.2-3.4,15.2-15.8c0-12.3-15.2-28.7-15.2-28.7S76.1,82.5,76.1,95z"/>
<path class="fill-stroke-color" d="M114.3,103.7l-1.5-1.5c3.3-3.3,4.9-7.8,4.9-12.7s-1.8-9.6-4.9-12.7l1.5-1.5c3.6,3.6,6,8.5,6,14.2
	S117.7,100.1,114.3,103.7z"/>
<path class="fill-stroke-color" d="M121.4,111l-1.8-1.8c4.9-4.9,8.2-12.4,8.2-20.2s-3.3-14.5-8.2-20.2l1.8-1.8c5.5,5.5,8.5,13.3,8.5,21.5
	C130.4,97.9,127,105.5,121.4,111z"/>
<path class="fill-stroke-color" d="M68.4,74.2l1.5,1.5c-3.3,3.3-4.9,7.8-4.9,12.7s1.8,9.6,4.9,12.7l-1.5,1.5c-3.6-3.6-6-8.5-6-14.2
	C62.4,82.8,64.9,77.9,68.4,74.2z"/>
<path class="fill-stroke-color" d="M61.3,67l1.8,1.8c-4.9,4.9-8.2,12.4-8.2,20.2c0,7.8,3.3,14.5,8.2,20.2l-1.8,1.8c-5.5-5.5-8.5-13.3-8.5-21.5
	C52.2,80.1,55.7,72.4,61.3,67z"/>
</svg>
