<svg enable-background="new 0 0 646.3 646.3" version="1.1" viewBox="0 0 646.3 646.3" xmlns="http://www.w3.org/2000/svg" class="cctv-marker-svg">
 <g class="direction-wrapper">
   <linearGradient id="SVGID_1_" x1="483.31" x2="323.02" y1="483.46" y2="323.17" gradientUnits="userSpaceOnUse">
   <stop stop-color="#00BFF2" stop-opacity="0" offset="0"/>
   <stop stop-color="#00BFF2" stop-opacity=".8" offset="1"/>
   </linearGradient>
   <polygon class="direction" points="642.9 322.9 323.2 323 323.2 643.5" fill="url(#SVGID_1_)"/>
 </g>
 <circle class="selected-circle-outer" cx="326.2" cy="327.7" r="72.2" opacity=".4" stroke-miterlimit="10" stroke-width="36"/>
 <path class="rounded-circle" d="m357.3 373.9c0-8.2 6.6-14.8 14.8-14.8 0.5 0 0.9 0 1.4 0.1h0.2c0.4 0 0.8 0.1 1.3 0.2h0.1c0.9 0.2 1.8 0.5 2.6 0.8 0.1 0 0.2 0.1 0.3 0.1 0.3 0.1 0.6 0.3 0.8 0.4 0.1 0.1 0.3 0.1 0.4 0.2 0.2 0.1 0.4 0.3 0.7 0.4 0.1 0.1 0.2 0.1 0.3 0.2 6.1-9.7 9.6-21.1 9.6-33.4 0-34.6-28.1-62.7-62.7-62.7s-62.6 28.2-62.6 62.8 28.1 62.7 62.7 62.7c11.9 0 22.9-3.3 32.4-9-1.5-2.3-2.3-5-2.3-8z"/>
 <path class="selected-circle" d="m357.3 373.9c0-8.2 6.6-14.8 14.8-14.8 0.5 0 0.9 0 1.4 0.1h0.2c0.4 0 0.8 0.1 1.3 0.2h0.1c0.9 0.2 1.8 0.5 2.6 0.8 0.1 0 0.2 0.1 0.3 0.1 0.3 0.1 0.6 0.3 0.8 0.4 0.1 0.1 0.3 0.1 0.4 0.2 0.2 0.1 0.4 0.3 0.7 0.4 0.1 0.1 0.2 0.1 0.3 0.2 6.1-9.7 9.6-21.1 9.6-33.4 0-34.6-28.1-62.7-62.7-62.7s-62.6 28.2-62.6 62.8 28.1 62.7 62.7 62.7c11.9 0 22.9-3.3 32.4-9-1.5-2.3-2.3-5-2.3-8z"/>
 <g class="icon-content">
  <path class="fill-stroke-color" d="m359.1 325.9v6.6h-3.1v4.9h-19.5c-0.5-2.2-2.5-3.9-4.9-3.9-0.3 0-0.5 0-0.8 0.1l-5.3-9.3 21.6-10.8 1.5-7-6.7-13.5-61.9 30.9 19.8 13.2 22.5-11.2 5.3 9.4c-0.7 0.9-1.2 2-1.2 3.2 0 2.8 2.3 5.1 5.1 5.1 1.9 0 3.6-1.1 4.5-2.7h19.9v4.9h3.1v6.6h3.3v-26.5h-3.2zm-20.4-26.7c1.4 0 2.5 1.1 2.5 2.5s-1.1 2.5-2.5 2.5-2.5-1.1-2.5-2.5 1.1-2.5 2.5-2.5z"/>
 </g>
 <circle class="status-circle" cx="374" cy="375.7" r="13.1"/>
 <g class="alert-content">
  <rect  class="exclamation" x="275.2" y="262.8" width="10.6" height="33.5"/>
  <path class="triangle" d="m307.4 295l-24.5-40c-1.6-2.7-4.3-2.6-5.9 0l-24.5 40c-1.6 2.7-0.4 4.7 2.7 4.7h49.6c3 0 4.2-2.1 2.6-4.7zm-27.5-31.2c1.6 0 2.8 1.7 2.7 3.9l-0.5 12.8c-0.1 2.1-1.1 3.9-2.2 3.9s-2.1-1.7-2.2-3.9l-0.5-12.8c-0.1-2.2 1.1-3.9 2.7-3.9zm0 30.1c-2 0-3.3-1.5-3.3-3.4 0-2 1.4-3.4 3.3-3.4 2 0 3.3 1.4 3.3 3.4s-1.3 3.4-3.3 3.4z"/>
 </g>
</svg>
