<svg enable-background="new 0 0 180.4 180.4" version="1.1" viewBox="0 0 180.4 180.4" xmlns="http://www.w3.org/2000/svg">
 <circle class="selected-circle-outer" cx="90.2" cy="90.2" r="72.2" opacity=".4" stroke-miterlimit="10"
            stroke-width="36"/>
    <path class="rounded-circle"
          d="m121.3 136.4c0-8.2 6.6-14.8 14.8-14.8 0.5 0 0.9 0 1.4 0.1h0.2c0.4 0 0.8 0.1 1.3 0.2h0.1c0.9 0.2 1.8 0.5 2.6 0.8 0.1 0 0.2 0.1 0.3 0.1 0.3 0.1 0.6 0.3 0.8 0.4 0.1 0.1 0.3 0.1 0.4 0.2 0.2 0.1 0.4 0.3 0.7 0.4 0.1 0.1 0.2 0.1 0.3 0.2 6.1-9.7 9.6-21.1 9.6-33.4 0-34.6-28.1-62.7-62.7-62.7s-62.6 28.2-62.6 62.8 28.1 62.7 62.7 62.7c11.9 0 22.9-3.3 32.4-9-1.5-2.3-2.3-5-2.3-8z"/>
<path class="selected-circle" d="m121.3 136.4c0-8.2 6.6-14.8 14.8-14.8 0.5 0 0.9 0 1.4 0.1h0.2c0.4 0 0.8 0.1 1.3 0.2h0.1c0.9 0.2 1.8 0.5 2.6 0.8 0.1 0 0.2 0.1 0.3 0.1 0.3 0.1 0.6 0.3 0.8 0.4 0.1 0.1 0.3 0.1 0.4 0.2 0.2 0.1 0.4 0.3 0.7 0.4 0.1 0.1 0.2 0.1 0.3 0.2 6.1-9.7 9.6-21.1 9.6-33.4 0-34.6-28.1-62.7-62.7-62.7s-62.6 28.2-62.6 62.8 28.1 62.7 62.7 62.7c11.9 0 22.9-3.3 32.4-9-1.5-2.3-2.3-5-2.3-8z"/>    
    <g class="icon-content">
		<path class="fill-stroke-color" d="M85.8,125.3h4.4h4.4c11,0,19.6-2.1,19.6-21.7L114,73.4c-0.4-15.2-2.7-22.6-17.4-22.6c-1.7,0-3,0-4.1,0   c-0.9,0-1.7,0-2.3,0c-1.7,0-2.3,0-2.3,0c-1.1,0-2.5,0-4.1,0c-14.7,0-17,7.4-17.4,22.6l-0.2,30.2C66.2,123.2,74.8,125.3,85.8,125.3z    M90,120.9c-0.6,0-1.1-0.5-1.1-1.1c0-0.6,0.5-1.1,1.1-1.1s1.1,0.5,1.1,1.1C91.2,120.4,90.7,120.9,90,120.9z M95.5,111.1   c0,1.9-1.6,3.5-3.5,3.5h-3.6c-1.9,0-3.5-1.6-3.5-3.5V109c0-1.9,1.6-3.5,3.5-3.5H92c1.9,0,3.5,1.6,3.5,3.5L95.5,111.1L95.5,111.1z    M81.6,55.5c0,0,4.8-0.2,8.6-0.2s8.6,0.2,8.6,0.2c6.5,0,6.2,7.8,6.2,7.8s0.4,9.8,0.4,19c0,9.2-7.5,8.6-7.5,8.6h-7.7h-7.7   c0,0-7.5,0.6-7.5-8.6c0-9.2,0.4-19,0.4-19S75.1,55.5,81.6,55.5z"/>
		<path class="fill-stroke-color" d="M77.7,80.2c0,7.9,6.4,7.4,6.4,7.4h6.1l6.4,0.3c0,0,6.4,0.5,6.4-7.4c0-7.9-0.3-15.4-0.3-15.4s0.2-6.8-5.4-6.8   c0,0-3.9-0.4-7.1-0.4s-6.9,0.1-6.9,0.1c-5.6,0-5.4,6.8-5.4,6.8S77.7,72.3,77.7,80.2z M94.1,68.4h2.3v7.5h-2.3V68.4z M87.9,60.4h4.3   v2.1c0,1.2-1,2.1-2.1,2.1c-1.2,0-2.1-1-2.1-2.1V60.4z M84.1,68.3h2.3v7.5h-2.3V68.3z"/>
		<path class="fill-stroke-color" d="M88.9,112.6h2.6c1.2,0,2.1-0.9,2.1-2.1v-1c0-1.2-0.9-2.1-2.1-2.1h-2.6c-1.2,0-2.1,0.9-2.1,2.1v1   C86.8,111.7,87.8,112.6,88.9,112.6z"/>
    </g>
    <circle class="status-circle" cx="138" cy="138.2" r="13.1"/>
    <g class="alert-content">
        <rect class="exclamation" x="39.2" y="25.3" width="10.6" height="33.5"/>
        <path class="triangle"
              d="m71.4 57.5l-24.5-40c-1.6-2.7-4.3-2.6-5.9 0l-24.5 40c-1.6 2.7-0.4 4.7 2.7 4.7h49.6c3 0 4.2-2.1 2.6-4.7zm-27.5-31.2c1.6 0 2.8 1.7 2.7 3.9l-0.5 12.8c-0.1 2.1-1.1 3.9-2.2 3.9s-2.1-1.7-2.2-3.9l-0.5-12.8c-0.1-2.2 1.1-3.9 2.7-3.9zm0 30.1c-2 0-3.3-1.5-3.3-3.4 0-2 1.4-3.4 3.3-3.4 2 0 3.3 1.4 3.3 3.4s-1.3 3.4-3.3 3.4z"/>
    </g>
</svg>
