<svg enable-background="new 0 0 180.4 180.4" version="1.1" viewBox="0 0 180.4 180.4" xmlns="http://www.w3.org/2000/svg">
    <circle class="selected-circle-outer" cx="90.2" cy="90.2" r="72.2" opacity=".4" stroke-miterlimit="10"
            stroke-width="36"/>
    <path class="rounded-circle"
          d="m121.3 136.4c0-8.2 6.6-14.8 14.8-14.8 0.5 0 0.9 0 1.4 0.1h0.2c0.4 0 0.8 0.1 1.3 0.2h0.1c0.9 0.2 1.8 0.5 2.6 0.8 0.1 0 0.2 0.1 0.3 0.1 0.3 0.1 0.6 0.3 0.8 0.4 0.1 0.1 0.3 0.1 0.4 0.2 0.2 0.1 0.4 0.3 0.7 0.4 0.1 0.1 0.2 0.1 0.3 0.2 6.1-9.7 9.6-21.1 9.6-33.4 0-34.6-28.1-62.7-62.7-62.7s-62.6 28.2-62.6 62.8 28.1 62.7 62.7 62.7c11.9 0 22.9-3.3 32.4-9-1.5-2.3-2.3-5-2.3-8z"/>
    <path class="selected-circle"
          d="m121.3 136.4c0-8.2 6.6-14.8 14.8-14.8 0.5 0 0.9 0 1.4 0.1h0.2c0.4 0 0.8 0.1 1.3 0.2h0.1c0.9 0.2 1.8 0.5 2.6 0.8 0.1 0 0.2 0.1 0.3 0.1 0.3 0.1 0.6 0.3 0.8 0.4 0.1 0.1 0.3 0.1 0.4 0.2 0.2 0.1 0.4 0.3 0.7 0.4 0.1 0.1 0.2 0.1 0.3 0.2 6.1-9.7 9.6-21.1 9.6-33.4 0-34.6-28.1-62.7-62.7-62.7s-62.6 28.2-62.6 62.8 28.1 62.7 62.7 62.7c11.9 0 22.9-3.3 32.4-9-1.5-2.3-2.3-5-2.3-8z"/>
    <g class="icon-content fill-stroke-color stroke-color" stroke-miterlimit="10">
        <path d="m55.6 83.7h45.7c5.8 0 10.6-4.7 10.6-10.6s-4.7-10.6-10.6-10.6c-5.8 0-10.6 4.7-10.6 10.6 0 1.4 1.1 2.4 2.4 2.4 1.4 0 2.4-1.1 2.4-2.4 0-3.1 2.5-5.6 5.6-5.6s5.6 2.5 5.6 5.6-2.5 5.6-5.7 5.6h-45.4c-1.4 0-2.4 1.1-2.4 2.4 0 1.6 1.1 2.6 2.4 2.6z"/>
        <path d="m84.9 101.1h-29.3c-1.4 0-2.4 1.1-2.4 2.4 0 1.4 1.1 2.4 2.4 2.4h29.4c3.1 0 5.6 2.5 5.6 5.6s-2.5 5.6-5.6 5.6-5.6-2.5-5.6-5.6c0-1.4-1.1-2.4-2.4-2.4-1.4 0-2.4 1.1-2.4 2.4 0 5.8 4.7 10.6 10.6 10.6s10.6-4.7 10.6-10.6c-0.2-5.7-4.9-10.4-10.9-10.4z"/>
        <path d="m114.4 90h-58.8c-1.4 0-2.4 1.1-2.4 2.4 0 1.4 1.1 2.4 2.4 2.4h58.8c4.3 0 7.8 3.5 7.8 7.8s-3.5 7.8-7.8 7.8-7.8-3.5-7.8-7.8c0-0.5 0.1-1 0.2-1.4 0.2-1.3-0.6-2.6-1.9-2.8-1.4-0.2-2.6 0.6-2.8 1.9-0.2 0.7-0.2 1.5-0.2 2.3 0 7 5.7 12.7 12.7 12.7s12.6-5.7 12.6-12.6c0-7-5.8-12.7-12.8-12.7z"/>
    </g>
    <circle class="status-circle" cx="138" cy="138.2" r="13.1"/>
    <g class="alert-content">
        <rect class="exclamation" x="39.2" y="25.3" width="10.6" height="33.5"/>
        <path class="triangle"
              d="m71.4 57.5l-24.5-40c-1.6-2.7-4.3-2.6-5.9 0l-24.5 40c-1.6 2.7-0.4 4.7 2.7 4.7h49.6c3 0 4.2-2.1 2.6-4.7zm-27.5-31.2c1.6 0 2.8 1.7 2.7 3.9l-0.5 12.8c-0.1 2.1-1.1 3.9-2.2 3.9s-2.1-1.7-2.2-3.9l-0.5-12.8c-0.1-2.2 1.1-3.9 2.7-3.9zm0 30.1c-2 0-3.3-1.5-3.3-3.4 0-2 1.4-3.4 3.3-3.4 2 0 3.3 1.4 3.3 3.4s-1.3 3.4-3.3 3.4z"/>
    </g>
</svg>
