<svg enable-background="new 0 0 180.4 180.4" version="1.1" viewBox="0 0 180.4 180.4" xmlns="http://www.w3.org/2000/svg">
 <circle class="selected-circle-outer" cx="90.2" cy="90.2" r="72.2" opacity=".4" stroke-miterlimit="10" stroke-width="36"/>
 <path class="rounded-circle" d="m121.3 136.4c0-8.2 6.6-14.8 14.8-14.8 0.5 0 0.9 0 1.4 0.1h0.2c0.4 0 0.8 0.1 1.3 0.2h0.1c0.9 0.2 1.8 0.5 2.6 0.8 0.1 0 0.2 0.1 0.3 0.1 0.3 0.1 0.6 0.3 0.8 0.4 0.1 0.1 0.3 0.1 0.4 0.2 0.2 0.1 0.4 0.3 0.7 0.4 0.1 0.1 0.2 0.1 0.3 0.2 6.1-9.7 9.6-21.1 9.6-33.4 0-34.6-28.1-62.7-62.7-62.7s-62.6 28.2-62.6 62.8 28.1 62.7 62.7 62.7c11.9 0 22.9-3.3 32.4-9-1.5-2.3-2.3-5-2.3-8z"/>
 <path class="selected-circle" d="m121.3 136.4c0-8.2 6.6-14.8 14.8-14.8 0.5 0 0.9 0 1.4 0.1h0.2c0.4 0 0.8 0.1 1.3 0.2h0.1c0.9 0.2 1.8 0.5 2.6 0.8 0.1 0 0.2 0.1 0.3 0.1 0.3 0.1 0.6 0.3 0.8 0.4 0.1 0.1 0.3 0.1 0.4 0.2 0.2 0.1 0.4 0.3 0.7 0.4 0.1 0.1 0.2 0.1 0.3 0.2 6.1-9.7 9.6-21.1 9.6-33.4 0-34.6-28.1-62.7-62.7-62.7s-62.6 28.2-62.6 62.8 28.1 62.7 62.7 62.7c11.9 0 22.9-3.3 32.4-9-1.5-2.3-2.3-5-2.3-8z"/>
 <g class="icon-content">
	<path class="fill-stroke-color" d="m95.92 97.68c0 10.946-8.8714 19.81-19.81 19.81-10.939 0-19.81-8.8641-19.81-19.81 0-10.939 8.8713-19.81 19.81-19.81 10.939 0 19.81 8.8713 19.81 19.81z" stroke-width="1.8009"/>
	<path class="fill-stroke-color" d="m117.8 71.237c0 8.3178-6.7413 15.054-15.054 15.054-8.3123 0-15.054-6.7358-15.054-15.054 0-8.3123 6.7413-15.054 15.054-15.054 8.3123 0 15.054 6.7413 15.054 15.054z" stroke-width="1.3685"/>
	<path class="fill-stroke-color" d="m118.98 103.28c0 4.6383-3.7592 8.3944-8.3944 8.3944-4.6352 0-8.3944-3.7561-8.3944-8.3944 0-4.6352 3.7592-8.3944 8.3944-8.3944 4.6352 0 8.3944 3.7592 8.3944 8.3944z" stroke-width=".76313"/>
 </g>
 <circle class="status-circle" cx="138" cy="138.2" r="13.1"/>
 <g class="alert-content">
  <rect class="exclamation" x="39.2" y="25.3" width="10.6" height="33.5"/>
  <path class="triangle" d="m71.4 57.5l-24.5-40c-1.6-2.7-4.3-2.6-5.9 0l-24.5 40c-1.6 2.7-0.4 4.7 2.7 4.7h49.6c3 0 4.2-2.1 2.6-4.7zm-27.5-31.2c1.6 0 2.8 1.7 2.7 3.9l-0.5 12.8c-0.1 2.1-1.1 3.9-2.2 3.9s-2.1-1.7-2.2-3.9l-0.5-12.8c-0.1-2.2 1.1-3.9 2.7-3.9zm0 30.1c-2 0-3.3-1.5-3.3-3.4 0-2 1.4-3.4 3.3-3.4 2 0 3.3 1.4 3.3 3.4s-1.3 3.4-3.3 3.4z"/>
 </g>
</svg>
