<svg enable-background="new 0 0 180.4 180.4" version="1.1" viewBox="0 0 180.4 180.4" xmlns="http://www.w3.org/2000/svg">
    <circle class="selected-circle-outer" cx="90.2" cy="90.2" r="72.2" opacity=".4" stroke-miterlimit="10"
            stroke-width="36"/>
    <path class="rounded-circle"
          d="m121.3 136.4c0-8.2 6.6-14.8 14.8-14.8 0.5 0 0.9 0 1.4 0.1h0.2c0.4 0 0.8 0.1 1.3 0.2h0.1c0.9 0.2 1.8 0.5 2.6 0.8 0.1 0 0.2 0.1 0.3 0.1 0.3 0.1 0.6 0.3 0.8 0.4 0.1 0.1 0.3 0.1 0.4 0.2 0.2 0.1 0.4 0.3 0.7 0.4 0.1 0.1 0.2 0.1 0.3 0.2 6.1-9.7 9.6-21.1 9.6-33.4 0-34.6-28.1-62.7-62.7-62.7s-62.6 28.2-62.6 62.8 28.1 62.7 62.7 62.7c11.9 0 22.9-3.3 32.4-9-1.5-2.3-2.3-5-2.3-8z"/>
    <path class="selected-circle"
          d="m121.3 136.4c0-8.2 6.6-14.8 14.8-14.8 0.5 0 0.9 0 1.4 0.1h0.2c0.4 0 0.8 0.1 1.3 0.2h0.1c0.9 0.2 1.8 0.5 2.6 0.8 0.1 0 0.2 0.1 0.3 0.1 0.3 0.1 0.6 0.3 0.8 0.4 0.1 0.1 0.3 0.1 0.4 0.2 0.2 0.1 0.4 0.3 0.7 0.4 0.1 0.1 0.2 0.1 0.3 0.2 6.1-9.7 9.6-21.1 9.6-33.4 0-34.6-28.1-62.7-62.7-62.7s-62.6 28.2-62.6 62.8 28.1 62.7 62.7 62.7c11.9 0 22.9-3.3 32.4-9-1.5-2.3-2.3-5-2.3-8z"/>
	<g transform="translate(0,-288.53332)" class="icon-content">
	<path class="fill-stroke-color" d="M82.2,347.3v7.3c2.5-1,5.2-1.5,8-1.5c2.8,0,5.5,0.6,8,1.5v-7.3H82.2z"/>
	<path class="fill-stroke-color" d="M109.6,374.7c0,10.7-8.7,19.4-19.4,19.4h0c-10.7,0-19.4-8.7-19.4-19.4l0,0c0-10.7,8.7-19.4,19.4-19.4h0
		C100.9,355.3,109.6,364,109.6,374.7L109.6,374.7z"/>
	<path class="fill-stroke-color" d="M90.2,398.7c-0.6,0-1.1,0.5-1.1,1.2v9.1c0,0.6,0.5,1.1,1.1,1.2c0.6,0,1.1-0.5,1.2-1.1c0,0,0,0,0,0v-9.1
		C91.3,399.2,90.8,398.7,90.2,398.7C90.2,398.7,90.2,398.7,90.2,398.7z"/>
	<path class="fill-stroke-color" d="M56,373.6c-0.6,0-1.1,0.5-1.2,1.1c0,0.6,0.5,1.1,1.1,1.2c0,0,0,0,0,0h9.1c0.6,0,1.1-0.5,1.2-1.1
		c0-0.6-0.5-1.1-1.1-1.2c0,0,0,0,0,0H56z"/>
	<path class="fill-stroke-color" d="M115.3,373.6c-0.6,0-1.1,0.5-1.2,1.1c0,0.6,0.5,1.1,1.1,1.2c0,0,0,0,0,0h9.1c0.6,0,1.1-0.5,1.2-1.1
		c0-0.6-0.5-1.1-1.1-1.2c0,0,0,0,0,0H115.3z"/>
	<path class="fill-stroke-color" d="M71.9,391.9c-0.3,0-0.6,0.1-0.8,0.3l-6.8,6.8c-0.4,0.4-0.4,1.2,0,1.6c0.4,0.4,1.2,0.4,1.6,0l6.8-6.8
		c0.5-0.4,0.5-1.2,0-1.6C72.5,392,72.2,391.9,71.9,391.9L71.9,391.9z"/>
	<path class="fill-stroke-color" d="M115.3,348.5c-0.3,0-0.6,0.1-0.8,0.3l-6.8,6.8c-0.5,0.4-0.5,1.2,0,1.6c0.4,0.5,1.2,0.5,1.6,0c0,0,0,0,0,0
		l6.8-6.8c0.5-0.4,0.5-1.2,0-1.6C115.9,348.6,115.6,348.5,115.3,348.5L115.3,348.5z"/>
	<path class="fill-stroke-color" d="M108.5,391.9c-0.6,0-1.1,0.5-1.1,1.1c0,0.3,0.1,0.6,0.3,0.8l6.8,6.8c0.4,0.5,1.2,0.5,1.6,0
		c0.5-0.4,0.5-1.2,0-1.6c0,0,0,0,0,0l-6.8-6.8C109.1,392,108.8,391.9,108.5,391.9L108.5,391.9z"/>
	<path class="fill-stroke-color" d="M65.1,348.5c-0.6,0-1.1,0.5-1.1,1.1c0,0.3,0.1,0.6,0.3,0.8l6.8,6.8c0.4,0.5,1.2,0.5,1.6,0
		c0.5-0.4,0.5-1.2,0-1.6c0,0,0,0,0,0l-6.8-6.8C65.7,348.6,65.4,348.5,65.1,348.5L65.1,348.5z"/>
	</g>
    <circle class="status-circle" cx="138" cy="138.2" r="13.1"/>
    <g class="alert-content">
        <rect class="exclamation" x="39.2" y="25.3" width="10.6" height="33.5"/>
        <path class="triangle"
              d="m71.4 57.5l-24.5-40c-1.6-2.7-4.3-2.6-5.9 0l-24.5 40c-1.6 2.7-0.4 4.7 2.7 4.7h49.6c3 0 4.2-2.1 2.6-4.7zm-27.5-31.2c1.6 0 2.8 1.7 2.7 3.9l-0.5 12.8c-0.1 2.1-1.1 3.9-2.2 3.9s-2.1-1.7-2.2-3.9l-0.5-12.8c-0.1-2.2 1.1-3.9 2.7-3.9zm0 30.1c-2 0-3.3-1.5-3.3-3.4 0-2 1.4-3.4 3.3-3.4 2 0 3.3 1.4 3.3 3.4s-1.3 3.4-3.3 3.4z"/>
    </g>
</svg>
