<svg enable-background="new 0 0 180.4 180.4" version="1.1" viewBox="0 0 180.4 180.4" xmlns="http://www.w3.org/2000/svg">
	<circle class="selected-circle-outer" cx="90.2" cy="90.2" r="72.2" opacity=".4" stroke-miterlimit="10"
			stroke-width="36"/>
	<path class="rounded-circle"
		  d="m121.3 136.4c0-8.2 6.6-14.8 14.8-14.8 0.5 0 0.9 0 1.4 0.1h0.2c0.4 0 0.8 0.1 1.3 0.2h0.1c0.9 0.2 1.8 0.5 2.6 0.8 0.1 0 0.2 0.1 0.3 0.1 0.3 0.1 0.6 0.3 0.8 0.4 0.1 0.1 0.3 0.1 0.4 0.2 0.2 0.1 0.4 0.3 0.7 0.4 0.1 0.1 0.2 0.1 0.3 0.2 6.1-9.7 9.6-21.1 9.6-33.4 0-34.6-28.1-62.7-62.7-62.7s-62.6 28.2-62.6 62.8 28.1 62.7 62.7 62.7c11.9 0 22.9-3.3 32.4-9-1.5-2.3-2.3-5-2.3-8z"/>
	<path class="selected-circle"
		  d="m121.3 136.4c0-8.2 6.6-14.8 14.8-14.8 0.5 0 0.9 0 1.4 0.1h0.2c0.4 0 0.8 0.1 1.3 0.2h0.1c0.9 0.2 1.8 0.5 2.6 0.8 0.1 0 0.2 0.1 0.3 0.1 0.3 0.1 0.6 0.3 0.8 0.4 0.1 0.1 0.3 0.1 0.4 0.2 0.2 0.1 0.4 0.3 0.7 0.4 0.1 0.1 0.2 0.1 0.3 0.2 6.1-9.7 9.6-21.1 9.6-33.4 0-34.6-28.1-62.7-62.7-62.7s-62.6 28.2-62.6 62.8 28.1 62.7 62.7 62.7c11.9 0 22.9-3.3 32.4-9-1.5-2.3-2.3-5-2.3-8z"/>
	<g class="icon-content">
		<path class="stroke-color" fill="none" stroke-width="3" stroke-miterlimit="10" d="m120 120.6h-59.7c-1.5 0-2.8-1.2-2.8-2.8v-55.2c0-1.5 1.3-2.8 2.8-2.8h59.8c1.5 0 2.8 1.3 2.8 2.8v55.3c-0.1 1.5-1.3 2.7-2.9 2.7z"/>
		<path class="fill-stroke-color" d="m66.2 66c-1.8 0-3.2 1.4-3.2 3.1v42.2c0 1.7 1.4 3.1 3.2 3.1h22.9v-48.4h-22.9zm13.5 29.9l-0.8-2.4h-5.1l-0.8 2.4h-2.7l4.6-13h3.1l4.6 13h-2.9z"/>
		<polygon class="fill-stroke-color" points="74.4 91.5 78.2 91.5 76.3 86.1"/>
		<path class="fill-stroke-color" d="m104.8 87.9c0.4-0.3 0.5-0.7 0.5-1.2 0-0.6-0.2-0.9-0.5-1.2s-0.8-0.5-1.4-0.5h-2.4v3.4h2.3c0.7-0.1 1.2-0.2 1.5-0.5z"/>
		<path class="fill-stroke-color" d="m103.6 90.3h-2.6v3.6h2.6c0.6 0 1-0.2 1.4-0.5s0.6-0.7 0.6-1.3-0.2-1-0.6-1.3-0.8-0.5-1.4-0.5z"/>
		<path class="fill-stroke-color" d="m113.6 66h-23v48.4h22.9c1.8 0 3.2-1.4 3.2-3.1v-42.2c0-1.7-1.4-3.1-3.1-3.1zm-6.5 29c-0.7 0.7-1.8 0.9-3.1 0.9h-5.5v-12.9h5.2c1.3 0 2.3 0.3 3.1 0.9s1.1 1.5 1.1 2.4c0 1.4-0.8 2.4-2.5 2.9 0.8 0.1 1.5 0.5 2.1 1.1 0.5 0.7 0.7 1.3 0.7 2.2 0 1.1-0.4 1.8-1.1 2.5z"/>
	</g>
	<circle class="status-circle" cx="138" cy="138.2" r="13.1"/>
	<g class="alert-content">
		<rect class="exclamation" x="39.2" y="25.3" width="10.6" height="33.5"/>
		<path class="triangle"
			  d="m71.4 57.5l-24.5-40c-1.6-2.7-4.3-2.6-5.9 0l-24.5 40c-1.6 2.7-0.4 4.7 2.7 4.7h49.6c3 0 4.2-2.1 2.6-4.7zm-27.5-31.2c1.6 0 2.8 1.7 2.7 3.9l-0.5 12.8c-0.1 2.1-1.1 3.9-2.2 3.9s-2.1-1.7-2.2-3.9l-0.5-12.8c-0.1-2.2 1.1-3.9 2.7-3.9zm0 30.1c-2 0-3.3-1.5-3.3-3.4 0-2 1.4-3.4 3.3-3.4 2 0 3.3 1.4 3.3 3.4s-1.3 3.4-3.3 3.4z"/>
	</g>
</svg>
