<svg enable-background="new 0 0 180.4 180.4" version="1.1" viewBox="0 0 180.4 180.4" xmlns="http://www.w3.org/2000/svg">
<circle class="selected-circle-outer" cx="90.2" cy="90.2" r="72.2" opacity=".4" stroke-miterlimit="10"
        stroke-width="36"/>
<path class="rounded-circle"
      d="m121.3 136.4c0-8.2 6.6-14.8 14.8-14.8 0.5 0 0.9 0 1.4 0.1h0.2c0.4 0 0.8 0.1 1.3 0.2h0.1c0.9 0.2 1.8 0.5 2.6 0.8 0.1 0 0.2 0.1 0.3 0.1 0.3 0.1 0.6 0.3 0.8 0.4 0.1 0.1 0.3 0.1 0.4 0.2 0.2 0.1 0.4 0.3 0.7 0.4 0.1 0.1 0.2 0.1 0.3 0.2 6.1-9.7 9.6-21.1 9.6-33.4 0-34.6-28.1-62.7-62.7-62.7s-62.6 28.2-62.6 62.8 28.1 62.7 62.7 62.7c11.9 0 22.9-3.3 32.4-9-1.5-2.3-2.3-5-2.3-8z"/>
<path class="selected-circle"
      d="m121.3 136.4c0-8.2 6.6-14.8 14.8-14.8 0.5 0 0.9 0 1.4 0.1h0.2c0.4 0 0.8 0.1 1.3 0.2h0.1c0.9 0.2 1.8 0.5 2.6 0.8 0.1 0 0.2 0.1 0.3 0.1 0.3 0.1 0.6 0.3 0.8 0.4 0.1 0.1 0.3 0.1 0.4 0.2 0.2 0.1 0.4 0.3 0.7 0.4 0.1 0.1 0.2 0.1 0.3 0.2 6.1-9.7 9.6-21.1 9.6-33.4 0-34.6-28.1-62.7-62.7-62.7s-62.6 28.2-62.6 62.8 28.1 62.7 62.7 62.7c11.9 0 22.9-3.3 32.4-9-1.5-2.3-2.3-5-2.3-8z"/>
<g class="icon-content">
    <polygon class="fill-stroke-color" points="52.6,121.1 54.4,121.1 54.4,61.4 90.1,61.4 90.1,121.1 91.9,121.1 91.9,59.3 52.6,59.3 	"/>
    <polygon class="fill-stroke-color" points="97,90.6 98.8,90.6 98.8,61.4 127.6,61.4 127.6,90.6 129.8,90.6 129.8,59.3 97,59.3 	"/>
    <polygon class="fill-stroke-color" points="129.8,86.6 127.6,86.6 127.6,89.1 98.8,89.1 98.8,86.6 97,86.6 97,90.9 129.8,90.9 	"/>
    <path class="fill-stroke-color" d="M56.6,63.3v57.9h30.9V63.3H56.6z M82.1,94.9c-1.5,0-2.9-1.1-2.9-2.9c0-1.5,1.1-2.9,2.9-2.9
		c1.5,0,2.9,1.1,2.9,2.9C85,93.5,83.6,94.9,82.1,94.9z"/>
    <path class="stroke-color" d="M102.5,80.7" stroke-width="0.25" stroke-miterlimit="10"/>
    <path class="stroke-color" d="M120.7,94.6" stroke-width="0.25" stroke-miterlimit="10"/>
    <path class="stroke-color" d="M120.7,68" stroke-width="0.25" stroke-miterlimit="10"/>
    <rect x="101.4" y="63.3" class="fill-stroke-color" width="10.9" height="10.9"/>
    <rect x="114.1" y="63.3" class="fill-stroke-color" width="10.9" height="10.9"/>
    <rect x="101.4" y="76.4" class="fill-stroke-color" width="10.9" height="10.9"/>
    <rect x="114.1" y="76.4" class="fill-stroke-color" width="10.9" height="10.9"/>
</g>
<circle class="status-circle" cx="138" cy="138.2" r="13.1"/>
<g class="alert-content">
    <rect class="exclamation" x="39.2" y="25.3" width="10.6" height="33.5"/>
    <path class="triangle"
          d="m71.4 57.5l-24.5-40c-1.6-2.7-4.3-2.6-5.9 0l-24.5 40c-1.6 2.7-0.4 4.7 2.7 4.7h49.6c3 0 4.2-2.1 2.6-4.7zm-27.5-31.2c1.6 0 2.8 1.7 2.7 3.9l-0.5 12.8c-0.1 2.1-1.1 3.9-2.2 3.9s-2.1-1.7-2.2-3.9l-0.5-12.8c-0.1-2.2 1.1-3.9 2.7-3.9zm0 30.1c-2 0-3.3-1.5-3.3-3.4 0-2 1.4-3.4 3.3-3.4 2 0 3.3 1.4 3.3 3.4s-1.3 3.4-3.3 3.4z"/>
</g>
</svg>