<svg enable-background="new 0 0 180.4 180.4" version="1.1" viewBox="0 0 180.4 180.4" xmlns="http://www.w3.org/2000/svg">
 <circle class="selected-circle-outer" cx="90.2" cy="90.2" r="72.2" opacity=".4" stroke-miterlimit="10"
            stroke-width="36"/>
    <path class="rounded-circle"
          d="m121.3 136.4c0-8.2 6.6-14.8 14.8-14.8 0.5 0 0.9 0 1.4 0.1h0.2c0.4 0 0.8 0.1 1.3 0.2h0.1c0.9 0.2 1.8 0.5 2.6 0.8 0.1 0 0.2 0.1 0.3 0.1 0.3 0.1 0.6 0.3 0.8 0.4 0.1 0.1 0.3 0.1 0.4 0.2 0.2 0.1 0.4 0.3 0.7 0.4 0.1 0.1 0.2 0.1 0.3 0.2 6.1-9.7 9.6-21.1 9.6-33.4 0-34.6-28.1-62.7-62.7-62.7s-62.6 28.2-62.6 62.8 28.1 62.7 62.7 62.7c11.9 0 22.9-3.3 32.4-9-1.5-2.3-2.3-5-2.3-8z"/>
<path class="selected-circle" d="m121.3 136.4c0-8.2 6.6-14.8 14.8-14.8 0.5 0 0.9 0 1.4 0.1h0.2c0.4 0 0.8 0.1 1.3 0.2h0.1c0.9 0.2 1.8 0.5 2.6 0.8 0.1 0 0.2 0.1 0.3 0.1 0.3 0.1 0.6 0.3 0.8 0.4 0.1 0.1 0.3 0.1 0.4 0.2 0.2 0.1 0.4 0.3 0.7 0.4 0.1 0.1 0.2 0.1 0.3 0.2 6.1-9.7 9.6-21.1 9.6-33.4 0-34.6-28.1-62.7-62.7-62.7s-62.6 28.2-62.6 62.8 28.1 62.7 62.7 62.7c11.9 0 22.9-3.3 32.4-9-1.5-2.3-2.3-5-2.3-8z"/>    
    <g class="icon-content">
		<path class="fill-stroke-color" d="M76.1,95c0,12.3,6.8,15.8,15.2,15.8s15.2-3.4,15.2-15.8c0-12.3-15.2-28.7-15.2-28.7S76.1,82.5,76.1,95z"/>
		<path class="fill-stroke-color" d="M114.3,103.7l-1.5-1.5c3.3-3.3,4.9-7.8,4.9-12.7s-1.8-9.6-4.9-12.7l1.5-1.5c3.6,3.6,6,8.5,6,14.2  S117.7,100.1,114.3,103.7z"/>
		<path class="fill-stroke-color" d="M121.4,111l-1.8-1.8c4.9-4.9,8.2-12.4,8.2-20.2s-3.3-14.5-8.2-20.2l1.8-1.8c5.5,5.5,8.5,13.3,8.5,21.5  C130.4,97.9,127,105.5,121.4,111z"/>
		<path class="fill-stroke-color" d="M68.4,74.2l1.5,1.5c-3.3,3.3-4.9,7.8-4.9,12.7s1.8,9.6,4.9,12.7l-1.5,1.5c-3.6-3.6-6-8.5-6-14.2  C62.4,82.8,64.9,77.9,68.4,74.2z"/>
		<path class="fill-stroke-color" d="M61.3,67l1.8,1.8c-4.9,4.9-8.2,12.4-8.2,20.2c0,7.8,3.3,14.5,8.2,20.2l-1.8,1.8c-5.5-5.5-8.5-13.3-8.5-21.5  C52.2,80.1,55.7,72.4,61.3,67z"/>
    </g>
    <circle class="status-circle" cx="138" cy="138.2" r="13.1"/>
    <g class="alert-content">
        <rect class="exclamation" x="39.2" y="25.3" width="10.6" height="33.5"/>
        <path class="triangle"
              d="m71.4 57.5l-24.5-40c-1.6-2.7-4.3-2.6-5.9 0l-24.5 40c-1.6 2.7-0.4 4.7 2.7 4.7h49.6c3 0 4.2-2.1 2.6-4.7zm-27.5-31.2c1.6 0 2.8 1.7 2.7 3.9l-0.5 12.8c-0.1 2.1-1.1 3.9-2.2 3.9s-2.1-1.7-2.2-3.9l-0.5-12.8c-0.1-2.2 1.1-3.9 2.7-3.9zm0 30.1c-2 0-3.3-1.5-3.3-3.4 0-2 1.4-3.4 3.3-3.4 2 0 3.3 1.4 3.3 3.4s-1.3 3.4-3.3 3.4z"/>
    </g>
</svg>