<svg enable-background="new 0 0 180.4 180.4" version="1.1" viewBox="0 0 180.4 180.4" xmlns="http://www.w3.org/2000/svg">
    <circle class="selected-circle-outer" cx="90.2" cy="90.2" r="72.2" opacity=".4" stroke-miterlimit="10"
            stroke-width="36"/>
    <path class="rounded-circle"
          d="m121.3 136.4c0-8.2 6.6-14.8 14.8-14.8 0.5 0 0.9 0 1.4 0.1h0.2c0.4 0 0.8 0.1 1.3 0.2h0.1c0.9 0.2 1.8 0.5 2.6 0.8 0.1 0 0.2 0.1 0.3 0.1 0.3 0.1 0.6 0.3 0.8 0.4 0.1 0.1 0.3 0.1 0.4 0.2 0.2 0.1 0.4 0.3 0.7 0.4 0.1 0.1 0.2 0.1 0.3 0.2 6.1-9.7 9.6-21.1 9.6-33.4 0-34.6-28.1-62.7-62.7-62.7s-62.6 28.2-62.6 62.8 28.1 62.7 62.7 62.7c11.9 0 22.9-3.3 32.4-9-1.5-2.3-2.3-5-2.3-8z"/>
    <path class="selected-circle"
          d="m121.3 136.4c0-8.2 6.6-14.8 14.8-14.8 0.5 0 0.9 0 1.4 0.1h0.2c0.4 0 0.8 0.1 1.3 0.2h0.1c0.9 0.2 1.8 0.5 2.6 0.8 0.1 0 0.2 0.1 0.3 0.1 0.3 0.1 0.6 0.3 0.8 0.4 0.1 0.1 0.3 0.1 0.4 0.2 0.2 0.1 0.4 0.3 0.7 0.4 0.1 0.1 0.2 0.1 0.3 0.2 6.1-9.7 9.6-21.1 9.6-33.4 0-34.6-28.1-62.7-62.7-62.7s-62.6 28.2-62.6 62.8 28.1 62.7 62.7 62.7c11.9 0 22.9-3.3 32.4-9-1.5-2.3-2.3-5-2.3-8z"/>
    <g class="icon-content">
       <path class="fill-stroke-color" d="M90.2,1010.8c-0.4,0-0.4,0-0.7,0l-0.4,0.4l-0.4,0.4c0,0,0,0.4,0,0.7v10.3c0,0.4,0,0.4,0,0.7
		c0,0.4,0.4,0.4,0.4,0.7l0,0l0,0c0,0,0.4,0.4,0.7,0.4s0.4,0,0.7,0c9.6,0,17.7,8.1,17.7,17.7c0,0,0,0,0,0.4l0,0v0.4
		c-0.4,9.2-8.1,17-17.3,17h-0.4c-9.6,0-17-7.7-17.3-17v-0.4v-0.4c0-7.7,5.2-14.4,12.2-17c0.4,0,0.4,0,0.4-0.4l0.4-0.4
		c0,0,0-0.4,0-0.7c0-0.4,0-0.4,0-0.7s0-0.4-0.4-0.4l-0.4-0.4c0,0-0.4,0-0.7,0s-0.4,0-0.7,0c-8.1,2.6-13.6,10-14,18.8H59.6
		c-0.4,0-0.4,0-0.7,0c0,0-0.4,0-0.4,0.4l-0.4,0.4c0,0,0,0.4,0,0.7s0,0.4,0,0.7l0.4,0.4l0.4,0.4c0,0,0.4,0,0.7,0h10
		c1.1,10,9.2,17.7,19.2,18.4v10.7c0,0.4,0,0.4,0,0.7c0,0,0,0.4,0.4,0.4l0.4,0.4c0,0,0.4,0,0.7,0s0.4,0,0.7,0l0.4-0.4l0.4-0.4
		c0-0.4,0-0.4,0-0.7v-10.7c10-0.7,18.1-8.5,19.2-18.4h10c0.4,0,0.4,0,0.7,0c0,0,0.4,0,0.4-0.4s0.4-0.4,0.4-0.4s0-0.4,0-0.7
		s0-0.4,0-0.7l-0.4-0.4l-0.4-0.4c0,0-0.4,0-0.7,0h-10c-0.4-10.7-8.8-19.2-19.2-19.9v-9.2c0-0.4,0-0.4,0-0.7c0-0.4-0.4-0.4-0.4-0.4
		l-0.4-0.4C90.6,1010.8,90.6,1010.8,90.2,1010.8L90.2,1010.8z"/>
	<path class="fill-stroke-color" d="M90.2,1033.3c-5.2,0-9.6,4.4-9.6,9.6c0,5.2,4.4,9.6,9.6,9.6s9.6-4.4,9.6-9.6
		C99.8,1037.8,95.4,1033.3,90.2,1033.3z"/>
    </g>
    <circle class="status-circle" cx="138" cy="138.2" r="13.1"/>
    <g class="alert-content">
        <rect class="exclamation" x="39.2" y="25.3" width="10.6" height="33.5"/>
        <path class="triangle"
              d="m71.4 57.5l-24.5-40c-1.6-2.7-4.3-2.6-5.9 0l-24.5 40c-1.6 2.7-0.4 4.7 2.7 4.7h49.6c3 0 4.2-2.1 2.6-4.7zm-27.5-31.2c1.6 0 2.8 1.7 2.7 3.9l-0.5 12.8c-0.1 2.1-1.1 3.9-2.2 3.9s-2.1-1.7-2.2-3.9l-0.5-12.8c-0.1-2.2 1.1-3.9 2.7-3.9zm0 30.1c-2 0-3.3-1.5-3.3-3.4 0-2 1.4-3.4 3.3-3.4 2 0 3.3 1.4 3.3 3.4s-1.3 3.4-3.3 3.4z"/>
    </g>
</svg>
