<?xml version="1.0" encoding="utf-8"?>
<!-- Generator: Adobe Illustrator 21.1.0, SVG Export Plug-In . SVG Version: 6.00 Build 0)  -->
<svg version="1.1" id="Layer_1" xmlns="http://www.w3.org/2000/svg" xmlns:xlink="http://www.w3.org/1999/xlink" x="0px" y="0px"
	 viewBox="0 0 512 512" style="enable-background:new 0 0 512 512;" xml:space="preserve">
<style type="text/css">
	.st0{fill:#FFFFFF;}
	.st1{fill:#06B2B6;}
</style>
<rect x="108" y="92" class="st0" width="320" height="320"/>
<path class="st1" d="M256,0L256,0C114.6,0,0,114.6,0,256l0,0c0,141.4,114.6,256,256,256l0,0c141.4,0,256-114.6,256-256l0,0
	C512,114.6,397.4,0,256,0z M236,125.9c0.1-11,9-19.9,20-19.8c5.4,0,10.6,2.3,14.4,6.2c3.5,3.4,5.4,8,5.4,12.9v8.8
	c0,44.6,0.1,90.6,0,135.9c0,10.4-9.1,19.1-19.9,19.1l0,0c-10.7,0-19.8-8.7-19.8-19.1c-0.1-17-0.1-34.2-0.1-50.9c0-7.1,0-14.3,0-21.4
	V192l0,0c0-5,0-10,0-14.9C236,160.4,235.9,142.9,236,125.9z M282.1,403.5c-77,14.6-151.4-36-166-113c-0.1-0.4-0.1-0.7-0.2-1.1
	c-8.5-47.8,4.5-90.2,38.6-126.1c3.8-4.2,9.2-6.6,14.9-6.6c5,0,9.9,2,13.5,5.5c3.9,3.6,6.3,8.7,6.4,14.1c0.1,5.4-2,10.7-5.8,14.5
	c-15.7,16.4-25.4,35.5-28.8,57c-7.8,56.1,31.3,107.8,87.3,115.7s107.8-31.3,115.7-87.3c3.8-32.2-5.7-60.5-28.2-84.1
	c-6.3-6.6-8.1-13.2-5.9-20.9c3.1-10.5,14.1-16.6,24.6-13.5c3.2,0.9,6.1,2.7,8.5,5c24.5,24.7,38.3,54.7,41.2,89.2
	c0.2,2.7,0.4,5.5,0.5,8.2c0.1,1.2,0.1,2.5,0.2,3.7C398.1,332.9,350.2,390.4,282.1,403.5z"/>
</svg>
