<svg enable-background="new 0 0 193.9 193.9" version="1.1" viewBox="0 0 193.9 193.9" xmlns="http://www.w3.org/2000/svg">
 <style type="text/css">.st0{fill:#FFFFFF;}
	.st1{fill:#06B2B6;}
	.st2{fill:#13808A;}</style>
 <rect class="st0" x="29.6" y="83.6" width="139.3" height="85.3"/>
 <path class="st1" d="m0 61.9v124.2c0 4.7 3.1 7.8 7.8 7.8h178.3c4.7 0 7.8-3.1 7.8-7.8v-124.2h-193.9zm31.1 27.3h27.3v19.5h-27.3v-19.5zm34.7 0h27.3v19.5h-27.3v-19.5zm35 0h27.3v19.5h-27.3v-19.5zm35.1 0h27.3v19.5h-27.3v-19.5zm-104.8 27.2h27.3v19.5h-27.3v-19.5zm34.7 0h27.3v19.5h-27.3v-19.5zm35 0h27.3v19.5h-27.3v-19.5zm35.1 0h27.3v19.5h-27.3v-19.5zm-104.8 27.3h27.3v19.5h-27.3v-19.5zm34.7 0h27.3v19.5h-27.3v-19.5zm35 0h27.3v19.5h-27.3v-19.5zm35.1 0h27.3v19.5h-27.3v-19.5z"/>
 <path class="st2" d="m42.4 0c-2.3 0-3.9 1.6-3.9 3.9v23.4c0 2.3 1.6 3.9 3.9 3.9h7.8c2.3 0 3.9-1.6 3.9-3.9v-23.4c0-2.3-1.6-3.9-3.9-3.9h-7.8z"/>
 <path class="st2" d="m143.7 0c-2.3 0-3.9 1.6-3.9 3.9v23.4c0 2.3 1.6 3.9 3.9 3.9h7.8c2.3 0 3.9-1.6 3.9-3.9v-23.4c0-2.3-1.6-3.9-3.9-3.9h-7.8z"/>
 <path class="st2" d="m7.8 15.6c-4.7 0-7.8 3.1-7.8 7.8v31.1h193.9v-31.1c0-4.7-3.1-7.8-7.8-7.8h-23.4v11.7c0 6.6-5.1 11.7-11.7 11.7h-7.8c-6.6 0-11.7-5.1-11.7-11.7v-11.7h-69.6v11.7c0 6.6-5.1 11.7-11.7 11.7h-7.8c-6.6 0-11.7-5.1-11.7-11.7v-11.7h-22.9z"/>
</svg>
