<?xml version="1.0" encoding="utf-8"?>
<!-- Generator: Adobe Illustrator 21.1.0, SVG Export Plug-In . SVG Version: 6.00 Build 0)  -->
<svg version="1.1" id="Objects" xmlns="http://www.w3.org/2000/svg" xmlns:xlink="http://www.w3.org/1999/xlink" x="0px" y="0px"
	 viewBox="0 0 914.9 603.1" style="enable-background:new 0 0 914.9 603.1;" xml:space="preserve">
<style type="text/css">
	.st0{fill-rule:evenodd;clip-rule:evenodd;fill:#13808A;}
	.st1{opacity:0.75;fill-rule:evenodd;clip-rule:evenodd;fill:#13808A;}
	.st2{opacity:0.2;fill-rule:evenodd;clip-rule:evenodd;fill:none;stroke:url(#XMLID_2_);stroke-miterlimit:10;}
	.st3{fill-rule:evenodd;clip-rule:evenodd;fill:#06B2B6;}
	.st4{fill-rule:evenodd;clip-rule:evenodd;fill:#EAEAEA;}
	.st5{fill:#13808A;}
</style>
<g id="Screen_border">
	<path id="XMLID_25_" class="st0" d="M5.7,0h903.5c3.1,0,5.7,2.5,5.7,5.7v518.2c0,3.1-2.5,5.7-5.7,5.7H5.7c-3.1,0-5.7-2.5-5.7-5.7
		V5.7C0,2.5,2.5,0,5.7,0z"/>
	<path id="XMLID_24_" class="st1" d="M2.1,6c0,0-0.1-4,4.3-4s377.3,0,377.3,0l-2.7,9.2H16.9c0,0-4.6,0.6-4.6,4.9s0,494.5,0,494.5
		s0.8,3.9,3.3,3.9c2.6,0-13.7,0-13.7,0L2.1,6z"/>
</g>
<linearGradient id="XMLID_2_" gradientUnits="userSpaceOnUse" x1="10.3084" y1="262.8706" x2="904.615" y2="262.8706">
	<stop  offset="0" style="stop-color:#000000"/>
	<stop  offset="1" style="stop-color:#808080"/>
</linearGradient>
<path id="XMLID_104_" class="st2" d="M16.5,11.2h881.9c3.1,0,5.7,2.5,5.7,5.7v491.9c0,3.1-2.5,5.7-5.7,5.7H16.5
	c-3.1,0-5.7-2.5-5.7-5.7V16.9C10.8,13.8,13.4,11.2,16.5,11.2z"/>
<path id="XMLID_21_" class="st3" d="M16.5,11.2h881.9c3.1,0,5.7,2.5,5.7,5.7v491.9c0,3.1-2.5,5.7-5.7,5.7H16.5
	c-3.1,0-5.7-2.5-5.7-5.7V16.9C10.8,13.8,13.4,11.2,16.5,11.2z"/>
<path id="XMLID_111_" class="st4" d="M445.3,12.5H25.2c0,0-12.9-0.5-12.9,6.8c0,7.4,0,490.4,0,490.4s-3.7,4.7,14.7,4.7
	s235.9,0,235.9,0L445.3,12.5z"/>
<g id="Base_1_">
	<g id="XMLID_79_">
		<path id="XMLID_58_" class="st5" d="M233.2,602.7c0,0-3.4,0.7-3.4-1.5c0-2.2-0.2-4.6-0.2-4.6s-0.5-2.1,0.6-3.9
			c1-1.8,8.7-17.6,13.7-23.5c0,0,0.2-1.1,3-1.1c2.8,0,257.1,0,257.1,0h161.4c0,0,3.6-0.8,5.9,2.3l13.8,24.3c0,0,0.4,1.5,0.4,3.4
			c0,1.9,0,2.8,0,2.8s0,2.3-4.7,2.3C675.9,603.1,233.2,602.7,233.2,602.7z"/>
	</g>
	<g id="XMLID_36_">
		<path id="Reflection" class="st5" d="M491,573.9c-4.9,0-5.3,7.8-5.3,7.8v12.7l-58,0c0,0,0-10.1,0-14c0-4-4.2-6.4-4.2-6.4
			C460.9,582.4,491,573.9,491,573.9z"/>
		<path id="Base" class="st5" d="M423.5,573.6c0,0,4.2-2.5,4.2-6.4c0-4,0-31.4,0-31.4h58v30.1c0,0,0.4,7.8,5.3,7.8
			C491,573.6,462.3,586.6,423.5,573.6z"/>
	</g>
	<g id="XMLID_27_">
		<path id="XMLID_34_" class="st5" d="M407.4,529.3c0,0,8.5-0.5,13.7,3.7c5.2,4.2,9.9,8,9.9,8s2.8,2.9,6.6,2.9c3.9,0,37.5,0,37.5,0
			s3.5,0.6,6.8-2.1c3.3-2.8,13.6-11.1,23.5-12.5H407.4z"/>
		<path id="XMLID_33_" class="st5" d="M476,543.2c-0.4,0-0.7,0-0.8,0l-0.1,0h-37.6c-3.3,0-5.8-2.4-6-2.7l-0.1-0.1l-0.1-0.1
			c-0.5-0.4-4.9-4-9.8-8c-1.2-1-2.6-1.7-4.1-2.3l81.8,0c-7.6,2.8-14.8,8.4-17.9,11.1C479.3,542.9,477.1,543.2,476,543.2z"/>
		<path id="XMLID_32_" class="st5" d="M476.1,541.3c-0.2,0-0.3,0-0.3,0l-0.3,0h-37.8c-2.1,0-3.8-1.7-3.8-1.7l-0.2-0.2
			c0,0-2.9-2.3-5.9-4.8l0,0c0,0,7.5,5.6,10,5.6c2.5,0,36.3-0.1,39-0.1c2.8,0,10-5.4,10-5.4l0,0c-3,2-5.6,4.1-7.3,5.5
			C478.1,541.1,476.8,541.3,476.1,541.3z"/>
		<g id="XMLID_29_">
			<line id="XMLID_31_" class="st5" x1="437.6" y1="543.2" x2="475.2" y2="543.2"/>
			<path id="XMLID_30_" class="st5" d="M437.6,543.2c0,0,0.6,0,1.6,0c1,0,2.5,0,4.3,0c1.8,0,3.8,0,6,0c2.2,0,4.6,0,6.9,0
				c2.4,0,4.7,0,6.9,0c2.2,0,4.3,0,6,0c3.5,0,5.9,0.1,5.9,0.1v0.2c0,0-2.4,0-5.9,0.1c-1.8,0-3.8,0-6,0c-2.2,0-4.6,0-6.9,0
				c-2.4,0-4.7,0-6.9,0c-2.2,0-4.3,0-6,0c-1.8,0-3.2,0-4.3,0c-1,0-1.6,0-1.6,0V543.2z"/>
		</g>
		<ellipse id="XMLID_28_" class="st5" cx="448.8" cy="539.1" rx="13.7" ry="1.2"/>
	</g>
</g>
</svg>
