<?xml version="1.0" encoding="utf-8"?>
<!-- Generator: Adobe Illustrator 21.1.0, SVG Export Plug-In . SVG Version: 6.00 Build 0)  -->
<svg version="1.1" id="_x2014_ÎÓÈ_x5F_1" xmlns="http://www.w3.org/2000/svg" xmlns:xlink="http://www.w3.org/1999/xlink"
	 x="0px" y="0px" viewBox="0 0 65.6 55.3" style="enable-background:new 0 0 65.6 55.3;" xml:space="preserve">
<style type="text/css">
	.st0{fill:#06B2B6;}
	.st1{fill:#FFFFFF;}
</style>
<path class="st0" d="M58.6,46.8H38.9l-23.7,8.5l4-8.5H7c-3.8,0-7-3.1-7-7V7c0-3.8,3.1-7,7-7h51.6c3.8,0,7,3.1,7,7v32.9
	C65.6,43.7,62.4,46.8,58.6,46.8z"/>
<polygon class="st1" points="11.3,12.2 11.3,10.1 54.1,10.1 54.1,12.2 11.3,12.2 "/>
<polygon class="st1" points="11.3,17.7 11.3,15.6 54.1,15.6 54.1,17.7 11.3,17.7 "/>
<polygon class="st1" points="11.3,23 11.3,21 54.1,21 54.1,23 11.3,23 "/>
<polygon class="st1" points="11.3,28.6 11.3,26.6 54.1,26.6 54.1,28.6 11.3,28.6 "/>
<polygon class="st1" points="11.3,34.6 11.3,32.6 39,32.6 39,34.6 11.3,34.6 "/>
</svg>
