<?xml version="1.0" encoding="utf-8"?>
<!-- Generator: Adobe Illustrator 21.1.0, SVG Export Plug-In . SVG Version: 6.00 Build 0)  -->
<svg version="1.1" id="Layer_1" xmlns="http://www.w3.org/2000/svg" xmlns:xlink="http://www.w3.org/1999/xlink" x="0px" y="0px"
	 viewBox="0 0 74.9 58" style="enable-background:new 0 0 74.9 58;" xml:space="preserve">
<style type="text/css">
	.st0{fill:#13808A;}
	.st1{fill:#06B2B6;}
	.st2{fill:#FFFFFF;stroke:#FFFFFF;stroke-miterlimit:10;}
</style>
<path class="st0" d="M42,29c0,4.8-3.4,8.9-8,9.8V19.2C38.6,20.1,42,24.2,42,29z"/>
<rect y="14" class="st1" width="11" height="30"/>
<polygon class="st1" points="13,44.7 32,58 32,0 13,13.3 "/>
<path class="st2" d="M50.9,23.7c-0.3,0.3-0.3,0.9,0,1.2c2.3,2.3,2.3,6,0,8.3c-0.3,0.3-0.3,0.9,0,1.2c0.2,0.2,0.4,0.2,0.6,0.2
	s0.4-0.1,0.6-0.2c2.9-2.9,2.9-7.7,0-10.7C51.7,23.3,51.2,23.3,50.9,23.7z"/>
<path class="st2" d="M58,16.5c-0.3,0.3-0.3,0.9,0,1.2c6.2,6.2,6.2,16.3,0,22.5c-0.3,0.3-0.3,0.9,0,1.2c0.2,0.2,0.4,0.2,0.6,0.2
	s0.4-0.1,0.6-0.2c6.9-6.9,6.9-18,0-24.9C58.9,16.2,58.3,16.2,58,16.5z"/>
<path class="st2" d="M66.3,9.4c-0.3-0.3-0.9-0.3-1.2,0c-0.3,0.3-0.3,0.9,0,1.2c4.9,4.9,7.6,11.4,7.6,18.4S70,42.5,65.1,47.4
	c-0.3,0.3-0.3,0.9,0,1.2c0.2,0.2,0.4,0.2,0.6,0.2c0.2,0,0.4-0.1,0.6-0.2c5.2-5.2,8.1-12.2,8.1-19.6C74.4,21.6,71.5,14.7,66.3,9.4z"
	/>
</svg>
