<?xml version="1.0" encoding="utf-8"?>
<!-- Generator: Adobe Illustrator 21.1.0, SVG Export Plug-In . SVG Version: 6.00 Build 0)  -->
<svg version="1.1" id="_x2014_ÎÓÈ_x5F_1" xmlns="http://www.w3.org/2000/svg" xmlns:xlink="http://www.w3.org/1999/xlink"
	 x="0px" y="0px" viewBox="0 0 56.7 73" style="enable-background:new 0 0 56.7 73;" xml:space="preserve">
<style type="text/css">
	.st0{fill:#06B2B6;}
	.st1{fill:#FFFFFF;}
</style>
<path class="st0" d="M43,12.2V0.8l13,13H44.6C43.7,13.8,43,13.1,43,12.2z M56.7,15.4v55.1c0,1.3-1.1,2.4-2.4,2.4H2.4
	C1.1,73,0,71.9,0,70.5V2.4C0,1.1,1.1,0,2.4,0h38.9v12.2c0,1.8,1.5,3.2,3.2,3.2H56.7z"/>
<polygon class="st1" points="7.6,26.4 7.6,24.3 50.3,24.3 50.3,26.4 7.6,26.4 "/>
<polygon class="st1" points="7.6,31.9 7.6,29.9 50.3,29.9 50.3,31.9 7.6,31.9 "/>
<polygon class="st1" points="7.6,37.2 7.6,35.2 50.3,35.2 50.3,37.2 7.6,37.2 "/>
<polygon class="st1" points="7.6,42.8 7.6,40.8 50.3,40.8 50.3,42.8 7.6,42.8 "/>
<polygon class="st1" points="7.6,48.8 7.6,46.8 35.2,46.8 35.2,48.8 7.6,48.8 "/>
</svg>
