<?xml version="1.0" encoding="utf-8"?>
<!-- Generator: Adobe Illustrator 21.1.0, SVG Export Plug-In . SVG Version: 6.00 Build 0)  -->
<svg version="1.1" id="_x2014_ÎÓÈ_x5F_1" xmlns="http://www.w3.org/2000/svg" xmlns:xlink="http://www.w3.org/1999/xlink"
	 x="0px" y="0px" viewBox="0 0 903.8 841.4" style="enable-background:new 0 0 903.8 841.4;" xml:space="preserve">
<style type="text/css">
	.st0{fill:#06B2B6;}
</style>
<path class="st0" d="M423.6,352.7C386,415.9,350,477.1,313.2,537.8c-9.4,15.6-14.1,28.3-6.6,48.1c20.8,54.8-8.6,108-63.8,122.5
	c-52.1,13.6-102.8-20.6-113.1-76.3c-9.2-49.3,29.1-97.7,83.6-105.4c4.6-0.7,9.2-0.7,16.9-1.3l82.8-138.8
	c-52.1-51.8-83-112.3-76.2-187.2c4.8-53,25.7-98.8,63.8-136.3c73-71.9,184.3-83.5,270.2-28.4c82.5,53,120.3,156.2,88.1,244.6
	c-24.3-6.6-48.7-13.2-75.6-20.5c10.1-49.1,2.6-93.2-30.5-131c-21.9-25-50-38-81.9-42.9c-64-9.7-126.9,31.5-145.6,94.3
	C303.9,250.5,336,308.8,423.6,352.7L423.6,352.7z"/>
<path class="st0" d="M530.9,277.9c26.5,46.7,53.4,94.2,80,141.2c134.7-41.7,236.3,32.9,272.7,112.7c44,96.4,13.9,210.7-72.5,270.2
	c-88.7,61.1-200.9,50.6-279.5-27.8c20-16.8,40.2-33.6,61.7-51.6c77.6,50.3,145.6,47.9,196-11.6c43-50.8,42.1-126.5-2.2-176.3
	c-51.1-57.4-119.4-59.1-202.1-4.1c-34.3-60.8-69.2-121.2-102.4-182.5c-11.2-20.7-23.6-32.6-48.8-37c-42.1-7.3-69.3-43.5-71-84
	c-1.6-40.1,22-76.3,58.9-90.5c36.6-14,79.5-2.7,104.1,28.4c20.1,25.4,26.5,54,15.9,85.3C538.9,259.1,535.1,267.6,530.9,277.9
	L530.9,277.9z"/>
<path class="st0" d="M594.2,659.9H432.1c-15.5,63.9-49.1,115.6-107,148.4c-45,25.5-93.4,34.2-145,25.8C85.1,818.8,7.4,733.3,0.5,637
	c-7.7-109.1,67.2-206,167.2-227.8c6.9,25.1,13.9,50.4,20.8,75.3C96.8,531.3,65.1,590.3,90.7,664c22.6,64.9,86.8,100.4,156.4,86.7
	c71.2-14,107-73.2,102.6-168.1c67.5,0,135-0.7,202.4,0.3c26.3,0.4,46.7-2.3,66.5-25.5c32.7-38.2,92.8-34.8,128,1.3
	c36,36.9,34.2,96.2-3.8,131.6c-36.7,34.1-94.7,32.3-129.1-4.5C606.8,678.2,601.2,669.2,594.2,659.9L594.2,659.9z"/>
</svg>
